%TF.GenerationSoftware,KiCad,Pcbnew,7.0.10*%
%TF.CreationDate,2025-06-24T14:49:32+02:00*%
%TF.ProjectId,BQ2xxxx,42513278-7878-4782-9e6b-696361645f70,rev?*%
%TF.SameCoordinates,Original*%
%TF.FileFunction,Drillmap*%
%TF.FilePolarity,Positive*%
%FSLAX45Y45*%
G04 Gerber Fmt 4.5, Leading zero omitted, Abs format (unit mm)*
G04 Created by KiCad (PCBNEW 7.0.10) date 2025-06-24 14:49:32*
%MOMM*%
%LPD*%
G01*
G04 APERTURE LIST*
%ADD10C,0.100000*%
%ADD11C,0.200000*%
%ADD12C,0.134000*%
%ADD13C,0.140000*%
%ADD14C,0.183000*%
G04 APERTURE END LIST*
D10*
X14210000Y-15910000D02*
X13760000Y-15900000D01*
X16570000Y-15920000D02*
X14210000Y-15910000D01*
X16750000Y-15770000D02*
X16570000Y-15920000D01*
X20940000Y-11660000D02*
X16750000Y-15770000D01*
X20700000Y-11420000D02*
X20940000Y-11660000D01*
X19980000Y-10710000D02*
X20700000Y-11420000D01*
X19960000Y-8450000D02*
X19980000Y-10710000D01*
X11250000Y-8400000D02*
X19960000Y-8450000D01*
X8820000Y-10950000D02*
X11250000Y-8400000D01*
X13760000Y-15900000D02*
X8820000Y-10950000D01*
D11*
D10*
X11351844Y-12980000D02*
X11451844Y-13080000D01*
X11451844Y-12980000D02*
X11351844Y-13080000D01*
X11531449Y-13159605D02*
X11631449Y-13259605D01*
X11631449Y-13159605D02*
X11531449Y-13259605D01*
X11711054Y-13339210D02*
X11811054Y-13439210D01*
X11811054Y-13339210D02*
X11711054Y-13439210D01*
X11890659Y-13518815D02*
X11990659Y-13618815D01*
X11990659Y-13518815D02*
X11890659Y-13618815D01*
X12070264Y-13698420D02*
X12170264Y-13798420D01*
X12170264Y-13698420D02*
X12070264Y-13798420D01*
X12249869Y-13878026D02*
X12349869Y-13978026D01*
X12349869Y-13878026D02*
X12249869Y-13978026D01*
X12429474Y-11902369D02*
X12529474Y-12002369D01*
X12529474Y-11902369D02*
X12429474Y-12002369D01*
X12609079Y-12081974D02*
X12709079Y-12181974D01*
X12709079Y-12081974D02*
X12609079Y-12181974D01*
X12788685Y-12261579D02*
X12888685Y-12361579D01*
X12888685Y-12261579D02*
X12788685Y-12361579D01*
X12968290Y-12441185D02*
X13068290Y-12541185D01*
X13068290Y-12441185D02*
X12968290Y-12541185D01*
X13147895Y-12620790D02*
X13247895Y-12720790D01*
X13247895Y-12620790D02*
X13147895Y-12720790D01*
X13327500Y-12800395D02*
X13427500Y-12900395D01*
X13427500Y-12800395D02*
X13327500Y-12900395D01*
X16737723Y-11941304D02*
X16837723Y-12041304D01*
X16837723Y-11941304D02*
X16737723Y-12041304D01*
X16777500Y-12870000D02*
X16877500Y-12970000D01*
X16877500Y-12870000D02*
X16777500Y-12970000D01*
X16917328Y-11761699D02*
X17017328Y-11861699D01*
X17017328Y-11761699D02*
X16917328Y-11861699D01*
X16957105Y-12690395D02*
X17057105Y-12790395D01*
X17057105Y-12690395D02*
X16957105Y-12790395D01*
X17096933Y-11582094D02*
X17196933Y-11682094D01*
X17196933Y-11582094D02*
X17096933Y-11682094D01*
X17136710Y-12510790D02*
X17236710Y-12610790D01*
X17236710Y-12510790D02*
X17136710Y-12610790D01*
X17276538Y-11402489D02*
X17376538Y-11502489D01*
X17376538Y-11402489D02*
X17276538Y-11502489D01*
X17316315Y-12331185D02*
X17416315Y-12431185D01*
X17416315Y-12331185D02*
X17316315Y-12431185D01*
X17456143Y-11222884D02*
X17556143Y-11322884D01*
X17556143Y-11222884D02*
X17456143Y-11322884D01*
X17495921Y-12151579D02*
X17595921Y-12251579D01*
X17595921Y-12151579D02*
X17495921Y-12251579D01*
X17675526Y-11971974D02*
X17775526Y-12071974D01*
X17775526Y-11971974D02*
X17675526Y-12071974D01*
X17855131Y-13947631D02*
X17955131Y-14047631D01*
X17955131Y-13947631D02*
X17855131Y-14047631D01*
X18034736Y-13768026D02*
X18134736Y-13868026D01*
X18134736Y-13768026D02*
X18034736Y-13868026D01*
X18214341Y-13588420D02*
X18314341Y-13688420D01*
X18314341Y-13588420D02*
X18214341Y-13688420D01*
X18393946Y-13408815D02*
X18493946Y-13508815D01*
X18493946Y-13408815D02*
X18393946Y-13508815D01*
X18573551Y-13229210D02*
X18673551Y-13329210D01*
X18673551Y-13229210D02*
X18573551Y-13329210D01*
X18753156Y-13049605D02*
X18853156Y-13149605D01*
X18853156Y-13049605D02*
X18753156Y-13149605D01*
D12*
X14692500Y-15270200D02*
G75*
G03*
X14558500Y-15270200I-67000J0D01*
G01*
X14558500Y-15270200D02*
G75*
G03*
X14692500Y-15270200I67000J0D01*
G01*
X14692500Y-15650200D02*
G75*
G03*
X14558500Y-15650200I-67000J0D01*
G01*
X14558500Y-15650200D02*
G75*
G03*
X14692500Y-15650200I67000J0D01*
G01*
X15556500Y-15270200D02*
G75*
G03*
X15422500Y-15270200I-67000J0D01*
G01*
X15422500Y-15270200D02*
G75*
G03*
X15556500Y-15270200I67000J0D01*
G01*
X15556500Y-15650200D02*
G75*
G03*
X15422500Y-15650200I-67000J0D01*
G01*
X15422500Y-15650200D02*
G75*
G03*
X15556500Y-15650200I67000J0D01*
G01*
X19396200Y-9218000D02*
G75*
G03*
X19262200Y-9218000I-67000J0D01*
G01*
X19262200Y-9218000D02*
G75*
G03*
X19396200Y-9218000I67000J0D01*
G01*
X19396200Y-10082000D02*
G75*
G03*
X19262200Y-10082000I-67000J0D01*
G01*
X19262200Y-10082000D02*
G75*
G03*
X19396200Y-10082000I67000J0D01*
G01*
X19776200Y-9218000D02*
G75*
G03*
X19642200Y-9218000I-67000J0D01*
G01*
X19642200Y-9218000D02*
G75*
G03*
X19776200Y-9218000I67000J0D01*
G01*
X19776200Y-10082000D02*
G75*
G03*
X19642200Y-10082000I-67000J0D01*
G01*
X19642200Y-10082000D02*
G75*
G03*
X19776200Y-10082000I67000J0D01*
G01*
D13*
X18226000Y-9580000D02*
X18226000Y-9720000D01*
X18156000Y-9650000D02*
X18296000Y-9650000D01*
X18531000Y-9135500D02*
X18531000Y-9275500D01*
X18461000Y-9205500D02*
X18601000Y-9205500D01*
X18531000Y-10024500D02*
X18531000Y-10164500D01*
X18461000Y-10094500D02*
X18601000Y-10094500D01*
D14*
X11954701Y-9714701D02*
X11954701Y-9585299D01*
X11825299Y-9585299D01*
X11825299Y-9714701D01*
X11954701Y-9714701D01*
X12716701Y-9460701D02*
X12716701Y-9331299D01*
X12587299Y-9331299D01*
X12587299Y-9460701D01*
X12716701Y-9460701D01*
X12716701Y-9968701D02*
X12716701Y-9839299D01*
X12587299Y-9839299D01*
X12587299Y-9968701D01*
X12716701Y-9968701D01*
D11*
X9075777Y-16236484D02*
X9075777Y-16036484D01*
X9075777Y-16036484D02*
X9123396Y-16036484D01*
X9123396Y-16036484D02*
X9151967Y-16046008D01*
X9151967Y-16046008D02*
X9171015Y-16065055D01*
X9171015Y-16065055D02*
X9180539Y-16084103D01*
X9180539Y-16084103D02*
X9190063Y-16122198D01*
X9190063Y-16122198D02*
X9190063Y-16150769D01*
X9190063Y-16150769D02*
X9180539Y-16188865D01*
X9180539Y-16188865D02*
X9171015Y-16207912D01*
X9171015Y-16207912D02*
X9151967Y-16226960D01*
X9151967Y-16226960D02*
X9123396Y-16236484D01*
X9123396Y-16236484D02*
X9075777Y-16236484D01*
X9275777Y-16236484D02*
X9275777Y-16103150D01*
X9275777Y-16141246D02*
X9285301Y-16122198D01*
X9285301Y-16122198D02*
X9294824Y-16112674D01*
X9294824Y-16112674D02*
X9313872Y-16103150D01*
X9313872Y-16103150D02*
X9332920Y-16103150D01*
X9399586Y-16236484D02*
X9399586Y-16103150D01*
X9399586Y-16036484D02*
X9390063Y-16046008D01*
X9390063Y-16046008D02*
X9399586Y-16055531D01*
X9399586Y-16055531D02*
X9409110Y-16046008D01*
X9409110Y-16046008D02*
X9399586Y-16036484D01*
X9399586Y-16036484D02*
X9399586Y-16055531D01*
X9523396Y-16236484D02*
X9504348Y-16226960D01*
X9504348Y-16226960D02*
X9494824Y-16207912D01*
X9494824Y-16207912D02*
X9494824Y-16036484D01*
X9628158Y-16236484D02*
X9609110Y-16226960D01*
X9609110Y-16226960D02*
X9599586Y-16207912D01*
X9599586Y-16207912D02*
X9599586Y-16036484D01*
X9856729Y-16236484D02*
X9856729Y-16036484D01*
X9856729Y-16036484D02*
X9923396Y-16179341D01*
X9923396Y-16179341D02*
X9990063Y-16036484D01*
X9990063Y-16036484D02*
X9990063Y-16236484D01*
X10171015Y-16236484D02*
X10171015Y-16131722D01*
X10171015Y-16131722D02*
X10161491Y-16112674D01*
X10161491Y-16112674D02*
X10142444Y-16103150D01*
X10142444Y-16103150D02*
X10104348Y-16103150D01*
X10104348Y-16103150D02*
X10085301Y-16112674D01*
X10171015Y-16226960D02*
X10151967Y-16236484D01*
X10151967Y-16236484D02*
X10104348Y-16236484D01*
X10104348Y-16236484D02*
X10085301Y-16226960D01*
X10085301Y-16226960D02*
X10075777Y-16207912D01*
X10075777Y-16207912D02*
X10075777Y-16188865D01*
X10075777Y-16188865D02*
X10085301Y-16169817D01*
X10085301Y-16169817D02*
X10104348Y-16160293D01*
X10104348Y-16160293D02*
X10151967Y-16160293D01*
X10151967Y-16160293D02*
X10171015Y-16150769D01*
X10266253Y-16103150D02*
X10266253Y-16303150D01*
X10266253Y-16112674D02*
X10285301Y-16103150D01*
X10285301Y-16103150D02*
X10323396Y-16103150D01*
X10323396Y-16103150D02*
X10342444Y-16112674D01*
X10342444Y-16112674D02*
X10351967Y-16122198D01*
X10351967Y-16122198D02*
X10361491Y-16141246D01*
X10361491Y-16141246D02*
X10361491Y-16198388D01*
X10361491Y-16198388D02*
X10351967Y-16217436D01*
X10351967Y-16217436D02*
X10342444Y-16226960D01*
X10342444Y-16226960D02*
X10323396Y-16236484D01*
X10323396Y-16236484D02*
X10285301Y-16236484D01*
X10285301Y-16236484D02*
X10266253Y-16226960D01*
X10447205Y-16217436D02*
X10456729Y-16226960D01*
X10456729Y-16226960D02*
X10447205Y-16236484D01*
X10447205Y-16236484D02*
X10437682Y-16226960D01*
X10437682Y-16226960D02*
X10447205Y-16217436D01*
X10447205Y-16217436D02*
X10447205Y-16236484D01*
X10447205Y-16112674D02*
X10456729Y-16122198D01*
X10456729Y-16122198D02*
X10447205Y-16131722D01*
X10447205Y-16131722D02*
X10437682Y-16122198D01*
X10437682Y-16122198D02*
X10447205Y-16112674D01*
X10447205Y-16112674D02*
X10447205Y-16131722D01*
D10*
X8715000Y-16515000D02*
X8815000Y-16615000D01*
X8815000Y-16515000D02*
X8715000Y-16615000D01*
D11*
X9180539Y-16656484D02*
X9066253Y-16656484D01*
X9123396Y-16656484D02*
X9123396Y-16456484D01*
X9123396Y-16456484D02*
X9104348Y-16485055D01*
X9104348Y-16485055D02*
X9085301Y-16504103D01*
X9085301Y-16504103D02*
X9066253Y-16513627D01*
X9266253Y-16637436D02*
X9275777Y-16646960D01*
X9275777Y-16646960D02*
X9266253Y-16656484D01*
X9266253Y-16656484D02*
X9256729Y-16646960D01*
X9256729Y-16646960D02*
X9266253Y-16637436D01*
X9266253Y-16637436D02*
X9266253Y-16656484D01*
X9399586Y-16456484D02*
X9418634Y-16456484D01*
X9418634Y-16456484D02*
X9437682Y-16466008D01*
X9437682Y-16466008D02*
X9447205Y-16475531D01*
X9447205Y-16475531D02*
X9456729Y-16494579D01*
X9456729Y-16494579D02*
X9466253Y-16532674D01*
X9466253Y-16532674D02*
X9466253Y-16580293D01*
X9466253Y-16580293D02*
X9456729Y-16618388D01*
X9456729Y-16618388D02*
X9447205Y-16637436D01*
X9447205Y-16637436D02*
X9437682Y-16646960D01*
X9437682Y-16646960D02*
X9418634Y-16656484D01*
X9418634Y-16656484D02*
X9399586Y-16656484D01*
X9399586Y-16656484D02*
X9380539Y-16646960D01*
X9380539Y-16646960D02*
X9371015Y-16637436D01*
X9371015Y-16637436D02*
X9361491Y-16618388D01*
X9361491Y-16618388D02*
X9351967Y-16580293D01*
X9351967Y-16580293D02*
X9351967Y-16532674D01*
X9351967Y-16532674D02*
X9361491Y-16494579D01*
X9361491Y-16494579D02*
X9371015Y-16475531D01*
X9371015Y-16475531D02*
X9380539Y-16466008D01*
X9380539Y-16466008D02*
X9399586Y-16456484D01*
X9590063Y-16456484D02*
X9609110Y-16456484D01*
X9609110Y-16456484D02*
X9628158Y-16466008D01*
X9628158Y-16466008D02*
X9637682Y-16475531D01*
X9637682Y-16475531D02*
X9647205Y-16494579D01*
X9647205Y-16494579D02*
X9656729Y-16532674D01*
X9656729Y-16532674D02*
X9656729Y-16580293D01*
X9656729Y-16580293D02*
X9647205Y-16618388D01*
X9647205Y-16618388D02*
X9637682Y-16637436D01*
X9637682Y-16637436D02*
X9628158Y-16646960D01*
X9628158Y-16646960D02*
X9609110Y-16656484D01*
X9609110Y-16656484D02*
X9590063Y-16656484D01*
X9590063Y-16656484D02*
X9571015Y-16646960D01*
X9571015Y-16646960D02*
X9561491Y-16637436D01*
X9561491Y-16637436D02*
X9551967Y-16618388D01*
X9551967Y-16618388D02*
X9542444Y-16580293D01*
X9542444Y-16580293D02*
X9542444Y-16532674D01*
X9542444Y-16532674D02*
X9551967Y-16494579D01*
X9551967Y-16494579D02*
X9561491Y-16475531D01*
X9561491Y-16475531D02*
X9571015Y-16466008D01*
X9571015Y-16466008D02*
X9590063Y-16456484D01*
X9780539Y-16456484D02*
X9799586Y-16456484D01*
X9799586Y-16456484D02*
X9818634Y-16466008D01*
X9818634Y-16466008D02*
X9828158Y-16475531D01*
X9828158Y-16475531D02*
X9837682Y-16494579D01*
X9837682Y-16494579D02*
X9847205Y-16532674D01*
X9847205Y-16532674D02*
X9847205Y-16580293D01*
X9847205Y-16580293D02*
X9837682Y-16618388D01*
X9837682Y-16618388D02*
X9828158Y-16637436D01*
X9828158Y-16637436D02*
X9818634Y-16646960D01*
X9818634Y-16646960D02*
X9799586Y-16656484D01*
X9799586Y-16656484D02*
X9780539Y-16656484D01*
X9780539Y-16656484D02*
X9761491Y-16646960D01*
X9761491Y-16646960D02*
X9751967Y-16637436D01*
X9751967Y-16637436D02*
X9742444Y-16618388D01*
X9742444Y-16618388D02*
X9732920Y-16580293D01*
X9732920Y-16580293D02*
X9732920Y-16532674D01*
X9732920Y-16532674D02*
X9742444Y-16494579D01*
X9742444Y-16494579D02*
X9751967Y-16475531D01*
X9751967Y-16475531D02*
X9761491Y-16466008D01*
X9761491Y-16466008D02*
X9780539Y-16456484D01*
X9932920Y-16656484D02*
X9932920Y-16523150D01*
X9932920Y-16542198D02*
X9942444Y-16532674D01*
X9942444Y-16532674D02*
X9961491Y-16523150D01*
X9961491Y-16523150D02*
X9990063Y-16523150D01*
X9990063Y-16523150D02*
X10009110Y-16532674D01*
X10009110Y-16532674D02*
X10018634Y-16551722D01*
X10018634Y-16551722D02*
X10018634Y-16656484D01*
X10018634Y-16551722D02*
X10028158Y-16532674D01*
X10028158Y-16532674D02*
X10047205Y-16523150D01*
X10047205Y-16523150D02*
X10075777Y-16523150D01*
X10075777Y-16523150D02*
X10094825Y-16532674D01*
X10094825Y-16532674D02*
X10104348Y-16551722D01*
X10104348Y-16551722D02*
X10104348Y-16656484D01*
X10199586Y-16656484D02*
X10199586Y-16523150D01*
X10199586Y-16542198D02*
X10209110Y-16532674D01*
X10209110Y-16532674D02*
X10228158Y-16523150D01*
X10228158Y-16523150D02*
X10256729Y-16523150D01*
X10256729Y-16523150D02*
X10275777Y-16532674D01*
X10275777Y-16532674D02*
X10285301Y-16551722D01*
X10285301Y-16551722D02*
X10285301Y-16656484D01*
X10285301Y-16551722D02*
X10294825Y-16532674D01*
X10294825Y-16532674D02*
X10313872Y-16523150D01*
X10313872Y-16523150D02*
X10342444Y-16523150D01*
X10342444Y-16523150D02*
X10361491Y-16532674D01*
X10361491Y-16532674D02*
X10371015Y-16551722D01*
X10371015Y-16551722D02*
X10371015Y-16656484D01*
X10761491Y-16446960D02*
X10590063Y-16704103D01*
X11018634Y-16456484D02*
X11037682Y-16456484D01*
X11037682Y-16456484D02*
X11056729Y-16466008D01*
X11056729Y-16466008D02*
X11066253Y-16475531D01*
X11066253Y-16475531D02*
X11075777Y-16494579D01*
X11075777Y-16494579D02*
X11085301Y-16532674D01*
X11085301Y-16532674D02*
X11085301Y-16580293D01*
X11085301Y-16580293D02*
X11075777Y-16618388D01*
X11075777Y-16618388D02*
X11066253Y-16637436D01*
X11066253Y-16637436D02*
X11056729Y-16646960D01*
X11056729Y-16646960D02*
X11037682Y-16656484D01*
X11037682Y-16656484D02*
X11018634Y-16656484D01*
X11018634Y-16656484D02*
X10999587Y-16646960D01*
X10999587Y-16646960D02*
X10990063Y-16637436D01*
X10990063Y-16637436D02*
X10980539Y-16618388D01*
X10980539Y-16618388D02*
X10971015Y-16580293D01*
X10971015Y-16580293D02*
X10971015Y-16532674D01*
X10971015Y-16532674D02*
X10980539Y-16494579D01*
X10980539Y-16494579D02*
X10990063Y-16475531D01*
X10990063Y-16475531D02*
X10999587Y-16466008D01*
X10999587Y-16466008D02*
X11018634Y-16456484D01*
X11171015Y-16637436D02*
X11180539Y-16646960D01*
X11180539Y-16646960D02*
X11171015Y-16656484D01*
X11171015Y-16656484D02*
X11161491Y-16646960D01*
X11161491Y-16646960D02*
X11171015Y-16637436D01*
X11171015Y-16637436D02*
X11171015Y-16656484D01*
X11304348Y-16456484D02*
X11323396Y-16456484D01*
X11323396Y-16456484D02*
X11342444Y-16466008D01*
X11342444Y-16466008D02*
X11351967Y-16475531D01*
X11351967Y-16475531D02*
X11361491Y-16494579D01*
X11361491Y-16494579D02*
X11371015Y-16532674D01*
X11371015Y-16532674D02*
X11371015Y-16580293D01*
X11371015Y-16580293D02*
X11361491Y-16618388D01*
X11361491Y-16618388D02*
X11351967Y-16637436D01*
X11351967Y-16637436D02*
X11342444Y-16646960D01*
X11342444Y-16646960D02*
X11323396Y-16656484D01*
X11323396Y-16656484D02*
X11304348Y-16656484D01*
X11304348Y-16656484D02*
X11285301Y-16646960D01*
X11285301Y-16646960D02*
X11275777Y-16637436D01*
X11275777Y-16637436D02*
X11266253Y-16618388D01*
X11266253Y-16618388D02*
X11256729Y-16580293D01*
X11256729Y-16580293D02*
X11256729Y-16532674D01*
X11256729Y-16532674D02*
X11266253Y-16494579D01*
X11266253Y-16494579D02*
X11275777Y-16475531D01*
X11275777Y-16475531D02*
X11285301Y-16466008D01*
X11285301Y-16466008D02*
X11304348Y-16456484D01*
X11437682Y-16456484D02*
X11561491Y-16456484D01*
X11561491Y-16456484D02*
X11494825Y-16532674D01*
X11494825Y-16532674D02*
X11523396Y-16532674D01*
X11523396Y-16532674D02*
X11542444Y-16542198D01*
X11542444Y-16542198D02*
X11551967Y-16551722D01*
X11551967Y-16551722D02*
X11561491Y-16570769D01*
X11561491Y-16570769D02*
X11561491Y-16618388D01*
X11561491Y-16618388D02*
X11551967Y-16637436D01*
X11551967Y-16637436D02*
X11542444Y-16646960D01*
X11542444Y-16646960D02*
X11523396Y-16656484D01*
X11523396Y-16656484D02*
X11466253Y-16656484D01*
X11466253Y-16656484D02*
X11447206Y-16646960D01*
X11447206Y-16646960D02*
X11437682Y-16637436D01*
X11656729Y-16656484D02*
X11694825Y-16656484D01*
X11694825Y-16656484D02*
X11713872Y-16646960D01*
X11713872Y-16646960D02*
X11723396Y-16637436D01*
X11723396Y-16637436D02*
X11742444Y-16608865D01*
X11742444Y-16608865D02*
X11751967Y-16570769D01*
X11751967Y-16570769D02*
X11751967Y-16494579D01*
X11751967Y-16494579D02*
X11742444Y-16475531D01*
X11742444Y-16475531D02*
X11732920Y-16466008D01*
X11732920Y-16466008D02*
X11713872Y-16456484D01*
X11713872Y-16456484D02*
X11675777Y-16456484D01*
X11675777Y-16456484D02*
X11656729Y-16466008D01*
X11656729Y-16466008D02*
X11647206Y-16475531D01*
X11647206Y-16475531D02*
X11637682Y-16494579D01*
X11637682Y-16494579D02*
X11637682Y-16542198D01*
X11637682Y-16542198D02*
X11647206Y-16561246D01*
X11647206Y-16561246D02*
X11656729Y-16570769D01*
X11656729Y-16570769D02*
X11675777Y-16580293D01*
X11675777Y-16580293D02*
X11713872Y-16580293D01*
X11713872Y-16580293D02*
X11732920Y-16570769D01*
X11732920Y-16570769D02*
X11742444Y-16561246D01*
X11742444Y-16561246D02*
X11751967Y-16542198D01*
X11923396Y-16523150D02*
X11923396Y-16656484D01*
X11875777Y-16446960D02*
X11828158Y-16589817D01*
X11828158Y-16589817D02*
X11951967Y-16589817D01*
X12018634Y-16456484D02*
X12018634Y-16494579D01*
X12094825Y-16456484D02*
X12094825Y-16494579D01*
X12390063Y-16732674D02*
X12380539Y-16723150D01*
X12380539Y-16723150D02*
X12361491Y-16694579D01*
X12361491Y-16694579D02*
X12351968Y-16675531D01*
X12351968Y-16675531D02*
X12342444Y-16646960D01*
X12342444Y-16646960D02*
X12332920Y-16599341D01*
X12332920Y-16599341D02*
X12332920Y-16561246D01*
X12332920Y-16561246D02*
X12342444Y-16513627D01*
X12342444Y-16513627D02*
X12351968Y-16485055D01*
X12351968Y-16485055D02*
X12361491Y-16466008D01*
X12361491Y-16466008D02*
X12380539Y-16437436D01*
X12380539Y-16437436D02*
X12390063Y-16427912D01*
X12456729Y-16475531D02*
X12466253Y-16466008D01*
X12466253Y-16466008D02*
X12485301Y-16456484D01*
X12485301Y-16456484D02*
X12532920Y-16456484D01*
X12532920Y-16456484D02*
X12551968Y-16466008D01*
X12551968Y-16466008D02*
X12561491Y-16475531D01*
X12561491Y-16475531D02*
X12571015Y-16494579D01*
X12571015Y-16494579D02*
X12571015Y-16513627D01*
X12571015Y-16513627D02*
X12561491Y-16542198D01*
X12561491Y-16542198D02*
X12447206Y-16656484D01*
X12447206Y-16656484D02*
X12571015Y-16656484D01*
X12666253Y-16656484D02*
X12704348Y-16656484D01*
X12704348Y-16656484D02*
X12723396Y-16646960D01*
X12723396Y-16646960D02*
X12732920Y-16637436D01*
X12732920Y-16637436D02*
X12751968Y-16608865D01*
X12751968Y-16608865D02*
X12761491Y-16570769D01*
X12761491Y-16570769D02*
X12761491Y-16494579D01*
X12761491Y-16494579D02*
X12751968Y-16475531D01*
X12751968Y-16475531D02*
X12742444Y-16466008D01*
X12742444Y-16466008D02*
X12723396Y-16456484D01*
X12723396Y-16456484D02*
X12685301Y-16456484D01*
X12685301Y-16456484D02*
X12666253Y-16466008D01*
X12666253Y-16466008D02*
X12656729Y-16475531D01*
X12656729Y-16475531D02*
X12647206Y-16494579D01*
X12647206Y-16494579D02*
X12647206Y-16542198D01*
X12647206Y-16542198D02*
X12656729Y-16561246D01*
X12656729Y-16561246D02*
X12666253Y-16570769D01*
X12666253Y-16570769D02*
X12685301Y-16580293D01*
X12685301Y-16580293D02*
X12723396Y-16580293D01*
X12723396Y-16580293D02*
X12742444Y-16570769D01*
X12742444Y-16570769D02*
X12751968Y-16561246D01*
X12751968Y-16561246D02*
X12761491Y-16542198D01*
X12999587Y-16656484D02*
X12999587Y-16456484D01*
X13085301Y-16656484D02*
X13085301Y-16551722D01*
X13085301Y-16551722D02*
X13075777Y-16532674D01*
X13075777Y-16532674D02*
X13056730Y-16523150D01*
X13056730Y-16523150D02*
X13028158Y-16523150D01*
X13028158Y-16523150D02*
X13009110Y-16532674D01*
X13009110Y-16532674D02*
X12999587Y-16542198D01*
X13209110Y-16656484D02*
X13190063Y-16646960D01*
X13190063Y-16646960D02*
X13180539Y-16637436D01*
X13180539Y-16637436D02*
X13171015Y-16618388D01*
X13171015Y-16618388D02*
X13171015Y-16561246D01*
X13171015Y-16561246D02*
X13180539Y-16542198D01*
X13180539Y-16542198D02*
X13190063Y-16532674D01*
X13190063Y-16532674D02*
X13209110Y-16523150D01*
X13209110Y-16523150D02*
X13237682Y-16523150D01*
X13237682Y-16523150D02*
X13256730Y-16532674D01*
X13256730Y-16532674D02*
X13266253Y-16542198D01*
X13266253Y-16542198D02*
X13275777Y-16561246D01*
X13275777Y-16561246D02*
X13275777Y-16618388D01*
X13275777Y-16618388D02*
X13266253Y-16637436D01*
X13266253Y-16637436D02*
X13256730Y-16646960D01*
X13256730Y-16646960D02*
X13237682Y-16656484D01*
X13237682Y-16656484D02*
X13209110Y-16656484D01*
X13390063Y-16656484D02*
X13371015Y-16646960D01*
X13371015Y-16646960D02*
X13361491Y-16627912D01*
X13361491Y-16627912D02*
X13361491Y-16456484D01*
X13542444Y-16646960D02*
X13523396Y-16656484D01*
X13523396Y-16656484D02*
X13485301Y-16656484D01*
X13485301Y-16656484D02*
X13466253Y-16646960D01*
X13466253Y-16646960D02*
X13456730Y-16627912D01*
X13456730Y-16627912D02*
X13456730Y-16551722D01*
X13456730Y-16551722D02*
X13466253Y-16532674D01*
X13466253Y-16532674D02*
X13485301Y-16523150D01*
X13485301Y-16523150D02*
X13523396Y-16523150D01*
X13523396Y-16523150D02*
X13542444Y-16532674D01*
X13542444Y-16532674D02*
X13551968Y-16551722D01*
X13551968Y-16551722D02*
X13551968Y-16570769D01*
X13551968Y-16570769D02*
X13456730Y-16589817D01*
X13628158Y-16646960D02*
X13647206Y-16656484D01*
X13647206Y-16656484D02*
X13685301Y-16656484D01*
X13685301Y-16656484D02*
X13704349Y-16646960D01*
X13704349Y-16646960D02*
X13713872Y-16627912D01*
X13713872Y-16627912D02*
X13713872Y-16618388D01*
X13713872Y-16618388D02*
X13704349Y-16599341D01*
X13704349Y-16599341D02*
X13685301Y-16589817D01*
X13685301Y-16589817D02*
X13656730Y-16589817D01*
X13656730Y-16589817D02*
X13637682Y-16580293D01*
X13637682Y-16580293D02*
X13628158Y-16561246D01*
X13628158Y-16561246D02*
X13628158Y-16551722D01*
X13628158Y-16551722D02*
X13637682Y-16532674D01*
X13637682Y-16532674D02*
X13656730Y-16523150D01*
X13656730Y-16523150D02*
X13685301Y-16523150D01*
X13685301Y-16523150D02*
X13704349Y-16532674D01*
X13780539Y-16732674D02*
X13790063Y-16723150D01*
X13790063Y-16723150D02*
X13809111Y-16694579D01*
X13809111Y-16694579D02*
X13818634Y-16675531D01*
X13818634Y-16675531D02*
X13828158Y-16646960D01*
X13828158Y-16646960D02*
X13837682Y-16599341D01*
X13837682Y-16599341D02*
X13837682Y-16561246D01*
X13837682Y-16561246D02*
X13828158Y-16513627D01*
X13828158Y-16513627D02*
X13818634Y-16485055D01*
X13818634Y-16485055D02*
X13809111Y-16466008D01*
X13809111Y-16466008D02*
X13790063Y-16437436D01*
X13790063Y-16437436D02*
X13780539Y-16427912D01*
D12*
X8815000Y-16829000D02*
G75*
G03*
X8681000Y-16829000I-67000J0D01*
G01*
X8681000Y-16829000D02*
G75*
G03*
X8815000Y-16829000I67000J0D01*
G01*
D11*
X9180539Y-16920484D02*
X9066253Y-16920484D01*
X9123396Y-16920484D02*
X9123396Y-16720484D01*
X9123396Y-16720484D02*
X9104348Y-16749055D01*
X9104348Y-16749055D02*
X9085301Y-16768103D01*
X9085301Y-16768103D02*
X9066253Y-16777627D01*
X9266253Y-16901436D02*
X9275777Y-16910960D01*
X9275777Y-16910960D02*
X9266253Y-16920484D01*
X9266253Y-16920484D02*
X9256729Y-16910960D01*
X9256729Y-16910960D02*
X9266253Y-16901436D01*
X9266253Y-16901436D02*
X9266253Y-16920484D01*
X9342444Y-16720484D02*
X9466253Y-16720484D01*
X9466253Y-16720484D02*
X9399586Y-16796674D01*
X9399586Y-16796674D02*
X9428158Y-16796674D01*
X9428158Y-16796674D02*
X9447205Y-16806198D01*
X9447205Y-16806198D02*
X9456729Y-16815722D01*
X9456729Y-16815722D02*
X9466253Y-16834770D01*
X9466253Y-16834770D02*
X9466253Y-16882389D01*
X9466253Y-16882389D02*
X9456729Y-16901436D01*
X9456729Y-16901436D02*
X9447205Y-16910960D01*
X9447205Y-16910960D02*
X9428158Y-16920484D01*
X9428158Y-16920484D02*
X9371015Y-16920484D01*
X9371015Y-16920484D02*
X9351967Y-16910960D01*
X9351967Y-16910960D02*
X9342444Y-16901436D01*
X9637682Y-16787150D02*
X9637682Y-16920484D01*
X9590063Y-16710960D02*
X9542444Y-16853817D01*
X9542444Y-16853817D02*
X9666253Y-16853817D01*
X9780539Y-16720484D02*
X9799586Y-16720484D01*
X9799586Y-16720484D02*
X9818634Y-16730008D01*
X9818634Y-16730008D02*
X9828158Y-16739531D01*
X9828158Y-16739531D02*
X9837682Y-16758579D01*
X9837682Y-16758579D02*
X9847205Y-16796674D01*
X9847205Y-16796674D02*
X9847205Y-16844293D01*
X9847205Y-16844293D02*
X9837682Y-16882389D01*
X9837682Y-16882389D02*
X9828158Y-16901436D01*
X9828158Y-16901436D02*
X9818634Y-16910960D01*
X9818634Y-16910960D02*
X9799586Y-16920484D01*
X9799586Y-16920484D02*
X9780539Y-16920484D01*
X9780539Y-16920484D02*
X9761491Y-16910960D01*
X9761491Y-16910960D02*
X9751967Y-16901436D01*
X9751967Y-16901436D02*
X9742444Y-16882389D01*
X9742444Y-16882389D02*
X9732920Y-16844293D01*
X9732920Y-16844293D02*
X9732920Y-16796674D01*
X9732920Y-16796674D02*
X9742444Y-16758579D01*
X9742444Y-16758579D02*
X9751967Y-16739531D01*
X9751967Y-16739531D02*
X9761491Y-16730008D01*
X9761491Y-16730008D02*
X9780539Y-16720484D01*
X9932920Y-16920484D02*
X9932920Y-16787150D01*
X9932920Y-16806198D02*
X9942444Y-16796674D01*
X9942444Y-16796674D02*
X9961491Y-16787150D01*
X9961491Y-16787150D02*
X9990063Y-16787150D01*
X9990063Y-16787150D02*
X10009110Y-16796674D01*
X10009110Y-16796674D02*
X10018634Y-16815722D01*
X10018634Y-16815722D02*
X10018634Y-16920484D01*
X10018634Y-16815722D02*
X10028158Y-16796674D01*
X10028158Y-16796674D02*
X10047205Y-16787150D01*
X10047205Y-16787150D02*
X10075777Y-16787150D01*
X10075777Y-16787150D02*
X10094825Y-16796674D01*
X10094825Y-16796674D02*
X10104348Y-16815722D01*
X10104348Y-16815722D02*
X10104348Y-16920484D01*
X10199586Y-16920484D02*
X10199586Y-16787150D01*
X10199586Y-16806198D02*
X10209110Y-16796674D01*
X10209110Y-16796674D02*
X10228158Y-16787150D01*
X10228158Y-16787150D02*
X10256729Y-16787150D01*
X10256729Y-16787150D02*
X10275777Y-16796674D01*
X10275777Y-16796674D02*
X10285301Y-16815722D01*
X10285301Y-16815722D02*
X10285301Y-16920484D01*
X10285301Y-16815722D02*
X10294825Y-16796674D01*
X10294825Y-16796674D02*
X10313872Y-16787150D01*
X10313872Y-16787150D02*
X10342444Y-16787150D01*
X10342444Y-16787150D02*
X10361491Y-16796674D01*
X10361491Y-16796674D02*
X10371015Y-16815722D01*
X10371015Y-16815722D02*
X10371015Y-16920484D01*
X10761491Y-16710960D02*
X10590063Y-16968103D01*
X11018634Y-16720484D02*
X11037682Y-16720484D01*
X11037682Y-16720484D02*
X11056729Y-16730008D01*
X11056729Y-16730008D02*
X11066253Y-16739531D01*
X11066253Y-16739531D02*
X11075777Y-16758579D01*
X11075777Y-16758579D02*
X11085301Y-16796674D01*
X11085301Y-16796674D02*
X11085301Y-16844293D01*
X11085301Y-16844293D02*
X11075777Y-16882389D01*
X11075777Y-16882389D02*
X11066253Y-16901436D01*
X11066253Y-16901436D02*
X11056729Y-16910960D01*
X11056729Y-16910960D02*
X11037682Y-16920484D01*
X11037682Y-16920484D02*
X11018634Y-16920484D01*
X11018634Y-16920484D02*
X10999587Y-16910960D01*
X10999587Y-16910960D02*
X10990063Y-16901436D01*
X10990063Y-16901436D02*
X10980539Y-16882389D01*
X10980539Y-16882389D02*
X10971015Y-16844293D01*
X10971015Y-16844293D02*
X10971015Y-16796674D01*
X10971015Y-16796674D02*
X10980539Y-16758579D01*
X10980539Y-16758579D02*
X10990063Y-16739531D01*
X10990063Y-16739531D02*
X10999587Y-16730008D01*
X10999587Y-16730008D02*
X11018634Y-16720484D01*
X11171015Y-16901436D02*
X11180539Y-16910960D01*
X11180539Y-16910960D02*
X11171015Y-16920484D01*
X11171015Y-16920484D02*
X11161491Y-16910960D01*
X11161491Y-16910960D02*
X11171015Y-16901436D01*
X11171015Y-16901436D02*
X11171015Y-16920484D01*
X11304348Y-16720484D02*
X11323396Y-16720484D01*
X11323396Y-16720484D02*
X11342444Y-16730008D01*
X11342444Y-16730008D02*
X11351967Y-16739531D01*
X11351967Y-16739531D02*
X11361491Y-16758579D01*
X11361491Y-16758579D02*
X11371015Y-16796674D01*
X11371015Y-16796674D02*
X11371015Y-16844293D01*
X11371015Y-16844293D02*
X11361491Y-16882389D01*
X11361491Y-16882389D02*
X11351967Y-16901436D01*
X11351967Y-16901436D02*
X11342444Y-16910960D01*
X11342444Y-16910960D02*
X11323396Y-16920484D01*
X11323396Y-16920484D02*
X11304348Y-16920484D01*
X11304348Y-16920484D02*
X11285301Y-16910960D01*
X11285301Y-16910960D02*
X11275777Y-16901436D01*
X11275777Y-16901436D02*
X11266253Y-16882389D01*
X11266253Y-16882389D02*
X11256729Y-16844293D01*
X11256729Y-16844293D02*
X11256729Y-16796674D01*
X11256729Y-16796674D02*
X11266253Y-16758579D01*
X11266253Y-16758579D02*
X11275777Y-16739531D01*
X11275777Y-16739531D02*
X11285301Y-16730008D01*
X11285301Y-16730008D02*
X11304348Y-16720484D01*
X11551967Y-16720484D02*
X11456729Y-16720484D01*
X11456729Y-16720484D02*
X11447206Y-16815722D01*
X11447206Y-16815722D02*
X11456729Y-16806198D01*
X11456729Y-16806198D02*
X11475777Y-16796674D01*
X11475777Y-16796674D02*
X11523396Y-16796674D01*
X11523396Y-16796674D02*
X11542444Y-16806198D01*
X11542444Y-16806198D02*
X11551967Y-16815722D01*
X11551967Y-16815722D02*
X11561491Y-16834770D01*
X11561491Y-16834770D02*
X11561491Y-16882389D01*
X11561491Y-16882389D02*
X11551967Y-16901436D01*
X11551967Y-16901436D02*
X11542444Y-16910960D01*
X11542444Y-16910960D02*
X11523396Y-16920484D01*
X11523396Y-16920484D02*
X11475777Y-16920484D01*
X11475777Y-16920484D02*
X11456729Y-16910960D01*
X11456729Y-16910960D02*
X11447206Y-16901436D01*
X11637682Y-16739531D02*
X11647206Y-16730008D01*
X11647206Y-16730008D02*
X11666253Y-16720484D01*
X11666253Y-16720484D02*
X11713872Y-16720484D01*
X11713872Y-16720484D02*
X11732920Y-16730008D01*
X11732920Y-16730008D02*
X11742444Y-16739531D01*
X11742444Y-16739531D02*
X11751967Y-16758579D01*
X11751967Y-16758579D02*
X11751967Y-16777627D01*
X11751967Y-16777627D02*
X11742444Y-16806198D01*
X11742444Y-16806198D02*
X11628158Y-16920484D01*
X11628158Y-16920484D02*
X11751967Y-16920484D01*
X11866253Y-16806198D02*
X11847206Y-16796674D01*
X11847206Y-16796674D02*
X11837682Y-16787150D01*
X11837682Y-16787150D02*
X11828158Y-16768103D01*
X11828158Y-16768103D02*
X11828158Y-16758579D01*
X11828158Y-16758579D02*
X11837682Y-16739531D01*
X11837682Y-16739531D02*
X11847206Y-16730008D01*
X11847206Y-16730008D02*
X11866253Y-16720484D01*
X11866253Y-16720484D02*
X11904348Y-16720484D01*
X11904348Y-16720484D02*
X11923396Y-16730008D01*
X11923396Y-16730008D02*
X11932920Y-16739531D01*
X11932920Y-16739531D02*
X11942444Y-16758579D01*
X11942444Y-16758579D02*
X11942444Y-16768103D01*
X11942444Y-16768103D02*
X11932920Y-16787150D01*
X11932920Y-16787150D02*
X11923396Y-16796674D01*
X11923396Y-16796674D02*
X11904348Y-16806198D01*
X11904348Y-16806198D02*
X11866253Y-16806198D01*
X11866253Y-16806198D02*
X11847206Y-16815722D01*
X11847206Y-16815722D02*
X11837682Y-16825246D01*
X11837682Y-16825246D02*
X11828158Y-16844293D01*
X11828158Y-16844293D02*
X11828158Y-16882389D01*
X11828158Y-16882389D02*
X11837682Y-16901436D01*
X11837682Y-16901436D02*
X11847206Y-16910960D01*
X11847206Y-16910960D02*
X11866253Y-16920484D01*
X11866253Y-16920484D02*
X11904348Y-16920484D01*
X11904348Y-16920484D02*
X11923396Y-16910960D01*
X11923396Y-16910960D02*
X11932920Y-16901436D01*
X11932920Y-16901436D02*
X11942444Y-16882389D01*
X11942444Y-16882389D02*
X11942444Y-16844293D01*
X11942444Y-16844293D02*
X11932920Y-16825246D01*
X11932920Y-16825246D02*
X11923396Y-16815722D01*
X11923396Y-16815722D02*
X11904348Y-16806198D01*
X12018634Y-16720484D02*
X12018634Y-16758579D01*
X12094825Y-16720484D02*
X12094825Y-16758579D01*
X12390063Y-16996674D02*
X12380539Y-16987150D01*
X12380539Y-16987150D02*
X12361491Y-16958579D01*
X12361491Y-16958579D02*
X12351968Y-16939531D01*
X12351968Y-16939531D02*
X12342444Y-16910960D01*
X12342444Y-16910960D02*
X12332920Y-16863341D01*
X12332920Y-16863341D02*
X12332920Y-16825246D01*
X12332920Y-16825246D02*
X12342444Y-16777627D01*
X12342444Y-16777627D02*
X12351968Y-16749055D01*
X12351968Y-16749055D02*
X12361491Y-16730008D01*
X12361491Y-16730008D02*
X12380539Y-16701436D01*
X12380539Y-16701436D02*
X12390063Y-16691912D01*
X12494825Y-16806198D02*
X12475777Y-16796674D01*
X12475777Y-16796674D02*
X12466253Y-16787150D01*
X12466253Y-16787150D02*
X12456729Y-16768103D01*
X12456729Y-16768103D02*
X12456729Y-16758579D01*
X12456729Y-16758579D02*
X12466253Y-16739531D01*
X12466253Y-16739531D02*
X12475777Y-16730008D01*
X12475777Y-16730008D02*
X12494825Y-16720484D01*
X12494825Y-16720484D02*
X12532920Y-16720484D01*
X12532920Y-16720484D02*
X12551968Y-16730008D01*
X12551968Y-16730008D02*
X12561491Y-16739531D01*
X12561491Y-16739531D02*
X12571015Y-16758579D01*
X12571015Y-16758579D02*
X12571015Y-16768103D01*
X12571015Y-16768103D02*
X12561491Y-16787150D01*
X12561491Y-16787150D02*
X12551968Y-16796674D01*
X12551968Y-16796674D02*
X12532920Y-16806198D01*
X12532920Y-16806198D02*
X12494825Y-16806198D01*
X12494825Y-16806198D02*
X12475777Y-16815722D01*
X12475777Y-16815722D02*
X12466253Y-16825246D01*
X12466253Y-16825246D02*
X12456729Y-16844293D01*
X12456729Y-16844293D02*
X12456729Y-16882389D01*
X12456729Y-16882389D02*
X12466253Y-16901436D01*
X12466253Y-16901436D02*
X12475777Y-16910960D01*
X12475777Y-16910960D02*
X12494825Y-16920484D01*
X12494825Y-16920484D02*
X12532920Y-16920484D01*
X12532920Y-16920484D02*
X12551968Y-16910960D01*
X12551968Y-16910960D02*
X12561491Y-16901436D01*
X12561491Y-16901436D02*
X12571015Y-16882389D01*
X12571015Y-16882389D02*
X12571015Y-16844293D01*
X12571015Y-16844293D02*
X12561491Y-16825246D01*
X12561491Y-16825246D02*
X12551968Y-16815722D01*
X12551968Y-16815722D02*
X12532920Y-16806198D01*
X12809110Y-16920484D02*
X12809110Y-16720484D01*
X12894825Y-16920484D02*
X12894825Y-16815722D01*
X12894825Y-16815722D02*
X12885301Y-16796674D01*
X12885301Y-16796674D02*
X12866253Y-16787150D01*
X12866253Y-16787150D02*
X12837682Y-16787150D01*
X12837682Y-16787150D02*
X12818634Y-16796674D01*
X12818634Y-16796674D02*
X12809110Y-16806198D01*
X13018634Y-16920484D02*
X12999587Y-16910960D01*
X12999587Y-16910960D02*
X12990063Y-16901436D01*
X12990063Y-16901436D02*
X12980539Y-16882389D01*
X12980539Y-16882389D02*
X12980539Y-16825246D01*
X12980539Y-16825246D02*
X12990063Y-16806198D01*
X12990063Y-16806198D02*
X12999587Y-16796674D01*
X12999587Y-16796674D02*
X13018634Y-16787150D01*
X13018634Y-16787150D02*
X13047206Y-16787150D01*
X13047206Y-16787150D02*
X13066253Y-16796674D01*
X13066253Y-16796674D02*
X13075777Y-16806198D01*
X13075777Y-16806198D02*
X13085301Y-16825246D01*
X13085301Y-16825246D02*
X13085301Y-16882389D01*
X13085301Y-16882389D02*
X13075777Y-16901436D01*
X13075777Y-16901436D02*
X13066253Y-16910960D01*
X13066253Y-16910960D02*
X13047206Y-16920484D01*
X13047206Y-16920484D02*
X13018634Y-16920484D01*
X13199587Y-16920484D02*
X13180539Y-16910960D01*
X13180539Y-16910960D02*
X13171015Y-16891912D01*
X13171015Y-16891912D02*
X13171015Y-16720484D01*
X13351968Y-16910960D02*
X13332920Y-16920484D01*
X13332920Y-16920484D02*
X13294825Y-16920484D01*
X13294825Y-16920484D02*
X13275777Y-16910960D01*
X13275777Y-16910960D02*
X13266253Y-16891912D01*
X13266253Y-16891912D02*
X13266253Y-16815722D01*
X13266253Y-16815722D02*
X13275777Y-16796674D01*
X13275777Y-16796674D02*
X13294825Y-16787150D01*
X13294825Y-16787150D02*
X13332920Y-16787150D01*
X13332920Y-16787150D02*
X13351968Y-16796674D01*
X13351968Y-16796674D02*
X13361491Y-16815722D01*
X13361491Y-16815722D02*
X13361491Y-16834770D01*
X13361491Y-16834770D02*
X13266253Y-16853817D01*
X13437682Y-16910960D02*
X13456730Y-16920484D01*
X13456730Y-16920484D02*
X13494825Y-16920484D01*
X13494825Y-16920484D02*
X13513872Y-16910960D01*
X13513872Y-16910960D02*
X13523396Y-16891912D01*
X13523396Y-16891912D02*
X13523396Y-16882389D01*
X13523396Y-16882389D02*
X13513872Y-16863341D01*
X13513872Y-16863341D02*
X13494825Y-16853817D01*
X13494825Y-16853817D02*
X13466253Y-16853817D01*
X13466253Y-16853817D02*
X13447206Y-16844293D01*
X13447206Y-16844293D02*
X13437682Y-16825246D01*
X13437682Y-16825246D02*
X13437682Y-16815722D01*
X13437682Y-16815722D02*
X13447206Y-16796674D01*
X13447206Y-16796674D02*
X13466253Y-16787150D01*
X13466253Y-16787150D02*
X13494825Y-16787150D01*
X13494825Y-16787150D02*
X13513872Y-16796674D01*
X13590063Y-16996674D02*
X13599587Y-16987150D01*
X13599587Y-16987150D02*
X13618634Y-16958579D01*
X13618634Y-16958579D02*
X13628158Y-16939531D01*
X13628158Y-16939531D02*
X13637682Y-16910960D01*
X13637682Y-16910960D02*
X13647206Y-16863341D01*
X13647206Y-16863341D02*
X13647206Y-16825246D01*
X13647206Y-16825246D02*
X13637682Y-16777627D01*
X13637682Y-16777627D02*
X13628158Y-16749055D01*
X13628158Y-16749055D02*
X13618634Y-16730008D01*
X13618634Y-16730008D02*
X13599587Y-16701436D01*
X13599587Y-16701436D02*
X13590063Y-16691912D01*
D13*
X8745000Y-17023000D02*
X8745000Y-17163000D01*
X8675000Y-17093000D02*
X8815000Y-17093000D01*
D11*
X9180539Y-17184484D02*
X9066253Y-17184484D01*
X9123396Y-17184484D02*
X9123396Y-16984484D01*
X9123396Y-16984484D02*
X9104348Y-17013055D01*
X9104348Y-17013055D02*
X9085301Y-17032103D01*
X9085301Y-17032103D02*
X9066253Y-17041627D01*
X9266253Y-17165436D02*
X9275777Y-17174960D01*
X9275777Y-17174960D02*
X9266253Y-17184484D01*
X9266253Y-17184484D02*
X9256729Y-17174960D01*
X9256729Y-17174960D02*
X9266253Y-17165436D01*
X9266253Y-17165436D02*
X9266253Y-17184484D01*
X9447205Y-17051150D02*
X9447205Y-17184484D01*
X9399586Y-16974960D02*
X9351967Y-17117817D01*
X9351967Y-17117817D02*
X9475777Y-17117817D01*
X9590063Y-16984484D02*
X9609110Y-16984484D01*
X9609110Y-16984484D02*
X9628158Y-16994008D01*
X9628158Y-16994008D02*
X9637682Y-17003531D01*
X9637682Y-17003531D02*
X9647205Y-17022579D01*
X9647205Y-17022579D02*
X9656729Y-17060674D01*
X9656729Y-17060674D02*
X9656729Y-17108293D01*
X9656729Y-17108293D02*
X9647205Y-17146389D01*
X9647205Y-17146389D02*
X9637682Y-17165436D01*
X9637682Y-17165436D02*
X9628158Y-17174960D01*
X9628158Y-17174960D02*
X9609110Y-17184484D01*
X9609110Y-17184484D02*
X9590063Y-17184484D01*
X9590063Y-17184484D02*
X9571015Y-17174960D01*
X9571015Y-17174960D02*
X9561491Y-17165436D01*
X9561491Y-17165436D02*
X9551967Y-17146389D01*
X9551967Y-17146389D02*
X9542444Y-17108293D01*
X9542444Y-17108293D02*
X9542444Y-17060674D01*
X9542444Y-17060674D02*
X9551967Y-17022579D01*
X9551967Y-17022579D02*
X9561491Y-17003531D01*
X9561491Y-17003531D02*
X9571015Y-16994008D01*
X9571015Y-16994008D02*
X9590063Y-16984484D01*
X9780539Y-16984484D02*
X9799586Y-16984484D01*
X9799586Y-16984484D02*
X9818634Y-16994008D01*
X9818634Y-16994008D02*
X9828158Y-17003531D01*
X9828158Y-17003531D02*
X9837682Y-17022579D01*
X9837682Y-17022579D02*
X9847205Y-17060674D01*
X9847205Y-17060674D02*
X9847205Y-17108293D01*
X9847205Y-17108293D02*
X9837682Y-17146389D01*
X9837682Y-17146389D02*
X9828158Y-17165436D01*
X9828158Y-17165436D02*
X9818634Y-17174960D01*
X9818634Y-17174960D02*
X9799586Y-17184484D01*
X9799586Y-17184484D02*
X9780539Y-17184484D01*
X9780539Y-17184484D02*
X9761491Y-17174960D01*
X9761491Y-17174960D02*
X9751967Y-17165436D01*
X9751967Y-17165436D02*
X9742444Y-17146389D01*
X9742444Y-17146389D02*
X9732920Y-17108293D01*
X9732920Y-17108293D02*
X9732920Y-17060674D01*
X9732920Y-17060674D02*
X9742444Y-17022579D01*
X9742444Y-17022579D02*
X9751967Y-17003531D01*
X9751967Y-17003531D02*
X9761491Y-16994008D01*
X9761491Y-16994008D02*
X9780539Y-16984484D01*
X9932920Y-17184484D02*
X9932920Y-17051150D01*
X9932920Y-17070198D02*
X9942444Y-17060674D01*
X9942444Y-17060674D02*
X9961491Y-17051150D01*
X9961491Y-17051150D02*
X9990063Y-17051150D01*
X9990063Y-17051150D02*
X10009110Y-17060674D01*
X10009110Y-17060674D02*
X10018634Y-17079722D01*
X10018634Y-17079722D02*
X10018634Y-17184484D01*
X10018634Y-17079722D02*
X10028158Y-17060674D01*
X10028158Y-17060674D02*
X10047205Y-17051150D01*
X10047205Y-17051150D02*
X10075777Y-17051150D01*
X10075777Y-17051150D02*
X10094825Y-17060674D01*
X10094825Y-17060674D02*
X10104348Y-17079722D01*
X10104348Y-17079722D02*
X10104348Y-17184484D01*
X10199586Y-17184484D02*
X10199586Y-17051150D01*
X10199586Y-17070198D02*
X10209110Y-17060674D01*
X10209110Y-17060674D02*
X10228158Y-17051150D01*
X10228158Y-17051150D02*
X10256729Y-17051150D01*
X10256729Y-17051150D02*
X10275777Y-17060674D01*
X10275777Y-17060674D02*
X10285301Y-17079722D01*
X10285301Y-17079722D02*
X10285301Y-17184484D01*
X10285301Y-17079722D02*
X10294825Y-17060674D01*
X10294825Y-17060674D02*
X10313872Y-17051150D01*
X10313872Y-17051150D02*
X10342444Y-17051150D01*
X10342444Y-17051150D02*
X10361491Y-17060674D01*
X10361491Y-17060674D02*
X10371015Y-17079722D01*
X10371015Y-17079722D02*
X10371015Y-17184484D01*
X10761491Y-16974960D02*
X10590063Y-17232103D01*
X11018634Y-16984484D02*
X11037682Y-16984484D01*
X11037682Y-16984484D02*
X11056729Y-16994008D01*
X11056729Y-16994008D02*
X11066253Y-17003531D01*
X11066253Y-17003531D02*
X11075777Y-17022579D01*
X11075777Y-17022579D02*
X11085301Y-17060674D01*
X11085301Y-17060674D02*
X11085301Y-17108293D01*
X11085301Y-17108293D02*
X11075777Y-17146389D01*
X11075777Y-17146389D02*
X11066253Y-17165436D01*
X11066253Y-17165436D02*
X11056729Y-17174960D01*
X11056729Y-17174960D02*
X11037682Y-17184484D01*
X11037682Y-17184484D02*
X11018634Y-17184484D01*
X11018634Y-17184484D02*
X10999587Y-17174960D01*
X10999587Y-17174960D02*
X10990063Y-17165436D01*
X10990063Y-17165436D02*
X10980539Y-17146389D01*
X10980539Y-17146389D02*
X10971015Y-17108293D01*
X10971015Y-17108293D02*
X10971015Y-17060674D01*
X10971015Y-17060674D02*
X10980539Y-17022579D01*
X10980539Y-17022579D02*
X10990063Y-17003531D01*
X10990063Y-17003531D02*
X10999587Y-16994008D01*
X10999587Y-16994008D02*
X11018634Y-16984484D01*
X11171015Y-17165436D02*
X11180539Y-17174960D01*
X11180539Y-17174960D02*
X11171015Y-17184484D01*
X11171015Y-17184484D02*
X11161491Y-17174960D01*
X11161491Y-17174960D02*
X11171015Y-17165436D01*
X11171015Y-17165436D02*
X11171015Y-17184484D01*
X11304348Y-16984484D02*
X11323396Y-16984484D01*
X11323396Y-16984484D02*
X11342444Y-16994008D01*
X11342444Y-16994008D02*
X11351967Y-17003531D01*
X11351967Y-17003531D02*
X11361491Y-17022579D01*
X11361491Y-17022579D02*
X11371015Y-17060674D01*
X11371015Y-17060674D02*
X11371015Y-17108293D01*
X11371015Y-17108293D02*
X11361491Y-17146389D01*
X11361491Y-17146389D02*
X11351967Y-17165436D01*
X11351967Y-17165436D02*
X11342444Y-17174960D01*
X11342444Y-17174960D02*
X11323396Y-17184484D01*
X11323396Y-17184484D02*
X11304348Y-17184484D01*
X11304348Y-17184484D02*
X11285301Y-17174960D01*
X11285301Y-17174960D02*
X11275777Y-17165436D01*
X11275777Y-17165436D02*
X11266253Y-17146389D01*
X11266253Y-17146389D02*
X11256729Y-17108293D01*
X11256729Y-17108293D02*
X11256729Y-17060674D01*
X11256729Y-17060674D02*
X11266253Y-17022579D01*
X11266253Y-17022579D02*
X11275777Y-17003531D01*
X11275777Y-17003531D02*
X11285301Y-16994008D01*
X11285301Y-16994008D02*
X11304348Y-16984484D01*
X11551967Y-16984484D02*
X11456729Y-16984484D01*
X11456729Y-16984484D02*
X11447206Y-17079722D01*
X11447206Y-17079722D02*
X11456729Y-17070198D01*
X11456729Y-17070198D02*
X11475777Y-17060674D01*
X11475777Y-17060674D02*
X11523396Y-17060674D01*
X11523396Y-17060674D02*
X11542444Y-17070198D01*
X11542444Y-17070198D02*
X11551967Y-17079722D01*
X11551967Y-17079722D02*
X11561491Y-17098770D01*
X11561491Y-17098770D02*
X11561491Y-17146389D01*
X11561491Y-17146389D02*
X11551967Y-17165436D01*
X11551967Y-17165436D02*
X11542444Y-17174960D01*
X11542444Y-17174960D02*
X11523396Y-17184484D01*
X11523396Y-17184484D02*
X11475777Y-17184484D01*
X11475777Y-17184484D02*
X11456729Y-17174960D01*
X11456729Y-17174960D02*
X11447206Y-17165436D01*
X11742444Y-16984484D02*
X11647206Y-16984484D01*
X11647206Y-16984484D02*
X11637682Y-17079722D01*
X11637682Y-17079722D02*
X11647206Y-17070198D01*
X11647206Y-17070198D02*
X11666253Y-17060674D01*
X11666253Y-17060674D02*
X11713872Y-17060674D01*
X11713872Y-17060674D02*
X11732920Y-17070198D01*
X11732920Y-17070198D02*
X11742444Y-17079722D01*
X11742444Y-17079722D02*
X11751967Y-17098770D01*
X11751967Y-17098770D02*
X11751967Y-17146389D01*
X11751967Y-17146389D02*
X11742444Y-17165436D01*
X11742444Y-17165436D02*
X11732920Y-17174960D01*
X11732920Y-17174960D02*
X11713872Y-17184484D01*
X11713872Y-17184484D02*
X11666253Y-17184484D01*
X11666253Y-17184484D02*
X11647206Y-17174960D01*
X11647206Y-17174960D02*
X11637682Y-17165436D01*
X11942444Y-17184484D02*
X11828158Y-17184484D01*
X11885301Y-17184484D02*
X11885301Y-16984484D01*
X11885301Y-16984484D02*
X11866253Y-17013055D01*
X11866253Y-17013055D02*
X11847206Y-17032103D01*
X11847206Y-17032103D02*
X11828158Y-17041627D01*
X12018634Y-16984484D02*
X12018634Y-17022579D01*
X12094825Y-16984484D02*
X12094825Y-17022579D01*
X12390063Y-17260674D02*
X12380539Y-17251150D01*
X12380539Y-17251150D02*
X12361491Y-17222579D01*
X12361491Y-17222579D02*
X12351968Y-17203531D01*
X12351968Y-17203531D02*
X12342444Y-17174960D01*
X12342444Y-17174960D02*
X12332920Y-17127341D01*
X12332920Y-17127341D02*
X12332920Y-17089246D01*
X12332920Y-17089246D02*
X12342444Y-17041627D01*
X12342444Y-17041627D02*
X12351968Y-17013055D01*
X12351968Y-17013055D02*
X12361491Y-16994008D01*
X12361491Y-16994008D02*
X12380539Y-16965436D01*
X12380539Y-16965436D02*
X12390063Y-16955912D01*
X12447206Y-16984484D02*
X12571015Y-16984484D01*
X12571015Y-16984484D02*
X12504348Y-17060674D01*
X12504348Y-17060674D02*
X12532920Y-17060674D01*
X12532920Y-17060674D02*
X12551968Y-17070198D01*
X12551968Y-17070198D02*
X12561491Y-17079722D01*
X12561491Y-17079722D02*
X12571015Y-17098770D01*
X12571015Y-17098770D02*
X12571015Y-17146389D01*
X12571015Y-17146389D02*
X12561491Y-17165436D01*
X12561491Y-17165436D02*
X12551968Y-17174960D01*
X12551968Y-17174960D02*
X12532920Y-17184484D01*
X12532920Y-17184484D02*
X12475777Y-17184484D01*
X12475777Y-17184484D02*
X12456729Y-17174960D01*
X12456729Y-17174960D02*
X12447206Y-17165436D01*
X12809110Y-17184484D02*
X12809110Y-16984484D01*
X12894825Y-17184484D02*
X12894825Y-17079722D01*
X12894825Y-17079722D02*
X12885301Y-17060674D01*
X12885301Y-17060674D02*
X12866253Y-17051150D01*
X12866253Y-17051150D02*
X12837682Y-17051150D01*
X12837682Y-17051150D02*
X12818634Y-17060674D01*
X12818634Y-17060674D02*
X12809110Y-17070198D01*
X13018634Y-17184484D02*
X12999587Y-17174960D01*
X12999587Y-17174960D02*
X12990063Y-17165436D01*
X12990063Y-17165436D02*
X12980539Y-17146389D01*
X12980539Y-17146389D02*
X12980539Y-17089246D01*
X12980539Y-17089246D02*
X12990063Y-17070198D01*
X12990063Y-17070198D02*
X12999587Y-17060674D01*
X12999587Y-17060674D02*
X13018634Y-17051150D01*
X13018634Y-17051150D02*
X13047206Y-17051150D01*
X13047206Y-17051150D02*
X13066253Y-17060674D01*
X13066253Y-17060674D02*
X13075777Y-17070198D01*
X13075777Y-17070198D02*
X13085301Y-17089246D01*
X13085301Y-17089246D02*
X13085301Y-17146389D01*
X13085301Y-17146389D02*
X13075777Y-17165436D01*
X13075777Y-17165436D02*
X13066253Y-17174960D01*
X13066253Y-17174960D02*
X13047206Y-17184484D01*
X13047206Y-17184484D02*
X13018634Y-17184484D01*
X13199587Y-17184484D02*
X13180539Y-17174960D01*
X13180539Y-17174960D02*
X13171015Y-17155912D01*
X13171015Y-17155912D02*
X13171015Y-16984484D01*
X13351968Y-17174960D02*
X13332920Y-17184484D01*
X13332920Y-17184484D02*
X13294825Y-17184484D01*
X13294825Y-17184484D02*
X13275777Y-17174960D01*
X13275777Y-17174960D02*
X13266253Y-17155912D01*
X13266253Y-17155912D02*
X13266253Y-17079722D01*
X13266253Y-17079722D02*
X13275777Y-17060674D01*
X13275777Y-17060674D02*
X13294825Y-17051150D01*
X13294825Y-17051150D02*
X13332920Y-17051150D01*
X13332920Y-17051150D02*
X13351968Y-17060674D01*
X13351968Y-17060674D02*
X13361491Y-17079722D01*
X13361491Y-17079722D02*
X13361491Y-17098770D01*
X13361491Y-17098770D02*
X13266253Y-17117817D01*
X13437682Y-17174960D02*
X13456730Y-17184484D01*
X13456730Y-17184484D02*
X13494825Y-17184484D01*
X13494825Y-17184484D02*
X13513872Y-17174960D01*
X13513872Y-17174960D02*
X13523396Y-17155912D01*
X13523396Y-17155912D02*
X13523396Y-17146389D01*
X13523396Y-17146389D02*
X13513872Y-17127341D01*
X13513872Y-17127341D02*
X13494825Y-17117817D01*
X13494825Y-17117817D02*
X13466253Y-17117817D01*
X13466253Y-17117817D02*
X13447206Y-17108293D01*
X13447206Y-17108293D02*
X13437682Y-17089246D01*
X13437682Y-17089246D02*
X13437682Y-17079722D01*
X13437682Y-17079722D02*
X13447206Y-17060674D01*
X13447206Y-17060674D02*
X13466253Y-17051150D01*
X13466253Y-17051150D02*
X13494825Y-17051150D01*
X13494825Y-17051150D02*
X13513872Y-17060674D01*
X13590063Y-17260674D02*
X13599587Y-17251150D01*
X13599587Y-17251150D02*
X13618634Y-17222579D01*
X13618634Y-17222579D02*
X13628158Y-17203531D01*
X13628158Y-17203531D02*
X13637682Y-17174960D01*
X13637682Y-17174960D02*
X13647206Y-17127341D01*
X13647206Y-17127341D02*
X13647206Y-17089246D01*
X13647206Y-17089246D02*
X13637682Y-17041627D01*
X13637682Y-17041627D02*
X13628158Y-17013055D01*
X13628158Y-17013055D02*
X13618634Y-16994008D01*
X13618634Y-16994008D02*
X13599587Y-16965436D01*
X13599587Y-16965436D02*
X13590063Y-16955912D01*
D14*
X8788201Y-17421701D02*
X8788201Y-17292299D01*
X8658799Y-17292299D01*
X8658799Y-17421701D01*
X8788201Y-17421701D01*
D11*
X9180539Y-17448484D02*
X9066253Y-17448484D01*
X9123396Y-17448484D02*
X9123396Y-17248484D01*
X9123396Y-17248484D02*
X9104348Y-17277055D01*
X9104348Y-17277055D02*
X9085301Y-17296103D01*
X9085301Y-17296103D02*
X9066253Y-17305627D01*
X9266253Y-17429436D02*
X9275777Y-17438960D01*
X9275777Y-17438960D02*
X9266253Y-17448484D01*
X9266253Y-17448484D02*
X9256729Y-17438960D01*
X9256729Y-17438960D02*
X9266253Y-17429436D01*
X9266253Y-17429436D02*
X9266253Y-17448484D01*
X9390063Y-17334198D02*
X9371015Y-17324674D01*
X9371015Y-17324674D02*
X9361491Y-17315150D01*
X9361491Y-17315150D02*
X9351967Y-17296103D01*
X9351967Y-17296103D02*
X9351967Y-17286579D01*
X9351967Y-17286579D02*
X9361491Y-17267531D01*
X9361491Y-17267531D02*
X9371015Y-17258008D01*
X9371015Y-17258008D02*
X9390063Y-17248484D01*
X9390063Y-17248484D02*
X9428158Y-17248484D01*
X9428158Y-17248484D02*
X9447205Y-17258008D01*
X9447205Y-17258008D02*
X9456729Y-17267531D01*
X9456729Y-17267531D02*
X9466253Y-17286579D01*
X9466253Y-17286579D02*
X9466253Y-17296103D01*
X9466253Y-17296103D02*
X9456729Y-17315150D01*
X9456729Y-17315150D02*
X9447205Y-17324674D01*
X9447205Y-17324674D02*
X9428158Y-17334198D01*
X9428158Y-17334198D02*
X9390063Y-17334198D01*
X9390063Y-17334198D02*
X9371015Y-17343722D01*
X9371015Y-17343722D02*
X9361491Y-17353246D01*
X9361491Y-17353246D02*
X9351967Y-17372293D01*
X9351967Y-17372293D02*
X9351967Y-17410389D01*
X9351967Y-17410389D02*
X9361491Y-17429436D01*
X9361491Y-17429436D02*
X9371015Y-17438960D01*
X9371015Y-17438960D02*
X9390063Y-17448484D01*
X9390063Y-17448484D02*
X9428158Y-17448484D01*
X9428158Y-17448484D02*
X9447205Y-17438960D01*
X9447205Y-17438960D02*
X9456729Y-17429436D01*
X9456729Y-17429436D02*
X9466253Y-17410389D01*
X9466253Y-17410389D02*
X9466253Y-17372293D01*
X9466253Y-17372293D02*
X9456729Y-17353246D01*
X9456729Y-17353246D02*
X9447205Y-17343722D01*
X9447205Y-17343722D02*
X9428158Y-17334198D01*
X9532920Y-17248484D02*
X9656729Y-17248484D01*
X9656729Y-17248484D02*
X9590063Y-17324674D01*
X9590063Y-17324674D02*
X9618634Y-17324674D01*
X9618634Y-17324674D02*
X9637682Y-17334198D01*
X9637682Y-17334198D02*
X9647205Y-17343722D01*
X9647205Y-17343722D02*
X9656729Y-17362770D01*
X9656729Y-17362770D02*
X9656729Y-17410389D01*
X9656729Y-17410389D02*
X9647205Y-17429436D01*
X9647205Y-17429436D02*
X9637682Y-17438960D01*
X9637682Y-17438960D02*
X9618634Y-17448484D01*
X9618634Y-17448484D02*
X9561491Y-17448484D01*
X9561491Y-17448484D02*
X9542444Y-17438960D01*
X9542444Y-17438960D02*
X9532920Y-17429436D01*
X9780539Y-17248484D02*
X9799586Y-17248484D01*
X9799586Y-17248484D02*
X9818634Y-17258008D01*
X9818634Y-17258008D02*
X9828158Y-17267531D01*
X9828158Y-17267531D02*
X9837682Y-17286579D01*
X9837682Y-17286579D02*
X9847205Y-17324674D01*
X9847205Y-17324674D02*
X9847205Y-17372293D01*
X9847205Y-17372293D02*
X9837682Y-17410389D01*
X9837682Y-17410389D02*
X9828158Y-17429436D01*
X9828158Y-17429436D02*
X9818634Y-17438960D01*
X9818634Y-17438960D02*
X9799586Y-17448484D01*
X9799586Y-17448484D02*
X9780539Y-17448484D01*
X9780539Y-17448484D02*
X9761491Y-17438960D01*
X9761491Y-17438960D02*
X9751967Y-17429436D01*
X9751967Y-17429436D02*
X9742444Y-17410389D01*
X9742444Y-17410389D02*
X9732920Y-17372293D01*
X9732920Y-17372293D02*
X9732920Y-17324674D01*
X9732920Y-17324674D02*
X9742444Y-17286579D01*
X9742444Y-17286579D02*
X9751967Y-17267531D01*
X9751967Y-17267531D02*
X9761491Y-17258008D01*
X9761491Y-17258008D02*
X9780539Y-17248484D01*
X9932920Y-17448484D02*
X9932920Y-17315150D01*
X9932920Y-17334198D02*
X9942444Y-17324674D01*
X9942444Y-17324674D02*
X9961491Y-17315150D01*
X9961491Y-17315150D02*
X9990063Y-17315150D01*
X9990063Y-17315150D02*
X10009110Y-17324674D01*
X10009110Y-17324674D02*
X10018634Y-17343722D01*
X10018634Y-17343722D02*
X10018634Y-17448484D01*
X10018634Y-17343722D02*
X10028158Y-17324674D01*
X10028158Y-17324674D02*
X10047205Y-17315150D01*
X10047205Y-17315150D02*
X10075777Y-17315150D01*
X10075777Y-17315150D02*
X10094825Y-17324674D01*
X10094825Y-17324674D02*
X10104348Y-17343722D01*
X10104348Y-17343722D02*
X10104348Y-17448484D01*
X10199586Y-17448484D02*
X10199586Y-17315150D01*
X10199586Y-17334198D02*
X10209110Y-17324674D01*
X10209110Y-17324674D02*
X10228158Y-17315150D01*
X10228158Y-17315150D02*
X10256729Y-17315150D01*
X10256729Y-17315150D02*
X10275777Y-17324674D01*
X10275777Y-17324674D02*
X10285301Y-17343722D01*
X10285301Y-17343722D02*
X10285301Y-17448484D01*
X10285301Y-17343722D02*
X10294825Y-17324674D01*
X10294825Y-17324674D02*
X10313872Y-17315150D01*
X10313872Y-17315150D02*
X10342444Y-17315150D01*
X10342444Y-17315150D02*
X10361491Y-17324674D01*
X10361491Y-17324674D02*
X10371015Y-17343722D01*
X10371015Y-17343722D02*
X10371015Y-17448484D01*
X10761491Y-17238960D02*
X10590063Y-17496103D01*
X11018634Y-17248484D02*
X11037682Y-17248484D01*
X11037682Y-17248484D02*
X11056729Y-17258008D01*
X11056729Y-17258008D02*
X11066253Y-17267531D01*
X11066253Y-17267531D02*
X11075777Y-17286579D01*
X11075777Y-17286579D02*
X11085301Y-17324674D01*
X11085301Y-17324674D02*
X11085301Y-17372293D01*
X11085301Y-17372293D02*
X11075777Y-17410389D01*
X11075777Y-17410389D02*
X11066253Y-17429436D01*
X11066253Y-17429436D02*
X11056729Y-17438960D01*
X11056729Y-17438960D02*
X11037682Y-17448484D01*
X11037682Y-17448484D02*
X11018634Y-17448484D01*
X11018634Y-17448484D02*
X10999587Y-17438960D01*
X10999587Y-17438960D02*
X10990063Y-17429436D01*
X10990063Y-17429436D02*
X10980539Y-17410389D01*
X10980539Y-17410389D02*
X10971015Y-17372293D01*
X10971015Y-17372293D02*
X10971015Y-17324674D01*
X10971015Y-17324674D02*
X10980539Y-17286579D01*
X10980539Y-17286579D02*
X10990063Y-17267531D01*
X10990063Y-17267531D02*
X10999587Y-17258008D01*
X10999587Y-17258008D02*
X11018634Y-17248484D01*
X11171015Y-17429436D02*
X11180539Y-17438960D01*
X11180539Y-17438960D02*
X11171015Y-17448484D01*
X11171015Y-17448484D02*
X11161491Y-17438960D01*
X11161491Y-17438960D02*
X11171015Y-17429436D01*
X11171015Y-17429436D02*
X11171015Y-17448484D01*
X11304348Y-17248484D02*
X11323396Y-17248484D01*
X11323396Y-17248484D02*
X11342444Y-17258008D01*
X11342444Y-17258008D02*
X11351967Y-17267531D01*
X11351967Y-17267531D02*
X11361491Y-17286579D01*
X11361491Y-17286579D02*
X11371015Y-17324674D01*
X11371015Y-17324674D02*
X11371015Y-17372293D01*
X11371015Y-17372293D02*
X11361491Y-17410389D01*
X11361491Y-17410389D02*
X11351967Y-17429436D01*
X11351967Y-17429436D02*
X11342444Y-17438960D01*
X11342444Y-17438960D02*
X11323396Y-17448484D01*
X11323396Y-17448484D02*
X11304348Y-17448484D01*
X11304348Y-17448484D02*
X11285301Y-17438960D01*
X11285301Y-17438960D02*
X11275777Y-17429436D01*
X11275777Y-17429436D02*
X11266253Y-17410389D01*
X11266253Y-17410389D02*
X11256729Y-17372293D01*
X11256729Y-17372293D02*
X11256729Y-17324674D01*
X11256729Y-17324674D02*
X11266253Y-17286579D01*
X11266253Y-17286579D02*
X11275777Y-17267531D01*
X11275777Y-17267531D02*
X11285301Y-17258008D01*
X11285301Y-17258008D02*
X11304348Y-17248484D01*
X11437682Y-17248484D02*
X11571015Y-17248484D01*
X11571015Y-17248484D02*
X11485301Y-17448484D01*
X11637682Y-17267531D02*
X11647206Y-17258008D01*
X11647206Y-17258008D02*
X11666253Y-17248484D01*
X11666253Y-17248484D02*
X11713872Y-17248484D01*
X11713872Y-17248484D02*
X11732920Y-17258008D01*
X11732920Y-17258008D02*
X11742444Y-17267531D01*
X11742444Y-17267531D02*
X11751967Y-17286579D01*
X11751967Y-17286579D02*
X11751967Y-17305627D01*
X11751967Y-17305627D02*
X11742444Y-17334198D01*
X11742444Y-17334198D02*
X11628158Y-17448484D01*
X11628158Y-17448484D02*
X11751967Y-17448484D01*
X11875777Y-17248484D02*
X11894825Y-17248484D01*
X11894825Y-17248484D02*
X11913872Y-17258008D01*
X11913872Y-17258008D02*
X11923396Y-17267531D01*
X11923396Y-17267531D02*
X11932920Y-17286579D01*
X11932920Y-17286579D02*
X11942444Y-17324674D01*
X11942444Y-17324674D02*
X11942444Y-17372293D01*
X11942444Y-17372293D02*
X11932920Y-17410389D01*
X11932920Y-17410389D02*
X11923396Y-17429436D01*
X11923396Y-17429436D02*
X11913872Y-17438960D01*
X11913872Y-17438960D02*
X11894825Y-17448484D01*
X11894825Y-17448484D02*
X11875777Y-17448484D01*
X11875777Y-17448484D02*
X11856729Y-17438960D01*
X11856729Y-17438960D02*
X11847206Y-17429436D01*
X11847206Y-17429436D02*
X11837682Y-17410389D01*
X11837682Y-17410389D02*
X11828158Y-17372293D01*
X11828158Y-17372293D02*
X11828158Y-17324674D01*
X11828158Y-17324674D02*
X11837682Y-17286579D01*
X11837682Y-17286579D02*
X11847206Y-17267531D01*
X11847206Y-17267531D02*
X11856729Y-17258008D01*
X11856729Y-17258008D02*
X11875777Y-17248484D01*
X12018634Y-17248484D02*
X12018634Y-17286579D01*
X12094825Y-17248484D02*
X12094825Y-17286579D01*
X12390063Y-17524674D02*
X12380539Y-17515150D01*
X12380539Y-17515150D02*
X12361491Y-17486579D01*
X12361491Y-17486579D02*
X12351968Y-17467531D01*
X12351968Y-17467531D02*
X12342444Y-17438960D01*
X12342444Y-17438960D02*
X12332920Y-17391341D01*
X12332920Y-17391341D02*
X12332920Y-17353246D01*
X12332920Y-17353246D02*
X12342444Y-17305627D01*
X12342444Y-17305627D02*
X12351968Y-17277055D01*
X12351968Y-17277055D02*
X12361491Y-17258008D01*
X12361491Y-17258008D02*
X12380539Y-17229436D01*
X12380539Y-17229436D02*
X12390063Y-17219912D01*
X12447206Y-17248484D02*
X12571015Y-17248484D01*
X12571015Y-17248484D02*
X12504348Y-17324674D01*
X12504348Y-17324674D02*
X12532920Y-17324674D01*
X12532920Y-17324674D02*
X12551968Y-17334198D01*
X12551968Y-17334198D02*
X12561491Y-17343722D01*
X12561491Y-17343722D02*
X12571015Y-17362770D01*
X12571015Y-17362770D02*
X12571015Y-17410389D01*
X12571015Y-17410389D02*
X12561491Y-17429436D01*
X12561491Y-17429436D02*
X12551968Y-17438960D01*
X12551968Y-17438960D02*
X12532920Y-17448484D01*
X12532920Y-17448484D02*
X12475777Y-17448484D01*
X12475777Y-17448484D02*
X12456729Y-17438960D01*
X12456729Y-17438960D02*
X12447206Y-17429436D01*
X12809110Y-17448484D02*
X12809110Y-17248484D01*
X12894825Y-17448484D02*
X12894825Y-17343722D01*
X12894825Y-17343722D02*
X12885301Y-17324674D01*
X12885301Y-17324674D02*
X12866253Y-17315150D01*
X12866253Y-17315150D02*
X12837682Y-17315150D01*
X12837682Y-17315150D02*
X12818634Y-17324674D01*
X12818634Y-17324674D02*
X12809110Y-17334198D01*
X13018634Y-17448484D02*
X12999587Y-17438960D01*
X12999587Y-17438960D02*
X12990063Y-17429436D01*
X12990063Y-17429436D02*
X12980539Y-17410389D01*
X12980539Y-17410389D02*
X12980539Y-17353246D01*
X12980539Y-17353246D02*
X12990063Y-17334198D01*
X12990063Y-17334198D02*
X12999587Y-17324674D01*
X12999587Y-17324674D02*
X13018634Y-17315150D01*
X13018634Y-17315150D02*
X13047206Y-17315150D01*
X13047206Y-17315150D02*
X13066253Y-17324674D01*
X13066253Y-17324674D02*
X13075777Y-17334198D01*
X13075777Y-17334198D02*
X13085301Y-17353246D01*
X13085301Y-17353246D02*
X13085301Y-17410389D01*
X13085301Y-17410389D02*
X13075777Y-17429436D01*
X13075777Y-17429436D02*
X13066253Y-17438960D01*
X13066253Y-17438960D02*
X13047206Y-17448484D01*
X13047206Y-17448484D02*
X13018634Y-17448484D01*
X13199587Y-17448484D02*
X13180539Y-17438960D01*
X13180539Y-17438960D02*
X13171015Y-17419912D01*
X13171015Y-17419912D02*
X13171015Y-17248484D01*
X13351968Y-17438960D02*
X13332920Y-17448484D01*
X13332920Y-17448484D02*
X13294825Y-17448484D01*
X13294825Y-17448484D02*
X13275777Y-17438960D01*
X13275777Y-17438960D02*
X13266253Y-17419912D01*
X13266253Y-17419912D02*
X13266253Y-17343722D01*
X13266253Y-17343722D02*
X13275777Y-17324674D01*
X13275777Y-17324674D02*
X13294825Y-17315150D01*
X13294825Y-17315150D02*
X13332920Y-17315150D01*
X13332920Y-17315150D02*
X13351968Y-17324674D01*
X13351968Y-17324674D02*
X13361491Y-17343722D01*
X13361491Y-17343722D02*
X13361491Y-17362770D01*
X13361491Y-17362770D02*
X13266253Y-17381817D01*
X13437682Y-17438960D02*
X13456730Y-17448484D01*
X13456730Y-17448484D02*
X13494825Y-17448484D01*
X13494825Y-17448484D02*
X13513872Y-17438960D01*
X13513872Y-17438960D02*
X13523396Y-17419912D01*
X13523396Y-17419912D02*
X13523396Y-17410389D01*
X13523396Y-17410389D02*
X13513872Y-17391341D01*
X13513872Y-17391341D02*
X13494825Y-17381817D01*
X13494825Y-17381817D02*
X13466253Y-17381817D01*
X13466253Y-17381817D02*
X13447206Y-17372293D01*
X13447206Y-17372293D02*
X13437682Y-17353246D01*
X13437682Y-17353246D02*
X13437682Y-17343722D01*
X13437682Y-17343722D02*
X13447206Y-17324674D01*
X13447206Y-17324674D02*
X13466253Y-17315150D01*
X13466253Y-17315150D02*
X13494825Y-17315150D01*
X13494825Y-17315150D02*
X13513872Y-17324674D01*
X13590063Y-17524674D02*
X13599587Y-17515150D01*
X13599587Y-17515150D02*
X13618634Y-17486579D01*
X13618634Y-17486579D02*
X13628158Y-17467531D01*
X13628158Y-17467531D02*
X13637682Y-17438960D01*
X13637682Y-17438960D02*
X13647206Y-17391341D01*
X13647206Y-17391341D02*
X13647206Y-17353246D01*
X13647206Y-17353246D02*
X13637682Y-17305627D01*
X13637682Y-17305627D02*
X13628158Y-17277055D01*
X13628158Y-17277055D02*
X13618634Y-17258008D01*
X13618634Y-17258008D02*
X13599587Y-17229436D01*
X13599587Y-17229436D02*
X13590063Y-17219912D01*
M02*
