%TF.GenerationSoftware,KiCad,Pcbnew,7.0.10*%
%TF.CreationDate,2025-08-26T16:00:25+02:00*%
%TF.ProjectId,BQ2xxxx,42513278-7878-4782-9e6b-696361645f70,rev?*%
%TF.SameCoordinates,Original*%
%TF.FileFunction,Paste,Top*%
%TF.FilePolarity,Positive*%
%FSLAX46Y46*%
G04 Gerber Fmt 4.6, Leading zero omitted, Abs format (unit mm)*
G04 Created by KiCad (PCBNEW 7.0.10) date 2025-08-26 16:00:25*
%MOMM*%
%LPD*%
G01*
G04 APERTURE LIST*
G04 Aperture macros list*
%AMRoundRect*
0 Rectangle with rounded corners*
0 $1 Rounding radius*
0 $2 $3 $4 $5 $6 $7 $8 $9 X,Y pos of 4 corners*
0 Add a 4 corners polygon primitive as box body*
4,1,4,$2,$3,$4,$5,$6,$7,$8,$9,$2,$3,0*
0 Add four circle primitives for the rounded corners*
1,1,$1+$1,$2,$3*
1,1,$1+$1,$4,$5*
1,1,$1+$1,$6,$7*
1,1,$1+$1,$8,$9*
0 Add four rect primitives between the rounded corners*
20,1,$1+$1,$2,$3,$4,$5,0*
20,1,$1+$1,$4,$5,$6,$7,0*
20,1,$1+$1,$6,$7,$8,$9,0*
20,1,$1+$1,$8,$9,$2,$3,0*%
%AMRotRect*
0 Rectangle, with rotation*
0 The origin of the aperture is its center*
0 $1 length*
0 $2 width*
0 $3 Rotation angle, in degrees counterclockwise*
0 Add horizontal line*
21,1,$1,$2,0,0,$3*%
%AMFreePoly0*
4,1,21,-0.125000,1.200000,0.125000,1.200000,0.125000,1.700000,0.375001,1.700000,0.375000,1.200000,0.825000,1.200000,0.825000,-1.200000,0.375000,-1.200000,0.375001,-1.700000,0.125000,-1.700000,0.125000,-1.200000,-0.125000,-1.200000,-0.125000,-1.700000,-0.375001,-1.700000,-0.375000,-1.200000,-0.825000,-1.200000,-0.825000,1.200000,-0.375000,1.200000,-0.375001,1.700000,-0.125000,1.700000,
-0.125000,1.200000,-0.125000,1.200000,$1*%
G04 Aperture macros list end*
%ADD10C,0.010000*%
%ADD11RoundRect,0.135000X-0.035355X0.226274X-0.226274X0.035355X0.035355X-0.226274X0.226274X-0.035355X0*%
%ADD12RoundRect,0.140000X-0.170000X0.140000X-0.170000X-0.140000X0.170000X-0.140000X0.170000X0.140000X0*%
%ADD13RoundRect,0.135000X0.135000X0.185000X-0.135000X0.185000X-0.135000X-0.185000X0.135000X-0.185000X0*%
%ADD14R,2.794000X1.320800*%
%ADD15RoundRect,0.135000X-0.226274X-0.035355X-0.035355X-0.226274X0.226274X0.035355X0.035355X0.226274X0*%
%ADD16RoundRect,0.140000X-0.219203X-0.021213X-0.021213X-0.219203X0.219203X0.021213X0.021213X0.219203X0*%
%ADD17RoundRect,0.135000X0.185000X-0.135000X0.185000X0.135000X-0.185000X0.135000X-0.185000X-0.135000X0*%
%ADD18RoundRect,0.250000X-0.475000X0.250000X-0.475000X-0.250000X0.475000X-0.250000X0.475000X0.250000X0*%
%ADD19C,3.000000*%
%ADD20RoundRect,0.140000X-0.021213X0.219203X-0.219203X0.021213X0.021213X-0.219203X0.219203X-0.021213X0*%
%ADD21RotRect,1.600000X0.410000X225.000000*%
%ADD22RoundRect,0.147500X0.172500X-0.147500X0.172500X0.147500X-0.172500X0.147500X-0.172500X-0.147500X0*%
%ADD23RoundRect,0.075000X-0.415425X-0.521491X0.521491X0.415425X0.415425X0.521491X-0.521491X-0.415425X0*%
%ADD24RoundRect,0.075000X0.415425X-0.521491X0.521491X-0.415425X-0.415425X0.521491X-0.521491X0.415425X0*%
%ADD25RoundRect,0.135000X0.226274X0.035355X0.035355X0.226274X-0.226274X-0.035355X-0.035355X-0.226274X0*%
%ADD26RoundRect,0.140000X0.021213X-0.219203X0.219203X-0.021213X-0.021213X0.219203X-0.219203X0.021213X0*%
%ADD27RoundRect,0.140000X-0.140000X-0.170000X0.140000X-0.170000X0.140000X0.170000X-0.140000X0.170000X0*%
%ADD28RoundRect,0.225000X-0.017678X0.335876X-0.335876X0.017678X0.017678X-0.335876X0.335876X-0.017678X0*%
%ADD29RoundRect,0.250000X-0.159099X0.512652X-0.512652X0.159099X0.159099X-0.512652X0.512652X-0.159099X0*%
%ADD30RoundRect,0.032500X-0.097500X0.387500X-0.097500X-0.387500X0.097500X-0.387500X0.097500X0.387500X0*%
%ADD31RoundRect,0.032500X-0.387500X0.097500X-0.387500X-0.097500X0.387500X-0.097500X0.387500X0.097500X0*%
%ADD32RoundRect,0.033750X-0.396250X0.101250X-0.396250X-0.101250X0.396250X-0.101250X0.396250X0.101250X0*%
%ADD33RoundRect,0.140000X0.219203X0.021213X0.021213X0.219203X-0.219203X-0.021213X-0.021213X-0.219203X0*%
%ADD34R,1.500000X2.400000*%
%ADD35RoundRect,0.225000X0.335876X0.017678X0.017678X0.335876X-0.335876X-0.017678X-0.017678X-0.335876X0*%
%ADD36R,0.700000X1.000000*%
%ADD37RoundRect,0.147500X-0.226274X-0.017678X-0.017678X-0.226274X0.226274X0.017678X0.017678X0.226274X0*%
%ADD38R,2.880000X1.120000*%
%ADD39RoundRect,0.225000X-0.225000X-0.250000X0.225000X-0.250000X0.225000X0.250000X-0.225000X0.250000X0*%
%ADD40RoundRect,0.250000X-0.450000X0.262500X-0.450000X-0.262500X0.450000X-0.262500X0.450000X0.262500X0*%
%ADD41RoundRect,0.250000X0.475000X-0.250000X0.475000X0.250000X-0.475000X0.250000X-0.475000X-0.250000X0*%
%ADD42RoundRect,0.140000X0.170000X-0.140000X0.170000X0.140000X-0.170000X0.140000X-0.170000X-0.140000X0*%
%ADD43RoundRect,0.033750X0.101250X-0.346250X0.101250X0.346250X-0.101250X0.346250X-0.101250X-0.346250X0*%
%ADD44RotRect,0.700000X1.000000X225.000000*%
%ADD45RotRect,0.700000X1.200000X225.000000*%
%ADD46RotRect,0.760000X1.200000X225.000000*%
%ADD47RotRect,0.800000X1.200000X225.000000*%
%ADD48RoundRect,0.147500X-0.017678X0.226274X-0.226274X0.017678X0.017678X-0.226274X0.226274X-0.017678X0*%
%ADD49RoundRect,0.225000X0.250000X-0.225000X0.250000X0.225000X-0.250000X0.225000X-0.250000X-0.225000X0*%
%ADD50RoundRect,0.135000X-0.185000X0.135000X-0.185000X-0.135000X0.185000X-0.135000X0.185000X0.135000X0*%
%ADD51R,1.000000X0.700000*%
%ADD52RoundRect,0.135000X0.035355X-0.226274X0.226274X-0.035355X-0.035355X0.226274X-0.226274X0.035355X0*%
%ADD53RoundRect,0.225000X0.225000X0.250000X-0.225000X0.250000X-0.225000X-0.250000X0.225000X-0.250000X0*%
%ADD54RoundRect,0.025000X-0.031820X0.173241X-0.173241X0.031820X0.031820X-0.173241X0.173241X-0.031820X0*%
%ADD55RoundRect,0.106000X0.155563X0.755190X-0.755190X-0.155563X-0.155563X-0.755190X0.755190X0.155563X0*%
%ADD56RotRect,0.600000X0.240000X225.000000*%
%ADD57FreePoly0,225.000000*%
%ADD58RoundRect,0.140000X0.140000X0.170000X-0.140000X0.170000X-0.140000X-0.170000X0.140000X-0.170000X0*%
%ADD59RoundRect,0.250000X-0.503814X-0.132583X-0.132583X-0.503814X0.503814X0.132583X0.132583X0.503814X0*%
%ADD60RotRect,0.700000X1.200000X45.000000*%
%ADD61RotRect,0.760000X1.200000X45.000000*%
%ADD62RotRect,0.800000X1.200000X45.000000*%
%ADD63RoundRect,0.250000X0.866206X0.335876X0.335876X0.866206X-0.866206X-0.335876X-0.335876X-0.866206X0*%
%ADD64R,0.250000X0.575000*%
%ADD65R,0.250000X0.550000*%
%ADD66R,0.400000X1.250000*%
%ADD67R,1.000000X0.400000*%
%ADD68R,0.550000X0.250000*%
%ADD69R,0.450000X0.225000*%
%ADD70R,1.050000X0.400000*%
G04 APERTURE END LIST*
%TO.C,U2*%
D10*
X49630000Y-58355001D02*
X48550000Y-58355001D01*
X48550000Y-57275001D01*
X49630000Y-57275001D01*
X49630000Y-58355001D01*
G36*
X49630000Y-58355001D02*
G01*
X48550000Y-58355001D01*
X48550000Y-57275001D01*
X49630000Y-57275001D01*
X49630000Y-58355001D01*
G37*
X48350000Y-58355001D02*
X47270000Y-58355001D01*
X47270000Y-57275001D01*
X48350000Y-57275001D01*
X48350000Y-58355001D01*
G36*
X48350000Y-58355001D02*
G01*
X47270000Y-58355001D01*
X47270000Y-57275001D01*
X48350000Y-57275001D01*
X48350000Y-58355001D01*
G37*
X49630000Y-59635001D02*
X48550000Y-59635001D01*
X48550000Y-58555001D01*
X49630000Y-58555001D01*
X49630000Y-59635001D01*
G36*
X49630000Y-59635001D02*
G01*
X48550000Y-59635001D01*
X48550000Y-58555001D01*
X49630000Y-58555001D01*
X49630000Y-59635001D01*
G37*
X48350000Y-59635001D02*
X47270000Y-59635001D01*
X47270000Y-58555001D01*
X48350000Y-58555001D01*
X48350000Y-59635001D01*
G36*
X48350000Y-59635001D02*
G01*
X47270000Y-59635001D01*
X47270000Y-58555001D01*
X48350000Y-58555001D01*
X48350000Y-59635001D01*
G37*
%TO.C,U1*%
X98110000Y-52080000D02*
X97290000Y-52080000D01*
X97290000Y-51520000D01*
X98110000Y-51520000D01*
X98110000Y-52080000D01*
G36*
X98110000Y-52080000D02*
G01*
X97290000Y-52080000D01*
X97290000Y-51520000D01*
X98110000Y-51520000D01*
X98110000Y-52080000D01*
G37*
%TD*%
D11*
%TO.C,R10*%
X103160624Y-32639378D03*
X102439376Y-33360626D03*
%TD*%
D12*
%TO.C,C26*%
X59300000Y-82889999D03*
X59300000Y-83849999D03*
%TD*%
D13*
%TO.C,R22*%
X108010000Y-55100000D03*
X106990000Y-55100000D03*
%TD*%
D14*
%TO.C,L3*%
X55105000Y-66914801D03*
X55105000Y-62495201D03*
%TD*%
D13*
%TO.C,R16*%
X44510000Y-60305000D03*
X43490000Y-60305000D03*
%TD*%
D15*
%TO.C,R3*%
X107339376Y-96939376D03*
X108060624Y-97660624D03*
%TD*%
D16*
%TO.C,C7*%
X96760589Y-40860589D03*
X97439411Y-41539411D03*
%TD*%
D17*
%TO.C,R29*%
X56700000Y-75210000D03*
X56700000Y-74190000D03*
%TD*%
D18*
%TO.C,C28*%
X62500000Y-77990000D03*
X62500000Y-79890000D03*
%TD*%
D19*
%TO.C,FID1*%
X24800000Y-102600000D03*
%TD*%
D15*
%TO.C,R4*%
X96751524Y-106933862D03*
X97472772Y-107655110D03*
%TD*%
D20*
%TO.C,C12*%
X86767971Y-44289152D03*
X86089149Y-44967974D03*
%TD*%
D21*
%TO.C,U6*%
X38533748Y-96166115D03*
X38084735Y-95717102D03*
X37635722Y-95268089D03*
X37186710Y-94819076D03*
X36737697Y-94370064D03*
X36288684Y-93921051D03*
X35839671Y-93472038D03*
X35390658Y-93023025D03*
X34941646Y-92574012D03*
X34492633Y-92125000D03*
X34043620Y-91675987D03*
X33594607Y-91226974D03*
X29840860Y-94980721D03*
X30289873Y-95429734D03*
X30738886Y-95878747D03*
X31187898Y-96327760D03*
X31636911Y-96776772D03*
X32085924Y-97225785D03*
X32534937Y-97674798D03*
X32983950Y-98123811D03*
X33432962Y-98572824D03*
X33881975Y-99021836D03*
X34330988Y-99470849D03*
X34780001Y-99919862D03*
%TD*%
D18*
%TO.C,C29*%
X64600000Y-77989999D03*
X64600000Y-79889999D03*
%TD*%
D22*
%TO.C,D3*%
X47805000Y-52675001D03*
X47805000Y-51705001D03*
%TD*%
D17*
%TO.C,R24*%
X54290000Y-83900000D03*
X54290000Y-82880000D03*
%TD*%
D23*
%TO.C,U5*%
X85512124Y-39598788D03*
X85865678Y-39952342D03*
X86219231Y-40305895D03*
X86572785Y-40659449D03*
X86926338Y-41013002D03*
X87279891Y-41366555D03*
X87633445Y-41720109D03*
X87986998Y-42073662D03*
X88340551Y-42427215D03*
X88694105Y-42780769D03*
X89047658Y-43134322D03*
X89401212Y-43487876D03*
D24*
X91398788Y-43487876D03*
X91752342Y-43134322D03*
X92105895Y-42780769D03*
X92459449Y-42427215D03*
X92813002Y-42073662D03*
X93166555Y-41720109D03*
X93520109Y-41366555D03*
X93873662Y-41013002D03*
X94227215Y-40659449D03*
X94580769Y-40305895D03*
X94934322Y-39952342D03*
X95287876Y-39598788D03*
D23*
X95287876Y-37601212D03*
X94934322Y-37247658D03*
X94580769Y-36894105D03*
X94227215Y-36540551D03*
X93873662Y-36186998D03*
X93520109Y-35833445D03*
X93166555Y-35479891D03*
X92813002Y-35126338D03*
X92459449Y-34772785D03*
X92105895Y-34419231D03*
X91752342Y-34065678D03*
X91398788Y-33712124D03*
D24*
X89401212Y-33712124D03*
X89047658Y-34065678D03*
X88694105Y-34419231D03*
X88340551Y-34772785D03*
X87986998Y-35126338D03*
X87633445Y-35479891D03*
X87279891Y-35833445D03*
X86926338Y-36186998D03*
X86572785Y-36540551D03*
X86219231Y-36894105D03*
X85865678Y-37247658D03*
X85512124Y-37601212D03*
%TD*%
D25*
%TO.C,R13*%
X92960624Y-45860624D03*
X92239376Y-45139376D03*
%TD*%
D26*
%TO.C,C8*%
X90999999Y-32139411D03*
X91678821Y-31460589D03*
%TD*%
D19*
%TO.C,FID3*%
X24800000Y-52600000D03*
%TD*%
D27*
%TO.C,C1*%
X97920000Y-54200000D03*
X98880000Y-54200000D03*
%TD*%
D28*
%TO.C,C3*%
X65663013Y-66789181D03*
X64566997Y-67885197D03*
%TD*%
D27*
%TO.C,C17*%
X53025000Y-59905001D03*
X53985000Y-59905001D03*
%TD*%
D29*
%TO.C,C4*%
X70453663Y-71332341D03*
X69110161Y-72675843D03*
%TD*%
D30*
%TO.C,U2*%
X49700000Y-56510001D03*
X49200000Y-56510001D03*
X48700000Y-56510001D03*
X48200000Y-56510001D03*
X47700000Y-56510001D03*
X47200000Y-56510001D03*
D31*
X46505000Y-57205001D03*
X46505000Y-57705001D03*
X46505000Y-58205001D03*
X46505000Y-58705001D03*
X46505000Y-59205001D03*
X46505000Y-59705001D03*
D30*
X47200000Y-60400001D03*
X47700000Y-60400001D03*
X48200000Y-60400001D03*
X48700000Y-60400001D03*
X49200000Y-60400001D03*
X49700000Y-60400001D03*
D32*
X50395000Y-59705001D03*
X50395000Y-59205001D03*
X50395000Y-58705001D03*
X50395000Y-58205001D03*
X50395000Y-57705001D03*
X50395000Y-57205001D03*
%TD*%
D33*
%TO.C,C9*%
X84239411Y-35926130D03*
X83560589Y-35247308D03*
%TD*%
D27*
%TO.C,C16*%
X51225001Y-54105001D03*
X52185001Y-54105001D03*
%TD*%
D13*
%TO.C,R6*%
X44715000Y-57505000D03*
X43695000Y-57505000D03*
%TD*%
D34*
%TO.C,L2*%
X51300001Y-78900000D03*
X45800001Y-78900000D03*
%TD*%
D35*
%TO.C,C10*%
X82448008Y-38348008D03*
X81351992Y-37251992D03*
%TD*%
D36*
%TO.C,S4*%
X104750000Y-63150000D03*
X104750000Y-58650000D03*
X106900000Y-63150000D03*
X106900000Y-58650000D03*
%TD*%
D37*
%TO.C,D2*%
X95857052Y-90957052D03*
X96542946Y-91642946D03*
%TD*%
D38*
%TO.C,J7*%
X102417500Y-89365250D03*
X102417500Y-86865250D03*
X102417500Y-84865250D03*
X102417500Y-82365250D03*
%TD*%
D15*
%TO.C,R18*%
X85820351Y-32958401D03*
X86541599Y-33679649D03*
%TD*%
D39*
%TO.C,C21*%
X48212500Y-64955001D03*
X49762500Y-64955001D03*
%TD*%
D17*
%TO.C,R12*%
X63755000Y-22840000D03*
X63755000Y-21820000D03*
%TD*%
D11*
%TO.C,R26*%
X80592857Y-42207143D03*
X79871609Y-42928391D03*
%TD*%
D40*
%TO.C,JP1*%
X60400000Y-71687500D03*
X60400000Y-73512500D03*
%TD*%
D22*
%TO.C,D4*%
X46505000Y-52675001D03*
X46505000Y-51705001D03*
%TD*%
D41*
%TO.C,C22*%
X45800001Y-85070000D03*
X45800001Y-83170000D03*
%TD*%
D42*
%TO.C,C31*%
X55100000Y-75560000D03*
X55100000Y-74600000D03*
%TD*%
D15*
%TO.C,R8*%
X28339376Y-92339376D03*
X29060624Y-93060624D03*
%TD*%
D11*
%TO.C,R7*%
X102167139Y-31645893D03*
X101445891Y-32367141D03*
%TD*%
D43*
%TO.C,U1*%
X96950000Y-52785000D03*
X97450000Y-52785000D03*
X97950000Y-52785000D03*
X98450000Y-52785000D03*
X98450000Y-50815000D03*
X97950000Y-50815000D03*
X97450000Y-50815000D03*
X96950000Y-50815000D03*
%TD*%
D42*
%TO.C,C24*%
X53000000Y-82480000D03*
X53000000Y-81520000D03*
%TD*%
D15*
%TO.C,R2*%
X22144890Y-32227226D03*
X22866138Y-32948474D03*
%TD*%
D39*
%TO.C,C19*%
X52930000Y-58205001D03*
X54480000Y-58205001D03*
%TD*%
D44*
%TO.C,S3*%
X105400000Y-27600000D03*
X102218020Y-24418020D03*
X106920280Y-26079720D03*
X103738300Y-22897740D03*
%TD*%
D25*
%TO.C,R28*%
X97160624Y-43060624D03*
X96439376Y-42339376D03*
%TD*%
D12*
%TO.C,C30*%
X53000001Y-77279999D03*
X53000001Y-78239999D03*
%TD*%
D45*
%TO.C,J4*%
X27617896Y-26810789D03*
D46*
X26189540Y-28239145D03*
D47*
X25319799Y-29108886D03*
D45*
X26910789Y-27517896D03*
D46*
X28339145Y-26089540D03*
D47*
X29208886Y-25219799D03*
%TD*%
D48*
%TO.C,D1*%
X36142947Y-25257053D03*
X35457053Y-25942947D03*
%TD*%
D49*
%TO.C,C18*%
X53505000Y-56080000D03*
X53505000Y-54530000D03*
%TD*%
D20*
%TO.C,C2*%
X101173655Y-30666551D03*
X100494833Y-31345373D03*
%TD*%
D50*
%TO.C,R23*%
X56900000Y-82880000D03*
X56900000Y-83900000D03*
%TD*%
D13*
%TO.C,R17*%
X44705000Y-59005001D03*
X43685000Y-59005001D03*
%TD*%
D15*
%TO.C,R27*%
X95639376Y-43139376D03*
X96360624Y-43860624D03*
%TD*%
D51*
%TO.C,S2*%
X66000000Y-22950000D03*
X70500000Y-22950000D03*
X66000000Y-25100000D03*
X70500000Y-25100000D03*
%TD*%
D50*
%TO.C,R25*%
X55500000Y-82880000D03*
X55500000Y-83900000D03*
%TD*%
D52*
%TO.C,R14*%
X33439376Y-27960624D03*
X34160624Y-27239376D03*
%TD*%
D25*
%TO.C,R5*%
X93879863Y-44941382D03*
X93158615Y-44220134D03*
%TD*%
D53*
%TO.C,C15*%
X46062500Y-62455000D03*
X44512500Y-62455000D03*
%TD*%
D54*
%TO.C,U7*%
X68000000Y-71000000D03*
X65836253Y-68836253D03*
D55*
X67186827Y-70540380D03*
X66295873Y-69649426D03*
D54*
X67646447Y-71353553D03*
X65482700Y-69189806D03*
D56*
X68438406Y-69812060D03*
X68084853Y-69458507D03*
X67731299Y-69104954D03*
X67377746Y-68751400D03*
X67024193Y-68397847D03*
X65044294Y-70377746D03*
X65397847Y-70731299D03*
X65751401Y-71084852D03*
X66104954Y-71438406D03*
X66458507Y-71791959D03*
D57*
X66741350Y-70094903D03*
%TD*%
D12*
%TO.C,C23*%
X47500000Y-83640000D03*
X47500000Y-84600000D03*
%TD*%
D15*
%TO.C,R9*%
X84437186Y-34299999D03*
X85158434Y-35021247D03*
%TD*%
D58*
%TO.C,C5*%
X107980000Y-53705000D03*
X107020000Y-53705000D03*
%TD*%
%TO.C,C32*%
X52160000Y-52900002D03*
X51200000Y-52900002D03*
%TD*%
D17*
%TO.C,R20*%
X46504999Y-49984628D03*
X46504999Y-48964628D03*
%TD*%
D26*
%TO.C,C13*%
X84235598Y-43107382D03*
X84914420Y-42428560D03*
%TD*%
D12*
%TO.C,C25*%
X58100000Y-82890000D03*
X58100000Y-83850000D03*
%TD*%
D59*
%TO.C,TH1*%
X64754765Y-56354765D03*
X66045235Y-57645235D03*
%TD*%
D15*
%TO.C,R21*%
X86739376Y-32039376D03*
X87460624Y-32760624D03*
%TD*%
D60*
%TO.C,J1*%
X102282104Y-102889211D03*
D61*
X103710460Y-101460855D03*
D62*
X104580201Y-100591114D03*
D60*
X102989211Y-102182104D03*
D61*
X101560855Y-103610460D03*
D62*
X100691114Y-104480201D03*
%TD*%
D15*
%TO.C,R1*%
X32327228Y-22044889D03*
X33048476Y-22766137D03*
%TD*%
D20*
%TO.C,C11*%
X87639411Y-45160589D03*
X86960589Y-45839411D03*
%TD*%
D17*
%TO.C,R19*%
X47805000Y-49984628D03*
X47805000Y-48964628D03*
%TD*%
D13*
%TO.C,R11*%
X108010000Y-56400000D03*
X106990000Y-56400000D03*
%TD*%
D63*
%TO.C,L1*%
X70188496Y-68168039D03*
X68668216Y-66647759D03*
%TD*%
D25*
%TO.C,R15*%
X98560624Y-93660624D03*
X97839376Y-92939376D03*
%TD*%
D11*
%TO.C,FB1*%
X85896532Y-43403571D03*
X85175284Y-44124819D03*
%TD*%
D64*
%TO.C,IC2*%
X55350000Y-80302999D03*
D65*
X55850000Y-80314999D03*
D66*
X56425000Y-79964999D03*
D67*
X56475000Y-78889999D03*
D66*
X56425000Y-77814999D03*
D65*
X55850000Y-77464999D03*
D64*
X55350000Y-77476999D03*
D68*
X55050000Y-78139999D03*
X55050000Y-78639999D03*
X55050000Y-79139999D03*
X55050000Y-79639999D03*
D69*
X55000000Y-80126999D03*
D70*
X57150000Y-79539999D03*
X57150000Y-78239999D03*
D69*
X55000000Y-77652999D03*
%TD*%
D48*
%TO.C,D5*%
X82342948Y-40457052D03*
X81657054Y-41142946D03*
%TD*%
D42*
%TO.C,C33*%
X58000000Y-75160000D03*
X58000000Y-74200000D03*
%TD*%
D12*
%TO.C,C14*%
X62340000Y-21830000D03*
X62340000Y-22790000D03*
%TD*%
D20*
%TO.C,C6*%
X83839411Y-41260588D03*
X83160589Y-41939410D03*
%TD*%
D18*
%TO.C,C27*%
X60400001Y-77990000D03*
X60400001Y-79890000D03*
%TD*%
D19*
%TO.C,FID2*%
X74800000Y-102600000D03*
%TD*%
D39*
%TO.C,C20*%
X48212500Y-63355000D03*
X49762500Y-63355000D03*
%TD*%
M02*
