%TF.GenerationSoftware,KiCad,Pcbnew,7.0.10*%
%TF.CreationDate,2025-06-24T15:40:27+02:00*%
%TF.ProjectId,BQ2xxxx,42513278-7878-4782-9e6b-696361645f70,rev?*%
%TF.SameCoordinates,Original*%
%TF.FileFunction,Paste,Top*%
%TF.FilePolarity,Positive*%
%FSLAX46Y46*%
G04 Gerber Fmt 4.6, Leading zero omitted, Abs format (unit mm)*
G04 Created by KiCad (PCBNEW 7.0.10) date 2025-06-24 15:40:27*
%MOMM*%
%LPD*%
G01*
G04 APERTURE LIST*
G04 Aperture macros list*
%AMRoundRect*
0 Rectangle with rounded corners*
0 $1 Rounding radius*
0 $2 $3 $4 $5 $6 $7 $8 $9 X,Y pos of 4 corners*
0 Add a 4 corners polygon primitive as box body*
4,1,4,$2,$3,$4,$5,$6,$7,$8,$9,$2,$3,0*
0 Add four circle primitives for the rounded corners*
1,1,$1+$1,$2,$3*
1,1,$1+$1,$4,$5*
1,1,$1+$1,$6,$7*
1,1,$1+$1,$8,$9*
0 Add four rect primitives between the rounded corners*
20,1,$1+$1,$2,$3,$4,$5,0*
20,1,$1+$1,$4,$5,$6,$7,0*
20,1,$1+$1,$6,$7,$8,$9,0*
20,1,$1+$1,$8,$9,$2,$3,0*%
%AMRotRect*
0 Rectangle, with rotation*
0 The origin of the aperture is its center*
0 $1 length*
0 $2 width*
0 $3 Rotation angle, in degrees counterclockwise*
0 Add horizontal line*
21,1,$1,$2,0,0,$3*%
G04 Aperture macros list end*
%ADD10C,0.010000*%
%ADD11RoundRect,0.200000X-0.335876X-0.053033X-0.053033X-0.335876X0.335876X0.053033X0.053033X0.335876X0*%
%ADD12RoundRect,0.225000X-0.017678X0.335876X-0.335876X0.017678X0.017678X-0.335876X0.335876X-0.017678X0*%
%ADD13R,1.475000X0.300000*%
%ADD14R,0.300000X1.475000*%
%ADD15RoundRect,0.032500X-0.205061X-0.342947X0.342947X0.205061X0.205061X0.342947X-0.342947X-0.205061X0*%
%ADD16RoundRect,0.032500X0.205061X-0.342947X0.342947X-0.205061X-0.205061X0.342947X-0.342947X0.205061X0*%
%ADD17RoundRect,0.033750X0.208597X-0.351786X0.351786X-0.208597X-0.208597X0.351786X-0.351786X0.208597X0*%
%ADD18RoundRect,0.200000X-0.053033X0.335876X-0.335876X0.053033X0.053033X-0.335876X0.335876X-0.053033X0*%
%ADD19RoundRect,0.200000X-0.200000X-0.275000X0.200000X-0.275000X0.200000X0.275000X-0.200000X0.275000X0*%
%ADD20RoundRect,0.225000X-0.225000X-0.250000X0.225000X-0.250000X0.225000X0.250000X-0.225000X0.250000X0*%
%ADD21RoundRect,0.033750X0.173241X0.316430X-0.316430X-0.173241X-0.173241X-0.316430X0.316430X0.173241X0*%
%ADD22RotRect,0.700000X1.200000X225.000000*%
%ADD23RotRect,0.760000X1.200000X225.000000*%
%ADD24RotRect,0.800000X1.200000X225.000000*%
%ADD25RoundRect,0.150000X-0.875000X-0.150000X0.875000X-0.150000X0.875000X0.150000X-0.875000X0.150000X0*%
%ADD26RotRect,0.700000X1.200000X45.000000*%
%ADD27RotRect,0.760000X1.200000X45.000000*%
%ADD28RotRect,0.800000X1.200000X45.000000*%
G04 APERTURE END LIST*
%TO.C,U2*%
D10*
X80458579Y-44900000D02*
X79694903Y-45663675D01*
X78931228Y-44900000D01*
X79694903Y-44136325D01*
X80458579Y-44900000D01*
G36*
X80458579Y-44900000D02*
G01*
X79694903Y-45663675D01*
X78931228Y-44900000D01*
X79694903Y-44136325D01*
X80458579Y-44900000D01*
G37*
X81363675Y-45805097D02*
X80600000Y-46568772D01*
X79836325Y-45805097D01*
X80600000Y-45041421D01*
X81363675Y-45805097D01*
G36*
X81363675Y-45805097D02*
G01*
X80600000Y-46568772D01*
X79836325Y-45805097D01*
X80600000Y-45041421D01*
X81363675Y-45805097D01*
G37*
X81363675Y-43994903D02*
X80600000Y-44758579D01*
X79836325Y-43994903D01*
X80600000Y-43231228D01*
X81363675Y-43994903D01*
G36*
X81363675Y-43994903D02*
G01*
X80600000Y-44758579D01*
X79836325Y-43994903D01*
X80600000Y-43231228D01*
X81363675Y-43994903D01*
G37*
X82268772Y-44900000D02*
X81505097Y-45663675D01*
X80741421Y-44900000D01*
X81505097Y-44136325D01*
X82268772Y-44900000D01*
G36*
X82268772Y-44900000D02*
G01*
X81505097Y-45663675D01*
X80741421Y-44900000D01*
X81505097Y-44136325D01*
X82268772Y-44900000D01*
G37*
%TO.C,U1*%
X86261074Y-52958094D02*
X85865094Y-53354074D01*
X85285266Y-52774246D01*
X85681246Y-52378266D01*
X86261074Y-52958094D01*
G36*
X86261074Y-52958094D02*
G01*
X85865094Y-53354074D01*
X85285266Y-52774246D01*
X85681246Y-52378266D01*
X86261074Y-52958094D01*
G37*
%TD*%
D11*
%TO.C,R3*%
X106511123Y-96428785D03*
X107677849Y-97595511D03*
%TD*%
%TO.C,R4*%
X96328785Y-106611123D03*
X97495511Y-107777849D03*
%TD*%
D12*
%TO.C,C1*%
X94276129Y-59368017D03*
X93180113Y-60464033D03*
%TD*%
D13*
%TO.C,IC1*%
X42612000Y-77688000D03*
X42612000Y-78188000D03*
X42612000Y-78688000D03*
X42612000Y-79188000D03*
X42612000Y-79688000D03*
X42612000Y-80188000D03*
X42612000Y-80688000D03*
X42612000Y-81188000D03*
X42612000Y-81688000D03*
X42612000Y-82188000D03*
X42612000Y-82688000D03*
X42612000Y-83188000D03*
X42612000Y-83688000D03*
X42612000Y-84188000D03*
X42612000Y-84688000D03*
X42612000Y-85188000D03*
D14*
X44600000Y-87176000D03*
X45100000Y-87176000D03*
X45600000Y-87176000D03*
X46100000Y-87176000D03*
X46600000Y-87176000D03*
X47100000Y-87176000D03*
X47600000Y-87176000D03*
X48100000Y-87176000D03*
X48600000Y-87176000D03*
X49100000Y-87176000D03*
X49600000Y-87176000D03*
X50100000Y-87176000D03*
X50600000Y-87176000D03*
X51100000Y-87176000D03*
X51600000Y-87176000D03*
X52100000Y-87176000D03*
D13*
X54088000Y-85188000D03*
X54088000Y-84688000D03*
X54088000Y-84188000D03*
X54088000Y-83688000D03*
X54088000Y-83188000D03*
X54088000Y-82688000D03*
X54088000Y-82188000D03*
X54088000Y-81688000D03*
X54088000Y-81188000D03*
X54088000Y-80688000D03*
X54088000Y-80188000D03*
X54088000Y-79688000D03*
X54088000Y-79188000D03*
X54088000Y-78688000D03*
X54088000Y-78188000D03*
X54088000Y-77688000D03*
D14*
X52100000Y-75700000D03*
X51600000Y-75700000D03*
X51100000Y-75700000D03*
X50600000Y-75700000D03*
X50100000Y-75700000D03*
X49600000Y-75700000D03*
X49100000Y-75700000D03*
X48600000Y-75700000D03*
X48100000Y-75700000D03*
X47600000Y-75700000D03*
X47100000Y-75700000D03*
X46600000Y-75700000D03*
X46100000Y-75700000D03*
X45600000Y-75700000D03*
X45100000Y-75700000D03*
X44600000Y-75700000D03*
%TD*%
D15*
%TO.C,U2*%
X78340794Y-45391439D03*
X78694347Y-45744993D03*
X79047901Y-46098546D03*
X79401454Y-46452099D03*
X79755007Y-46805653D03*
X80108561Y-47159206D03*
D16*
X81091439Y-47159206D03*
X81444993Y-46805653D03*
X81798546Y-46452099D03*
X82152099Y-46098546D03*
X82505653Y-45744993D03*
X82859206Y-45391439D03*
D15*
X82859206Y-44408561D03*
X82505653Y-44055007D03*
X82152099Y-43701454D03*
X81798546Y-43347901D03*
X81444993Y-42994347D03*
X81091439Y-42640794D03*
D17*
X80108561Y-42640794D03*
X79755007Y-42994347D03*
X79401454Y-43347901D03*
X79047901Y-43701454D03*
X78694347Y-44055007D03*
X78340794Y-44408561D03*
%TD*%
D18*
%TO.C,R6*%
X90761808Y-55782986D03*
X89595082Y-56949712D03*
%TD*%
D19*
%TO.C,R8*%
X43000000Y-53510000D03*
X44650000Y-53510000D03*
%TD*%
D20*
%TO.C,C2*%
X43050000Y-51000000D03*
X44600000Y-51000000D03*
%TD*%
D18*
%TO.C,R7*%
X88986970Y-54008148D03*
X87820244Y-55174874D03*
%TD*%
D21*
%TO.C,U1*%
X87000000Y-52700000D03*
X86646447Y-52346447D03*
X86292893Y-51992893D03*
X85939340Y-51639340D03*
X84546340Y-53032340D03*
X84899893Y-53385893D03*
X85253447Y-53739447D03*
X85607000Y-54093000D03*
%TD*%
D11*
%TO.C,R2*%
X22072151Y-32204487D03*
X23238877Y-33371213D03*
%TD*%
D22*
%TO.C,J4*%
X27767896Y-27010789D03*
D23*
X26339540Y-28439145D03*
D24*
X25469799Y-29308886D03*
D22*
X27060789Y-27717896D03*
D23*
X28489145Y-26289540D03*
D24*
X29358886Y-25419799D03*
%TD*%
D25*
%TO.C,U5*%
X43600000Y-57260000D03*
X43600000Y-58530000D03*
X43600000Y-59800000D03*
X43600000Y-61070000D03*
X43600000Y-62340000D03*
X43600000Y-63610000D03*
X43600000Y-64880000D03*
X43600000Y-66150000D03*
X43600000Y-67420000D03*
X43600000Y-68690000D03*
X43600000Y-69960000D03*
X43600000Y-71230000D03*
X52900000Y-71230000D03*
X52900000Y-69960000D03*
X52900000Y-68690000D03*
X52900000Y-67420000D03*
X52900000Y-66150000D03*
X52900000Y-64880000D03*
X52900000Y-63610000D03*
X52900000Y-62340000D03*
X52900000Y-61070000D03*
X52900000Y-59800000D03*
X52900000Y-58530000D03*
X52900000Y-57260000D03*
%TD*%
D18*
%TO.C,R5*%
X92536646Y-57557824D03*
X91369920Y-58724550D03*
%TD*%
D26*
%TO.C,J1*%
X101982104Y-102789211D03*
D27*
X103410460Y-101360855D03*
D28*
X104280201Y-100491114D03*
D26*
X102689211Y-102082104D03*
D27*
X101260855Y-103510460D03*
D28*
X100391114Y-104380201D03*
%TD*%
D11*
%TO.C,R1*%
X32254489Y-22022150D03*
X33421215Y-23188876D03*
%TD*%
M02*
