%TF.GenerationSoftware,KiCad,Pcbnew,7.0.10*%
%TF.CreationDate,2025-08-26T16:00:25+02:00*%
%TF.ProjectId,BQ2xxxx,42513278-7878-4782-9e6b-696361645f70,rev?*%
%TF.SameCoordinates,Original*%
%TF.FileFunction,Soldermask,Top*%
%TF.FilePolarity,Negative*%
%FSLAX46Y46*%
G04 Gerber Fmt 4.6, Leading zero omitted, Abs format (unit mm)*
G04 Created by KiCad (PCBNEW 7.0.10) date 2025-08-26 16:00:25*
%MOMM*%
%LPD*%
G01*
G04 APERTURE LIST*
G04 Aperture macros list*
%AMRoundRect*
0 Rectangle with rounded corners*
0 $1 Rounding radius*
0 $2 $3 $4 $5 $6 $7 $8 $9 X,Y pos of 4 corners*
0 Add a 4 corners polygon primitive as box body*
4,1,4,$2,$3,$4,$5,$6,$7,$8,$9,$2,$3,0*
0 Add four circle primitives for the rounded corners*
1,1,$1+$1,$2,$3*
1,1,$1+$1,$4,$5*
1,1,$1+$1,$6,$7*
1,1,$1+$1,$8,$9*
0 Add four rect primitives between the rounded corners*
20,1,$1+$1,$2,$3,$4,$5,0*
20,1,$1+$1,$4,$5,$6,$7,0*
20,1,$1+$1,$6,$7,$8,$9,0*
20,1,$1+$1,$8,$9,$2,$3,0*%
%AMHorizOval*
0 Thick line with rounded ends*
0 $1 width*
0 $2 $3 position (X,Y) of the first rounded end (center of the circle)*
0 $4 $5 position (X,Y) of the second rounded end (center of the circle)*
0 Add line between two ends*
20,1,$1,$2,$3,$4,$5,0*
0 Add two circle primitives to create the rounded ends*
1,1,$1,$2,$3*
1,1,$1,$4,$5*%
%AMRotRect*
0 Rectangle, with rotation*
0 The origin of the aperture is its center*
0 $1 length*
0 $2 width*
0 $3 Rotation angle, in degrees counterclockwise*
0 Add horizontal line*
21,1,$1,$2,0,0,$3*%
%AMFreePoly0*
4,1,21,-0.125000,1.200000,0.125000,1.200000,0.125000,1.700000,0.375001,1.700000,0.375000,1.200000,0.825000,1.200000,0.825000,-1.200000,0.375000,-1.200000,0.375001,-1.700000,0.125000,-1.700000,0.125000,-1.200000,-0.125000,-1.200000,-0.125000,-1.700000,-0.375001,-1.700000,-0.375000,-1.200000,-0.825000,-1.200000,-0.825000,1.200000,-0.375000,1.200000,-0.375001,1.700000,-0.125000,1.700000,
-0.125000,1.200000,-0.125000,1.200000,$1*%
G04 Aperture macros list end*
%ADD10RoundRect,0.135000X-0.035355X0.226274X-0.226274X0.035355X0.035355X-0.226274X0.226274X-0.035355X0*%
%ADD11RoundRect,0.140000X-0.170000X0.140000X-0.170000X-0.140000X0.170000X-0.140000X0.170000X0.140000X0*%
%ADD12RoundRect,0.135000X0.135000X0.185000X-0.135000X0.185000X-0.135000X-0.185000X0.135000X-0.185000X0*%
%ADD13R,2.794000X1.320800*%
%ADD14RoundRect,0.135000X-0.226274X-0.035355X-0.035355X-0.226274X0.226274X0.035355X0.035355X0.226274X0*%
%ADD15RoundRect,0.140000X-0.219203X-0.021213X-0.021213X-0.219203X0.219203X0.021213X0.021213X0.219203X0*%
%ADD16RoundRect,0.135000X0.185000X-0.135000X0.185000X0.135000X-0.185000X0.135000X-0.185000X-0.135000X0*%
%ADD17RoundRect,0.250000X-0.475000X0.250000X-0.475000X-0.250000X0.475000X-0.250000X0.475000X0.250000X0*%
%ADD18C,3.000000*%
%ADD19C,2.200000*%
%ADD20RoundRect,0.140000X-0.021213X0.219203X-0.219203X0.021213X0.021213X-0.219203X0.219203X-0.021213X0*%
%ADD21R,1.500000X1.500000*%
%ADD22C,1.500000*%
%ADD23RotRect,1.600000X0.410000X225.000000*%
%ADD24RoundRect,0.147500X0.172500X-0.147500X0.172500X0.147500X-0.172500X0.147500X-0.172500X-0.147500X0*%
%ADD25R,1.000000X1.000000*%
%ADD26RoundRect,0.075000X-0.415425X-0.521491X0.521491X0.415425X0.415425X0.521491X-0.521491X-0.415425X0*%
%ADD27RoundRect,0.075000X0.415425X-0.521491X0.521491X-0.415425X-0.415425X0.521491X-0.521491X0.415425X0*%
%ADD28RoundRect,0.135000X0.226274X0.035355X0.035355X0.226274X-0.226274X-0.035355X-0.035355X-0.226274X0*%
%ADD29RoundRect,0.140000X0.021213X-0.219203X0.219203X-0.021213X-0.021213X0.219203X-0.219203X0.021213X0*%
%ADD30RoundRect,0.140000X-0.140000X-0.170000X0.140000X-0.170000X0.140000X0.170000X-0.140000X0.170000X0*%
%ADD31RoundRect,0.225000X-0.017678X0.335876X-0.335876X0.017678X0.017678X-0.335876X0.335876X-0.017678X0*%
%ADD32RoundRect,0.250000X-0.159099X0.512652X-0.512652X0.159099X0.159099X-0.512652X0.512652X-0.159099X0*%
%ADD33RoundRect,0.058000X-0.174000X0.464000X-0.174000X-0.464000X0.174000X-0.464000X0.174000X0.464000X0*%
%ADD34RoundRect,0.058000X-0.464000X0.174000X-0.464000X-0.174000X0.464000X-0.174000X0.464000X0.174000X0*%
%ADD35RoundRect,0.059250X-0.472750X0.177750X-0.472750X-0.177750X0.472750X-0.177750X0.472750X0.177750X0*%
%ADD36RoundRect,0.102000X-1.350000X1.350000X-1.350000X-1.350000X1.350000X-1.350000X1.350000X1.350000X0*%
%ADD37RotRect,1.700000X1.700000X225.000000*%
%ADD38HorizOval,1.700000X0.000000X0.000000X0.000000X0.000000X0*%
%ADD39RoundRect,0.140000X0.219203X0.021213X0.021213X0.219203X-0.219203X-0.021213X-0.021213X-0.219203X0*%
%ADD40R,1.500000X2.400000*%
%ADD41RoundRect,0.225000X0.335876X0.017678X0.017678X0.335876X-0.335876X-0.017678X-0.017678X-0.335876X0*%
%ADD42R,0.700000X1.000000*%
%ADD43RoundRect,0.147500X-0.226274X-0.017678X-0.017678X-0.226274X0.226274X0.017678X0.017678X0.226274X0*%
%ADD44RoundRect,0.102000X1.440000X-0.560000X1.440000X0.560000X-1.440000X0.560000X-1.440000X-0.560000X0*%
%ADD45C,3.580000*%
%ADD46RoundRect,0.225000X-0.225000X-0.250000X0.225000X-0.250000X0.225000X0.250000X-0.225000X0.250000X0*%
%ADD47RoundRect,0.250000X-0.450000X0.262500X-0.450000X-0.262500X0.450000X-0.262500X0.450000X0.262500X0*%
%ADD48RoundRect,0.250000X0.475000X-0.250000X0.475000X0.250000X-0.475000X0.250000X-0.475000X-0.250000X0*%
%ADD49RoundRect,0.140000X0.170000X-0.140000X0.170000X0.140000X-0.170000X0.140000X-0.170000X-0.140000X0*%
%ADD50RoundRect,0.059250X0.177750X-0.422750X0.177750X0.422750X-0.177750X0.422750X-0.177750X-0.422750X0*%
%ADD51RoundRect,0.102000X0.650000X-0.450000X0.650000X0.450000X-0.650000X0.450000X-0.650000X-0.450000X0*%
%ADD52RotRect,1.700000X1.700000X45.000000*%
%ADD53HorizOval,1.700000X0.000000X0.000000X0.000000X0.000000X0*%
%ADD54RotRect,0.700000X1.000000X225.000000*%
%ADD55RotRect,0.700000X1.200000X225.000000*%
%ADD56RotRect,0.760000X1.200000X225.000000*%
%ADD57RotRect,0.800000X1.200000X225.000000*%
%ADD58C,2.010000*%
%ADD59RoundRect,0.147500X-0.017678X0.226274X-0.226274X0.017678X0.017678X-0.226274X0.226274X-0.017678X0*%
%ADD60RoundRect,0.225000X0.250000X-0.225000X0.250000X0.225000X-0.250000X0.225000X-0.250000X-0.225000X0*%
%ADD61RoundRect,0.135000X-0.185000X0.135000X-0.185000X-0.135000X0.185000X-0.135000X0.185000X0.135000X0*%
%ADD62R,1.000000X0.700000*%
%ADD63RoundRect,0.135000X0.035355X-0.226274X0.226274X-0.035355X-0.035355X0.226274X-0.226274X0.035355X0*%
%ADD64C,2.949000*%
%ADD65RoundRect,0.225000X0.225000X0.250000X-0.225000X0.250000X-0.225000X-0.250000X0.225000X-0.250000X0*%
%ADD66RotRect,0.600000X0.240000X225.000000*%
%ADD67FreePoly0,225.000000*%
%ADD68C,2.304000*%
%ADD69RoundRect,0.140000X0.140000X0.170000X-0.140000X0.170000X-0.140000X-0.170000X0.140000X-0.170000X0*%
%ADD70RoundRect,0.250000X-0.503814X-0.132583X-0.132583X-0.503814X0.503814X0.132583X0.132583X0.503814X0*%
%ADD71RotRect,0.700000X1.200000X45.000000*%
%ADD72RotRect,0.760000X1.200000X45.000000*%
%ADD73RotRect,0.800000X1.200000X45.000000*%
%ADD74RoundRect,0.250000X0.866206X0.335876X0.335876X0.866206X-0.866206X-0.335876X-0.335876X-0.866206X0*%
%ADD75R,0.250000X0.575000*%
%ADD76R,0.250000X0.550000*%
%ADD77R,0.400000X1.250000*%
%ADD78R,1.000000X0.400000*%
%ADD79R,0.550000X0.250000*%
%ADD80R,0.450000X0.225000*%
%ADD81R,1.050000X0.400000*%
%ADD82C,0.900000*%
%ADD83C,0.450000*%
%ADD84C,0.750000*%
G04 APERTURE END LIST*
D10*
%TO.C,R10*%
X103160624Y-32639378D03*
X102439376Y-33360626D03*
%TD*%
D11*
%TO.C,C26*%
X59300000Y-82889999D03*
X59300000Y-83849999D03*
%TD*%
D12*
%TO.C,R22*%
X108010000Y-55100000D03*
X106990000Y-55100000D03*
%TD*%
D13*
%TO.C,L3*%
X55105000Y-66914801D03*
X55105000Y-62495201D03*
%TD*%
D12*
%TO.C,R16*%
X44510000Y-60305000D03*
X43490000Y-60305000D03*
%TD*%
D14*
%TO.C,R3*%
X107339376Y-96939376D03*
X108060624Y-97660624D03*
%TD*%
D15*
%TO.C,C7*%
X96760589Y-40860589D03*
X97439411Y-41539411D03*
%TD*%
D16*
%TO.C,R29*%
X56700000Y-75210000D03*
X56700000Y-74190000D03*
%TD*%
D17*
%TO.C,C28*%
X62500000Y-77990000D03*
X62500000Y-79890000D03*
%TD*%
D18*
%TO.C,FID1*%
X24800000Y-102600000D03*
%TD*%
D19*
%TO.C,H2*%
X106800000Y-34600000D03*
%TD*%
D14*
%TO.C,R4*%
X96751524Y-106933862D03*
X97472772Y-107655110D03*
%TD*%
D18*
%TO.C,TP10*%
X82900000Y-84600000D03*
%TD*%
D20*
%TO.C,C12*%
X86767971Y-44289152D03*
X86089149Y-44967974D03*
%TD*%
D21*
%TO.C,U4*%
X59660000Y-106500000D03*
D22*
X62200000Y-106500000D03*
X64740000Y-106500000D03*
X67280000Y-106500000D03*
X69820000Y-106500000D03*
X72360000Y-106500000D03*
X72360000Y-91260000D03*
X69820000Y-91260000D03*
X67280000Y-91260000D03*
X64740000Y-91260000D03*
X62200000Y-91260000D03*
X59660000Y-91260000D03*
%TD*%
D23*
%TO.C,U6*%
X38533748Y-96166115D03*
X38084735Y-95717102D03*
X37635722Y-95268089D03*
X37186710Y-94819076D03*
X36737697Y-94370064D03*
X36288684Y-93921051D03*
X35839671Y-93472038D03*
X35390658Y-93023025D03*
X34941646Y-92574012D03*
X34492633Y-92125000D03*
X34043620Y-91675987D03*
X33594607Y-91226974D03*
X29840860Y-94980721D03*
X30289873Y-95429734D03*
X30738886Y-95878747D03*
X31187898Y-96327760D03*
X31636911Y-96776772D03*
X32085924Y-97225785D03*
X32534937Y-97674798D03*
X32983950Y-98123811D03*
X33432962Y-98572824D03*
X33881975Y-99021836D03*
X34330988Y-99470849D03*
X34780001Y-99919862D03*
%TD*%
D17*
%TO.C,C29*%
X64600000Y-77989999D03*
X64600000Y-79889999D03*
%TD*%
D19*
%TO.C,H3*%
X94800000Y-22600000D03*
%TD*%
D24*
%TO.C,D3*%
X47805000Y-52675001D03*
X47805000Y-51705001D03*
%TD*%
D25*
%TO.C,TP1*%
X35300000Y-34400000D03*
%TD*%
D16*
%TO.C,R24*%
X54290000Y-83900000D03*
X54290000Y-82880000D03*
%TD*%
D26*
%TO.C,U5*%
X85512124Y-39598788D03*
X85865678Y-39952342D03*
X86219231Y-40305895D03*
X86572785Y-40659449D03*
X86926338Y-41013002D03*
X87279891Y-41366555D03*
X87633445Y-41720109D03*
X87986998Y-42073662D03*
X88340551Y-42427215D03*
X88694105Y-42780769D03*
X89047658Y-43134322D03*
X89401212Y-43487876D03*
D27*
X91398788Y-43487876D03*
X91752342Y-43134322D03*
X92105895Y-42780769D03*
X92459449Y-42427215D03*
X92813002Y-42073662D03*
X93166555Y-41720109D03*
X93520109Y-41366555D03*
X93873662Y-41013002D03*
X94227215Y-40659449D03*
X94580769Y-40305895D03*
X94934322Y-39952342D03*
X95287876Y-39598788D03*
D26*
X95287876Y-37601212D03*
X94934322Y-37247658D03*
X94580769Y-36894105D03*
X94227215Y-36540551D03*
X93873662Y-36186998D03*
X93520109Y-35833445D03*
X93166555Y-35479891D03*
X92813002Y-35126338D03*
X92459449Y-34772785D03*
X92105895Y-34419231D03*
X91752342Y-34065678D03*
X91398788Y-33712124D03*
D27*
X89401212Y-33712124D03*
X89047658Y-34065678D03*
X88694105Y-34419231D03*
X88340551Y-34772785D03*
X87986998Y-35126338D03*
X87633445Y-35479891D03*
X87279891Y-35833445D03*
X86926338Y-36186998D03*
X86572785Y-36540551D03*
X86219231Y-36894105D03*
X85865678Y-37247658D03*
X85512124Y-37601212D03*
%TD*%
D28*
%TO.C,R13*%
X92960624Y-45860624D03*
X92239376Y-45139376D03*
%TD*%
D29*
%TO.C,C8*%
X90999999Y-32139411D03*
X91678821Y-31460589D03*
%TD*%
D18*
%TO.C,FID3*%
X24800000Y-52600000D03*
%TD*%
D30*
%TO.C,C1*%
X97920000Y-54200000D03*
X98880000Y-54200000D03*
%TD*%
D25*
%TO.C,TP3*%
X79000000Y-77600000D03*
%TD*%
D31*
%TO.C,C3*%
X65663013Y-66789181D03*
X64566997Y-67885197D03*
%TD*%
D30*
%TO.C,C17*%
X53025000Y-59905001D03*
X53985000Y-59905001D03*
%TD*%
D32*
%TO.C,C4*%
X70453663Y-71332341D03*
X69110161Y-72675843D03*
%TD*%
D33*
%TO.C,U2*%
X49700000Y-56510001D03*
X49200000Y-56510001D03*
X48700000Y-56510001D03*
X48200000Y-56510001D03*
X47700000Y-56510001D03*
X47200000Y-56510001D03*
D34*
X46505000Y-57205001D03*
X46505000Y-57705001D03*
X46505000Y-58205001D03*
X46505000Y-58705001D03*
X46505000Y-59205001D03*
X46505000Y-59705001D03*
D33*
X47200000Y-60400001D03*
X47700000Y-60400001D03*
X48200000Y-60400001D03*
X48700000Y-60400001D03*
X49200000Y-60400001D03*
X49700000Y-60400001D03*
D35*
X50395000Y-59705001D03*
X50395000Y-59205001D03*
X50395000Y-58705001D03*
X50395000Y-58205001D03*
X50395000Y-57705001D03*
X50395000Y-57205001D03*
D36*
X48450000Y-58455001D03*
%TD*%
D37*
%TO.C,J9*%
X96101561Y-97301562D03*
D38*
X94305510Y-95505511D03*
%TD*%
D39*
%TO.C,C9*%
X84239411Y-35926130D03*
X83560589Y-35247308D03*
%TD*%
D19*
%TO.C,H5*%
X22800000Y-97600000D03*
%TD*%
D30*
%TO.C,C16*%
X51225001Y-54105001D03*
X52185001Y-54105001D03*
%TD*%
D12*
%TO.C,R6*%
X44715000Y-57505000D03*
X43695000Y-57505000D03*
%TD*%
D40*
%TO.C,L2*%
X51300001Y-78900000D03*
X45800001Y-78900000D03*
%TD*%
D41*
%TO.C,C10*%
X82448008Y-38348008D03*
X81351992Y-37251992D03*
%TD*%
D42*
%TO.C,S4*%
X104750000Y-63150000D03*
X104750000Y-58650000D03*
X106900000Y-63150000D03*
X106900000Y-58650000D03*
%TD*%
D43*
%TO.C,D2*%
X95857052Y-90957052D03*
X96542946Y-91642946D03*
%TD*%
D21*
%TO.C,U3*%
X23160000Y-57400000D03*
D22*
X23160000Y-59940000D03*
X23160000Y-62480000D03*
X23160000Y-65020000D03*
X23160000Y-67560000D03*
X23160000Y-70100000D03*
X38400000Y-70100000D03*
X38400000Y-67560000D03*
X38400000Y-65020000D03*
X38400000Y-62480000D03*
X38400000Y-59940000D03*
X38400000Y-57400000D03*
%TD*%
D44*
%TO.C,J7*%
X102417500Y-89365250D03*
X102417500Y-86865250D03*
X102417500Y-84865250D03*
X102417500Y-82365250D03*
D45*
X105997500Y-92435250D03*
X105997500Y-79295250D03*
%TD*%
D25*
%TO.C,TP8*%
X92700000Y-52700000D03*
%TD*%
D14*
%TO.C,R18*%
X85820351Y-32958401D03*
X86541599Y-33679649D03*
%TD*%
D46*
%TO.C,C21*%
X48212500Y-64955001D03*
X49762500Y-64955001D03*
%TD*%
D25*
%TO.C,TP2*%
X75400000Y-86700000D03*
%TD*%
D16*
%TO.C,R12*%
X63755000Y-22840000D03*
X63755000Y-21820000D03*
%TD*%
D37*
%TO.C,J5*%
X73796051Y-39396051D03*
D38*
X72000000Y-37600000D03*
X70203949Y-35803949D03*
X68407897Y-34007897D03*
X66611846Y-32211846D03*
%TD*%
D10*
%TO.C,R26*%
X80592857Y-42207143D03*
X79871609Y-42928391D03*
%TD*%
D19*
%TO.C,H4*%
X56800000Y-22600000D03*
%TD*%
D47*
%TO.C,JP1*%
X60400000Y-71687500D03*
X60400000Y-73512500D03*
%TD*%
D24*
%TO.C,D4*%
X46505000Y-52675001D03*
X46505000Y-51705001D03*
%TD*%
D48*
%TO.C,C22*%
X45800001Y-85070000D03*
X45800001Y-83170000D03*
%TD*%
D49*
%TO.C,C31*%
X55100000Y-75560000D03*
X55100000Y-74600000D03*
%TD*%
D14*
%TO.C,R8*%
X28339376Y-92339376D03*
X29060624Y-93060624D03*
%TD*%
D10*
%TO.C,R7*%
X102167139Y-31645893D03*
X101445891Y-32367141D03*
%TD*%
D50*
%TO.C,U1*%
X96950000Y-52785000D03*
X97450000Y-52785000D03*
X97950000Y-52785000D03*
X98450000Y-52785000D03*
X98450000Y-50815000D03*
X97950000Y-50815000D03*
X97450000Y-50815000D03*
X96950000Y-50815000D03*
D51*
X97700000Y-51800000D03*
%TD*%
D19*
%TO.C,H7*%
X27800000Y-35600000D03*
%TD*%
D25*
%TO.C,TP9*%
X94900000Y-52700000D03*
%TD*%
D49*
%TO.C,C24*%
X53000000Y-82480000D03*
X53000000Y-81520000D03*
%TD*%
D52*
%TO.C,J6*%
X96698439Y-27698439D03*
D53*
X98494490Y-29494490D03*
%TD*%
D14*
%TO.C,R2*%
X22144890Y-32227226D03*
X22866138Y-32948474D03*
%TD*%
D46*
%TO.C,C19*%
X52930000Y-58205001D03*
X54480000Y-58205001D03*
%TD*%
D54*
%TO.C,S3*%
X105400000Y-27600000D03*
X102218020Y-24418020D03*
X106920280Y-26079720D03*
X103738300Y-22897740D03*
%TD*%
D19*
%TO.C,H1*%
X106800000Y-72600000D03*
%TD*%
D28*
%TO.C,R28*%
X97160624Y-43060624D03*
X96439376Y-42339376D03*
%TD*%
D11*
%TO.C,C30*%
X53000001Y-77279999D03*
X53000001Y-78239999D03*
%TD*%
D25*
%TO.C,TP6*%
X61800000Y-62000000D03*
%TD*%
D55*
%TO.C,J4*%
X27617896Y-26810789D03*
D56*
X26189540Y-28239145D03*
D57*
X25319799Y-29108886D03*
D55*
X26910789Y-27517896D03*
D56*
X28339145Y-26089540D03*
D57*
X29208886Y-25219799D03*
D58*
X24153073Y-30162475D03*
X21466067Y-27475470D03*
X27575470Y-21366067D03*
X30262475Y-24053073D03*
%TD*%
D52*
%TO.C,J2*%
X86807898Y-52607898D03*
D53*
X88603949Y-54403949D03*
X90400000Y-56200000D03*
X92196052Y-57996052D03*
X93992103Y-59792103D03*
%TD*%
D59*
%TO.C,D1*%
X36142947Y-25257053D03*
X35457053Y-25942947D03*
%TD*%
D60*
%TO.C,C18*%
X53505000Y-56080000D03*
X53505000Y-54530000D03*
%TD*%
D20*
%TO.C,C2*%
X101173655Y-30666551D03*
X100494833Y-31345373D03*
%TD*%
D61*
%TO.C,R23*%
X56900000Y-82880000D03*
X56900000Y-83900000D03*
%TD*%
D12*
%TO.C,R17*%
X44705000Y-59005001D03*
X43685000Y-59005001D03*
%TD*%
D14*
%TO.C,R27*%
X95639376Y-43139376D03*
X96360624Y-43860624D03*
%TD*%
D62*
%TO.C,S2*%
X66000000Y-22950000D03*
X70500000Y-22950000D03*
X66000000Y-25100000D03*
X70500000Y-25100000D03*
%TD*%
D61*
%TO.C,R25*%
X55500000Y-82880000D03*
X55500000Y-83900000D03*
%TD*%
D63*
%TO.C,R14*%
X33439376Y-27960624D03*
X34160624Y-27239376D03*
%TD*%
D28*
%TO.C,R5*%
X93879863Y-44941382D03*
X93158615Y-44220134D03*
%TD*%
D64*
%TO.C,BT2*%
X91414894Y-69910017D03*
X87822792Y-73502119D03*
X95006997Y-77094222D03*
%TD*%
D65*
%TO.C,C15*%
X46062500Y-62455000D03*
X44512500Y-62455000D03*
%TD*%
D66*
%TO.C,U7*%
X68438406Y-69812060D03*
X68084853Y-69458507D03*
X67731299Y-69104954D03*
X67377746Y-68751400D03*
X67024193Y-68397847D03*
X65044294Y-70377746D03*
X65397847Y-70731299D03*
X65751401Y-71084852D03*
X66104954Y-71438406D03*
X66458507Y-71791959D03*
D67*
X66741350Y-70094903D03*
%TD*%
D68*
%TO.C,BT1*%
X49059198Y-31231276D03*
X43759433Y-32217690D03*
X50045612Y-25931511D03*
%TD*%
D11*
%TO.C,C23*%
X47500000Y-83640000D03*
X47500000Y-84600000D03*
%TD*%
D14*
%TO.C,R9*%
X84437186Y-34299999D03*
X85158434Y-35021247D03*
%TD*%
D69*
%TO.C,C5*%
X107980000Y-53705000D03*
X107020000Y-53705000D03*
%TD*%
%TO.C,C32*%
X52160000Y-52900002D03*
X51200000Y-52900002D03*
%TD*%
D16*
%TO.C,R20*%
X46504999Y-49984628D03*
X46504999Y-48964628D03*
%TD*%
D29*
%TO.C,C13*%
X84235598Y-43107382D03*
X84914420Y-42428560D03*
%TD*%
D11*
%TO.C,C25*%
X58100000Y-82890000D03*
X58100000Y-83850000D03*
%TD*%
D70*
%TO.C,TH1*%
X64754765Y-56354765D03*
X66045235Y-57645235D03*
%TD*%
D25*
%TO.C,TP5*%
X72100000Y-69600000D03*
%TD*%
%TO.C,TP7*%
X72700000Y-76700000D03*
%TD*%
D14*
%TO.C,R21*%
X86739376Y-32039376D03*
X87460624Y-32760624D03*
%TD*%
D19*
%TO.C,H6*%
X31800000Y-106600000D03*
%TD*%
D71*
%TO.C,J1*%
X102282104Y-102889211D03*
D72*
X103710460Y-101460855D03*
D73*
X104580201Y-100591114D03*
D71*
X102989211Y-102182104D03*
D72*
X101560855Y-103610460D03*
D73*
X100691114Y-104480201D03*
D58*
X105746927Y-99537525D03*
X108433933Y-102224530D03*
X102324530Y-108333933D03*
X99637525Y-105646927D03*
%TD*%
D14*
%TO.C,R1*%
X32327228Y-22044889D03*
X33048476Y-22766137D03*
%TD*%
D20*
%TO.C,C11*%
X87639411Y-45160589D03*
X86960589Y-45839411D03*
%TD*%
D16*
%TO.C,R19*%
X47805000Y-49984628D03*
X47805000Y-48964628D03*
%TD*%
D12*
%TO.C,R11*%
X108010000Y-56400000D03*
X106990000Y-56400000D03*
%TD*%
D74*
%TO.C,L1*%
X70188496Y-68168039D03*
X68668216Y-66647759D03*
%TD*%
D28*
%TO.C,R15*%
X98560624Y-93660624D03*
X97839376Y-92939376D03*
%TD*%
D10*
%TO.C,FB1*%
X85896532Y-43403571D03*
X85175284Y-44124819D03*
%TD*%
D75*
%TO.C,IC2*%
X55350000Y-80302999D03*
D76*
X55850000Y-80314999D03*
D77*
X56425000Y-79964999D03*
D78*
X56475000Y-78889999D03*
D77*
X56425000Y-77814999D03*
D76*
X55850000Y-77464999D03*
D75*
X55350000Y-77476999D03*
D79*
X55050000Y-78139999D03*
X55050000Y-78639999D03*
X55050000Y-79139999D03*
X55050000Y-79639999D03*
D80*
X55000000Y-80126999D03*
D81*
X57150000Y-79539999D03*
X57150000Y-78239999D03*
D80*
X55000000Y-77652999D03*
%TD*%
D59*
%TO.C,D5*%
X82342948Y-40457052D03*
X81657054Y-41142946D03*
%TD*%
D49*
%TO.C,C33*%
X58000000Y-75160000D03*
X58000000Y-74200000D03*
%TD*%
D25*
%TO.C,TP4*%
X42800000Y-75000000D03*
%TD*%
D11*
%TO.C,C14*%
X62340000Y-21830000D03*
X62340000Y-22790000D03*
%TD*%
D20*
%TO.C,C6*%
X83839411Y-41260588D03*
X83160589Y-41939410D03*
%TD*%
D17*
%TO.C,C27*%
X60400001Y-77990000D03*
X60400001Y-79890000D03*
%TD*%
D19*
%TO.C,H8*%
X93800000Y-101600000D03*
%TD*%
D18*
%TO.C,FID2*%
X74800000Y-102600000D03*
%TD*%
D46*
%TO.C,C20*%
X48212500Y-63355000D03*
X49762500Y-63355000D03*
%TD*%
D82*
%TO.C,J8*%
X107600000Y-44200000D03*
X107600000Y-47200000D03*
%TD*%
%TO.C,J3*%
X82600000Y-22500000D03*
X85600000Y-22500000D03*
%TD*%
D83*
X46300001Y-64200001D03*
X46000001Y-63600002D03*
X46000001Y-64800000D03*
X46000001Y-66000002D03*
X46600000Y-67200000D03*
X45700001Y-64200001D03*
X46600001Y-66000002D03*
X45700001Y-66600001D03*
X46000001Y-67200000D03*
X46300001Y-66600001D03*
X46600001Y-64800000D03*
X45700001Y-65400001D03*
X46600000Y-63600002D03*
X46300001Y-65400001D03*
X98200000Y-106900000D03*
X101300000Y-101900000D03*
X21800000Y-39600000D03*
X44200000Y-63600000D03*
X87300000Y-28100000D03*
X36800000Y-104600000D03*
X102300000Y-26100000D03*
X66800000Y-39600000D03*
X76800000Y-74600000D03*
X88400000Y-26475000D03*
X66800000Y-59600000D03*
X99800000Y-30900000D03*
X103800000Y-35600000D03*
X81300000Y-31100000D03*
X26560662Y-23990813D03*
X48100000Y-86599999D03*
X27409190Y-23142285D03*
X41800000Y-89600000D03*
X23378680Y-28021320D03*
X32639443Y-93459166D03*
X57800000Y-81200000D03*
X51000000Y-62900001D03*
X101800000Y-79600000D03*
X105348528Y-103251471D03*
X76800000Y-41100000D03*
X41800000Y-77100000D03*
X24439339Y-27809188D03*
X77800000Y-40100000D03*
X44799999Y-64799998D03*
X40800000Y-64600000D03*
X74300000Y-52100000D03*
X76800000Y-34600000D03*
X49200000Y-58200000D03*
D84*
X80200000Y-37900000D03*
D83*
X51299999Y-62300002D03*
X48600000Y-58200000D03*
X51800000Y-34600000D03*
X101800000Y-69600000D03*
X87300000Y-39200000D03*
X44500000Y-64199999D03*
X66800000Y-87100000D03*
X95800000Y-33600000D03*
X65600000Y-80900000D03*
X69300000Y-59600000D03*
X74300000Y-27100000D03*
X46800000Y-89600000D03*
X53981381Y-57109311D03*
X89800000Y-47100000D03*
X55800000Y-52600000D03*
X48900000Y-58799999D03*
X25287867Y-26960659D03*
X40800000Y-67600000D03*
X40800000Y-56100000D03*
X64400002Y-80900000D03*
X46800000Y-99600000D03*
X61800000Y-84100000D03*
X71800000Y-44600000D03*
X104300000Y-67100000D03*
X31900000Y-92500000D03*
X44799998Y-65999997D03*
X24015075Y-28233452D03*
X41800000Y-94600000D03*
X48400000Y-86000000D03*
X44800000Y-63600000D03*
X36800000Y-39600000D03*
X26800000Y-54600000D03*
X96800000Y-64600000D03*
X58800000Y-58600000D03*
X105984924Y-103463603D03*
X58400002Y-80300000D03*
X99800000Y-48100000D03*
X65300000Y-29100000D03*
X67500000Y-70300000D03*
X91800000Y-99600000D03*
X84300000Y-57100000D03*
X79300000Y-59600000D03*
X42900000Y-57200000D03*
X92800000Y-29100000D03*
X56800000Y-94600000D03*
X49300000Y-81100000D03*
X24651473Y-26748529D03*
X25300000Y-80100000D03*
X49500000Y-58799999D03*
X54000000Y-52600003D03*
X102378678Y-106221319D03*
X65475871Y-71908104D03*
X106197056Y-102402943D03*
X47200000Y-86000000D03*
X41800000Y-44600000D03*
X25300000Y-75600000D03*
X62875736Y-67175736D03*
X46800000Y-29600000D03*
X65000002Y-81800000D03*
X84300000Y-59600000D03*
X54168274Y-59000458D03*
X66800000Y-65100000D03*
X50700000Y-62300002D03*
X63512131Y-66963605D03*
X53400001Y-52600003D03*
X59300000Y-57100000D03*
X106833452Y-102615075D03*
X27833452Y-24415076D03*
X66439336Y-70512131D03*
X69300000Y-84600000D03*
X76800000Y-52100000D03*
X100975000Y-38704078D03*
X48600000Y-59400000D03*
X106800000Y-84600000D03*
X59300000Y-99600000D03*
X26772793Y-24627209D03*
X87800000Y-31100000D03*
X41800000Y-24600000D03*
X47600000Y-53795001D03*
X63200000Y-80900000D03*
X71800000Y-89600000D03*
X25300000Y-71100000D03*
X70636395Y-73987869D03*
X63800000Y-84100000D03*
X44300000Y-69600000D03*
X46900000Y-86599999D03*
X100800000Y-42600000D03*
X46800000Y-104600000D03*
X61800000Y-49600000D03*
X23802944Y-27597057D03*
X25712131Y-26536395D03*
X31800000Y-74600000D03*
X61800000Y-59100000D03*
X63200000Y-81500000D03*
X31800000Y-44600000D03*
X103439341Y-104312133D03*
X31800000Y-84600000D03*
X98986724Y-46998967D03*
X64300000Y-97100000D03*
X21800000Y-104600000D03*
X99300000Y-62100000D03*
X79300000Y-33600000D03*
X104712133Y-103039340D03*
X66800000Y-37100000D03*
X57200002Y-81500000D03*
X60500000Y-57000000D03*
X102590811Y-106857715D03*
X105136397Y-102615076D03*
X33900000Y-101700000D03*
X36800000Y-29600000D03*
X45400000Y-60300000D03*
X48100000Y-85400001D03*
X26800000Y-104600000D03*
X69575736Y-73775736D03*
X76800000Y-77100000D03*
X47800000Y-86000000D03*
X76800000Y-99600000D03*
X90300000Y-30100000D03*
X51900000Y-82600000D03*
X70300000Y-61100000D03*
X21800000Y-89600000D03*
X56800000Y-44600000D03*
X26800000Y-39600000D03*
X76800000Y-90100000D03*
X63724265Y-66327204D03*
X61800000Y-26600000D03*
X41800000Y-72100000D03*
X105984925Y-101766548D03*
X64148529Y-66751468D03*
X59300000Y-62100000D03*
X28257716Y-23990812D03*
X60300000Y-83900000D03*
X41800000Y-49600000D03*
X96800000Y-99600000D03*
X61800000Y-44600000D03*
X54300000Y-107100000D03*
X48700000Y-86599999D03*
X24863605Y-25687869D03*
X66800000Y-49600000D03*
X27621322Y-23778681D03*
X57800000Y-80000000D03*
X26800000Y-49600000D03*
X92300000Y-36600000D03*
X46000000Y-86000001D03*
X48700000Y-85400001D03*
X44800000Y-86000001D03*
X47500000Y-85400001D03*
X96800000Y-104600000D03*
X51800000Y-39600000D03*
X47500000Y-86599999D03*
X81800000Y-99600000D03*
X43899998Y-66599996D03*
X100300000Y-22600000D03*
X61200000Y-57300000D03*
X66800000Y-29600000D03*
D84*
X99100000Y-49800000D03*
D83*
X53400000Y-53800001D03*
X97800000Y-39100000D03*
X76800000Y-27100000D03*
X88300000Y-39600000D03*
X57200002Y-80300000D03*
X26136397Y-24415077D03*
X60800000Y-63600000D03*
X82900000Y-41100000D03*
X45100000Y-86600000D03*
X41800000Y-87100000D03*
X61400001Y-81800001D03*
X103863603Y-105584923D03*
X51800000Y-74600000D03*
X106800000Y-29600000D03*
X32600000Y-23700000D03*
D84*
X103400000Y-38800000D03*
D83*
X31800000Y-39600000D03*
X41800000Y-29600000D03*
X98800000Y-107400000D03*
X51800000Y-89600000D03*
X88300000Y-40600000D03*
X64300000Y-52600000D03*
X41800000Y-104600000D03*
X94300000Y-30600000D03*
X68800000Y-102600000D03*
X79700000Y-26775000D03*
X60800000Y-80900000D03*
X96800000Y-69600000D03*
X107800000Y-98600000D03*
X44199998Y-65999997D03*
X100800000Y-40100000D03*
X102166548Y-105584924D03*
X61800000Y-87100000D03*
X45400000Y-86000001D03*
X56800000Y-29600000D03*
X49800000Y-70100000D03*
X85500000Y-41800000D03*
X58400002Y-81500000D03*
X86800000Y-94600000D03*
X84300000Y-54600000D03*
X86800000Y-99600000D03*
X44499998Y-66599996D03*
X26800000Y-44600000D03*
X71800000Y-42100000D03*
X59600002Y-81500000D03*
X97700000Y-56000000D03*
X103227207Y-105372791D03*
X47700000Y-58799999D03*
X47400000Y-58200000D03*
X105900000Y-57800000D03*
X26984923Y-25263603D03*
X28045586Y-23354417D03*
X66227204Y-69875735D03*
X25924264Y-25475736D03*
X36800000Y-44600000D03*
X26136395Y-26112131D03*
X59000000Y-80600000D03*
X101400000Y-101200000D03*
X64300000Y-94600000D03*
X60300000Y-68100000D03*
X106800000Y-69600000D03*
X70212131Y-73563605D03*
X104712131Y-104736395D03*
X101800000Y-97100000D03*
X37800000Y-76100000D03*
X86800000Y-104600000D03*
X104500000Y-104100000D03*
X96800000Y-39600000D03*
X87300000Y-37900000D03*
X94100000Y-50100000D03*
X103015077Y-104736397D03*
X62300000Y-69600000D03*
X44200000Y-67200000D03*
X34800000Y-89600000D03*
X29300000Y-89600000D03*
X31800000Y-79600000D03*
X105800000Y-64100000D03*
X37300000Y-66100000D03*
X51800000Y-99600000D03*
X61800000Y-34600000D03*
X51800000Y-94600000D03*
X105560659Y-103887866D03*
X102802942Y-105797055D03*
D84*
X83800000Y-39500000D03*
D83*
X41800000Y-99600000D03*
X103439338Y-106009187D03*
D84*
X65771752Y-64750000D03*
D83*
X71800000Y-87100000D03*
X79300000Y-47100000D03*
X81300000Y-32100000D03*
X37300000Y-86600000D03*
X63300000Y-67600000D03*
X81800000Y-69600000D03*
X45700000Y-86600000D03*
X33416476Y-95765579D03*
X28500000Y-28500000D03*
X51000000Y-64100001D03*
X56800000Y-34600000D03*
X100300000Y-54100000D03*
X51800000Y-44600000D03*
X36800000Y-62600000D03*
X62000002Y-81500000D03*
X61400001Y-81199999D03*
X103200000Y-34100000D03*
X76800000Y-47100000D03*
X66800000Y-94600000D03*
X91800000Y-84600000D03*
X23166548Y-27384925D03*
X21800000Y-34600000D03*
X50700000Y-65900000D03*
X66800000Y-99600000D03*
X97800000Y-34600000D03*
X101800000Y-92100000D03*
X91800000Y-104600000D03*
X101800000Y-74600000D03*
X69300000Y-39600000D03*
X106800000Y-64600000D03*
X25712133Y-24839341D03*
X62000002Y-80900000D03*
X52800000Y-52600002D03*
X95500000Y-89800000D03*
X79300000Y-82100000D03*
X96800000Y-33600000D03*
X49200000Y-59400000D03*
X21800000Y-49600000D03*
X79300000Y-57100000D03*
X46800000Y-94600000D03*
X79300000Y-52100000D03*
X31800000Y-49600000D03*
X99300000Y-67100000D03*
X48000000Y-59400000D03*
X92800000Y-26100000D03*
X76800000Y-104600000D03*
X31800000Y-64600000D03*
X91300000Y-35500000D03*
X48300000Y-58799999D03*
X36400000Y-90000000D03*
X49300000Y-76600000D03*
X69800000Y-98100000D03*
X76800000Y-84600000D03*
X96800000Y-84600000D03*
X101954414Y-106645583D03*
X96300000Y-57200000D03*
X83000000Y-35800000D03*
X87800000Y-37600000D03*
X70424265Y-72927204D03*
X50400000Y-64100001D03*
X53100000Y-53200002D03*
X76800000Y-69600000D03*
X65000002Y-81200000D03*
X84300000Y-53100000D03*
X63936395Y-67387869D03*
X26800000Y-59600000D03*
X81800000Y-47100000D03*
X86800000Y-69600000D03*
X52300000Y-71100000D03*
X87300000Y-50100000D03*
X60200000Y-81800000D03*
X70000000Y-74200000D03*
X100300000Y-50600000D03*
X58300000Y-69600000D03*
X105136395Y-104312130D03*
X46800000Y-72100000D03*
X81800000Y-104600000D03*
X83149997Y-32325000D03*
X25075736Y-26324264D03*
X106800000Y-89600000D03*
X76800000Y-24600000D03*
X105772792Y-102827207D03*
X86800000Y-59600000D03*
X26560659Y-25687867D03*
X80900000Y-43300000D03*
X41800000Y-79600000D03*
X31800000Y-54600000D03*
X37711417Y-92653881D03*
X30600000Y-93900000D03*
X24015076Y-26536397D03*
X50700000Y-64700002D03*
X54300000Y-104600000D03*
X58900000Y-73700000D03*
X21800000Y-94600000D03*
X46800000Y-34600000D03*
X61800000Y-74600000D03*
X69300000Y-42100000D03*
X76800000Y-82100000D03*
X61800000Y-39600000D03*
X81800000Y-57100000D03*
X51300000Y-64700002D03*
X61800000Y-97100000D03*
X44800000Y-67200000D03*
X55800000Y-73900000D03*
X27409188Y-24839340D03*
X70800000Y-65100000D03*
X67075736Y-70724264D03*
X37300000Y-82100000D03*
X26984926Y-23566549D03*
X83300000Y-37100000D03*
X21800000Y-39600000D03*
X46900000Y-85400001D03*
X71300000Y-24300000D03*
X74300000Y-74600000D03*
X65600000Y-81500000D03*
X96800000Y-38100000D03*
X69300000Y-87100000D03*
X63800001Y-81800001D03*
X53700000Y-53200002D03*
X76800000Y-33600000D03*
X104924264Y-103675736D03*
X24227208Y-27172793D03*
X59000000Y-81200000D03*
X69300000Y-57100000D03*
X57800000Y-80600000D03*
X106409188Y-103039339D03*
X51800000Y-24600000D03*
X58400002Y-80900000D03*
X49300000Y-74600000D03*
X56800000Y-107100000D03*
X76800000Y-31100000D03*
X57200002Y-80900000D03*
X47400000Y-59400000D03*
X103015074Y-106433452D03*
X105560661Y-102190812D03*
X46800000Y-39600000D03*
X81800000Y-59600000D03*
X41800000Y-34600000D03*
X44499999Y-65399998D03*
X51300000Y-63500000D03*
X56800000Y-104600000D03*
X26348528Y-25051472D03*
X104075736Y-104524264D03*
X48000000Y-58200000D03*
X46300000Y-86600000D03*
D84*
X65178280Y-61900000D03*
D83*
X104300000Y-97100000D03*
X52800000Y-53800001D03*
X59300000Y-64600000D03*
X76800000Y-32100000D03*
X66863600Y-70087867D03*
X104287869Y-103463604D03*
X94300000Y-33600000D03*
X52800000Y-49600000D03*
X48900001Y-57600001D03*
X24863603Y-27384924D03*
X63800001Y-81199999D03*
X23300000Y-86600000D03*
X103300000Y-27100000D03*
X92300000Y-47100000D03*
X74300000Y-72100000D03*
X62600002Y-81200000D03*
X79300000Y-87100000D03*
X54000000Y-53800001D03*
X74300000Y-82100000D03*
X99200000Y-55100000D03*
X60200000Y-81200000D03*
X56800000Y-39600000D03*
X107800000Y-28100000D03*
X103863605Y-103887869D03*
X59300000Y-52600000D03*
X101800000Y-21600000D03*
X96800000Y-24600000D03*
X51800000Y-107100000D03*
X81800000Y-74600000D03*
X106621320Y-101978680D03*
X46600000Y-86000000D03*
X40300000Y-98100000D03*
X92200000Y-31000000D03*
X44199999Y-64799998D03*
X65300000Y-24100000D03*
X86800000Y-90100000D03*
X100300000Y-44100000D03*
X60800000Y-81500000D03*
X36800000Y-49600000D03*
X26800000Y-99600000D03*
X79300000Y-84600000D03*
X45300000Y-56000000D03*
X50700000Y-63500000D03*
X104287867Y-105160659D03*
D84*
X104100000Y-53200000D03*
D83*
X31800000Y-69600000D03*
X44300000Y-72100000D03*
X102590812Y-105160660D03*
X90821232Y-48421232D03*
X81300000Y-45100000D03*
X101742284Y-106009188D03*
X51000000Y-65300001D03*
X106800000Y-76100000D03*
X86800000Y-84600000D03*
X78800000Y-39100000D03*
X70848529Y-73351468D03*
X39300000Y-56100000D03*
X25500000Y-25900000D03*
X76800000Y-57100000D03*
X95144635Y-41950385D03*
X64300000Y-87100000D03*
X43900000Y-64199999D03*
X103651472Y-104948528D03*
X61500000Y-22900000D03*
X21800000Y-54600000D03*
X43899999Y-65399998D03*
X86800000Y-66100000D03*
X37800000Y-25600000D03*
X97576358Y-40400000D03*
X103300000Y-43100000D03*
X49500000Y-57600001D03*
X50800000Y-74600000D03*
X86800000Y-54600000D03*
X86800000Y-79600000D03*
X91800000Y-94600000D03*
X21800000Y-44600000D03*
X81800000Y-66100000D03*
X79300000Y-32100000D03*
X74300000Y-77100000D03*
X62600002Y-81800000D03*
X36800000Y-54600000D03*
X50400000Y-65300001D03*
X59600002Y-80900000D03*
X89300000Y-59600000D03*
X82300000Y-50600000D03*
X25287869Y-25263605D03*
X102300000Y-23100000D03*
X51800000Y-104600000D03*
X79300000Y-44600000D03*
D84*
X103300000Y-40700000D03*
D83*
X24439341Y-26112133D03*
X106800000Y-67100000D03*
X23590812Y-26960661D03*
X49300000Y-107100000D03*
X56800000Y-49600000D03*
X76800000Y-94600000D03*
X51800000Y-84600000D03*
X81800000Y-94600000D03*
X61800000Y-99600000D03*
X66800000Y-34600000D03*
X46800000Y-24600000D03*
X99300000Y-64600000D03*
X31800000Y-34600000D03*
X73300000Y-24600000D03*
X59000000Y-80000000D03*
X87800000Y-46000000D03*
X51800000Y-87100000D03*
X27197058Y-24202945D03*
X66800000Y-44600000D03*
X41800000Y-84600000D03*
X74300000Y-44600000D03*
X60300000Y-69600000D03*
D84*
X103800000Y-50000000D03*
D83*
X51299999Y-65900000D03*
X76800000Y-66100000D03*
X64400002Y-81500000D03*
X66651468Y-69451471D03*
X79300000Y-31100000D03*
X96800000Y-79600000D03*
X86800000Y-57100000D03*
X91300000Y-39600000D03*
X69300000Y-29600000D03*
X61800000Y-29600000D03*
X41800000Y-82100000D03*
X92892066Y-39407934D03*
X108300000Y-52500000D03*
X50400000Y-62900001D03*
X24500000Y-33600000D03*
X81800000Y-90100000D03*
X56800000Y-57100000D03*
X48300000Y-57600000D03*
X91000000Y-45300000D03*
X31800000Y-59600000D03*
X47700000Y-57600000D03*
X71800000Y-29600000D03*
X25300000Y-67100000D03*
X41800000Y-69600000D03*
X102100000Y-101300000D03*
X107500000Y-98000000D03*
X60945235Y-56354765D03*
X45400000Y-59600000D03*
X91649048Y-48711430D03*
X97975000Y-49800000D03*
X31300000Y-94000000D03*
X90900000Y-37375000D03*
X99628425Y-46895413D03*
X47029156Y-54275000D03*
X46100000Y-54125000D03*
X90465213Y-37969575D03*
X99100000Y-46359242D03*
X32267633Y-91700000D03*
X91300000Y-45900000D03*
X46100000Y-56300000D03*
X53400000Y-57400000D03*
X45492462Y-61007538D03*
X34500000Y-101100000D03*
X33500000Y-101000000D03*
X33702179Y-95125000D03*
X33100000Y-94725000D03*
X33000000Y-94000000D03*
X35931526Y-90707821D03*
X36232077Y-91284165D03*
X36592633Y-91825000D03*
X36892633Y-92425000D03*
D84*
X64500000Y-62850000D03*
D83*
X96898487Y-56740950D03*
D84*
X86600000Y-38500000D03*
D83*
X31990411Y-93800000D03*
D84*
X83800000Y-38400000D03*
D83*
X33378768Y-96821232D03*
X87100000Y-31100000D03*
X90700000Y-49300000D03*
X65601041Y-72598959D03*
X95438389Y-49238389D03*
X95850000Y-41750000D03*
X95000000Y-42650000D03*
X94456014Y-49265349D03*
D84*
X104000000Y-48900000D03*
X102600000Y-38100000D03*
D83*
X86200000Y-42500000D03*
X72700000Y-24200000D03*
X83800000Y-32325000D03*
X92655720Y-40013445D03*
X100975000Y-38054075D03*
X91350003Y-49300000D03*
X96831232Y-56031232D03*
X57500000Y-78900000D03*
X55800000Y-78300000D03*
X55800000Y-79500000D03*
X58100000Y-78900000D03*
X55800000Y-78900000D03*
X28500000Y-27700000D03*
X33500000Y-23800000D03*
X27800000Y-28400000D03*
X23700000Y-33600000D03*
D84*
X65300000Y-63800000D03*
M02*
