%TF.GenerationSoftware,KiCad,Pcbnew,7.0.10*%
%TF.CreationDate,2025-08-26T16:00:25+02:00*%
%TF.ProjectId,BQ2xxxx,42513278-7878-4782-9e6b-696361645f70,rev?*%
%TF.SameCoordinates,Original*%
%TF.FileFunction,Soldermask,Bot*%
%TF.FilePolarity,Negative*%
%FSLAX46Y46*%
G04 Gerber Fmt 4.6, Leading zero omitted, Abs format (unit mm)*
G04 Created by KiCad (PCBNEW 7.0.10) date 2025-08-26 16:00:25*
%MOMM*%
%LPD*%
G01*
G04 APERTURE LIST*
G04 Aperture macros list*
%AMHorizOval*
0 Thick line with rounded ends*
0 $1 width*
0 $2 $3 position (X,Y) of the first rounded end (center of the circle)*
0 $4 $5 position (X,Y) of the second rounded end (center of the circle)*
0 Add line between two ends*
20,1,$1,$2,$3,$4,$5,0*
0 Add two circle primitives to create the rounded ends*
1,1,$1,$2,$3*
1,1,$1,$4,$5*%
%AMRotRect*
0 Rectangle, with rotation*
0 The origin of the aperture is its center*
0 $1 length*
0 $2 width*
0 $3 Rotation angle, in degrees counterclockwise*
0 Add horizontal line*
21,1,$1,$2,0,0,$3*%
G04 Aperture macros list end*
%ADD10C,3.000000*%
%ADD11C,2.200000*%
%ADD12R,1.500000X1.500000*%
%ADD13C,1.500000*%
%ADD14RotRect,1.700000X1.700000X225.000000*%
%ADD15HorizOval,1.700000X0.000000X0.000000X0.000000X0.000000X0*%
%ADD16C,3.580000*%
%ADD17RotRect,1.700000X1.700000X45.000000*%
%ADD18HorizOval,1.700000X0.000000X0.000000X0.000000X0.000000X0*%
%ADD19C,2.010000*%
%ADD20C,2.949000*%
%ADD21C,2.304000*%
%ADD22C,0.900000*%
%ADD23R,1.250000X0.900000*%
%ADD24R,0.900000X0.800000*%
%ADD25R,0.900000X1.250000*%
%ADD26R,0.800000X0.900000*%
%ADD27C,0.450000*%
%ADD28C,0.750000*%
G04 APERTURE END LIST*
D10*
%TO.C,FID1*%
X24800000Y-102600000D03*
%TD*%
D11*
%TO.C,H2*%
X106800000Y-34600000D03*
%TD*%
D12*
%TO.C,U4*%
X59660000Y-106500000D03*
D13*
X62200000Y-106500000D03*
X64740000Y-106500000D03*
X67280000Y-106500000D03*
X69820000Y-106500000D03*
X72360000Y-106500000D03*
X72360000Y-91260000D03*
X69820000Y-91260000D03*
X67280000Y-91260000D03*
X64740000Y-91260000D03*
X62200000Y-91260000D03*
X59660000Y-91260000D03*
%TD*%
D11*
%TO.C,H3*%
X94800000Y-22600000D03*
%TD*%
D10*
%TO.C,FID3*%
X24800000Y-52600000D03*
%TD*%
D14*
%TO.C,J9*%
X96101561Y-97301562D03*
D15*
X94305510Y-95505511D03*
%TD*%
D11*
%TO.C,H5*%
X22800000Y-97600000D03*
%TD*%
D12*
%TO.C,U3*%
X23160000Y-57400000D03*
D13*
X23160000Y-59940000D03*
X23160000Y-62480000D03*
X23160000Y-65020000D03*
X23160000Y-67560000D03*
X23160000Y-70100000D03*
X38400000Y-70100000D03*
X38400000Y-67560000D03*
X38400000Y-65020000D03*
X38400000Y-62480000D03*
X38400000Y-59940000D03*
X38400000Y-57400000D03*
%TD*%
D16*
%TO.C,J7*%
X105997500Y-92435250D03*
X105997500Y-79295250D03*
%TD*%
D14*
%TO.C,J5*%
X73796051Y-39396051D03*
D15*
X72000000Y-37600000D03*
X70203949Y-35803949D03*
X68407897Y-34007897D03*
X66611846Y-32211846D03*
%TD*%
D11*
%TO.C,H4*%
X56800000Y-22600000D03*
%TD*%
%TO.C,H7*%
X27800000Y-35600000D03*
%TD*%
D17*
%TO.C,J6*%
X96698439Y-27698439D03*
D18*
X98494490Y-29494490D03*
%TD*%
D11*
%TO.C,H1*%
X106800000Y-72600000D03*
%TD*%
D19*
%TO.C,J4*%
X24153073Y-30162475D03*
X21466067Y-27475470D03*
X27575470Y-21366067D03*
X30262475Y-24053073D03*
%TD*%
D17*
%TO.C,J2*%
X86807898Y-52607898D03*
D18*
X88603949Y-54403949D03*
X90400000Y-56200000D03*
X92196052Y-57996052D03*
X93992103Y-59792103D03*
%TD*%
D20*
%TO.C,BT2*%
X91414894Y-69910017D03*
X87822792Y-73502119D03*
X95006997Y-77094222D03*
%TD*%
D21*
%TO.C,BT1*%
X49059198Y-31231276D03*
X43759433Y-32217690D03*
X50045612Y-25931511D03*
%TD*%
D11*
%TO.C,H6*%
X31800000Y-106600000D03*
%TD*%
D19*
%TO.C,J1*%
X105746927Y-99537525D03*
X108433933Y-102224530D03*
X102324530Y-108333933D03*
X99637525Y-105646927D03*
%TD*%
D11*
%TO.C,H8*%
X93800000Y-101600000D03*
%TD*%
D10*
%TO.C,FID2*%
X74800000Y-102600000D03*
%TD*%
D22*
%TO.C,J8*%
X107600000Y-44200000D03*
X107600000Y-47200000D03*
D23*
X105525000Y-43450000D03*
X105525000Y-46450000D03*
X105525000Y-47950000D03*
D24*
X106550000Y-41900000D03*
X108650000Y-41900000D03*
X108650000Y-49500000D03*
X106550000Y-49500000D03*
%TD*%
D22*
%TO.C,J3*%
X82600000Y-22500000D03*
X85600000Y-22500000D03*
D25*
X81850000Y-24575000D03*
X84850000Y-24575000D03*
X86350000Y-24575000D03*
D26*
X80300000Y-23550000D03*
X80300000Y-21450000D03*
X87900000Y-21450000D03*
X87900000Y-23550000D03*
%TD*%
D27*
X46300001Y-64200001D03*
X46000001Y-63600002D03*
X46000001Y-64800000D03*
X46000001Y-66000002D03*
X46600000Y-67200000D03*
X45700001Y-64200001D03*
X46600001Y-66000002D03*
X45700001Y-66600001D03*
X46000001Y-67200000D03*
X46300001Y-66600001D03*
X46600001Y-64800000D03*
X45700001Y-65400001D03*
X46600000Y-63600002D03*
X46300001Y-65400001D03*
X98200000Y-106900000D03*
X101300000Y-101900000D03*
X21800000Y-39600000D03*
X44200000Y-63600000D03*
X87300000Y-28100000D03*
X36800000Y-104600000D03*
X102300000Y-26100000D03*
X66800000Y-39600000D03*
X76800000Y-74600000D03*
X88400000Y-26475000D03*
X66800000Y-59600000D03*
X99800000Y-30900000D03*
X103800000Y-35600000D03*
X81300000Y-31100000D03*
X26560662Y-23990813D03*
X48100000Y-86599999D03*
X27409190Y-23142285D03*
X41800000Y-89600000D03*
X23378680Y-28021320D03*
X32639443Y-93459166D03*
X57800000Y-81200000D03*
X51000000Y-62900001D03*
X101800000Y-79600000D03*
X105348528Y-103251471D03*
X76800000Y-41100000D03*
X41800000Y-77100000D03*
X24439339Y-27809188D03*
X77800000Y-40100000D03*
X44799999Y-64799998D03*
X40800000Y-64600000D03*
X74300000Y-52100000D03*
X76800000Y-34600000D03*
X49200000Y-58200000D03*
D28*
X80200000Y-37900000D03*
D27*
X51299999Y-62300002D03*
X48600000Y-58200000D03*
X51800000Y-34600000D03*
X101800000Y-69600000D03*
X87300000Y-39200000D03*
X44500000Y-64199999D03*
X66800000Y-87100000D03*
X95800000Y-33600000D03*
X65600000Y-80900000D03*
X69300000Y-59600000D03*
X74300000Y-27100000D03*
X46800000Y-89600000D03*
X53981381Y-57109311D03*
X89800000Y-47100000D03*
X55800000Y-52600000D03*
X48900000Y-58799999D03*
X25287867Y-26960659D03*
X40800000Y-67600000D03*
X40800000Y-56100000D03*
X64400002Y-80900000D03*
X46800000Y-99600000D03*
X61800000Y-84100000D03*
X71800000Y-44600000D03*
X104300000Y-67100000D03*
X31900000Y-92500000D03*
X44799998Y-65999997D03*
X24015075Y-28233452D03*
X41800000Y-94600000D03*
X48400000Y-86000000D03*
X44800000Y-63600000D03*
X36800000Y-39600000D03*
X26800000Y-54600000D03*
X96800000Y-64600000D03*
X58800000Y-58600000D03*
X105984924Y-103463603D03*
X58400002Y-80300000D03*
X99800000Y-48100000D03*
X65300000Y-29100000D03*
X67500000Y-70300000D03*
X91800000Y-99600000D03*
X84300000Y-57100000D03*
X79300000Y-59600000D03*
X42900000Y-57200000D03*
X92800000Y-29100000D03*
X56800000Y-94600000D03*
X49300000Y-81100000D03*
X24651473Y-26748529D03*
X25300000Y-80100000D03*
X49500000Y-58799999D03*
X54000000Y-52600003D03*
X102378678Y-106221319D03*
X65475871Y-71908104D03*
X106197056Y-102402943D03*
X47200000Y-86000000D03*
X41800000Y-44600000D03*
X25300000Y-75600000D03*
X62875736Y-67175736D03*
X46800000Y-29600000D03*
X65000002Y-81800000D03*
X84300000Y-59600000D03*
X54168274Y-59000458D03*
X66800000Y-65100000D03*
X50700000Y-62300002D03*
X63512131Y-66963605D03*
X53400001Y-52600003D03*
X59300000Y-57100000D03*
X106833452Y-102615075D03*
X27833452Y-24415076D03*
X66439336Y-70512131D03*
X69300000Y-84600000D03*
X76800000Y-52100000D03*
X100975000Y-38704078D03*
X48600000Y-59400000D03*
X106800000Y-84600000D03*
X59300000Y-99600000D03*
X26772793Y-24627209D03*
X87800000Y-31100000D03*
X41800000Y-24600000D03*
X47600000Y-53795001D03*
X63200000Y-80900000D03*
X71800000Y-89600000D03*
X25300000Y-71100000D03*
X70636395Y-73987869D03*
X63800000Y-84100000D03*
X44300000Y-69600000D03*
X46900000Y-86599999D03*
X100800000Y-42600000D03*
X46800000Y-104600000D03*
X61800000Y-49600000D03*
X23802944Y-27597057D03*
X25712131Y-26536395D03*
X31800000Y-74600000D03*
X61800000Y-59100000D03*
X63200000Y-81500000D03*
X31800000Y-44600000D03*
X103439341Y-104312133D03*
X31800000Y-84600000D03*
X98986724Y-46998967D03*
X64300000Y-97100000D03*
X21800000Y-104600000D03*
X99300000Y-62100000D03*
X79300000Y-33600000D03*
X104712133Y-103039340D03*
X66800000Y-37100000D03*
X57200002Y-81500000D03*
X60500000Y-57000000D03*
X102590811Y-106857715D03*
X105136397Y-102615076D03*
X33900000Y-101700000D03*
X36800000Y-29600000D03*
X45400000Y-60300000D03*
X48100000Y-85400001D03*
X26800000Y-104600000D03*
X69575736Y-73775736D03*
X76800000Y-77100000D03*
X47800000Y-86000000D03*
X76800000Y-99600000D03*
X90300000Y-30100000D03*
X51900000Y-82600000D03*
X70300000Y-61100000D03*
X21800000Y-89600000D03*
X56800000Y-44600000D03*
X26800000Y-39600000D03*
X76800000Y-90100000D03*
X63724265Y-66327204D03*
X61800000Y-26600000D03*
X41800000Y-72100000D03*
X105984925Y-101766548D03*
X64148529Y-66751468D03*
X59300000Y-62100000D03*
X28257716Y-23990812D03*
X60300000Y-83900000D03*
X41800000Y-49600000D03*
X96800000Y-99600000D03*
X61800000Y-44600000D03*
X54300000Y-107100000D03*
X48700000Y-86599999D03*
X24863605Y-25687869D03*
X66800000Y-49600000D03*
X27621322Y-23778681D03*
X57800000Y-80000000D03*
X26800000Y-49600000D03*
X92300000Y-36600000D03*
X46000000Y-86000001D03*
X48700000Y-85400001D03*
X44800000Y-86000001D03*
X47500000Y-85400001D03*
X96800000Y-104600000D03*
X51800000Y-39600000D03*
X47500000Y-86599999D03*
X81800000Y-99600000D03*
X43899998Y-66599996D03*
X100300000Y-22600000D03*
X61200000Y-57300000D03*
X66800000Y-29600000D03*
D28*
X99100000Y-49800000D03*
D27*
X53400000Y-53800001D03*
X97800000Y-39100000D03*
X76800000Y-27100000D03*
X88300000Y-39600000D03*
X57200002Y-80300000D03*
X26136397Y-24415077D03*
X60800000Y-63600000D03*
X82900000Y-41100000D03*
X45100000Y-86600000D03*
X41800000Y-87100000D03*
X61400001Y-81800001D03*
X103863603Y-105584923D03*
X51800000Y-74600000D03*
X106800000Y-29600000D03*
X32600000Y-23700000D03*
D28*
X103400000Y-38800000D03*
D27*
X31800000Y-39600000D03*
X41800000Y-29600000D03*
X98800000Y-107400000D03*
X51800000Y-89600000D03*
X88300000Y-40600000D03*
X64300000Y-52600000D03*
X41800000Y-104600000D03*
X94300000Y-30600000D03*
X68800000Y-102600000D03*
X79700000Y-26775000D03*
X60800000Y-80900000D03*
X96800000Y-69600000D03*
X107800000Y-98600000D03*
X44199998Y-65999997D03*
X100800000Y-40100000D03*
X102166548Y-105584924D03*
X61800000Y-87100000D03*
X45400000Y-86000001D03*
X56800000Y-29600000D03*
X49800000Y-70100000D03*
X85500000Y-41800000D03*
X58400002Y-81500000D03*
X86800000Y-94600000D03*
X84300000Y-54600000D03*
X86800000Y-99600000D03*
X44499998Y-66599996D03*
X26800000Y-44600000D03*
X71800000Y-42100000D03*
X59600002Y-81500000D03*
X97700000Y-56000000D03*
X103227207Y-105372791D03*
X47700000Y-58799999D03*
X47400000Y-58200000D03*
X105900000Y-57800000D03*
X26984923Y-25263603D03*
X28045586Y-23354417D03*
X66227204Y-69875735D03*
X25924264Y-25475736D03*
X36800000Y-44600000D03*
X26136395Y-26112131D03*
X59000000Y-80600000D03*
X101400000Y-101200000D03*
X64300000Y-94600000D03*
X60300000Y-68100000D03*
X106800000Y-69600000D03*
X70212131Y-73563605D03*
X104712131Y-104736395D03*
X101800000Y-97100000D03*
X37800000Y-76100000D03*
X86800000Y-104600000D03*
X104500000Y-104100000D03*
X96800000Y-39600000D03*
X87300000Y-37900000D03*
X94100000Y-50100000D03*
X103015077Y-104736397D03*
X62300000Y-69600000D03*
X44200000Y-67200000D03*
X34800000Y-89600000D03*
X29300000Y-89600000D03*
X31800000Y-79600000D03*
X105800000Y-64100000D03*
X37300000Y-66100000D03*
X51800000Y-99600000D03*
X61800000Y-34600000D03*
X51800000Y-94600000D03*
X105560659Y-103887866D03*
X102802942Y-105797055D03*
D28*
X83800000Y-39500000D03*
D27*
X41800000Y-99600000D03*
X103439338Y-106009187D03*
D28*
X65771752Y-64750000D03*
D27*
X71800000Y-87100000D03*
X79300000Y-47100000D03*
X81300000Y-32100000D03*
X37300000Y-86600000D03*
X63300000Y-67600000D03*
X81800000Y-69600000D03*
X45700000Y-86600000D03*
X33416476Y-95765579D03*
X28500000Y-28500000D03*
X51000000Y-64100001D03*
X56800000Y-34600000D03*
X100300000Y-54100000D03*
X51800000Y-44600000D03*
X36800000Y-62600000D03*
X62000002Y-81500000D03*
X61400001Y-81199999D03*
X103200000Y-34100000D03*
X76800000Y-47100000D03*
X66800000Y-94600000D03*
X91800000Y-84600000D03*
X23166548Y-27384925D03*
X21800000Y-34600000D03*
X50700000Y-65900000D03*
X66800000Y-99600000D03*
X97800000Y-34600000D03*
X101800000Y-92100000D03*
X91800000Y-104600000D03*
X101800000Y-74600000D03*
X69300000Y-39600000D03*
X106800000Y-64600000D03*
X25712133Y-24839341D03*
X62000002Y-80900000D03*
X52800000Y-52600002D03*
X95500000Y-89800000D03*
X79300000Y-82100000D03*
X96800000Y-33600000D03*
X49200000Y-59400000D03*
X21800000Y-49600000D03*
X79300000Y-57100000D03*
X46800000Y-94600000D03*
X79300000Y-52100000D03*
X31800000Y-49600000D03*
X99300000Y-67100000D03*
X48000000Y-59400000D03*
X92800000Y-26100000D03*
X76800000Y-104600000D03*
X31800000Y-64600000D03*
X91300000Y-35500000D03*
X48300000Y-58799999D03*
X36400000Y-90000000D03*
X49300000Y-76600000D03*
X69800000Y-98100000D03*
X76800000Y-84600000D03*
X96800000Y-84600000D03*
X101954414Y-106645583D03*
X96300000Y-57200000D03*
X83000000Y-35800000D03*
X87800000Y-37600000D03*
X70424265Y-72927204D03*
X50400000Y-64100001D03*
X53100000Y-53200002D03*
X76800000Y-69600000D03*
X65000002Y-81200000D03*
X84300000Y-53100000D03*
X63936395Y-67387869D03*
X26800000Y-59600000D03*
X81800000Y-47100000D03*
X86800000Y-69600000D03*
X52300000Y-71100000D03*
X87300000Y-50100000D03*
X60200000Y-81800000D03*
X70000000Y-74200000D03*
X100300000Y-50600000D03*
X58300000Y-69600000D03*
X105136395Y-104312130D03*
X46800000Y-72100000D03*
X81800000Y-104600000D03*
X83149997Y-32325000D03*
X25075736Y-26324264D03*
X106800000Y-89600000D03*
X76800000Y-24600000D03*
X105772792Y-102827207D03*
X86800000Y-59600000D03*
X26560659Y-25687867D03*
X80900000Y-43300000D03*
X41800000Y-79600000D03*
X31800000Y-54600000D03*
X37711417Y-92653881D03*
X30600000Y-93900000D03*
X24015076Y-26536397D03*
X50700000Y-64700002D03*
X54300000Y-104600000D03*
X58900000Y-73700000D03*
X21800000Y-94600000D03*
X46800000Y-34600000D03*
X61800000Y-74600000D03*
X69300000Y-42100000D03*
X76800000Y-82100000D03*
X61800000Y-39600000D03*
X81800000Y-57100000D03*
X51300000Y-64700002D03*
X61800000Y-97100000D03*
X44800000Y-67200000D03*
X55800000Y-73900000D03*
X27409188Y-24839340D03*
X70800000Y-65100000D03*
X67075736Y-70724264D03*
X37300000Y-82100000D03*
X26984926Y-23566549D03*
X83300000Y-37100000D03*
X21800000Y-39600000D03*
X46900000Y-85400001D03*
X71300000Y-24300000D03*
X74300000Y-74600000D03*
X65600000Y-81500000D03*
X96800000Y-38100000D03*
X69300000Y-87100000D03*
X63800001Y-81800001D03*
X53700000Y-53200002D03*
X76800000Y-33600000D03*
X104924264Y-103675736D03*
X24227208Y-27172793D03*
X59000000Y-81200000D03*
X69300000Y-57100000D03*
X57800000Y-80600000D03*
X106409188Y-103039339D03*
X51800000Y-24600000D03*
X58400002Y-80900000D03*
X49300000Y-74600000D03*
X56800000Y-107100000D03*
X76800000Y-31100000D03*
X57200002Y-80900000D03*
X47400000Y-59400000D03*
X103015074Y-106433452D03*
X105560661Y-102190812D03*
X46800000Y-39600000D03*
X81800000Y-59600000D03*
X41800000Y-34600000D03*
X44499999Y-65399998D03*
X51300000Y-63500000D03*
X56800000Y-104600000D03*
X26348528Y-25051472D03*
X104075736Y-104524264D03*
X48000000Y-58200000D03*
X46300000Y-86600000D03*
D28*
X65178280Y-61900000D03*
D27*
X104300000Y-97100000D03*
X52800000Y-53800001D03*
X59300000Y-64600000D03*
X76800000Y-32100000D03*
X66863600Y-70087867D03*
X104287869Y-103463604D03*
X94300000Y-33600000D03*
X52800000Y-49600000D03*
X48900001Y-57600001D03*
X24863603Y-27384924D03*
X63800001Y-81199999D03*
X23300000Y-86600000D03*
X103300000Y-27100000D03*
X92300000Y-47100000D03*
X74300000Y-72100000D03*
X62600002Y-81200000D03*
X79300000Y-87100000D03*
X54000000Y-53800001D03*
X74300000Y-82100000D03*
X99200000Y-55100000D03*
X60200000Y-81200000D03*
X56800000Y-39600000D03*
X107800000Y-28100000D03*
X103863605Y-103887869D03*
X59300000Y-52600000D03*
X101800000Y-21600000D03*
X96800000Y-24600000D03*
X51800000Y-107100000D03*
X81800000Y-74600000D03*
X106621320Y-101978680D03*
X46600000Y-86000000D03*
X40300000Y-98100000D03*
X92200000Y-31000000D03*
X44199999Y-64799998D03*
X65300000Y-24100000D03*
X86800000Y-90100000D03*
X100300000Y-44100000D03*
X60800000Y-81500000D03*
X36800000Y-49600000D03*
X26800000Y-99600000D03*
X79300000Y-84600000D03*
X45300000Y-56000000D03*
X50700000Y-63500000D03*
X104287867Y-105160659D03*
D28*
X104100000Y-53200000D03*
D27*
X31800000Y-69600000D03*
X44300000Y-72100000D03*
X102590812Y-105160660D03*
X90821232Y-48421232D03*
X81300000Y-45100000D03*
X101742284Y-106009188D03*
X51000000Y-65300001D03*
X106800000Y-76100000D03*
X86800000Y-84600000D03*
X78800000Y-39100000D03*
X70848529Y-73351468D03*
X39300000Y-56100000D03*
X25500000Y-25900000D03*
X76800000Y-57100000D03*
X95144635Y-41950385D03*
X64300000Y-87100000D03*
X43900000Y-64199999D03*
X103651472Y-104948528D03*
X61500000Y-22900000D03*
X21800000Y-54600000D03*
X43899999Y-65399998D03*
X86800000Y-66100000D03*
X37800000Y-25600000D03*
X97576358Y-40400000D03*
X103300000Y-43100000D03*
X49500000Y-57600001D03*
X50800000Y-74600000D03*
X86800000Y-54600000D03*
X86800000Y-79600000D03*
X91800000Y-94600000D03*
X21800000Y-44600000D03*
X81800000Y-66100000D03*
X79300000Y-32100000D03*
X74300000Y-77100000D03*
X62600002Y-81800000D03*
X36800000Y-54600000D03*
X50400000Y-65300001D03*
X59600002Y-80900000D03*
X89300000Y-59600000D03*
X82300000Y-50600000D03*
X25287869Y-25263605D03*
X102300000Y-23100000D03*
X51800000Y-104600000D03*
X79300000Y-44600000D03*
D28*
X103300000Y-40700000D03*
D27*
X24439341Y-26112133D03*
X106800000Y-67100000D03*
X23590812Y-26960661D03*
X49300000Y-107100000D03*
X56800000Y-49600000D03*
X76800000Y-94600000D03*
X51800000Y-84600000D03*
X81800000Y-94600000D03*
X61800000Y-99600000D03*
X66800000Y-34600000D03*
X46800000Y-24600000D03*
X99300000Y-64600000D03*
X31800000Y-34600000D03*
X73300000Y-24600000D03*
X59000000Y-80000000D03*
X87800000Y-46000000D03*
X51800000Y-87100000D03*
X27197058Y-24202945D03*
X66800000Y-44600000D03*
X41800000Y-84600000D03*
X74300000Y-44600000D03*
X60300000Y-69600000D03*
D28*
X103800000Y-50000000D03*
D27*
X51299999Y-65900000D03*
X76800000Y-66100000D03*
X64400002Y-81500000D03*
X66651468Y-69451471D03*
X79300000Y-31100000D03*
X96800000Y-79600000D03*
X86800000Y-57100000D03*
X91300000Y-39600000D03*
X69300000Y-29600000D03*
X61800000Y-29600000D03*
X41800000Y-82100000D03*
X92892066Y-39407934D03*
X108300000Y-52500000D03*
X50400000Y-62900001D03*
X24500000Y-33600000D03*
X81800000Y-90100000D03*
X56800000Y-57100000D03*
X48300000Y-57600000D03*
X91000000Y-45300000D03*
X31800000Y-59600000D03*
X47700000Y-57600000D03*
X71800000Y-29600000D03*
X25300000Y-67100000D03*
X41800000Y-69600000D03*
X102100000Y-101300000D03*
X107500000Y-98000000D03*
X60945235Y-56354765D03*
X45400000Y-59600000D03*
X91649048Y-48711430D03*
X97975000Y-49800000D03*
X31300000Y-94000000D03*
X90900000Y-37375000D03*
X99628425Y-46895413D03*
X47029156Y-54275000D03*
X46100000Y-54125000D03*
X90465213Y-37969575D03*
X99100000Y-46359242D03*
X32267633Y-91700000D03*
X91300000Y-45900000D03*
X46100000Y-56300000D03*
X53400000Y-57400000D03*
X45492462Y-61007538D03*
X34500000Y-101100000D03*
X33500000Y-101000000D03*
X33702179Y-95125000D03*
X33100000Y-94725000D03*
X33000000Y-94000000D03*
X35931526Y-90707821D03*
X36232077Y-91284165D03*
X36592633Y-91825000D03*
X36892633Y-92425000D03*
D28*
X64500000Y-62850000D03*
D27*
X96898487Y-56740950D03*
D28*
X86600000Y-38500000D03*
D27*
X31990411Y-93800000D03*
D28*
X83800000Y-38400000D03*
D27*
X33378768Y-96821232D03*
X87100000Y-31100000D03*
X90700000Y-49300000D03*
X65601041Y-72598959D03*
X95438389Y-49238389D03*
X95850000Y-41750000D03*
X95000000Y-42650000D03*
X94456014Y-49265349D03*
D28*
X104000000Y-48900000D03*
X102600000Y-38100000D03*
D27*
X86200000Y-42500000D03*
X72700000Y-24200000D03*
X83800000Y-32325000D03*
X92655720Y-40013445D03*
X100975000Y-38054075D03*
X91350003Y-49300000D03*
X96831232Y-56031232D03*
X57500000Y-78900000D03*
X55800000Y-78300000D03*
X55800000Y-79500000D03*
X58100000Y-78900000D03*
X55800000Y-78900000D03*
X28500000Y-27700000D03*
X33500000Y-23800000D03*
X27800000Y-28400000D03*
X23700000Y-33600000D03*
D28*
X65300000Y-63800000D03*
M02*
