%TF.GenerationSoftware,KiCad,Pcbnew,7.0.10*%
%TF.CreationDate,2025-06-24T15:40:27+02:00*%
%TF.ProjectId,BQ2xxxx,42513278-7878-4782-9e6b-696361645f70,rev?*%
%TF.SameCoordinates,Original*%
%TF.FileFunction,Copper,L1,Top*%
%TF.FilePolarity,Positive*%
%FSLAX46Y46*%
G04 Gerber Fmt 4.6, Leading zero omitted, Abs format (unit mm)*
G04 Created by KiCad (PCBNEW 7.0.10) date 2025-06-24 15:40:27*
%MOMM*%
%LPD*%
G01*
G04 APERTURE LIST*
G04 Aperture macros list*
%AMRoundRect*
0 Rectangle with rounded corners*
0 $1 Rounding radius*
0 $2 $3 $4 $5 $6 $7 $8 $9 X,Y pos of 4 corners*
0 Add a 4 corners polygon primitive as box body*
4,1,4,$2,$3,$4,$5,$6,$7,$8,$9,$2,$3,0*
0 Add four circle primitives for the rounded corners*
1,1,$1+$1,$2,$3*
1,1,$1+$1,$4,$5*
1,1,$1+$1,$6,$7*
1,1,$1+$1,$8,$9*
0 Add four rect primitives between the rounded corners*
20,1,$1+$1,$2,$3,$4,$5,0*
20,1,$1+$1,$4,$5,$6,$7,0*
20,1,$1+$1,$6,$7,$8,$9,0*
20,1,$1+$1,$8,$9,$2,$3,0*%
%AMHorizOval*
0 Thick line with rounded ends*
0 $1 width*
0 $2 $3 position (X,Y) of the first rounded end (center of the circle)*
0 $4 $5 position (X,Y) of the second rounded end (center of the circle)*
0 Add line between two ends*
20,1,$1,$2,$3,$4,$5,0*
0 Add two circle primitives to create the rounded ends*
1,1,$1,$2,$3*
1,1,$1,$4,$5*%
%AMRotRect*
0 Rectangle, with rotation*
0 The origin of the aperture is its center*
0 $1 length*
0 $2 width*
0 $3 Rotation angle, in degrees counterclockwise*
0 Add horizontal line*
21,1,$1,$2,0,0,$3*%
G04 Aperture macros list end*
%TA.AperFunction,SMDPad,CuDef*%
%ADD10RoundRect,0.200000X-0.335876X-0.053033X-0.053033X-0.335876X0.335876X0.053033X0.053033X0.335876X0*%
%TD*%
%TA.AperFunction,ComponentPad*%
%ADD11R,1.500000X1.500000*%
%TD*%
%TA.AperFunction,ComponentPad*%
%ADD12C,1.500000*%
%TD*%
%TA.AperFunction,SMDPad,CuDef*%
%ADD13RoundRect,0.225000X-0.017678X0.335876X-0.335876X0.017678X0.017678X-0.335876X0.335876X-0.017678X0*%
%TD*%
%TA.AperFunction,SMDPad,CuDef*%
%ADD14R,1.475000X0.300000*%
%TD*%
%TA.AperFunction,SMDPad,CuDef*%
%ADD15R,0.300000X1.475000*%
%TD*%
%TA.AperFunction,SMDPad,CuDef*%
%ADD16RoundRect,0.032500X-0.205061X-0.342947X0.342947X0.205061X0.205061X0.342947X-0.342947X-0.205061X0*%
%TD*%
%TA.AperFunction,SMDPad,CuDef*%
%ADD17RoundRect,0.032500X0.205061X-0.342947X0.342947X-0.205061X-0.205061X0.342947X-0.342947X0.205061X0*%
%TD*%
%TA.AperFunction,SMDPad,CuDef*%
%ADD18RoundRect,0.033750X0.208597X-0.351786X0.351786X-0.208597X-0.208597X0.351786X-0.351786X0.208597X0*%
%TD*%
%TA.AperFunction,SMDPad,CuDef*%
%ADD19RotRect,2.700000X2.700000X45.000000*%
%TD*%
%TA.AperFunction,SMDPad,CuDef*%
%ADD20RoundRect,0.200000X-0.053033X0.335876X-0.335876X0.053033X0.053033X-0.335876X0.335876X-0.053033X0*%
%TD*%
%TA.AperFunction,SMDPad,CuDef*%
%ADD21RoundRect,0.200000X-0.200000X-0.275000X0.200000X-0.275000X0.200000X0.275000X-0.200000X0.275000X0*%
%TD*%
%TA.AperFunction,SMDPad,CuDef*%
%ADD22RoundRect,0.225000X-0.225000X-0.250000X0.225000X-0.250000X0.225000X0.250000X-0.225000X0.250000X0*%
%TD*%
%TA.AperFunction,ComponentPad*%
%ADD23C,2.745000*%
%TD*%
%TA.AperFunction,SMDPad,CuDef*%
%ADD24RoundRect,0.033750X0.173241X0.316430X-0.316430X-0.173241X-0.173241X-0.316430X0.316430X0.173241X0*%
%TD*%
%TA.AperFunction,SMDPad,CuDef*%
%ADD25RotRect,0.900000X1.300000X225.000000*%
%TD*%
%TA.AperFunction,ComponentPad*%
%ADD26C,2.100000*%
%TD*%
%TA.AperFunction,SMDPad,CuDef*%
%ADD27RotRect,0.700000X1.200000X225.000000*%
%TD*%
%TA.AperFunction,SMDPad,CuDef*%
%ADD28RotRect,0.760000X1.200000X225.000000*%
%TD*%
%TA.AperFunction,SMDPad,CuDef*%
%ADD29RotRect,0.800000X1.200000X225.000000*%
%TD*%
%TA.AperFunction,ComponentPad*%
%ADD30C,2.010000*%
%TD*%
%TA.AperFunction,SMDPad,CuDef*%
%ADD31RoundRect,0.150000X-0.875000X-0.150000X0.875000X-0.150000X0.875000X0.150000X-0.875000X0.150000X0*%
%TD*%
%TA.AperFunction,SMDPad,CuDef*%
%ADD32RotRect,0.700000X1.200000X45.000000*%
%TD*%
%TA.AperFunction,SMDPad,CuDef*%
%ADD33RotRect,0.760000X1.200000X45.000000*%
%TD*%
%TA.AperFunction,SMDPad,CuDef*%
%ADD34RotRect,0.800000X1.200000X45.000000*%
%TD*%
%TA.AperFunction,ComponentPad*%
%ADD35RotRect,1.700000X1.700000X225.000000*%
%TD*%
%TA.AperFunction,ComponentPad*%
%ADD36HorizOval,1.700000X0.000000X0.000000X0.000000X0.000000X0*%
%TD*%
G04 APERTURE END LIST*
D10*
%TO.P,R3,1*%
%TO.N,+5V_OUT*%
X106511123Y-96428785D03*
%TO.P,R3,2*%
%TO.N,Net-(J1-CC2)*%
X107677849Y-97595511D03*
%TD*%
%TO.P,R4,1*%
%TO.N,+5V_OUT*%
X96328785Y-106611123D03*
%TO.P,R4,2*%
%TO.N,Net-(J1-CC1)*%
X97495511Y-107777849D03*
%TD*%
D11*
%TO.P,U4,1,e*%
%TO.N,/segE*%
X58600000Y-107700000D03*
D12*
%TO.P,U4,2,d*%
%TO.N,/segD*%
X61140000Y-107700000D03*
%TO.P,U4,3,DPX*%
%TO.N,/segDP*%
X63680000Y-107700000D03*
%TO.P,U4,4,c*%
%TO.N,/segC*%
X66220000Y-107700000D03*
%TO.P,U4,5,g*%
%TO.N,/segG*%
X68760000Y-107700000D03*
%TO.P,U4,6,CC4*%
%TO.N,/Digit7*%
X71300000Y-107700000D03*
%TO.P,U4,7,b*%
%TO.N,/segB*%
X71300000Y-92460000D03*
%TO.P,U4,8,CC3*%
%TO.N,/Digit6*%
X68760000Y-92460000D03*
%TO.P,U4,9,CC2*%
%TO.N,/Digit5*%
X66220000Y-92460000D03*
%TO.P,U4,10,f*%
%TO.N,/segF*%
X63680000Y-92460000D03*
%TO.P,U4,11,a*%
%TO.N,/segA*%
X61140000Y-92460000D03*
%TO.P,U4,12,CC1*%
%TO.N,/Digit4*%
X58600000Y-92460000D03*
%TD*%
D13*
%TO.P,C1,1*%
%TO.N,+BATT*%
X94276129Y-59368017D03*
%TO.P,C1,2*%
%TO.N,GND*%
X93180113Y-60464033D03*
%TD*%
D14*
%TO.P,IC1,1,VDD_1*%
%TO.N,unconnected-(IC1-VDD_1-Pad1)*%
X42612000Y-77688000D03*
%TO.P,IC1,2,PC13*%
%TO.N,unconnected-(IC1-PC13-Pad2)*%
X42612000Y-78188000D03*
%TO.P,IC1,3,PC14-OSC32_IN*%
%TO.N,unconnected-(IC1-PC14-OSC32_IN-Pad3)*%
X42612000Y-78688000D03*
%TO.P,IC1,4,PC15-OSC32_OUT*%
%TO.N,unconnected-(IC1-PC15-OSC32_OUT-Pad4)*%
X42612000Y-79188000D03*
%TO.P,IC1,5,PF0-OSC_IN*%
%TO.N,unconnected-(IC1-PF0-OSC_IN-Pad5)*%
X42612000Y-79688000D03*
%TO.P,IC1,6,PF1-OSC_OUT*%
%TO.N,unconnected-(IC1-PF1-OSC_OUT-Pad6)*%
X42612000Y-80188000D03*
%TO.P,IC1,7,NRST*%
%TO.N,unconnected-(IC1-NRST-Pad7)*%
X42612000Y-80688000D03*
%TO.P,IC1,8,PC0*%
%TO.N,unconnected-(IC1-PC0-Pad8)*%
X42612000Y-81188000D03*
%TO.P,IC1,9,PC1*%
%TO.N,unconnected-(IC1-PC1-Pad9)*%
X42612000Y-81688000D03*
%TO.P,IC1,10,PC2*%
%TO.N,unconnected-(IC1-PC2-Pad10)*%
X42612000Y-82188000D03*
%TO.P,IC1,11,PC3*%
%TO.N,unconnected-(IC1-PC3-Pad11)*%
X42612000Y-82688000D03*
%TO.P,IC1,12,VSSA*%
%TO.N,unconnected-(IC1-VSSA-Pad12)*%
X42612000Y-83188000D03*
%TO.P,IC1,13,VDDA*%
%TO.N,unconnected-(IC1-VDDA-Pad13)*%
X42612000Y-83688000D03*
%TO.P,IC1,14,PA0*%
%TO.N,unconnected-(IC1-PA0-Pad14)*%
X42612000Y-84188000D03*
%TO.P,IC1,15,PA1*%
%TO.N,unconnected-(IC1-PA1-Pad15)*%
X42612000Y-84688000D03*
%TO.P,IC1,16,PA2*%
%TO.N,unconnected-(IC1-PA2-Pad16)*%
X42612000Y-85188000D03*
D15*
%TO.P,IC1,17,PA3*%
%TO.N,unconnected-(IC1-PA3-Pad17)*%
X44600000Y-87176000D03*
%TO.P,IC1,18,PF4*%
%TO.N,unconnected-(IC1-PF4-Pad18)*%
X45100000Y-87176000D03*
%TO.P,IC1,19,PF5*%
%TO.N,unconnected-(IC1-PF5-Pad19)*%
X45600000Y-87176000D03*
%TO.P,IC1,20,PA4*%
%TO.N,unconnected-(IC1-PA4-Pad20)*%
X46100000Y-87176000D03*
%TO.P,IC1,21,PA5*%
%TO.N,unconnected-(IC1-PA5-Pad21)*%
X46600000Y-87176000D03*
%TO.P,IC1,22,PA6*%
%TO.N,unconnected-(IC1-PA6-Pad22)*%
X47100000Y-87176000D03*
%TO.P,IC1,23,PA7*%
%TO.N,unconnected-(IC1-PA7-Pad23)*%
X47600000Y-87176000D03*
%TO.P,IC1,24,PC4*%
%TO.N,unconnected-(IC1-PC4-Pad24)*%
X48100000Y-87176000D03*
%TO.P,IC1,25,PC5*%
%TO.N,unconnected-(IC1-PC5-Pad25)*%
X48600000Y-87176000D03*
%TO.P,IC1,26,PB0*%
%TO.N,unconnected-(IC1-PB0-Pad26)*%
X49100000Y-87176000D03*
%TO.P,IC1,27,PB1*%
%TO.N,unconnected-(IC1-PB1-Pad27)*%
X49600000Y-87176000D03*
%TO.P,IC1,28,PB2*%
%TO.N,unconnected-(IC1-PB2-Pad28)*%
X50100000Y-87176000D03*
%TO.P,IC1,29,PB10*%
%TO.N,unconnected-(IC1-PB10-Pad29)*%
X50600000Y-87176000D03*
%TO.P,IC1,30,PB11*%
%TO.N,unconnected-(IC1-PB11-Pad30)*%
X51100000Y-87176000D03*
%TO.P,IC1,31,VSS_1*%
%TO.N,unconnected-(IC1-VSS_1-Pad31)*%
X51600000Y-87176000D03*
%TO.P,IC1,32,VDD_2*%
%TO.N,unconnected-(IC1-VDD_2-Pad32)*%
X52100000Y-87176000D03*
D14*
%TO.P,IC1,33,PB12*%
%TO.N,unconnected-(IC1-PB12-Pad33)*%
X54088000Y-85188000D03*
%TO.P,IC1,34,PB13*%
%TO.N,unconnected-(IC1-PB13-Pad34)*%
X54088000Y-84688000D03*
%TO.P,IC1,35,PB14*%
%TO.N,unconnected-(IC1-PB14-Pad35)*%
X54088000Y-84188000D03*
%TO.P,IC1,36,PB15*%
%TO.N,unconnected-(IC1-PB15-Pad36)*%
X54088000Y-83688000D03*
%TO.P,IC1,37,PC6*%
%TO.N,unconnected-(IC1-PC6-Pad37)*%
X54088000Y-83188000D03*
%TO.P,IC1,38,PC7*%
%TO.N,unconnected-(IC1-PC7-Pad38)*%
X54088000Y-82688000D03*
%TO.P,IC1,39,PC8*%
%TO.N,unconnected-(IC1-PC8-Pad39)*%
X54088000Y-82188000D03*
%TO.P,IC1,40,PC9*%
%TO.N,unconnected-(IC1-PC9-Pad40)*%
X54088000Y-81688000D03*
%TO.P,IC1,41,PA8*%
%TO.N,unconnected-(IC1-PA8-Pad41)*%
X54088000Y-81188000D03*
%TO.P,IC1,42,PA9*%
%TO.N,unconnected-(IC1-PA9-Pad42)*%
X54088000Y-80688000D03*
%TO.P,IC1,43,PA10*%
%TO.N,unconnected-(IC1-PA10-Pad43)*%
X54088000Y-80188000D03*
%TO.P,IC1,44,PA11*%
%TO.N,unconnected-(IC1-PA11-Pad44)*%
X54088000Y-79688000D03*
%TO.P,IC1,45,PA12*%
%TO.N,unconnected-(IC1-PA12-Pad45)*%
X54088000Y-79188000D03*
%TO.P,IC1,46,PA13*%
%TO.N,unconnected-(IC1-PA13-Pad46)*%
X54088000Y-78688000D03*
%TO.P,IC1,47,PF6*%
%TO.N,unconnected-(IC1-PF6-Pad47)*%
X54088000Y-78188000D03*
%TO.P,IC1,48,PF7*%
%TO.N,unconnected-(IC1-PF7-Pad48)*%
X54088000Y-77688000D03*
D15*
%TO.P,IC1,49,PA14*%
%TO.N,unconnected-(IC1-PA14-Pad49)*%
X52100000Y-75700000D03*
%TO.P,IC1,50,PA15*%
%TO.N,unconnected-(IC1-PA15-Pad50)*%
X51600000Y-75700000D03*
%TO.P,IC1,51,PC10*%
%TO.N,unconnected-(IC1-PC10-Pad51)*%
X51100000Y-75700000D03*
%TO.P,IC1,52,PC11*%
%TO.N,unconnected-(IC1-PC11-Pad52)*%
X50600000Y-75700000D03*
%TO.P,IC1,53,PC12*%
%TO.N,unconnected-(IC1-PC12-Pad53)*%
X50100000Y-75700000D03*
%TO.P,IC1,54,PD2*%
%TO.N,unconnected-(IC1-PD2-Pad54)*%
X49600000Y-75700000D03*
%TO.P,IC1,55,PB3*%
%TO.N,unconnected-(IC1-PB3-Pad55)*%
X49100000Y-75700000D03*
%TO.P,IC1,56,PB4*%
%TO.N,unconnected-(IC1-PB4-Pad56)*%
X48600000Y-75700000D03*
%TO.P,IC1,57,PB5*%
%TO.N,unconnected-(IC1-PB5-Pad57)*%
X48100000Y-75700000D03*
%TO.P,IC1,58,PB6*%
%TO.N,unconnected-(IC1-PB6-Pad58)*%
X47600000Y-75700000D03*
%TO.P,IC1,59,PB7*%
%TO.N,unconnected-(IC1-PB7-Pad59)*%
X47100000Y-75700000D03*
%TO.P,IC1,60,BOOT0*%
%TO.N,unconnected-(IC1-BOOT0-Pad60)*%
X46600000Y-75700000D03*
%TO.P,IC1,61,PB8*%
%TO.N,unconnected-(IC1-PB8-Pad61)*%
X46100000Y-75700000D03*
%TO.P,IC1,62,PB9*%
%TO.N,unconnected-(IC1-PB9-Pad62)*%
X45600000Y-75700000D03*
%TO.P,IC1,63,VSS_2*%
%TO.N,unconnected-(IC1-VSS_2-Pad63)*%
X45100000Y-75700000D03*
%TO.P,IC1,64,VDD_3*%
%TO.N,unconnected-(IC1-VDD_3-Pad64)*%
X44600000Y-75700000D03*
%TD*%
D16*
%TO.P,U2,1,VBUS_1*%
%TO.N,unconnected-(U2-VBUS_1-Pad1)*%
X78340794Y-45391439D03*
%TO.P,U2,2,PSEL*%
%TO.N,GND*%
X78694347Y-45744993D03*
%TO.P,U2,3,~{PG}*%
%TO.N,unconnected-(U2-~{PG}-Pad3)*%
X79047901Y-46098546D03*
%TO.P,U2,4,STAT*%
%TO.N,unconnected-(U2-STAT-Pad4)*%
X79401454Y-46452099D03*
%TO.P,U2,5,SCL*%
%TO.N,unconnected-(U2-SCL-Pad5)*%
X79755007Y-46805653D03*
%TO.P,U2,6,SDA*%
%TO.N,unconnected-(U2-SDA-Pad6)*%
X80108561Y-47159206D03*
D17*
%TO.P,U2,7,INT*%
%TO.N,unconnected-(U2-INT-Pad7)*%
X81091439Y-47159206D03*
%TO.P,U2,8,OTG*%
%TO.N,unconnected-(U2-OTG-Pad8)*%
X81444993Y-46805653D03*
%TO.P,U2,9,~{CE}*%
%TO.N,unconnected-(U2-~{CE}-Pad9)*%
X81798546Y-46452099D03*
%TO.P,U2,10,ILIM*%
%TO.N,unconnected-(U2-ILIM-Pad10)*%
X82152099Y-46098546D03*
%TO.P,U2,11,TS*%
%TO.N,unconnected-(U2-TS-Pad11)*%
X82505653Y-45744993D03*
%TO.P,U2,12,QON*%
%TO.N,unconnected-(U2-QON-Pad12)*%
X82859206Y-45391439D03*
D16*
%TO.P,U2,13,BAT_13*%
%TO.N,unconnected-(U2-BAT_13-Pad13)*%
X82859206Y-44408561D03*
%TO.P,U2,14,BAT_14*%
%TO.N,unconnected-(U2-BAT_14-Pad14)*%
X82505653Y-44055007D03*
%TO.P,U2,15,SYS_15*%
%TO.N,unconnected-(U2-SYS_15-Pad15)*%
X82152099Y-43701454D03*
%TO.P,U2,16,SYS_16*%
%TO.N,unconnected-(U2-SYS_16-Pad16)*%
X81798546Y-43347901D03*
%TO.P,U2,17,PGND_17*%
%TO.N,unconnected-(U2-PGND_17-Pad17)*%
X81444993Y-42994347D03*
%TO.P,U2,18,PGND_18*%
%TO.N,unconnected-(U2-PGND_18-Pad18)*%
X81091439Y-42640794D03*
D18*
%TO.P,U2,19,SW_19*%
%TO.N,unconnected-(U2-SW_19-Pad19)*%
X80108561Y-42640794D03*
%TO.P,U2,20,SW_20*%
%TO.N,unconnected-(U2-SW_20-Pad20)*%
X79755007Y-42994347D03*
%TO.P,U2,21,BTST*%
%TO.N,unconnected-(U2-BTST-Pad21)*%
X79401454Y-43347901D03*
%TO.P,U2,22,REGN*%
%TO.N,unconnected-(U2-REGN-Pad22)*%
X79047901Y-43701454D03*
%TO.P,U2,23,PMID*%
%TO.N,unconnected-(U2-PMID-Pad23)*%
X78694347Y-44055007D03*
%TO.P,U2,24,VBUS_24*%
%TO.N,unconnected-(U2-VBUS_24-Pad24)*%
X78340794Y-44408561D03*
D19*
%TO.P,U2,25,EXP*%
%TO.N,unconnected-(U2-EXP-Pad25)*%
X80600000Y-44900000D03*
%TD*%
D20*
%TO.P,R6,1*%
%TO.N,V_MCU_LOGIC*%
X90761808Y-55782986D03*
%TO.P,R6,2*%
%TO.N,/SDA*%
X89595082Y-56949712D03*
%TD*%
D11*
%TO.P,U3,1,e*%
%TO.N,/segE*%
X22100000Y-58600000D03*
D12*
%TO.P,U3,2,d*%
%TO.N,/segD*%
X22100000Y-61140000D03*
%TO.P,U3,3,DPX*%
%TO.N,/segDP*%
X22100000Y-63680000D03*
%TO.P,U3,4,c*%
%TO.N,/segC*%
X22100000Y-66220000D03*
%TO.P,U3,5,g*%
%TO.N,/segG*%
X22100000Y-68760000D03*
%TO.P,U3,6,CC4*%
%TO.N,/Digit3*%
X22100000Y-71300000D03*
%TO.P,U3,7,b*%
%TO.N,/segB*%
X37340000Y-71300000D03*
%TO.P,U3,8,CC3*%
%TO.N,/Digit2*%
X37340000Y-68760000D03*
%TO.P,U3,9,CC2*%
%TO.N,/Digit1*%
X37340000Y-66220000D03*
%TO.P,U3,10,f*%
%TO.N,/segF*%
X37340000Y-63680000D03*
%TO.P,U3,11,a*%
%TO.N,/segA*%
X37340000Y-61140000D03*
%TO.P,U3,12,CC1*%
%TO.N,/Digit0*%
X37340000Y-58600000D03*
%TD*%
D21*
%TO.P,R8,1*%
%TO.N,+5V_OUT*%
X43000000Y-53510000D03*
%TO.P,R8,2*%
%TO.N,Net-(U5-ISET)*%
X44650000Y-53510000D03*
%TD*%
D22*
%TO.P,C2,1*%
%TO.N,+5V_OUT*%
X43050000Y-51000000D03*
%TO.P,C2,2*%
%TO.N,GND*%
X44600000Y-51000000D03*
%TD*%
D20*
%TO.P,R7,1*%
%TO.N,V_MCU_LOGIC*%
X88986970Y-54008148D03*
%TO.P,R7,2*%
%TO.N,/INT*%
X87820244Y-55174874D03*
%TD*%
D23*
%TO.P,BT2,1_1*%
%TO.N,+BATT*%
X91119958Y-73980042D03*
%TO.P,BT2,1_2*%
X87527856Y-77572144D03*
%TO.P,BT2,1_3*%
X94712061Y-81164247D03*
%TD*%
D24*
%TO.P,U1,1,CTG*%
%TO.N,GND*%
X87000000Y-52700000D03*
%TO.P,U1,2,CELL*%
%TO.N,+BATT*%
X86646447Y-52346447D03*
%TO.P,U1,3,VDD*%
X86292893Y-51992893D03*
%TO.P,U1,4,GND*%
%TO.N,GND*%
X85939340Y-51639340D03*
%TO.P,U1,5,~{ALERT}*%
%TO.N,/INT*%
X84546340Y-53032340D03*
%TO.P,U1,6,QSTRT*%
%TO.N,GND*%
X84899893Y-53385893D03*
%TO.P,U1,7,SCL*%
%TO.N,/SCL*%
X85253447Y-53739447D03*
%TO.P,U1,8,SDA*%
%TO.N,/SDA*%
X85607000Y-54093000D03*
D25*
%TO.P,U1,9,EP*%
%TO.N,GND*%
X85773170Y-52866170D03*
%TD*%
D26*
%TO.P,BT1,N1*%
%TO.N,GND*%
X49909775Y-36361961D03*
%TO.P,BT1,N2*%
X44610010Y-37348375D03*
%TO.P,BT1,N3*%
X50896189Y-31062196D03*
%TD*%
D10*
%TO.P,R2,1*%
%TO.N,Net-(J4-CC2)*%
X22072151Y-32204487D03*
%TO.P,R2,2*%
%TO.N,GND*%
X23238877Y-33371213D03*
%TD*%
D27*
%TO.P,J4,A5,CC1*%
%TO.N,Net-(J4-CC1)*%
X27767896Y-27010789D03*
D28*
%TO.P,J4,A9,VBUS_1*%
%TO.N,+5V_CHARGE*%
X26339540Y-28439145D03*
D29*
%TO.P,J4,A12,GND_1*%
%TO.N,GND*%
X25469799Y-29308886D03*
D27*
%TO.P,J4,B5,CC2*%
%TO.N,Net-(J4-CC2)*%
X27060789Y-27717896D03*
D28*
%TO.P,J4,B9,VBUS_2*%
%TO.N,+5V_CHARGE*%
X28489145Y-26289540D03*
D29*
%TO.P,J4,B12,GND_2*%
%TO.N,GND*%
X29358886Y-25419799D03*
D30*
%TO.P,J4,MH1,SH1*%
X24303073Y-30362475D03*
%TO.P,J4,MH2,SH2*%
X21616067Y-27675470D03*
%TO.P,J4,MH3,SH3*%
X27725470Y-21566067D03*
%TO.P,J4,MH4,SH4*%
X30412475Y-24253073D03*
%TD*%
D31*
%TO.P,U5,1,DIN*%
%TO.N,/MOSI*%
X43600000Y-57260000D03*
%TO.P,U5,2,DIG_0*%
%TO.N,/Digit0*%
X43600000Y-58530000D03*
%TO.P,U5,3,DIG_4*%
%TO.N,/Digit4*%
X43600000Y-59800000D03*
%TO.P,U5,4,GND*%
%TO.N,GND*%
X43600000Y-61070000D03*
%TO.P,U5,5,DIG_6*%
%TO.N,/Digit6*%
X43600000Y-62340000D03*
%TO.P,U5,6,DIG_2*%
%TO.N,/Digit2*%
X43600000Y-63610000D03*
%TO.P,U5,7,DIG_3*%
%TO.N,/Digit3*%
X43600000Y-64880000D03*
%TO.P,U5,8,DIG_7*%
%TO.N,/Digit7*%
X43600000Y-66150000D03*
%TO.P,U5,9,GND*%
%TO.N,GND*%
X43600000Y-67420000D03*
%TO.P,U5,10,DIG_5*%
%TO.N,/Digit5*%
X43600000Y-68690000D03*
%TO.P,U5,11,DIG_1*%
%TO.N,/Digit1*%
X43600000Y-69960000D03*
%TO.P,U5,12,~{CS}*%
%TO.N,/CS*%
X43600000Y-71230000D03*
%TO.P,U5,13,CLK*%
%TO.N,/CLK*%
X52900000Y-71230000D03*
%TO.P,U5,14,SEG_A*%
%TO.N,/segA*%
X52900000Y-69960000D03*
%TO.P,U5,15,SEG_F*%
%TO.N,/segF*%
X52900000Y-68690000D03*
%TO.P,U5,16,SEG_B*%
%TO.N,/segB*%
X52900000Y-67420000D03*
%TO.P,U5,17,SEG_G*%
%TO.N,/segG*%
X52900000Y-66150000D03*
%TO.P,U5,18,ISET*%
%TO.N,Net-(U5-ISET)*%
X52900000Y-64880000D03*
%TO.P,U5,19,V+*%
%TO.N,+5V_OUT*%
X52900000Y-63610000D03*
%TO.P,U5,20,SEG_C*%
%TO.N,/segC*%
X52900000Y-62340000D03*
%TO.P,U5,21,SEG_E*%
%TO.N,/segE*%
X52900000Y-61070000D03*
%TO.P,U5,22,SEG_DP*%
%TO.N,/segDP*%
X52900000Y-59800000D03*
%TO.P,U5,23,SEG_D*%
%TO.N,/segD*%
X52900000Y-58530000D03*
%TO.P,U5,24,DOUT*%
%TO.N,unconnected-(U5-DOUT-Pad24)*%
X52900000Y-57260000D03*
%TD*%
D20*
%TO.P,R5,1*%
%TO.N,V_MCU_LOGIC*%
X92536646Y-57557824D03*
%TO.P,R5,2*%
%TO.N,/SCL*%
X91369920Y-58724550D03*
%TD*%
D32*
%TO.P,J1,A5,CC1*%
%TO.N,Net-(J1-CC1)*%
X101982104Y-102789211D03*
D33*
%TO.P,J1,A9,VBUS_1*%
%TO.N,+5V_OUT*%
X103410460Y-101360855D03*
D34*
%TO.P,J1,A12,GND_1*%
%TO.N,GND*%
X104280201Y-100491114D03*
D32*
%TO.P,J1,B5,CC2*%
%TO.N,Net-(J1-CC2)*%
X102689211Y-102082104D03*
D33*
%TO.P,J1,B9,VBUS_2*%
%TO.N,+5V_OUT*%
X101260855Y-103510460D03*
D34*
%TO.P,J1,B12,GND_2*%
%TO.N,GND*%
X100391114Y-104380201D03*
D30*
%TO.P,J1,MH1,SH1*%
X105446927Y-99437525D03*
%TO.P,J1,MH2,SH2*%
X108133933Y-102124530D03*
%TO.P,J1,MH3,SH3*%
X102024530Y-108233933D03*
%TO.P,J1,MH4,SH4*%
X99337525Y-105546927D03*
%TD*%
D10*
%TO.P,R1,1*%
%TO.N,Net-(J4-CC1)*%
X32254489Y-22022150D03*
%TO.P,R1,2*%
%TO.N,GND*%
X33421215Y-23188876D03*
%TD*%
D35*
%TO.P,J2,1,Pin_1*%
%TO.N,GND*%
X96033289Y-56097647D03*
D36*
%TO.P,J2,2,Pin_2*%
%TO.N,V_MCU_LOGIC*%
X94237238Y-54301596D03*
%TO.P,J2,3,Pin_3*%
%TO.N,/INT*%
X92441187Y-52505545D03*
%TO.P,J2,4,Pin_4*%
%TO.N,/SCL*%
X90645135Y-50709493D03*
%TO.P,J2,5,Pin_5*%
%TO.N,/SDA*%
X88849084Y-48913442D03*
%TD*%
M02*
