M48
; DRILL file {KiCad 7.0.10} date Tue Aug 26 16:00:30 2025
; FORMAT={-:-/ absolute / metric / decimal}
; #@! TF.CreationDate,2025-08-26T16:00:30+02:00
; #@! TF.GenerationSoftware,Kicad,Pcbnew,7.0.10
; #@! TF.FileFunction,Plated,1,4,PTH
FMAT,2
METRIC
; #@! TA.AperFunction,Plated,PTH,ViaDrill
T1C0.300
; #@! TA.AperFunction,Plated,PTH,ViaDrill
T2C0.500
; #@! TA.AperFunction,Plated,PTH,ComponentDrill
T3C1.000
; #@! TA.AperFunction,Plated,PTH,ComponentDrill
T4C1.340
; #@! TA.AperFunction,Plated,PTH,ComponentDrill
T5C1.400
; #@! TA.AperFunction,Plated,PTH,ComponentDrill
T6C1.830
; #@! TA.AperFunction,Plated,PTH,ComponentDrill
T7C2.360
; #@! TA.AperFunction,Plated,PTH,ComponentDrill
T8C3.000
%
G90
G05
T1
X21.8Y-34.6
X21.8Y-39.6
X21.8Y-39.6
X21.8Y-44.6
X21.8Y-49.6
X21.8Y-54.6
X21.8Y-89.6
X21.8Y-94.6
X21.8Y-104.6
X23.167Y-27.385
X23.3Y-86.6
X23.379Y-28.021
X23.591Y-26.961
X23.7Y-33.6
X23.803Y-27.597
X24.015Y-28.233
X24.015Y-26.536
X24.227Y-27.173
X24.439Y-27.809
X24.439Y-26.112
X24.5Y-33.6
X24.651Y-26.749
X24.864Y-27.385
X24.864Y-25.688
X25.076Y-26.324
X25.288Y-26.961
X25.288Y-25.264
X25.3Y-67.1
X25.3Y-71.1
X25.3Y-75.6
X25.3Y-80.1
X25.5Y-25.9
X25.712Y-26.536
X25.712Y-24.839
X25.924Y-25.476
X26.136Y-26.112
X26.136Y-24.415
X26.349Y-25.051
X26.561Y-25.688
X26.561Y-23.991
X26.773Y-24.627
X26.8Y-39.6
X26.8Y-44.6
X26.8Y-49.6
X26.8Y-54.6
X26.8Y-59.6
X26.8Y-99.6
X26.8Y-104.6
X26.985Y-25.264
X26.985Y-23.567
X27.197Y-24.203
X27.409Y-24.839
X27.409Y-23.142
X27.621Y-23.779
X27.8Y-28.4
X27.833Y-24.415
X28.046Y-23.354
X28.258Y-23.991
X28.5Y-27.7
X28.5Y-28.5
X29.3Y-89.6
X30.6Y-93.9
X31.3Y-94.0
X31.8Y-34.6
X31.8Y-39.6
X31.8Y-44.6
X31.8Y-49.6
X31.8Y-54.6
X31.8Y-59.6
X31.8Y-64.6
X31.8Y-69.6
X31.8Y-74.6
X31.8Y-79.6
X31.8Y-84.6
X31.9Y-92.5
X31.99Y-93.8
X32.268Y-91.7
X32.6Y-23.7
X32.639Y-93.459
X33.0Y-94.0
X33.1Y-94.725
X33.379Y-96.821
X33.416Y-95.766
X33.5Y-23.8
X33.5Y-101.0
X33.702Y-95.125
X33.9Y-101.7
X34.5Y-101.1
X34.8Y-89.6
X35.932Y-90.708
X36.232Y-91.284
X36.4Y-90.0
X36.593Y-91.825
X36.8Y-29.6
X36.8Y-39.6
X36.8Y-44.6
X36.8Y-49.6
X36.8Y-54.6
X36.8Y-62.6
X36.8Y-104.6
X36.893Y-92.425
X37.3Y-66.1
X37.3Y-82.1
X37.3Y-86.6
X37.711Y-92.654
X37.8Y-25.6
X37.8Y-76.1
X39.3Y-56.1
X40.3Y-98.1
X40.8Y-56.1
X40.8Y-64.6
X40.8Y-67.6
X41.8Y-24.6
X41.8Y-29.6
X41.8Y-34.6
X41.8Y-44.6
X41.8Y-49.6
X41.8Y-69.6
X41.8Y-72.1
X41.8Y-77.1
X41.8Y-79.6
X41.8Y-82.1
X41.8Y-84.6
X41.8Y-87.1
X41.8Y-89.6
X41.8Y-94.6
X41.8Y-99.6
X41.8Y-104.6
X42.9Y-57.2
X43.9Y-66.6
X43.9Y-65.4
X43.9Y-64.2
X44.2Y-66.0
X44.2Y-64.8
X44.2Y-63.6
X44.2Y-67.2
X44.3Y-69.6
X44.3Y-72.1
X44.5Y-66.6
X44.5Y-65.4
X44.5Y-64.2
X44.8Y-66.0
X44.8Y-64.8
X44.8Y-63.6
X44.8Y-67.2
X44.8Y-86.0
X45.1Y-86.6
X45.3Y-56.0
X45.4Y-59.6
X45.4Y-60.3
X45.4Y-86.0
X45.492Y-61.008
X45.7Y-86.6
X45.7Y-64.2
X45.7Y-65.4
X45.7Y-66.6
X46.0Y-86.0
X46.0Y-63.6
X46.0Y-64.8
X46.0Y-66.0
X46.0Y-67.2
X46.1Y-54.125
X46.1Y-56.3
X46.3Y-86.6
X46.3Y-64.2
X46.3Y-65.4
X46.3Y-66.6
X46.6Y-63.6
X46.6Y-67.2
X46.6Y-86.0
X46.6Y-64.8
X46.6Y-66.0
X46.8Y-24.6
X46.8Y-29.6
X46.8Y-34.6
X46.8Y-39.6
X46.8Y-72.1
X46.8Y-89.6
X46.8Y-94.6
X46.8Y-99.6
X46.8Y-104.6
X46.9Y-85.4
X46.9Y-86.6
X47.029Y-54.275
X47.2Y-86.0
X47.4Y-58.2
X47.4Y-59.4
X47.5Y-85.4
X47.5Y-86.6
X47.6Y-53.795
X47.7Y-57.6
X47.7Y-58.8
X47.8Y-86.0
X48.0Y-58.2
X48.0Y-59.4
X48.1Y-85.4
X48.1Y-86.6
X48.3Y-57.6
X48.3Y-58.8
X48.4Y-86.0
X48.6Y-58.2
X48.6Y-59.4
X48.7Y-85.4
X48.7Y-86.6
X48.9Y-58.8
X48.9Y-57.6
X49.2Y-58.2
X49.2Y-59.4
X49.3Y-74.6
X49.3Y-76.6
X49.3Y-81.1
X49.3Y-107.1
X49.5Y-57.6
X49.5Y-58.8
X49.8Y-70.1
X50.4Y-62.9
X50.4Y-64.1
X50.4Y-65.3
X50.7Y-62.3
X50.7Y-63.5
X50.7Y-64.7
X50.7Y-65.9
X50.8Y-74.6
X51.0Y-62.9
X51.0Y-64.1
X51.0Y-65.3
X51.3Y-62.3
X51.3Y-65.9
X51.3Y-63.5
X51.3Y-64.7
X51.8Y-24.6
X51.8Y-34.6
X51.8Y-39.6
X51.8Y-44.6
X51.8Y-74.6
X51.8Y-84.6
X51.8Y-87.1
X51.8Y-89.6
X51.8Y-94.6
X51.8Y-99.6
X51.8Y-104.6
X51.8Y-107.1
X51.9Y-82.6
X52.3Y-71.1
X52.8Y-49.6
X52.8Y-52.6
X52.8Y-53.8
X53.1Y-53.2
X53.4Y-53.8
X53.4Y-57.4
X53.4Y-52.6
X53.7Y-53.2
X53.981Y-57.109
X54.0Y-52.6
X54.0Y-53.8
X54.168Y-59.0
X54.3Y-104.6
X54.3Y-107.1
X55.8Y-52.6
X55.8Y-73.9
X55.8Y-78.3
X55.8Y-78.9
X55.8Y-79.5
X56.8Y-29.6
X56.8Y-34.6
X56.8Y-39.6
X56.8Y-44.6
X56.8Y-49.6
X56.8Y-57.1
X56.8Y-94.6
X56.8Y-104.6
X56.8Y-107.1
X57.2Y-80.3
X57.2Y-80.9
X57.2Y-81.5
X57.5Y-78.9
X57.8Y-80.0
X57.8Y-80.6
X57.8Y-81.2
X58.1Y-78.9
X58.3Y-69.6
X58.4Y-80.3
X58.4Y-80.9
X58.4Y-81.5
X58.8Y-58.6
X58.9Y-73.7
X59.0Y-80.0
X59.0Y-80.6
X59.0Y-81.2
X59.3Y-52.6
X59.3Y-57.1
X59.3Y-62.1
X59.3Y-64.6
X59.3Y-99.6
X59.6Y-80.9
X59.6Y-81.5
X60.2Y-81.2
X60.2Y-81.8
X60.3Y-68.1
X60.3Y-69.6
X60.3Y-83.9
X60.5Y-57.0
X60.8Y-63.6
X60.8Y-80.9
X60.8Y-81.5
X60.945Y-56.355
X61.2Y-57.3
X61.4Y-81.2
X61.4Y-81.8
X61.5Y-22.9
X61.8Y-26.6
X61.8Y-29.6
X61.8Y-34.6
X61.8Y-39.6
X61.8Y-44.6
X61.8Y-49.6
X61.8Y-59.1
X61.8Y-74.6
X61.8Y-84.1
X61.8Y-87.1
X61.8Y-97.1
X61.8Y-99.6
X62.0Y-80.9
X62.0Y-81.5
X62.3Y-69.6
X62.6Y-81.2
X62.6Y-81.8
X62.876Y-67.176
X63.2Y-80.9
X63.2Y-81.5
X63.3Y-67.6
X63.512Y-66.964
X63.724Y-66.327
X63.8Y-84.1
X63.8Y-81.2
X63.8Y-81.8
X63.936Y-67.388
X64.149Y-66.751
X64.3Y-52.6
X64.3Y-87.1
X64.3Y-94.6
X64.3Y-97.1
X64.4Y-80.9
X64.4Y-81.5
X65.0Y-81.2
X65.0Y-81.8
X65.3Y-24.1
X65.3Y-29.1
X65.476Y-71.908
X65.6Y-80.9
X65.6Y-81.5
X65.601Y-72.599
X66.227Y-69.876
X66.439Y-70.512
X66.651Y-69.451
X66.8Y-29.6
X66.8Y-34.6
X66.8Y-37.1
X66.8Y-39.6
X66.8Y-44.6
X66.8Y-49.6
X66.8Y-59.6
X66.8Y-65.1
X66.8Y-87.1
X66.8Y-94.6
X66.8Y-99.6
X66.864Y-70.088
X67.076Y-70.724
X67.5Y-70.3
X68.8Y-102.6
X69.3Y-29.6
X69.3Y-39.6
X69.3Y-42.1
X69.3Y-57.1
X69.3Y-59.6
X69.3Y-84.6
X69.3Y-87.1
X69.576Y-73.776
X69.8Y-98.1
X70.0Y-74.2
X70.212Y-73.564
X70.3Y-61.1
X70.424Y-72.927
X70.636Y-73.988
X70.8Y-65.1
X70.849Y-73.351
X71.3Y-24.3
X71.8Y-29.6
X71.8Y-42.1
X71.8Y-44.6
X71.8Y-87.1
X71.8Y-89.6
X72.7Y-24.2
X73.3Y-24.6
X74.3Y-27.1
X74.3Y-44.6
X74.3Y-52.1
X74.3Y-72.1
X74.3Y-74.6
X74.3Y-77.1
X74.3Y-82.1
X76.8Y-24.6
X76.8Y-27.1
X76.8Y-31.1
X76.8Y-32.1
X76.8Y-33.6
X76.8Y-34.6
X76.8Y-41.1
X76.8Y-47.1
X76.8Y-52.1
X76.8Y-57.1
X76.8Y-66.1
X76.8Y-69.6
X76.8Y-74.6
X76.8Y-77.1
X76.8Y-82.1
X76.8Y-84.6
X76.8Y-90.1
X76.8Y-94.6
X76.8Y-99.6
X76.8Y-104.6
X77.8Y-40.1
X78.8Y-39.1
X79.3Y-31.1
X79.3Y-32.1
X79.3Y-33.6
X79.3Y-44.6
X79.3Y-47.1
X79.3Y-52.1
X79.3Y-57.1
X79.3Y-59.6
X79.3Y-82.1
X79.3Y-84.6
X79.3Y-87.1
X79.7Y-26.775
X80.9Y-43.3
X81.3Y-31.1
X81.3Y-32.1
X81.3Y-45.1
X81.8Y-47.1
X81.8Y-57.1
X81.8Y-59.6
X81.8Y-66.1
X81.8Y-69.6
X81.8Y-74.6
X81.8Y-90.1
X81.8Y-94.6
X81.8Y-99.6
X81.8Y-104.6
X82.3Y-50.6
X82.9Y-41.1
X83.0Y-35.8
X83.15Y-32.325
X83.3Y-37.1
X83.8Y-32.325
X84.3Y-53.1
X84.3Y-54.6
X84.3Y-57.1
X84.3Y-59.6
X85.5Y-41.8
X86.2Y-42.5
X86.8Y-54.6
X86.8Y-57.1
X86.8Y-59.6
X86.8Y-66.1
X86.8Y-69.6
X86.8Y-79.6
X86.8Y-84.6
X86.8Y-90.1
X86.8Y-94.6
X86.8Y-99.6
X86.8Y-104.6
X87.1Y-31.1
X87.3Y-28.1
X87.3Y-37.9
X87.3Y-39.2
X87.3Y-50.1
X87.8Y-31.1
X87.8Y-37.6
X87.8Y-46.0
X88.3Y-39.6
X88.3Y-40.6
X88.4Y-26.475
X89.3Y-59.6
X89.8Y-47.1
X90.3Y-30.1
X90.465Y-37.97
X90.7Y-49.3
X90.821Y-48.421
X90.9Y-37.375
X91.0Y-45.3
X91.3Y-35.5
X91.3Y-39.6
X91.3Y-45.9
X91.35Y-49.3
X91.649Y-48.711
X91.8Y-84.6
X91.8Y-94.6
X91.8Y-99.6
X91.8Y-104.6
X92.2Y-31.0
X92.3Y-36.6
X92.3Y-47.1
X92.656Y-40.013
X92.8Y-26.1
X92.8Y-29.1
X92.892Y-39.408
X94.1Y-50.1
X94.3Y-30.6
X94.3Y-33.6
X94.456Y-49.265
X95.0Y-42.65
X95.145Y-41.95
X95.438Y-49.238
X95.5Y-89.8
X95.8Y-33.6
X95.85Y-41.75
X96.3Y-57.2
X96.8Y-24.6
X96.8Y-33.6
X96.8Y-38.1
X96.8Y-39.6
X96.8Y-64.6
X96.8Y-69.6
X96.8Y-79.6
X96.8Y-84.6
X96.8Y-99.6
X96.8Y-104.6
X96.831Y-56.031
X96.898Y-56.741
X97.576Y-40.4
X97.7Y-56.0
X97.8Y-34.6
X97.8Y-39.1
X97.975Y-49.8
X98.2Y-106.9
X98.8Y-107.4
X98.987Y-46.999
X99.1Y-46.359
X99.2Y-55.1
X99.3Y-62.1
X99.3Y-64.6
X99.3Y-67.1
X99.628Y-46.895
X99.8Y-30.9
X99.8Y-48.1
X100.3Y-22.6
X100.3Y-44.1
X100.3Y-50.6
X100.3Y-54.1
X100.8Y-40.1
X100.8Y-42.6
X100.975Y-38.054
X100.975Y-38.704
X101.3Y-101.9
X101.4Y-101.2
X101.742Y-106.009
X101.8Y-21.6
X101.8Y-69.6
X101.8Y-74.6
X101.8Y-79.6
X101.8Y-92.1
X101.8Y-97.1
X101.954Y-106.646
X102.1Y-101.3
X102.167Y-105.585
X102.3Y-23.1
X102.3Y-26.1
X102.379Y-106.221
X102.591Y-106.858
X102.591Y-105.161
X102.803Y-105.797
X103.015Y-106.433
X103.015Y-104.736
X103.2Y-34.1
X103.227Y-105.373
X103.3Y-27.1
X103.3Y-43.1
X103.439Y-106.009
X103.439Y-104.312
X103.651Y-104.949
X103.8Y-35.6
X103.864Y-105.585
X103.864Y-103.888
X104.076Y-104.524
X104.288Y-105.161
X104.288Y-103.464
X104.3Y-67.1
X104.3Y-97.1
X104.5Y-104.1
X104.712Y-104.736
X104.712Y-103.039
X104.924Y-103.676
X105.136Y-104.312
X105.136Y-102.615
X105.349Y-103.251
X105.561Y-103.888
X105.561Y-102.191
X105.773Y-102.827
X105.8Y-64.1
X105.9Y-57.8
X105.985Y-103.464
X105.985Y-101.767
X106.197Y-102.403
X106.409Y-103.039
X106.621Y-101.979
X106.8Y-29.6
X106.8Y-64.6
X106.8Y-67.1
X106.8Y-69.6
X106.8Y-76.1
X106.8Y-84.6
X106.8Y-89.6
X106.833Y-102.615
X107.5Y-98.0
X107.8Y-28.1
X107.8Y-98.6
X108.3Y-52.5
T2
X64.5Y-62.85
X65.178Y-61.9
X65.3Y-63.8
X65.772Y-64.75
X80.2Y-37.9
X83.8Y-38.4
X83.8Y-39.5
X86.6Y-38.5
X99.1Y-49.8
X102.6Y-38.1
X103.3Y-40.7
X103.4Y-38.8
X103.8Y-50.0
X104.0Y-48.9
X104.1Y-53.2
T3
X23.16Y-57.4
X23.16Y-59.94
X23.16Y-62.48
X23.16Y-65.02
X23.16Y-67.56
X23.16Y-70.1
X38.4Y-57.4
X38.4Y-59.94
X38.4Y-62.48
X38.4Y-65.02
X38.4Y-67.56
X38.4Y-70.1
X59.66Y-91.26
X59.66Y-106.5
X62.2Y-91.26
X62.2Y-106.5
X64.74Y-91.26
X64.74Y-106.5
X66.612Y-32.212
X67.28Y-91.26
X67.28Y-106.5
X68.408Y-34.008
X69.82Y-91.26
X69.82Y-106.5
X70.204Y-35.804
X72.0Y-37.6
X72.36Y-91.26
X72.36Y-106.5
X73.796Y-39.396
X86.808Y-52.608
X88.604Y-54.404
X90.4Y-56.2
X92.196Y-57.996
X93.992Y-59.792
X94.306Y-95.506
X96.102Y-97.302
X96.698Y-27.698
X98.494Y-29.494
T4
X21.466Y-27.475
X24.153Y-30.162
X27.575Y-21.366
X30.262Y-24.053
X99.638Y-105.647
X102.325Y-108.334
X105.747Y-99.538
X108.434Y-102.225
T5
X43.759Y-32.218
X49.059Y-31.231
X50.046Y-25.932
T6
X87.823Y-73.502
X91.415Y-69.91
X95.007Y-77.094
T7
X105.998Y-79.295
X105.998Y-92.435
T8
X24.8Y-52.6
X24.8Y-102.6
X74.8Y-102.6
M30
