%TF.GenerationSoftware,KiCad,Pcbnew,7.0.10*%
%TF.CreationDate,2025-06-24T15:40:27+02:00*%
%TF.ProjectId,BQ2xxxx,42513278-7878-4782-9e6b-696361645f70,rev?*%
%TF.SameCoordinates,Original*%
%TF.FileFunction,Soldermask,Bot*%
%TF.FilePolarity,Negative*%
%FSLAX46Y46*%
G04 Gerber Fmt 4.6, Leading zero omitted, Abs format (unit mm)*
G04 Created by KiCad (PCBNEW 7.0.10) date 2025-06-24 15:40:27*
%MOMM*%
%LPD*%
G01*
G04 APERTURE LIST*
G04 Aperture macros list*
%AMHorizOval*
0 Thick line with rounded ends*
0 $1 width*
0 $2 $3 position (X,Y) of the first rounded end (center of the circle)*
0 $4 $5 position (X,Y) of the second rounded end (center of the circle)*
0 Add line between two ends*
20,1,$1,$2,$3,$4,$5,0*
0 Add two circle primitives to create the rounded ends*
1,1,$1,$2,$3*
1,1,$1,$4,$5*%
%AMRotRect*
0 Rectangle, with rotation*
0 The origin of the aperture is its center*
0 $1 length*
0 $2 width*
0 $3 Rotation angle, in degrees counterclockwise*
0 Add horizontal line*
21,1,$1,$2,0,0,$3*%
G04 Aperture macros list end*
%ADD10R,1.500000X1.500000*%
%ADD11C,1.500000*%
%ADD12C,2.949000*%
%ADD13C,2.304000*%
%ADD14C,2.010000*%
%ADD15RotRect,1.700000X1.700000X225.000000*%
%ADD16HorizOval,1.700000X0.000000X0.000000X0.000000X0.000000X0*%
G04 APERTURE END LIST*
D10*
%TO.C,U4*%
X58600000Y-107700000D03*
D11*
X61140000Y-107700000D03*
X63680000Y-107700000D03*
X66220000Y-107700000D03*
X68760000Y-107700000D03*
X71300000Y-107700000D03*
X71300000Y-92460000D03*
X68760000Y-92460000D03*
X66220000Y-92460000D03*
X63680000Y-92460000D03*
X61140000Y-92460000D03*
X58600000Y-92460000D03*
%TD*%
D10*
%TO.C,U3*%
X22100000Y-58600000D03*
D11*
X22100000Y-61140000D03*
X22100000Y-63680000D03*
X22100000Y-66220000D03*
X22100000Y-68760000D03*
X22100000Y-71300000D03*
X37340000Y-71300000D03*
X37340000Y-68760000D03*
X37340000Y-66220000D03*
X37340000Y-63680000D03*
X37340000Y-61140000D03*
X37340000Y-58600000D03*
%TD*%
D12*
%TO.C,BT2*%
X91119958Y-73980042D03*
X87527856Y-77572144D03*
X94712061Y-81164247D03*
%TD*%
D13*
%TO.C,BT1*%
X49909775Y-36361961D03*
X44610010Y-37348375D03*
X50896189Y-31062196D03*
%TD*%
D14*
%TO.C,J4*%
X24303073Y-30362475D03*
X21616067Y-27675470D03*
X27725470Y-21566067D03*
X30412475Y-24253073D03*
%TD*%
%TO.C,J1*%
X105446927Y-99437525D03*
X108133933Y-102124530D03*
X102024530Y-108233933D03*
X99337525Y-105546927D03*
%TD*%
D15*
%TO.C,J2*%
X96033289Y-56097647D03*
D16*
X94237238Y-54301596D03*
X92441187Y-52505545D03*
X90645135Y-50709493D03*
X88849084Y-48913442D03*
%TD*%
M02*
