%TF.GenerationSoftware,KiCad,Pcbnew,7.0.10*%
%TF.CreationDate,2025-08-26T16:00:25+02:00*%
%TF.ProjectId,BQ2xxxx,42513278-7878-4782-9e6b-696361645f70,rev?*%
%TF.SameCoordinates,Original*%
%TF.FileFunction,Legend,Bot*%
%TF.FilePolarity,Positive*%
%FSLAX46Y46*%
G04 Gerber Fmt 4.6, Leading zero omitted, Abs format (unit mm)*
G04 Created by KiCad (PCBNEW 7.0.10) date 2025-08-26 16:00:25*
%MOMM*%
%LPD*%
G01*
G04 APERTURE LIST*
%ADD10C,0.150000*%
%ADD11C,0.254000*%
%ADD12C,0.200000*%
%ADD13C,0.100000*%
G04 APERTURE END LIST*
D10*
G36*
X62635344Y-73125918D02*
G01*
X62646119Y-73128099D01*
X62656829Y-73131695D01*
X62661095Y-73133530D01*
X62671215Y-73138811D01*
X62680323Y-73145061D01*
X62688421Y-73152280D01*
X62695507Y-73160466D01*
X62701583Y-73169622D01*
X62706647Y-73179746D01*
X62708390Y-73184066D01*
X62804566Y-73438588D01*
X62807970Y-73449436D01*
X62809981Y-73460275D01*
X62810600Y-73471105D01*
X62809825Y-73481926D01*
X62807657Y-73492738D01*
X62804096Y-73503540D01*
X62802281Y-73507859D01*
X62796904Y-73518090D01*
X62790599Y-73527281D01*
X62783366Y-73535434D01*
X62775205Y-73542548D01*
X62766115Y-73548623D01*
X62756098Y-73553659D01*
X62751831Y-73555382D01*
X62582302Y-73619442D01*
X62422067Y-73195391D01*
X62591596Y-73131332D01*
X62602630Y-73127857D01*
X62613600Y-73125796D01*
X62624504Y-73125150D01*
X62635344Y-73125918D01*
G37*
G36*
X63198333Y-72915352D02*
G01*
X63208072Y-72916565D01*
X63217786Y-72918539D01*
X63227476Y-72921276D01*
X63237142Y-72924774D01*
X63243572Y-72927529D01*
X63252917Y-72932132D01*
X63261709Y-72937251D01*
X63269948Y-72942886D01*
X63277634Y-72949038D01*
X63287022Y-72958044D01*
X63295426Y-72967968D01*
X63301085Y-72976013D01*
X63306190Y-72984575D01*
X63310743Y-72993653D01*
X63314743Y-73003248D01*
X63378889Y-73173005D01*
X63382283Y-73182966D01*
X63384923Y-73192887D01*
X63386809Y-73202766D01*
X63387941Y-73212605D01*
X63388318Y-73222403D01*
X63387647Y-73235403D01*
X63386264Y-73245106D01*
X63384127Y-73254767D01*
X63381235Y-73264388D01*
X63377589Y-73273968D01*
X63376206Y-73277153D01*
X63371621Y-73286444D01*
X63366501Y-73295195D01*
X63360846Y-73303404D01*
X63354655Y-73311071D01*
X63347930Y-73318198D01*
X63340670Y-73324782D01*
X63332875Y-73330826D01*
X63324545Y-73336328D01*
X63315680Y-73341289D01*
X63306280Y-73345708D01*
X63299716Y-73348354D01*
X63289873Y-73351699D01*
X63280053Y-73354288D01*
X63270254Y-73356120D01*
X63260477Y-73357196D01*
X63247475Y-73357454D01*
X63234511Y-73356368D01*
X63224814Y-73354671D01*
X63215138Y-73352217D01*
X63205485Y-73349008D01*
X63195852Y-73345042D01*
X63186492Y-73340398D01*
X63177686Y-73335243D01*
X63169435Y-73329575D01*
X63161738Y-73323394D01*
X63154596Y-73316701D01*
X63145935Y-73306980D01*
X63140086Y-73299091D01*
X63134792Y-73290690D01*
X63130052Y-73281777D01*
X63125867Y-73272351D01*
X63124595Y-73269095D01*
X63060449Y-73099337D01*
X63057104Y-73089495D01*
X63054516Y-73079675D01*
X63052683Y-73069876D01*
X63051607Y-73060099D01*
X63051349Y-73047097D01*
X63052435Y-73034133D01*
X63054133Y-73024436D01*
X63056586Y-73014760D01*
X63059796Y-73005106D01*
X63063762Y-72995474D01*
X63068349Y-72986088D01*
X63073454Y-72977260D01*
X63079077Y-72968988D01*
X63085218Y-72961273D01*
X63091876Y-72954115D01*
X63101561Y-72945438D01*
X63109428Y-72939580D01*
X63117814Y-72934278D01*
X63126717Y-72929534D01*
X63136138Y-72925347D01*
X63139394Y-72924075D01*
X63149278Y-72920717D01*
X63159137Y-72918120D01*
X63168972Y-72916285D01*
X63178784Y-72915212D01*
X63188570Y-72914901D01*
X63198333Y-72915352D01*
G37*
G36*
X65054468Y-72213977D02*
G01*
X65064207Y-72215190D01*
X65073921Y-72217164D01*
X65083611Y-72219901D01*
X65093277Y-72223399D01*
X65099707Y-72226154D01*
X65109052Y-72230757D01*
X65117844Y-72235876D01*
X65126083Y-72241511D01*
X65133769Y-72247663D01*
X65143157Y-72256669D01*
X65151561Y-72266593D01*
X65157220Y-72274638D01*
X65162325Y-72283200D01*
X65166878Y-72292278D01*
X65170878Y-72301873D01*
X65235024Y-72471630D01*
X65238418Y-72481591D01*
X65241058Y-72491512D01*
X65242944Y-72501391D01*
X65244076Y-72511230D01*
X65244453Y-72521028D01*
X65243782Y-72534028D01*
X65242399Y-72543731D01*
X65240262Y-72553392D01*
X65237370Y-72563013D01*
X65233724Y-72572594D01*
X65232341Y-72575778D01*
X65227756Y-72585069D01*
X65222636Y-72593820D01*
X65216981Y-72602029D01*
X65210791Y-72609696D01*
X65204065Y-72616823D01*
X65196805Y-72623407D01*
X65189010Y-72629451D01*
X65180680Y-72634953D01*
X65171815Y-72639914D01*
X65162415Y-72644333D01*
X65155851Y-72646979D01*
X65146008Y-72650324D01*
X65136188Y-72652913D01*
X65126389Y-72654745D01*
X65116612Y-72655821D01*
X65103610Y-72656079D01*
X65090647Y-72654993D01*
X65080949Y-72653296D01*
X65071274Y-72650842D01*
X65061620Y-72647633D01*
X65051987Y-72643667D01*
X65042627Y-72639023D01*
X65033821Y-72633868D01*
X65025570Y-72628200D01*
X65017873Y-72622019D01*
X65010731Y-72615326D01*
X65002070Y-72605605D01*
X64996221Y-72597716D01*
X64990927Y-72589315D01*
X64986187Y-72580402D01*
X64982002Y-72570976D01*
X64980730Y-72567720D01*
X64916584Y-72397962D01*
X64913239Y-72388120D01*
X64910651Y-72378300D01*
X64908818Y-72368501D01*
X64907742Y-72358724D01*
X64907484Y-72345722D01*
X64908570Y-72332758D01*
X64910268Y-72323061D01*
X64912721Y-72313385D01*
X64915931Y-72303731D01*
X64919897Y-72294099D01*
X64924484Y-72284713D01*
X64929589Y-72275885D01*
X64935212Y-72267613D01*
X64941353Y-72259898D01*
X64948011Y-72252740D01*
X64957696Y-72244063D01*
X64965563Y-72238205D01*
X64973949Y-72232904D01*
X64982852Y-72228159D01*
X64992273Y-72223972D01*
X64995529Y-72222700D01*
X65005413Y-72219342D01*
X65015272Y-72216745D01*
X65025108Y-72214910D01*
X65034919Y-72213837D01*
X65044705Y-72213526D01*
X65054468Y-72213977D01*
G37*
G36*
X69610270Y-70492483D02*
G01*
X69620008Y-70493696D01*
X69629723Y-70495670D01*
X69639413Y-70498407D01*
X69649078Y-70501905D01*
X69655509Y-70504660D01*
X69664854Y-70509263D01*
X69673646Y-70514382D01*
X69681885Y-70520017D01*
X69689571Y-70526169D01*
X69698958Y-70535175D01*
X69707363Y-70545099D01*
X69713022Y-70553144D01*
X69718127Y-70561706D01*
X69722680Y-70570784D01*
X69726679Y-70580379D01*
X69790825Y-70750136D01*
X69794220Y-70760097D01*
X69796860Y-70770018D01*
X69798746Y-70779897D01*
X69799877Y-70789736D01*
X69800254Y-70799534D01*
X69799584Y-70812534D01*
X69798201Y-70822237D01*
X69796063Y-70831898D01*
X69793172Y-70841519D01*
X69789526Y-70851099D01*
X69788143Y-70854284D01*
X69783558Y-70863575D01*
X69778437Y-70872326D01*
X69772782Y-70880535D01*
X69766592Y-70888202D01*
X69759867Y-70895329D01*
X69752607Y-70901913D01*
X69744812Y-70907957D01*
X69736482Y-70913459D01*
X69727617Y-70918420D01*
X69718216Y-70922839D01*
X69711652Y-70925485D01*
X69701810Y-70928830D01*
X69691990Y-70931419D01*
X69682191Y-70933251D01*
X69672414Y-70934327D01*
X69659412Y-70934585D01*
X69646448Y-70933499D01*
X69636751Y-70931802D01*
X69627075Y-70929348D01*
X69617421Y-70926139D01*
X69607789Y-70922173D01*
X69598429Y-70917529D01*
X69589623Y-70912374D01*
X69581372Y-70906706D01*
X69573675Y-70900525D01*
X69566532Y-70893832D01*
X69557872Y-70884111D01*
X69552023Y-70876222D01*
X69546729Y-70867821D01*
X69541989Y-70858907D01*
X69537804Y-70849482D01*
X69536532Y-70846226D01*
X69472386Y-70676468D01*
X69469041Y-70666626D01*
X69466453Y-70656806D01*
X69464620Y-70647007D01*
X69463544Y-70637230D01*
X69463286Y-70624228D01*
X69464372Y-70611264D01*
X69466069Y-70601567D01*
X69468523Y-70591891D01*
X69471732Y-70582237D01*
X69475699Y-70572605D01*
X69480286Y-70563219D01*
X69485391Y-70554391D01*
X69491013Y-70546119D01*
X69497154Y-70538404D01*
X69503813Y-70531246D01*
X69513497Y-70522569D01*
X69521365Y-70516711D01*
X69529750Y-70511409D01*
X69538654Y-70506665D01*
X69548075Y-70502478D01*
X69551331Y-70501206D01*
X69561214Y-70497848D01*
X69571074Y-70495251D01*
X69580909Y-70493416D01*
X69590720Y-70492343D01*
X69600507Y-70492032D01*
X69610270Y-70492483D01*
G37*
G36*
X71188747Y-70367338D02*
G01*
X71019218Y-70431397D01*
X71008185Y-70434877D01*
X70997222Y-70436955D01*
X70986328Y-70437629D01*
X70975503Y-70436901D01*
X70964747Y-70434769D01*
X70954060Y-70431234D01*
X70949805Y-70429428D01*
X70939660Y-70424080D01*
X70930531Y-70417776D01*
X70922417Y-70410514D01*
X70915319Y-70402294D01*
X70909235Y-70393118D01*
X70904167Y-70382984D01*
X70902424Y-70378663D01*
X70806248Y-70124141D01*
X70802714Y-70112985D01*
X70800585Y-70101935D01*
X70799861Y-70090992D01*
X70800541Y-70080156D01*
X70802625Y-70069427D01*
X70806114Y-70058805D01*
X70807903Y-70054586D01*
X70813160Y-70044551D01*
X70819426Y-70035499D01*
X70826701Y-70027429D01*
X70834985Y-70020343D01*
X70844278Y-70014240D01*
X70854579Y-70009120D01*
X70858982Y-70007347D01*
X71028511Y-69943287D01*
X71188747Y-70367338D01*
G37*
G36*
X73518090Y-69013671D02*
G01*
X73528865Y-69015853D01*
X73539575Y-69019448D01*
X73543841Y-69021283D01*
X73553960Y-69026564D01*
X73563069Y-69032814D01*
X73571166Y-69040033D01*
X73578253Y-69048220D01*
X73584328Y-69057375D01*
X73589393Y-69067499D01*
X73591136Y-69071819D01*
X73687312Y-69326341D01*
X73690716Y-69337189D01*
X73692727Y-69348028D01*
X73693345Y-69358858D01*
X73692570Y-69369679D01*
X73690403Y-69380491D01*
X73686842Y-69391293D01*
X73685027Y-69395612D01*
X73679650Y-69405843D01*
X73673345Y-69415034D01*
X73666112Y-69423187D01*
X73657950Y-69430301D01*
X73648861Y-69436376D01*
X73638844Y-69441412D01*
X73634577Y-69443135D01*
X73465048Y-69507195D01*
X73304813Y-69083144D01*
X73474342Y-69019085D01*
X73485376Y-69015610D01*
X73496345Y-69013549D01*
X73507250Y-69012903D01*
X73518090Y-69013671D01*
G37*
G36*
X76334015Y-68423103D02*
G01*
X76164486Y-68487162D01*
X76153454Y-68490643D01*
X76142491Y-68492720D01*
X76131597Y-68493394D01*
X76120772Y-68492666D01*
X76110016Y-68490534D01*
X76099329Y-68486999D01*
X76095073Y-68485193D01*
X76084929Y-68479845D01*
X76075800Y-68473541D01*
X76067686Y-68466279D01*
X76060587Y-68458060D01*
X76054504Y-68448883D01*
X76049435Y-68438749D01*
X76047692Y-68434428D01*
X75951516Y-68179906D01*
X75947983Y-68168750D01*
X75945854Y-68157700D01*
X75945129Y-68146757D01*
X75945809Y-68135922D01*
X75947893Y-68125192D01*
X75951382Y-68114570D01*
X75953171Y-68110351D01*
X75958428Y-68100316D01*
X75964695Y-68091264D01*
X75971970Y-68083194D01*
X75980253Y-68076108D01*
X75989546Y-68070005D01*
X75999848Y-68064885D01*
X76004251Y-68063112D01*
X76173780Y-67999052D01*
X76334015Y-68423103D01*
G37*
G36*
X78338732Y-68219346D02*
G01*
X60187313Y-75078196D01*
X59802550Y-74059953D01*
X59958302Y-74059953D01*
X59960176Y-74071814D01*
X59962672Y-74079549D01*
X60154937Y-74588364D01*
X60159365Y-74598073D01*
X60166061Y-74607637D01*
X60174048Y-74614341D01*
X60183327Y-74618186D01*
X60193896Y-74619172D01*
X60205756Y-74617299D01*
X60213492Y-74614803D01*
X60223201Y-74610375D01*
X60232764Y-74603679D01*
X60239468Y-74595691D01*
X60243313Y-74586413D01*
X60244299Y-74575844D01*
X60242426Y-74563984D01*
X60239930Y-74556248D01*
X60047665Y-74047433D01*
X60043237Y-74037724D01*
X60036541Y-74028161D01*
X60028553Y-74021456D01*
X60019275Y-74017611D01*
X60008706Y-74016625D01*
X59996846Y-74018499D01*
X59989110Y-74020995D01*
X59979401Y-74025422D01*
X59969838Y-74032119D01*
X59963134Y-74040106D01*
X59959288Y-74049384D01*
X59958302Y-74059953D01*
X59802550Y-74059953D01*
X59766698Y-73965073D01*
X60209397Y-73965073D01*
X60211270Y-73976933D01*
X60213766Y-73984669D01*
X60218703Y-73994536D01*
X60225310Y-74002435D01*
X60233588Y-74008363D01*
X60243537Y-74012323D01*
X60454660Y-74073539D01*
X60403090Y-74471879D01*
X60403052Y-74481697D01*
X60405272Y-74491352D01*
X60406032Y-74493484D01*
X60410573Y-74502496D01*
X60417614Y-74510738D01*
X60425747Y-74516562D01*
X60429907Y-74518665D01*
X60439651Y-74521926D01*
X60449402Y-74522911D01*
X60459161Y-74521621D01*
X60464586Y-74519922D01*
X60474553Y-74514931D01*
X60482465Y-74508268D01*
X60488320Y-74499934D01*
X60492119Y-74489928D01*
X60493367Y-74483459D01*
X60543115Y-74099645D01*
X60657171Y-74132004D01*
X60745318Y-74365278D01*
X60749745Y-74374987D01*
X60756442Y-74384550D01*
X60764429Y-74391255D01*
X60773707Y-74395100D01*
X60784276Y-74396086D01*
X60796137Y-74394213D01*
X60803872Y-74391716D01*
X60813581Y-74387289D01*
X60823145Y-74380592D01*
X60829849Y-74372605D01*
X60833694Y-74363327D01*
X60834680Y-74352758D01*
X60832807Y-74340898D01*
X60830311Y-74333162D01*
X60616182Y-73766488D01*
X60858200Y-73766488D01*
X60859126Y-73776888D01*
X60861320Y-73784365D01*
X60865862Y-73793377D01*
X60872903Y-73801619D01*
X60881036Y-73807443D01*
X60885196Y-73809547D01*
X60894940Y-73812807D01*
X60904691Y-73813792D01*
X60914450Y-73812503D01*
X60919875Y-73810803D01*
X60928939Y-73806279D01*
X60936581Y-73799773D01*
X60937853Y-73798266D01*
X60946869Y-73787347D01*
X60956254Y-73777027D01*
X60966008Y-73767306D01*
X60976131Y-73758186D01*
X60986623Y-73749664D01*
X60997483Y-73741743D01*
X61008712Y-73734421D01*
X61020310Y-73727698D01*
X61032277Y-73721575D01*
X61044613Y-73716052D01*
X61053042Y-73712703D01*
X61065890Y-73708131D01*
X61078103Y-73704367D01*
X61089680Y-73701410D01*
X61100623Y-73699260D01*
X61110929Y-73697917D01*
X61125198Y-73697417D01*
X61138037Y-73698732D01*
X61149447Y-73701863D01*
X61159427Y-73706811D01*
X61167978Y-73713575D01*
X61175099Y-73722154D01*
X61180790Y-73732550D01*
X61182370Y-73736419D01*
X61185472Y-73746258D01*
X61187450Y-73758116D01*
X61187317Y-73769483D01*
X61185074Y-73780360D01*
X61180721Y-73790747D01*
X61174258Y-73800643D01*
X61169367Y-73806346D01*
X60989891Y-73996097D01*
X60981630Y-74005361D01*
X60974188Y-74014784D01*
X60967565Y-74024367D01*
X60961761Y-74034109D01*
X60956777Y-74044011D01*
X60952611Y-74054073D01*
X60949265Y-74064295D01*
X60946737Y-74074676D01*
X60945029Y-74085216D01*
X60944140Y-74095917D01*
X60944070Y-74106776D01*
X60944820Y-74117796D01*
X60946388Y-74128975D01*
X60948776Y-74140314D01*
X60951982Y-74151813D01*
X60956008Y-74163471D01*
X60959859Y-74172939D01*
X60964074Y-74181923D01*
X60971078Y-74194491D01*
X60978900Y-74205969D01*
X60987541Y-74216358D01*
X60997000Y-74225658D01*
X61007278Y-74233868D01*
X61018374Y-74240989D01*
X61030288Y-74247020D01*
X61043020Y-74251962D01*
X61056571Y-74255814D01*
X61061270Y-74256856D01*
X61073483Y-74258960D01*
X61086012Y-74260284D01*
X61098857Y-74260828D01*
X61112017Y-74260591D01*
X61125492Y-74259575D01*
X61139284Y-74257778D01*
X61153391Y-74255201D01*
X61162971Y-74253050D01*
X61172691Y-74250552D01*
X61182552Y-74247707D01*
X61192553Y-74244516D01*
X61202694Y-74240978D01*
X61207817Y-74239078D01*
X61222871Y-74233174D01*
X61237476Y-74227006D01*
X61251630Y-74220577D01*
X61265334Y-74213885D01*
X61278588Y-74206931D01*
X61291393Y-74199714D01*
X61303747Y-74192235D01*
X61315651Y-74184493D01*
X61327105Y-74176489D01*
X61338110Y-74168223D01*
X61348664Y-74159694D01*
X61358768Y-74150903D01*
X61368422Y-74141849D01*
X61377627Y-74132533D01*
X61386381Y-74122955D01*
X61394685Y-74113114D01*
X61400634Y-74104435D01*
X61405078Y-74094091D01*
X61406836Y-74083514D01*
X61405906Y-74072703D01*
X61403597Y-74064837D01*
X61399056Y-74055825D01*
X61392015Y-74047583D01*
X61383882Y-74041759D01*
X61379721Y-74039655D01*
X61369978Y-74036395D01*
X61360227Y-74035410D01*
X61350468Y-74036700D01*
X61345043Y-74038399D01*
X61336317Y-74042853D01*
X61330258Y-74047641D01*
X61323232Y-74054433D01*
X61314986Y-74062126D01*
X61307183Y-74069226D01*
X61298533Y-74076951D01*
X61291003Y-74083583D01*
X61282930Y-74090615D01*
X61278691Y-74094281D01*
X61268930Y-74101142D01*
X61259122Y-74107709D01*
X61249267Y-74113982D01*
X61239365Y-74119960D01*
X61229416Y-74125644D01*
X61219420Y-74131034D01*
X61209377Y-74136129D01*
X61199287Y-74140930D01*
X61189151Y-74145437D01*
X61178967Y-74149649D01*
X61172152Y-74152293D01*
X61158998Y-74156978D01*
X61146499Y-74160845D01*
X61134653Y-74163893D01*
X61123461Y-74166123D01*
X61112922Y-74167535D01*
X61103037Y-74168129D01*
X61089435Y-74167486D01*
X61077304Y-74165002D01*
X61066643Y-74160677D01*
X61057454Y-74154511D01*
X61049735Y-74146505D01*
X61043486Y-74136657D01*
X61040138Y-74129070D01*
X61036974Y-74119001D01*
X61035209Y-74109245D01*
X61034969Y-74097488D01*
X61036916Y-74086218D01*
X61041048Y-74075435D01*
X61047365Y-74065140D01*
X61053993Y-74057254D01*
X61232073Y-73869336D01*
X61240389Y-73860052D01*
X61247883Y-73850609D01*
X61254554Y-73841008D01*
X61260403Y-73831248D01*
X61265429Y-73821331D01*
X61269632Y-73811255D01*
X61273012Y-73801021D01*
X61275570Y-73790628D01*
X61277304Y-73780077D01*
X61278217Y-73769368D01*
X61278306Y-73758501D01*
X61277573Y-73747475D01*
X61276017Y-73736291D01*
X61273638Y-73724949D01*
X61270437Y-73713449D01*
X61266413Y-73701790D01*
X61260765Y-73688451D01*
X61254276Y-73676109D01*
X61246949Y-73664763D01*
X61238781Y-73654414D01*
X61229774Y-73645061D01*
X61219927Y-73636705D01*
X61209241Y-73629346D01*
X61197714Y-73622983D01*
X61185349Y-73617617D01*
X61172143Y-73613247D01*
X61162873Y-73610887D01*
X61150559Y-73608401D01*
X61138019Y-73606703D01*
X61125254Y-73605792D01*
X61112263Y-73605668D01*
X61099046Y-73606332D01*
X61085604Y-73607783D01*
X61071936Y-73610022D01*
X61058042Y-73613048D01*
X61043923Y-73616862D01*
X61034385Y-73619842D01*
X61024747Y-73623172D01*
X61019890Y-73624968D01*
X61008244Y-73629585D01*
X60996896Y-73634522D01*
X60985847Y-73639778D01*
X60975096Y-73645354D01*
X60964643Y-73651250D01*
X60954488Y-73657465D01*
X60944632Y-73664001D01*
X60935074Y-73670855D01*
X60925815Y-73678030D01*
X60916853Y-73685525D01*
X60908190Y-73693339D01*
X60899825Y-73701473D01*
X60891759Y-73709926D01*
X60883991Y-73718700D01*
X60876521Y-73727793D01*
X60869349Y-73737206D01*
X60863859Y-73745923D01*
X60859778Y-73756166D01*
X60858200Y-73766488D01*
X60616182Y-73766488D01*
X60541956Y-73570054D01*
X60537528Y-73560344D01*
X60530832Y-73550781D01*
X60522845Y-73544077D01*
X60513567Y-73540232D01*
X60502997Y-73539246D01*
X60491137Y-73541119D01*
X60483402Y-73543615D01*
X60473692Y-73548043D01*
X60464129Y-73554739D01*
X60457425Y-73562727D01*
X60453580Y-73572005D01*
X60452594Y-73582574D01*
X60454467Y-73594434D01*
X60456963Y-73602170D01*
X60616940Y-74025535D01*
X60269217Y-73924812D01*
X60259400Y-73923021D01*
X60249419Y-73923576D01*
X60240205Y-73926114D01*
X60230496Y-73930542D01*
X60220932Y-73937238D01*
X60214228Y-73945225D01*
X60210383Y-73954504D01*
X60209397Y-73965073D01*
X59766698Y-73965073D01*
X59706461Y-73805660D01*
X59862213Y-73805660D01*
X59864086Y-73817520D01*
X59866582Y-73825256D01*
X59882641Y-73867752D01*
X59887048Y-73877408D01*
X59893723Y-73886915D01*
X59901693Y-73893573D01*
X59910958Y-73897383D01*
X59921518Y-73898346D01*
X59933374Y-73896461D01*
X59941109Y-73893962D01*
X59950819Y-73889538D01*
X59960388Y-73882856D01*
X59967102Y-73874895D01*
X59970961Y-73865653D01*
X59971965Y-73855132D01*
X59970114Y-73843331D01*
X59967633Y-73835636D01*
X59951575Y-73793140D01*
X59947148Y-73783431D01*
X59940451Y-73773867D01*
X59932464Y-73767163D01*
X59923186Y-73763318D01*
X59912617Y-73762332D01*
X59900757Y-73764205D01*
X59893021Y-73766702D01*
X59883312Y-73771129D01*
X59873748Y-73777826D01*
X59867044Y-73785813D01*
X59863199Y-73795091D01*
X59862213Y-73805660D01*
X59706461Y-73805660D01*
X59666392Y-73699621D01*
X60903759Y-73232059D01*
X61380204Y-73232059D01*
X61382077Y-73243919D01*
X61384574Y-73251655D01*
X61640899Y-73929999D01*
X61643537Y-73940101D01*
X61643410Y-73951751D01*
X61639693Y-73962886D01*
X61633852Y-73971771D01*
X61625517Y-73980298D01*
X61617054Y-73986862D01*
X61614689Y-73988467D01*
X61605771Y-73994990D01*
X61598454Y-74001733D01*
X61591559Y-74010469D01*
X61587164Y-74019548D01*
X61585192Y-74030896D01*
X61586299Y-74040729D01*
X61588164Y-74046793D01*
X61592592Y-74056502D01*
X61599288Y-74066065D01*
X61607275Y-74072770D01*
X61616553Y-74076615D01*
X61627123Y-74077601D01*
X61638983Y-74075728D01*
X61646718Y-74073231D01*
X61657124Y-74068962D01*
X61666921Y-74064248D01*
X61676109Y-74059090D01*
X61684688Y-74053486D01*
X61692659Y-74047438D01*
X61700022Y-74040946D01*
X61708891Y-74031597D01*
X61716679Y-74021458D01*
X61723384Y-74010528D01*
X61726331Y-74004767D01*
X61731176Y-73992810D01*
X61734621Y-73980453D01*
X61736666Y-73967694D01*
X61737281Y-73957861D01*
X61737109Y-73947803D01*
X61736149Y-73937520D01*
X61734401Y-73927011D01*
X61731866Y-73916276D01*
X61728544Y-73905315D01*
X61725891Y-73897883D01*
X61532425Y-73385888D01*
X61725279Y-73385888D01*
X61727174Y-73397807D01*
X61729686Y-73405584D01*
X61923937Y-73919654D01*
X61928384Y-73929417D01*
X61935102Y-73939037D01*
X61943107Y-73945787D01*
X61952398Y-73949666D01*
X61962976Y-73950676D01*
X61974841Y-73948815D01*
X61982577Y-73946321D01*
X62194603Y-73866203D01*
X62207650Y-73860775D01*
X62219974Y-73854624D01*
X62231576Y-73847750D01*
X62242454Y-73840154D01*
X62252610Y-73831835D01*
X62262042Y-73822793D01*
X62270752Y-73813028D01*
X62278739Y-73802540D01*
X62286003Y-73791330D01*
X62292544Y-73779397D01*
X62296503Y-73771040D01*
X62301694Y-73758228D01*
X62305871Y-73745344D01*
X62309035Y-73732389D01*
X62311184Y-73719363D01*
X62312320Y-73706266D01*
X62312443Y-73693097D01*
X62311551Y-73679857D01*
X62309646Y-73666546D01*
X62306727Y-73653163D01*
X62302795Y-73639709D01*
X62299610Y-73630701D01*
X62153965Y-73245262D01*
X62149517Y-73235500D01*
X62142799Y-73225879D01*
X62134794Y-73219129D01*
X62125503Y-73215250D01*
X62114925Y-73214240D01*
X62103060Y-73216101D01*
X62095324Y-73218595D01*
X62085616Y-73223027D01*
X62076058Y-73229738D01*
X62069364Y-73237750D01*
X62065533Y-73247066D01*
X62064565Y-73257683D01*
X62066460Y-73269602D01*
X62068972Y-73277378D01*
X62214012Y-73661217D01*
X62217419Y-73672071D01*
X62219437Y-73682927D01*
X62220065Y-73693785D01*
X62219305Y-73704644D01*
X62217156Y-73715506D01*
X62213618Y-73726371D01*
X62211814Y-73730717D01*
X62206462Y-73741013D01*
X62200178Y-73750260D01*
X62192961Y-73758456D01*
X62184812Y-73765602D01*
X62175731Y-73771698D01*
X62165717Y-73776744D01*
X62161451Y-73778468D01*
X61991922Y-73842528D01*
X61814679Y-73373468D01*
X61810231Y-73363705D01*
X61803513Y-73354085D01*
X61795508Y-73347335D01*
X61786217Y-73343455D01*
X61775639Y-73342446D01*
X61763774Y-73344307D01*
X61756038Y-73346801D01*
X61746330Y-73351232D01*
X61736772Y-73357943D01*
X61730078Y-73365956D01*
X61726246Y-73375271D01*
X61725279Y-73385888D01*
X61532425Y-73385888D01*
X61469567Y-73219539D01*
X61465139Y-73209830D01*
X61458443Y-73200266D01*
X61450455Y-73193562D01*
X61441177Y-73189717D01*
X61430608Y-73188731D01*
X61418748Y-73190604D01*
X61411012Y-73193100D01*
X61401303Y-73197528D01*
X61391740Y-73204224D01*
X61385035Y-73212212D01*
X61381190Y-73221490D01*
X61380204Y-73232059D01*
X60903759Y-73232059D01*
X61086362Y-73163059D01*
X62315756Y-73163059D01*
X62317697Y-73175096D01*
X62320239Y-73182955D01*
X62324938Y-73195391D01*
X62564736Y-73829997D01*
X62570225Y-73843217D01*
X62576429Y-73855718D01*
X62583347Y-73867498D01*
X62590980Y-73878558D01*
X62599328Y-73888899D01*
X62608390Y-73898520D01*
X62618168Y-73907421D01*
X62628660Y-73915602D01*
X62639867Y-73923063D01*
X62651788Y-73929804D01*
X62660133Y-73933898D01*
X62672917Y-73939287D01*
X62685759Y-73943648D01*
X62698657Y-73946982D01*
X62711613Y-73949290D01*
X62724626Y-73950571D01*
X62737696Y-73950826D01*
X62750824Y-73950053D01*
X62764008Y-73948254D01*
X62777250Y-73945428D01*
X62790549Y-73941576D01*
X62799447Y-73938437D01*
X62969204Y-73874291D01*
X62978905Y-73869842D01*
X62988436Y-73863058D01*
X62995082Y-73854917D01*
X62998843Y-73845418D01*
X62999721Y-73834561D01*
X62997713Y-73822346D01*
X62995125Y-73814365D01*
X62990576Y-73804335D01*
X62983750Y-73794430D01*
X62975659Y-73787452D01*
X62966303Y-73783399D01*
X62955680Y-73782273D01*
X62943792Y-73784072D01*
X62936052Y-73786556D01*
X62766523Y-73850616D01*
X62755483Y-73854074D01*
X62744494Y-73856084D01*
X62733558Y-73856647D01*
X62722674Y-73855762D01*
X62711842Y-73853430D01*
X62701062Y-73849650D01*
X62696765Y-73847732D01*
X62686533Y-73842154D01*
X62677304Y-73835585D01*
X62669078Y-73828025D01*
X62661854Y-73819475D01*
X62655633Y-73809933D01*
X62650414Y-73799401D01*
X62648607Y-73794911D01*
X62615455Y-73707176D01*
X62784983Y-73643117D01*
X62797054Y-73638176D01*
X62808475Y-73632722D01*
X62819248Y-73626755D01*
X62829371Y-73620274D01*
X62838845Y-73613279D01*
X62847671Y-73605770D01*
X62855848Y-73597748D01*
X62863375Y-73589213D01*
X62870254Y-73580164D01*
X62876484Y-73570601D01*
X62882064Y-73560525D01*
X62886996Y-73549935D01*
X62891279Y-73538831D01*
X62894913Y-73527214D01*
X62897898Y-73515083D01*
X62900234Y-73502439D01*
X62901705Y-73490460D01*
X62902389Y-73478517D01*
X62902288Y-73466610D01*
X62901401Y-73454739D01*
X62899727Y-73442904D01*
X62897268Y-73431105D01*
X62894022Y-73419342D01*
X62889990Y-73407614D01*
X62792951Y-73150808D01*
X62787479Y-73137633D01*
X62781294Y-73125181D01*
X62774396Y-73113454D01*
X62766784Y-73102450D01*
X62758460Y-73092170D01*
X62749421Y-73082615D01*
X62739670Y-73073783D01*
X62729206Y-73065675D01*
X62718028Y-73058290D01*
X62706137Y-73051630D01*
X62697813Y-73047592D01*
X62685058Y-73042286D01*
X62683595Y-73041797D01*
X62959137Y-73041797D01*
X62959153Y-73047097D01*
X62959171Y-73052779D01*
X62959769Y-73063800D01*
X62960931Y-73074862D01*
X62962657Y-73085963D01*
X62964946Y-73097105D01*
X62967800Y-73108286D01*
X62971217Y-73119507D01*
X62975197Y-73130768D01*
X63039948Y-73302125D01*
X63044350Y-73313040D01*
X63049160Y-73323566D01*
X63054377Y-73333704D01*
X63060003Y-73343453D01*
X63066037Y-73352814D01*
X63072479Y-73361785D01*
X63079328Y-73370368D01*
X63086586Y-73378562D01*
X63094251Y-73386368D01*
X63102325Y-73393784D01*
X63110806Y-73400812D01*
X63119696Y-73407452D01*
X63128993Y-73413702D01*
X63138698Y-73419564D01*
X63148811Y-73425037D01*
X63159332Y-73430121D01*
X63170039Y-73434739D01*
X63180766Y-73438789D01*
X63191514Y-73442273D01*
X63202282Y-73445191D01*
X63213071Y-73447542D01*
X63223880Y-73449326D01*
X63234709Y-73450544D01*
X63245559Y-73451194D01*
X63256430Y-73451279D01*
X63267321Y-73450796D01*
X63278232Y-73449747D01*
X63289164Y-73448131D01*
X63300116Y-73445949D01*
X63311089Y-73443200D01*
X63322082Y-73439885D01*
X63333096Y-73436002D01*
X63343898Y-73431641D01*
X63354314Y-73426867D01*
X63364343Y-73421680D01*
X63373986Y-73416080D01*
X63383242Y-73410067D01*
X63392111Y-73403642D01*
X63400594Y-73396803D01*
X63408691Y-73389552D01*
X63416401Y-73381888D01*
X63423725Y-73373811D01*
X63430662Y-73365321D01*
X63437212Y-73356418D01*
X63443376Y-73347103D01*
X63449154Y-73337374D01*
X63454545Y-73327233D01*
X63459549Y-73316679D01*
X63464051Y-73305918D01*
X63467992Y-73295134D01*
X63471371Y-73284328D01*
X63474190Y-73273499D01*
X63476446Y-73262648D01*
X63478142Y-73251775D01*
X63479276Y-73240879D01*
X63479849Y-73229960D01*
X63479861Y-73219019D01*
X63479311Y-73208056D01*
X63478201Y-73197070D01*
X63476528Y-73186062D01*
X63474295Y-73175031D01*
X63471500Y-73163977D01*
X63468144Y-73152901D01*
X63464227Y-73141803D01*
X63399476Y-72970446D01*
X63395075Y-72959531D01*
X63390268Y-72949003D01*
X63385055Y-72938864D01*
X63379435Y-72929112D01*
X63373410Y-72919749D01*
X63366978Y-72910774D01*
X63360140Y-72902186D01*
X63352896Y-72893987D01*
X63345245Y-72886176D01*
X63337189Y-72878753D01*
X63328726Y-72871718D01*
X63319857Y-72865071D01*
X63310582Y-72858812D01*
X63300901Y-72852941D01*
X63290814Y-72847458D01*
X63280320Y-72842364D01*
X63269587Y-72837756D01*
X63258836Y-72833714D01*
X63248069Y-72830238D01*
X63237285Y-72827326D01*
X63226484Y-72824980D01*
X63215666Y-72823199D01*
X63204831Y-72821984D01*
X63193979Y-72821334D01*
X63183110Y-72821249D01*
X63172225Y-72821729D01*
X63161322Y-72822775D01*
X63150403Y-72824386D01*
X63139467Y-72826562D01*
X63128514Y-72829303D01*
X63117543Y-72832610D01*
X63106557Y-72836483D01*
X63095563Y-72840913D01*
X63084974Y-72845743D01*
X63074789Y-72850974D01*
X63065008Y-72856605D01*
X63055632Y-72862635D01*
X63046659Y-72869066D01*
X63038090Y-72875897D01*
X63029926Y-72883128D01*
X63022166Y-72890759D01*
X63014810Y-72898791D01*
X63007858Y-72907222D01*
X63001310Y-72916053D01*
X62995166Y-72925285D01*
X62989426Y-72934916D01*
X62984091Y-72944948D01*
X62979159Y-72955380D01*
X62974683Y-72966042D01*
X62970771Y-72976745D01*
X62967422Y-72987487D01*
X62964638Y-72998269D01*
X62962417Y-73009091D01*
X62960760Y-73019953D01*
X62959666Y-73030855D01*
X62959137Y-73041797D01*
X62683595Y-73041797D01*
X62672238Y-73038001D01*
X62659355Y-73034736D01*
X62646407Y-73032491D01*
X62633394Y-73031266D01*
X62620318Y-73031062D01*
X62607177Y-73031877D01*
X62593972Y-73033713D01*
X62580702Y-73036570D01*
X62567369Y-73040446D01*
X62558444Y-73043597D01*
X62346419Y-73123715D01*
X62336713Y-73128153D01*
X62327166Y-73134893D01*
X62320491Y-73142957D01*
X62316688Y-73152346D01*
X62315756Y-73163059D01*
X61086362Y-73163059D01*
X62924184Y-72468604D01*
X63402961Y-72468604D01*
X63404968Y-72480819D01*
X63407557Y-72488800D01*
X63412106Y-72498830D01*
X63418931Y-72508735D01*
X63427022Y-72515714D01*
X63436379Y-72519766D01*
X63447001Y-72520893D01*
X63458889Y-72519093D01*
X63466630Y-72516609D01*
X63720923Y-72420520D01*
X63730925Y-72417112D01*
X63740885Y-72414464D01*
X63750801Y-72412575D01*
X63760674Y-72411447D01*
X63770503Y-72411079D01*
X63780289Y-72411470D01*
X63790032Y-72412622D01*
X63799732Y-72414533D01*
X63809388Y-72417204D01*
X63819001Y-72420635D01*
X63825385Y-72423345D01*
X63834617Y-72427894D01*
X63843305Y-72432961D01*
X63851450Y-72438546D01*
X63861464Y-72446797D01*
X63870512Y-72455967D01*
X63878595Y-72466058D01*
X63884022Y-72474230D01*
X63888907Y-72482919D01*
X63893248Y-72492125D01*
X63895840Y-72498550D01*
X64054694Y-72918945D01*
X64058057Y-72928823D01*
X64060667Y-72938663D01*
X64062524Y-72948467D01*
X64063628Y-72958234D01*
X64063930Y-72971200D01*
X64062893Y-72984100D01*
X64061237Y-72993732D01*
X64058828Y-73003327D01*
X64055667Y-73012886D01*
X64051752Y-73022407D01*
X64047136Y-73031617D01*
X64041988Y-73040294D01*
X64036308Y-73048437D01*
X64030097Y-73056047D01*
X64023353Y-73063124D01*
X64016077Y-73069667D01*
X64008269Y-73075678D01*
X63999929Y-73081154D01*
X63991058Y-73086098D01*
X63981654Y-73090508D01*
X63975089Y-73093152D01*
X63763064Y-73173269D01*
X63635981Y-72836953D01*
X63720974Y-72804837D01*
X63730621Y-72800408D01*
X63740095Y-72793646D01*
X63746695Y-72785522D01*
X63750422Y-72776036D01*
X63751276Y-72765188D01*
X63749256Y-72752978D01*
X63746665Y-72744998D01*
X63742120Y-72734966D01*
X63735309Y-72725056D01*
X63727244Y-72718068D01*
X63717924Y-72714001D01*
X63707350Y-72712857D01*
X63695521Y-72714634D01*
X63687821Y-72717103D01*
X63560332Y-72765277D01*
X63550678Y-72769688D01*
X63541177Y-72776377D01*
X63534528Y-72784373D01*
X63530732Y-72793675D01*
X63529787Y-72804283D01*
X63531695Y-72816198D01*
X63534209Y-72823973D01*
X63695307Y-73250309D01*
X63699755Y-73260071D01*
X63706473Y-73269692D01*
X63714478Y-73276442D01*
X63723769Y-73280321D01*
X63734347Y-73281331D01*
X63746212Y-73279470D01*
X63753948Y-73276976D01*
X64008470Y-73180800D01*
X64019273Y-73176441D01*
X64029692Y-73171675D01*
X64039726Y-73166502D01*
X64049375Y-73160921D01*
X64058641Y-73154932D01*
X64067521Y-73148536D01*
X64076018Y-73141732D01*
X64084129Y-73134521D01*
X64091857Y-73126902D01*
X64099199Y-73118876D01*
X64106158Y-73110443D01*
X64112731Y-73101601D01*
X64118921Y-73092353D01*
X64124726Y-73082697D01*
X64130146Y-73072633D01*
X64135182Y-73062162D01*
X64139706Y-73051460D01*
X64143670Y-73040738D01*
X64147075Y-73029998D01*
X64149919Y-73019240D01*
X64152204Y-73008462D01*
X64153928Y-72997665D01*
X64155093Y-72986849D01*
X64155698Y-72976015D01*
X64155742Y-72965161D01*
X64155227Y-72954289D01*
X64154152Y-72943397D01*
X64152517Y-72932487D01*
X64150322Y-72921558D01*
X64147567Y-72910610D01*
X64144252Y-72899643D01*
X64140377Y-72888657D01*
X64011411Y-72547358D01*
X64211974Y-72547358D01*
X64212866Y-72560598D01*
X64214771Y-72573909D01*
X64217690Y-72587292D01*
X64221622Y-72600746D01*
X64224807Y-72609754D01*
X64370452Y-72995193D01*
X64374900Y-73004955D01*
X64381618Y-73014576D01*
X64389623Y-73021326D01*
X64398914Y-73025205D01*
X64409492Y-73026215D01*
X64421357Y-73024354D01*
X64429093Y-73021859D01*
X64438801Y-73017428D01*
X64448359Y-73010717D01*
X64455053Y-73002704D01*
X64458885Y-72993389D01*
X64459852Y-72982772D01*
X64457957Y-72970853D01*
X64455445Y-72963076D01*
X64310405Y-72579238D01*
X64306846Y-72568016D01*
X64304697Y-72556911D01*
X64303956Y-72545925D01*
X64304623Y-72535057D01*
X64306700Y-72524306D01*
X64310185Y-72513674D01*
X64311973Y-72509454D01*
X64317206Y-72499353D01*
X64323451Y-72490246D01*
X64330710Y-72482134D01*
X64338981Y-72475015D01*
X64348266Y-72468891D01*
X64358564Y-72463760D01*
X64362967Y-72461986D01*
X64532495Y-72397927D01*
X64709739Y-72866987D01*
X64714186Y-72876750D01*
X64720904Y-72886370D01*
X64728909Y-72893120D01*
X64738200Y-72897000D01*
X64748778Y-72898009D01*
X64760643Y-72896148D01*
X64768379Y-72893654D01*
X64778087Y-72889223D01*
X64787645Y-72882512D01*
X64794340Y-72874499D01*
X64798171Y-72865184D01*
X64799139Y-72854567D01*
X64797243Y-72842647D01*
X64794731Y-72834871D01*
X64607895Y-72340422D01*
X64815272Y-72340422D01*
X64815288Y-72345722D01*
X64815306Y-72351404D01*
X64815904Y-72362425D01*
X64817066Y-72373487D01*
X64818792Y-72384588D01*
X64821081Y-72395730D01*
X64823935Y-72406911D01*
X64827352Y-72418132D01*
X64831333Y-72429393D01*
X64896083Y-72600750D01*
X64900485Y-72611665D01*
X64905295Y-72622191D01*
X64910512Y-72632329D01*
X64916138Y-72642078D01*
X64922172Y-72651439D01*
X64928614Y-72660410D01*
X64935463Y-72668993D01*
X64942721Y-72677187D01*
X64950386Y-72684993D01*
X64958460Y-72692409D01*
X64966941Y-72699437D01*
X64975831Y-72706077D01*
X64985128Y-72712327D01*
X64994833Y-72718189D01*
X65004946Y-72723662D01*
X65015467Y-72728746D01*
X65026174Y-72733364D01*
X65036901Y-72737414D01*
X65047649Y-72740899D01*
X65058417Y-72743816D01*
X65069206Y-72746167D01*
X65080015Y-72747951D01*
X65090845Y-72749169D01*
X65101695Y-72749819D01*
X65112565Y-72749904D01*
X65123456Y-72749421D01*
X65134367Y-72748372D01*
X65145299Y-72746756D01*
X65156251Y-72744574D01*
X65167224Y-72741825D01*
X65178218Y-72738510D01*
X65189231Y-72734627D01*
X65200033Y-72730266D01*
X65210449Y-72725492D01*
X65220478Y-72720305D01*
X65230121Y-72714705D01*
X65239377Y-72708692D01*
X65248246Y-72702267D01*
X65256729Y-72695428D01*
X65264826Y-72688177D01*
X65272536Y-72680513D01*
X65279860Y-72672436D01*
X65286797Y-72663946D01*
X65293347Y-72655043D01*
X65299511Y-72645728D01*
X65305289Y-72635999D01*
X65310680Y-72625858D01*
X65315684Y-72615304D01*
X65320186Y-72604543D01*
X65324127Y-72593759D01*
X65327506Y-72582953D01*
X65330325Y-72572124D01*
X65332581Y-72561273D01*
X65334277Y-72550400D01*
X65335411Y-72539504D01*
X65335984Y-72528585D01*
X65335996Y-72517644D01*
X65335446Y-72506681D01*
X65334336Y-72495695D01*
X65332663Y-72484687D01*
X65330430Y-72473656D01*
X65327635Y-72462602D01*
X65324279Y-72451526D01*
X65320362Y-72440428D01*
X65255612Y-72269071D01*
X65251211Y-72258156D01*
X65246403Y-72247628D01*
X65241190Y-72237489D01*
X65235570Y-72227737D01*
X65229545Y-72218374D01*
X65223113Y-72209399D01*
X65216275Y-72200811D01*
X65209031Y-72192612D01*
X65201380Y-72184801D01*
X65193324Y-72177378D01*
X65184861Y-72170343D01*
X65175992Y-72163696D01*
X65166717Y-72157437D01*
X65157036Y-72151566D01*
X65146949Y-72146083D01*
X65136455Y-72140989D01*
X65125722Y-72136381D01*
X65114971Y-72132339D01*
X65104204Y-72128863D01*
X65093420Y-72125951D01*
X65082619Y-72123605D01*
X65071801Y-72121824D01*
X65060966Y-72120609D01*
X65050114Y-72119959D01*
X65039245Y-72119874D01*
X65028360Y-72120354D01*
X65017457Y-72121400D01*
X65006538Y-72123011D01*
X64995602Y-72125187D01*
X64984649Y-72127928D01*
X64973679Y-72131235D01*
X64962692Y-72135108D01*
X64951698Y-72139538D01*
X64941109Y-72144368D01*
X64930924Y-72149599D01*
X64921143Y-72155230D01*
X64911767Y-72161260D01*
X64902794Y-72167691D01*
X64894225Y-72174522D01*
X64886061Y-72181753D01*
X64878301Y-72189384D01*
X64870945Y-72197416D01*
X64863993Y-72205847D01*
X64857445Y-72214678D01*
X64851301Y-72223910D01*
X64845561Y-72233541D01*
X64840226Y-72243573D01*
X64835294Y-72254005D01*
X64830818Y-72264667D01*
X64826906Y-72275370D01*
X64823557Y-72286112D01*
X64820773Y-72296894D01*
X64818552Y-72307716D01*
X64816895Y-72318578D01*
X64815802Y-72329480D01*
X64815272Y-72340422D01*
X64607895Y-72340422D01*
X64600481Y-72320801D01*
X64596033Y-72311038D01*
X64589315Y-72301418D01*
X64581310Y-72294668D01*
X64572019Y-72290789D01*
X64561441Y-72289779D01*
X64549576Y-72291640D01*
X64541840Y-72294134D01*
X64329814Y-72374252D01*
X64316767Y-72379680D01*
X64304443Y-72385831D01*
X64292842Y-72392705D01*
X64281963Y-72400301D01*
X64271807Y-72408620D01*
X64262375Y-72417662D01*
X64253665Y-72427427D01*
X64245678Y-72437915D01*
X64238414Y-72449125D01*
X64231873Y-72461058D01*
X64227914Y-72469415D01*
X64222723Y-72482227D01*
X64218546Y-72495111D01*
X64215382Y-72508065D01*
X64213233Y-72521092D01*
X64212097Y-72534189D01*
X64211974Y-72547358D01*
X64011411Y-72547358D01*
X63980142Y-72464606D01*
X63975784Y-72453804D01*
X63971019Y-72443388D01*
X63965847Y-72433358D01*
X63960268Y-72423715D01*
X63954283Y-72414458D01*
X63947890Y-72405587D01*
X63941091Y-72397102D01*
X63933885Y-72389004D01*
X63926272Y-72381292D01*
X63918252Y-72373966D01*
X63909826Y-72367026D01*
X63900992Y-72360473D01*
X63891752Y-72354306D01*
X63882105Y-72348525D01*
X63872051Y-72343131D01*
X63861590Y-72338123D01*
X63850878Y-72333571D01*
X63840147Y-72329581D01*
X63829398Y-72326152D01*
X63818630Y-72323285D01*
X63807845Y-72320980D01*
X63797041Y-72319237D01*
X63786219Y-72318055D01*
X63775378Y-72317436D01*
X63764520Y-72317377D01*
X63753643Y-72317881D01*
X63742748Y-72318946D01*
X63731835Y-72320573D01*
X63720903Y-72322762D01*
X63709953Y-72325513D01*
X63698985Y-72328825D01*
X63687999Y-72332699D01*
X63433477Y-72428874D01*
X63423776Y-72433324D01*
X63414246Y-72440107D01*
X63407600Y-72448248D01*
X63403838Y-72457747D01*
X63402961Y-72468604D01*
X62924184Y-72468604D01*
X63896072Y-72101358D01*
X65392279Y-72101358D01*
X65393170Y-72114598D01*
X65395076Y-72127909D01*
X65397994Y-72141292D01*
X65401927Y-72154746D01*
X65405112Y-72163755D01*
X65550757Y-72549193D01*
X65555201Y-72558957D01*
X65561905Y-72568582D01*
X65569883Y-72575342D01*
X65579138Y-72579236D01*
X65589668Y-72580263D01*
X65601474Y-72578425D01*
X65609169Y-72575946D01*
X65618877Y-72571515D01*
X65628435Y-72564804D01*
X65635129Y-72556791D01*
X65638961Y-72547476D01*
X65639928Y-72536859D01*
X65638033Y-72524939D01*
X65635521Y-72517163D01*
X65490481Y-72133324D01*
X65486922Y-72122102D01*
X65484773Y-72110998D01*
X65484032Y-72100012D01*
X65484699Y-72089143D01*
X65486776Y-72078393D01*
X65490261Y-72067760D01*
X65492049Y-72063540D01*
X65497287Y-72053437D01*
X65503549Y-72044324D01*
X65510836Y-72036201D01*
X65519147Y-72029068D01*
X65528481Y-72022924D01*
X65538841Y-72017771D01*
X65543271Y-72015987D01*
X65628035Y-71983957D01*
X65805279Y-72453017D01*
X65809723Y-72462781D01*
X65816426Y-72472407D01*
X65824405Y-72479166D01*
X65833660Y-72483060D01*
X65844190Y-72484087D01*
X65855995Y-72482249D01*
X65863691Y-72479770D01*
X65873399Y-72475339D01*
X65882957Y-72468628D01*
X65889651Y-72460615D01*
X65893482Y-72451300D01*
X65894450Y-72440683D01*
X65892555Y-72428764D01*
X65890043Y-72420987D01*
X65712800Y-71951927D01*
X65882329Y-71887867D01*
X66059572Y-72356928D01*
X66064020Y-72366690D01*
X66070738Y-72376311D01*
X66078742Y-72383060D01*
X66088033Y-72386940D01*
X66098611Y-72387950D01*
X66110476Y-72386089D01*
X66118213Y-72383594D01*
X66127921Y-72379163D01*
X66137478Y-72372452D01*
X66144173Y-72364439D01*
X66148004Y-72355124D01*
X66148972Y-72344507D01*
X66147076Y-72332588D01*
X66144565Y-72324811D01*
X65950314Y-71810742D01*
X65945866Y-71800979D01*
X65939148Y-71791359D01*
X65931144Y-71784609D01*
X65921852Y-71780729D01*
X65911274Y-71779720D01*
X65899410Y-71781580D01*
X65891673Y-71784075D01*
X65510119Y-71928252D01*
X65497072Y-71933680D01*
X65484747Y-71939831D01*
X65473146Y-71946705D01*
X65462268Y-71954301D01*
X65452112Y-71962620D01*
X65442679Y-71971662D01*
X65433969Y-71981427D01*
X65425983Y-71991915D01*
X65418719Y-72003125D01*
X65412177Y-72015058D01*
X65408218Y-72023415D01*
X65403027Y-72036227D01*
X65398850Y-72049111D01*
X65395687Y-72062066D01*
X65393537Y-72075092D01*
X65392401Y-72088189D01*
X65392279Y-72101358D01*
X63896072Y-72101358D01*
X64883730Y-71728153D01*
X66111960Y-71728153D01*
X66113833Y-71740013D01*
X66116329Y-71747748D01*
X66121250Y-71756486D01*
X66124165Y-71760193D01*
X66666356Y-72427384D01*
X66674427Y-72435603D01*
X66683222Y-72441217D01*
X66692740Y-72444227D01*
X66702981Y-72444631D01*
X66713945Y-72442431D01*
X66717760Y-72441119D01*
X66803210Y-72408830D01*
X66812919Y-72404403D01*
X66822482Y-72397707D01*
X66829187Y-72389719D01*
X66833032Y-72380441D01*
X66834018Y-72369872D01*
X66832145Y-72358012D01*
X66829648Y-72350276D01*
X66825012Y-72340622D01*
X66817824Y-72331638D01*
X66808861Y-72325491D01*
X66798125Y-72322180D01*
X66787823Y-72321588D01*
X66778695Y-72322532D01*
X66768582Y-72325610D01*
X66758103Y-72329294D01*
X66746693Y-72333446D01*
X66735814Y-72337476D01*
X66726632Y-72340911D01*
X66716574Y-72344700D01*
X66565629Y-72159438D01*
X66542960Y-71601943D01*
X66541951Y-71592146D01*
X66540608Y-71587427D01*
X66536181Y-71577718D01*
X66529484Y-71568154D01*
X66521497Y-71561450D01*
X66512219Y-71557605D01*
X66501650Y-71556619D01*
X66489789Y-71558492D01*
X66482054Y-71560988D01*
X66473201Y-71565143D01*
X66464655Y-71571481D01*
X66458373Y-71579295D01*
X66454356Y-71588585D01*
X66452605Y-71599350D01*
X66452578Y-71605286D01*
X66469825Y-72041330D01*
X66194172Y-71702929D01*
X66186101Y-71694710D01*
X66177306Y-71689096D01*
X66167788Y-71686086D01*
X66157547Y-71685682D01*
X66146583Y-71687882D01*
X66142768Y-71689194D01*
X66133058Y-71693622D01*
X66123495Y-71700318D01*
X66116791Y-71708305D01*
X66112946Y-71717583D01*
X66111960Y-71728153D01*
X64883730Y-71728153D01*
X65473091Y-71505452D01*
X66702486Y-71505452D01*
X66704426Y-71517489D01*
X66706969Y-71525348D01*
X66711691Y-71534248D01*
X66718172Y-71541787D01*
X66725006Y-71547514D01*
X67186084Y-71879818D01*
X66926536Y-71977893D01*
X66916835Y-71982342D01*
X66907304Y-71989125D01*
X66900658Y-71997266D01*
X66896897Y-72006766D01*
X66896019Y-72017623D01*
X66898027Y-72029837D01*
X66900615Y-72037818D01*
X66905165Y-72047849D01*
X66911990Y-72057753D01*
X66920081Y-72064732D01*
X66929438Y-72068785D01*
X66940060Y-72069911D01*
X66951948Y-72068112D01*
X66959688Y-72065627D01*
X67298974Y-71937422D01*
X67308686Y-71933001D01*
X67318260Y-71926334D01*
X67324984Y-71918398D01*
X67328857Y-71909193D01*
X67329879Y-71898720D01*
X67328051Y-71886978D01*
X67325585Y-71879324D01*
X67321105Y-71870488D01*
X67314667Y-71862515D01*
X67307117Y-71856015D01*
X66846038Y-71523712D01*
X67105587Y-71425637D01*
X67115288Y-71421188D01*
X67124818Y-71414404D01*
X67131464Y-71406263D01*
X67135226Y-71396764D01*
X67136103Y-71385907D01*
X67134096Y-71373692D01*
X67131507Y-71365711D01*
X67126958Y-71355681D01*
X67120133Y-71345776D01*
X67112042Y-71338798D01*
X67102685Y-71334745D01*
X67092063Y-71333618D01*
X67080175Y-71335418D01*
X67072435Y-71337902D01*
X66733148Y-71466108D01*
X66723443Y-71470546D01*
X66713896Y-71477286D01*
X66707221Y-71485350D01*
X66703418Y-71494739D01*
X66702486Y-71505452D01*
X65473091Y-71505452D01*
X66646605Y-71062018D01*
X67260135Y-71062018D01*
X67260490Y-71072830D01*
X67262979Y-71082088D01*
X67267520Y-71091100D01*
X67274561Y-71099343D01*
X67282694Y-71105167D01*
X67286855Y-71107270D01*
X67296538Y-71110427D01*
X67307280Y-71111324D01*
X67316933Y-71109784D01*
X67321218Y-71108385D01*
X67330089Y-71103283D01*
X67337628Y-71097223D01*
X67348083Y-71088024D01*
X67358641Y-71079125D01*
X67369302Y-71070525D01*
X67380066Y-71062225D01*
X67390933Y-71054224D01*
X67401903Y-71046524D01*
X67412976Y-71039123D01*
X67424152Y-71032021D01*
X67435432Y-71025220D01*
X67446814Y-71018718D01*
X67458299Y-71012515D01*
X67469888Y-71006613D01*
X67481579Y-71001010D01*
X67493374Y-70995706D01*
X67505271Y-70990703D01*
X67517272Y-70985999D01*
X67527155Y-70982638D01*
X67537012Y-70980036D01*
X67546844Y-70978191D01*
X67556649Y-70977104D01*
X67566429Y-70976775D01*
X67579429Y-70977515D01*
X67589149Y-70978954D01*
X67598844Y-70981151D01*
X67608512Y-70984106D01*
X67618155Y-70987819D01*
X67621364Y-70989225D01*
X67630693Y-70993786D01*
X67639471Y-70998869D01*
X67647698Y-71004471D01*
X67655373Y-71010594D01*
X67664748Y-71019568D01*
X67673144Y-71029467D01*
X67678797Y-71037498D01*
X67683899Y-71046050D01*
X67688449Y-71055122D01*
X67692448Y-71064715D01*
X67695773Y-71074334D01*
X67698430Y-71083828D01*
X67701164Y-71097834D01*
X67702397Y-71111558D01*
X67702128Y-71125001D01*
X67700358Y-71138162D01*
X67697086Y-71151042D01*
X67692312Y-71163640D01*
X67686037Y-71175956D01*
X67678259Y-71187991D01*
X67672240Y-71195857D01*
X67665554Y-71203599D01*
X67473183Y-71415194D01*
X67462009Y-71428212D01*
X67451949Y-71441429D01*
X67443002Y-71454846D01*
X67435169Y-71468462D01*
X67428449Y-71482277D01*
X67422843Y-71496292D01*
X67418350Y-71510506D01*
X67414971Y-71524919D01*
X67412706Y-71539532D01*
X67411554Y-71554344D01*
X67411516Y-71569355D01*
X67412591Y-71584566D01*
X67414780Y-71599976D01*
X67418083Y-71615585D01*
X67422499Y-71631394D01*
X67428028Y-71647401D01*
X67432347Y-71658093D01*
X67437079Y-71668406D01*
X67442225Y-71678341D01*
X67447785Y-71687897D01*
X67453759Y-71697074D01*
X67460146Y-71705872D01*
X67466947Y-71714291D01*
X67474162Y-71722332D01*
X67481791Y-71729995D01*
X67489834Y-71737278D01*
X67498290Y-71744183D01*
X67507160Y-71750709D01*
X67516444Y-71756857D01*
X67526142Y-71762625D01*
X67536253Y-71768016D01*
X67546778Y-71773027D01*
X67557505Y-71777542D01*
X67568244Y-71781499D01*
X67578995Y-71784900D01*
X67589757Y-71787743D01*
X67600532Y-71790029D01*
X67611318Y-71791757D01*
X67622116Y-71792929D01*
X67632925Y-71793543D01*
X67643747Y-71793600D01*
X67654580Y-71793099D01*
X67665425Y-71792042D01*
X67676281Y-71790427D01*
X67687150Y-71788255D01*
X67698030Y-71785526D01*
X67708922Y-71782239D01*
X67719826Y-71778395D01*
X67729566Y-71774608D01*
X67739166Y-71770661D01*
X67748626Y-71766553D01*
X67757946Y-71762286D01*
X67767126Y-71757858D01*
X67776165Y-71753269D01*
X67785065Y-71748521D01*
X67793824Y-71743612D01*
X67802444Y-71738544D01*
X67810923Y-71733314D01*
X67819262Y-71727925D01*
X67827461Y-71722376D01*
X67835520Y-71716666D01*
X67843439Y-71710796D01*
X67851218Y-71704766D01*
X67858856Y-71698575D01*
X67866355Y-71692225D01*
X67873713Y-71685714D01*
X67880932Y-71679043D01*
X67888010Y-71672211D01*
X67894948Y-71665220D01*
X67901746Y-71658068D01*
X67908404Y-71650756D01*
X67914922Y-71643284D01*
X67921300Y-71635651D01*
X67927538Y-71627859D01*
X67933635Y-71619906D01*
X67939593Y-71611793D01*
X67945410Y-71603519D01*
X67951087Y-71595086D01*
X67956625Y-71586492D01*
X67962022Y-71577738D01*
X67966864Y-71568476D01*
X67969920Y-71557971D01*
X67970331Y-71547551D01*
X67968099Y-71537216D01*
X67967634Y-71535930D01*
X67963093Y-71526918D01*
X67956051Y-71518676D01*
X67947919Y-71512852D01*
X67943758Y-71510748D01*
X67934015Y-71507488D01*
X67924264Y-71506503D01*
X67914505Y-71507793D01*
X67909079Y-71509492D01*
X67899902Y-71514659D01*
X67892436Y-71521199D01*
X67887568Y-71526498D01*
X67879813Y-71536139D01*
X67873233Y-71543986D01*
X67865998Y-71552359D01*
X67858109Y-71561260D01*
X67849566Y-71570688D01*
X67840368Y-71580643D01*
X67830516Y-71591126D01*
X67823584Y-71598407D01*
X67816362Y-71605923D01*
X67808848Y-71613673D01*
X67801044Y-71621657D01*
X67792949Y-71629876D01*
X67784322Y-71636822D01*
X67775419Y-71643510D01*
X67766239Y-71649940D01*
X67756783Y-71656111D01*
X67747050Y-71662025D01*
X67737040Y-71667681D01*
X67726755Y-71673078D01*
X67716192Y-71678217D01*
X67705353Y-71683099D01*
X67694238Y-71687722D01*
X67686674Y-71690661D01*
X67676792Y-71694023D01*
X67666937Y-71696632D01*
X67657109Y-71698486D01*
X67647309Y-71699587D01*
X67637535Y-71699935D01*
X67624547Y-71699225D01*
X67614837Y-71697813D01*
X67605155Y-71695647D01*
X67595500Y-71692728D01*
X67585872Y-71689055D01*
X67582668Y-71687663D01*
X67573324Y-71683061D01*
X67564532Y-71677942D01*
X67556293Y-71672306D01*
X67548607Y-71666155D01*
X67539219Y-71657149D01*
X67530814Y-71647225D01*
X67525156Y-71639180D01*
X67520050Y-71630618D01*
X67515497Y-71621539D01*
X67511498Y-71611945D01*
X67508177Y-71602321D01*
X67505533Y-71592813D01*
X67502835Y-71578768D01*
X67501657Y-71564983D01*
X67502001Y-71551460D01*
X67503866Y-71538196D01*
X67507252Y-71525193D01*
X67512159Y-71512451D01*
X67518588Y-71499969D01*
X67526538Y-71487747D01*
X67532683Y-71479744D01*
X67539504Y-71471857D01*
X67731874Y-71260262D01*
X67742941Y-71247379D01*
X67752902Y-71234289D01*
X67761756Y-71220990D01*
X67769503Y-71207483D01*
X67776143Y-71193768D01*
X67781677Y-71179845D01*
X67786104Y-71165714D01*
X67789424Y-71151374D01*
X67791638Y-71136827D01*
X67792745Y-71122072D01*
X67792745Y-71107109D01*
X67791638Y-71091937D01*
X67789425Y-71076558D01*
X67786106Y-71060971D01*
X67781679Y-71045175D01*
X67776146Y-71029172D01*
X67771828Y-71018481D01*
X67767096Y-71008170D01*
X67761952Y-70998240D01*
X67756394Y-70988691D01*
X67750424Y-70979522D01*
X67744040Y-70970733D01*
X67737243Y-70962325D01*
X67730033Y-70954298D01*
X67722410Y-70946651D01*
X67714374Y-70939384D01*
X67705925Y-70932498D01*
X67697063Y-70925992D01*
X67687787Y-70919867D01*
X67678099Y-70914123D01*
X67667997Y-70908758D01*
X67657482Y-70903775D01*
X67646745Y-70899232D01*
X67635996Y-70895249D01*
X67625236Y-70891824D01*
X67614465Y-70888959D01*
X67603683Y-70886652D01*
X67592890Y-70884905D01*
X67582086Y-70883717D01*
X67571271Y-70883087D01*
X67560444Y-70883017D01*
X67549607Y-70883506D01*
X67538758Y-70884554D01*
X67527898Y-70886160D01*
X67517027Y-70888326D01*
X67506145Y-70891051D01*
X67495252Y-70894335D01*
X67484348Y-70898178D01*
X67475026Y-70901754D01*
X67465878Y-70905370D01*
X67448110Y-70912724D01*
X67431043Y-70920239D01*
X67414677Y-70927915D01*
X67399013Y-70935753D01*
X67384050Y-70943751D01*
X67369789Y-70951911D01*
X67356229Y-70960232D01*
X67343371Y-70968715D01*
X67331214Y-70977359D01*
X67319758Y-70986164D01*
X67309004Y-70995130D01*
X67298952Y-71004258D01*
X67289601Y-71013547D01*
X67280951Y-71022997D01*
X67273003Y-71032608D01*
X67266755Y-71041906D01*
X67262524Y-71051194D01*
X67260135Y-71062018D01*
X66646605Y-71062018D01*
X67384865Y-70783053D01*
X67875420Y-70783053D01*
X67876868Y-70792771D01*
X67878274Y-70797107D01*
X67882972Y-70806224D01*
X67888979Y-70813689D01*
X68516619Y-71448591D01*
X68524522Y-71455366D01*
X68534318Y-71460499D01*
X68544737Y-71462649D01*
X68555777Y-71461815D01*
X68564043Y-71459392D01*
X68573091Y-71454837D01*
X68580702Y-71448554D01*
X68586874Y-71440542D01*
X68589682Y-71435344D01*
X68593052Y-71425559D01*
X68594112Y-71415779D01*
X68592861Y-71406006D01*
X68591167Y-71400579D01*
X68586542Y-71391654D01*
X68580721Y-71384682D01*
X68091622Y-70889923D01*
X68598247Y-70889923D01*
X68599139Y-70903163D01*
X68601044Y-70916474D01*
X68603963Y-70929857D01*
X68607895Y-70943311D01*
X68611080Y-70952320D01*
X68756725Y-71337758D01*
X68761170Y-71347522D01*
X68767873Y-71357148D01*
X68775852Y-71363908D01*
X68785106Y-71367801D01*
X68795636Y-71368829D01*
X68807442Y-71366990D01*
X68815138Y-71364511D01*
X68824845Y-71360080D01*
X68834403Y-71353369D01*
X68841098Y-71345356D01*
X68844929Y-71336041D01*
X68845897Y-71325424D01*
X68844001Y-71313505D01*
X68841490Y-71305728D01*
X68696449Y-70921890D01*
X68692891Y-70910668D01*
X68690741Y-70899563D01*
X68690000Y-70888577D01*
X68690668Y-70877709D01*
X68692744Y-70866958D01*
X68696229Y-70856326D01*
X68698018Y-70852106D01*
X68703256Y-70842003D01*
X68709518Y-70832890D01*
X68716804Y-70824767D01*
X68725115Y-70817633D01*
X68734450Y-70811490D01*
X68744809Y-70806336D01*
X68749239Y-70804552D01*
X68834004Y-70772522D01*
X69011247Y-71241582D01*
X69015691Y-71251347D01*
X69022395Y-71260972D01*
X69030374Y-71267732D01*
X69039628Y-71271625D01*
X69050158Y-71272653D01*
X69061964Y-71270814D01*
X69069659Y-71268336D01*
X69079367Y-71263904D01*
X69088925Y-71257194D01*
X69095620Y-71249181D01*
X69099451Y-71239866D01*
X69100419Y-71229248D01*
X69098523Y-71217329D01*
X69096011Y-71209553D01*
X68918768Y-70740492D01*
X69088297Y-70676433D01*
X69265540Y-71145493D01*
X69269988Y-71155256D01*
X69276706Y-71164876D01*
X69284711Y-71171626D01*
X69294002Y-71175506D01*
X69304580Y-71176515D01*
X69316445Y-71174654D01*
X69324181Y-71172160D01*
X69333889Y-71167729D01*
X69343447Y-71161018D01*
X69350141Y-71153005D01*
X69353972Y-71143690D01*
X69354940Y-71133073D01*
X69353045Y-71121153D01*
X69350533Y-71113377D01*
X69163696Y-70618928D01*
X69371074Y-70618928D01*
X69371090Y-70624228D01*
X69371108Y-70629910D01*
X69371706Y-70640931D01*
X69372868Y-70651993D01*
X69374594Y-70663094D01*
X69376883Y-70674236D01*
X69379736Y-70685417D01*
X69383153Y-70696638D01*
X69387134Y-70707899D01*
X69451885Y-70879256D01*
X69456287Y-70890171D01*
X69461096Y-70900697D01*
X69466314Y-70910835D01*
X69471940Y-70920584D01*
X69477974Y-70929945D01*
X69484415Y-70938916D01*
X69491265Y-70947499D01*
X69498523Y-70955693D01*
X69506188Y-70963499D01*
X69514262Y-70970915D01*
X69522743Y-70977943D01*
X69531632Y-70984583D01*
X69540930Y-70990833D01*
X69550635Y-70996695D01*
X69560748Y-71002168D01*
X69571269Y-71007252D01*
X69581976Y-71011870D01*
X69592703Y-71015920D01*
X69603451Y-71019404D01*
X69614219Y-71022322D01*
X69625008Y-71024673D01*
X69635817Y-71026457D01*
X69646646Y-71027674D01*
X69657496Y-71028325D01*
X69668367Y-71028410D01*
X69679258Y-71027927D01*
X69690169Y-71026878D01*
X69701101Y-71025262D01*
X69712053Y-71023080D01*
X69723026Y-71020331D01*
X69734019Y-71017016D01*
X69745033Y-71013133D01*
X69755835Y-71008772D01*
X69766251Y-71003998D01*
X69776280Y-70998811D01*
X69785922Y-70993211D01*
X69795179Y-70987198D01*
X69804048Y-70980773D01*
X69812531Y-70973934D01*
X69820628Y-70966683D01*
X69828338Y-70959019D01*
X69835661Y-70950942D01*
X69842598Y-70942452D01*
X69849149Y-70933549D01*
X69855313Y-70924234D01*
X69861090Y-70914505D01*
X69866481Y-70904364D01*
X69871486Y-70893810D01*
X69875988Y-70883049D01*
X69879929Y-70872265D01*
X69883308Y-70861459D01*
X69886126Y-70850630D01*
X69888383Y-70839779D01*
X69890079Y-70828906D01*
X69891213Y-70818010D01*
X69891786Y-70807091D01*
X69891798Y-70796150D01*
X69891248Y-70785187D01*
X69890137Y-70774201D01*
X69888465Y-70763193D01*
X69886232Y-70752162D01*
X69883437Y-70741108D01*
X69880081Y-70730032D01*
X69876164Y-70718934D01*
X69811413Y-70547577D01*
X69807012Y-70536662D01*
X69802205Y-70526134D01*
X69796992Y-70515995D01*
X69791372Y-70506243D01*
X69785346Y-70496880D01*
X69778915Y-70487905D01*
X69772077Y-70479317D01*
X69764832Y-70471118D01*
X69757182Y-70463307D01*
X69749126Y-70455884D01*
X69740663Y-70448849D01*
X69731794Y-70442202D01*
X69722519Y-70435943D01*
X69712838Y-70430072D01*
X69702751Y-70424589D01*
X69692257Y-70419495D01*
X69681524Y-70414887D01*
X69670773Y-70410845D01*
X69660006Y-70407369D01*
X69649222Y-70404457D01*
X69638421Y-70402111D01*
X69627603Y-70400330D01*
X69616768Y-70399115D01*
X69605916Y-70398465D01*
X69595047Y-70398380D01*
X69584162Y-70398860D01*
X69573259Y-70399906D01*
X69562340Y-70401517D01*
X69551403Y-70403693D01*
X69540450Y-70406434D01*
X69529480Y-70409741D01*
X69518493Y-70413613D01*
X69507500Y-70418044D01*
X69496911Y-70422874D01*
X69486726Y-70428105D01*
X69476945Y-70433736D01*
X69467568Y-70439766D01*
X69458596Y-70446197D01*
X69450027Y-70453028D01*
X69441863Y-70460259D01*
X69434103Y-70467890D01*
X69426746Y-70475921D01*
X69419794Y-70484353D01*
X69413246Y-70493184D01*
X69407103Y-70502416D01*
X69401363Y-70512047D01*
X69396027Y-70522079D01*
X69391096Y-70532511D01*
X69386620Y-70543173D01*
X69382708Y-70553876D01*
X69379359Y-70564618D01*
X69376575Y-70575400D01*
X69374354Y-70586222D01*
X69372697Y-70597084D01*
X69371603Y-70607986D01*
X69371074Y-70618928D01*
X69163696Y-70618928D01*
X69156282Y-70599307D01*
X69151834Y-70589544D01*
X69145117Y-70579924D01*
X69137112Y-70573174D01*
X69127821Y-70569294D01*
X69117243Y-70568285D01*
X69105378Y-70570146D01*
X69097641Y-70572640D01*
X68716087Y-70716817D01*
X68703040Y-70722246D01*
X68690716Y-70728396D01*
X68679114Y-70735270D01*
X68668236Y-70742867D01*
X68658080Y-70751186D01*
X68648648Y-70760228D01*
X68639938Y-70769993D01*
X68631951Y-70780480D01*
X68624687Y-70791691D01*
X68618146Y-70803624D01*
X68614187Y-70811981D01*
X68608996Y-70824793D01*
X68604819Y-70837676D01*
X68601655Y-70850631D01*
X68599506Y-70863657D01*
X68598370Y-70876754D01*
X68598247Y-70889923D01*
X68091622Y-70889923D01*
X67953081Y-70749779D01*
X67945178Y-70743005D01*
X67935382Y-70737872D01*
X67924964Y-70735722D01*
X67913923Y-70736556D01*
X67905657Y-70738979D01*
X67896620Y-70743509D01*
X67889043Y-70749718D01*
X67882927Y-70757605D01*
X67880160Y-70762712D01*
X67876596Y-70772318D01*
X67875420Y-70783053D01*
X67384865Y-70783053D01*
X68678940Y-70294063D01*
X69909500Y-70294063D01*
X69911519Y-70306273D01*
X69914110Y-70314253D01*
X69918656Y-70324285D01*
X69925467Y-70334195D01*
X69933532Y-70341183D01*
X69942852Y-70345250D01*
X69953426Y-70346395D01*
X69965255Y-70344618D01*
X69972954Y-70342149D01*
X70100215Y-70294061D01*
X70111250Y-70290586D01*
X70122219Y-70288526D01*
X70133124Y-70287879D01*
X70143964Y-70288647D01*
X70154739Y-70290829D01*
X70165449Y-70294425D01*
X70169715Y-70296259D01*
X70179834Y-70301540D01*
X70188942Y-70307790D01*
X70197040Y-70315009D01*
X70204126Y-70323196D01*
X70210202Y-70332351D01*
X70215267Y-70342475D01*
X70217009Y-70346795D01*
X70313185Y-70601317D01*
X70316589Y-70612165D01*
X70318601Y-70623004D01*
X70319219Y-70633834D01*
X70318444Y-70644655D01*
X70316276Y-70655467D01*
X70312715Y-70666270D01*
X70310901Y-70670588D01*
X70305524Y-70680819D01*
X70299218Y-70690011D01*
X70291985Y-70698163D01*
X70283824Y-70705277D01*
X70274735Y-70711352D01*
X70264717Y-70716388D01*
X70260451Y-70718111D01*
X70133190Y-70766199D01*
X70123542Y-70770628D01*
X70114069Y-70777390D01*
X70107468Y-70785514D01*
X70103741Y-70795000D01*
X70102888Y-70805848D01*
X70104907Y-70818058D01*
X70107498Y-70826038D01*
X70112043Y-70836070D01*
X70118854Y-70845980D01*
X70126919Y-70852969D01*
X70136239Y-70857035D01*
X70146814Y-70858180D01*
X70158642Y-70856403D01*
X70166342Y-70853934D01*
X70293603Y-70805846D01*
X70306611Y-70800433D01*
X70318905Y-70794293D01*
X70330483Y-70787428D01*
X70341347Y-70779837D01*
X70351496Y-70771521D01*
X70360930Y-70762478D01*
X70369649Y-70752710D01*
X70377653Y-70742216D01*
X70384943Y-70730996D01*
X70391517Y-70719050D01*
X70395503Y-70710683D01*
X70400694Y-70697871D01*
X70404871Y-70684987D01*
X70408035Y-70672032D01*
X70410184Y-70659006D01*
X70411320Y-70645909D01*
X70411443Y-70632740D01*
X70410551Y-70619500D01*
X70408646Y-70606189D01*
X70405727Y-70592806D01*
X70401795Y-70579352D01*
X70398610Y-70570343D01*
X70398567Y-70570228D01*
X70593770Y-70570228D01*
X70595777Y-70582443D01*
X70598366Y-70590424D01*
X70614942Y-70634291D01*
X70619491Y-70644322D01*
X70626316Y-70654226D01*
X70634407Y-70661205D01*
X70643764Y-70665258D01*
X70654386Y-70666384D01*
X70666274Y-70664585D01*
X70674014Y-70662100D01*
X70683716Y-70657651D01*
X70693246Y-70650868D01*
X70699892Y-70642727D01*
X70703654Y-70633228D01*
X70704531Y-70622371D01*
X70702524Y-70610156D01*
X70699935Y-70602175D01*
X70683359Y-70558308D01*
X70678810Y-70548277D01*
X70671984Y-70538373D01*
X70663893Y-70531394D01*
X70654537Y-70527341D01*
X70643914Y-70526215D01*
X70632026Y-70528014D01*
X70624286Y-70530499D01*
X70614585Y-70534948D01*
X70605055Y-70541731D01*
X70598409Y-70549872D01*
X70594647Y-70559371D01*
X70593770Y-70570228D01*
X70398567Y-70570228D01*
X70301571Y-70313537D01*
X70296099Y-70300362D01*
X70289914Y-70287910D01*
X70283015Y-70276183D01*
X70275404Y-70265179D01*
X70267079Y-70254900D01*
X70258041Y-70245344D01*
X70248289Y-70236512D01*
X70237825Y-70228404D01*
X70226647Y-70221020D01*
X70214756Y-70214359D01*
X70206433Y-70210321D01*
X70193638Y-70205030D01*
X70180788Y-70200756D01*
X70167882Y-70197500D01*
X70154919Y-70195261D01*
X70141900Y-70194038D01*
X70128825Y-70193833D01*
X70115693Y-70194646D01*
X70102505Y-70196475D01*
X70089261Y-70199322D01*
X70075961Y-70203185D01*
X70067063Y-70206326D01*
X69939802Y-70254414D01*
X69930155Y-70258843D01*
X69920681Y-70265605D01*
X69914081Y-70273729D01*
X69910354Y-70283215D01*
X69909500Y-70294063D01*
X68678940Y-70294063D01*
X69234295Y-70084212D01*
X70708424Y-70084212D01*
X70708482Y-70090992D01*
X70708526Y-70096119D01*
X70709413Y-70107990D01*
X70711087Y-70119825D01*
X70713546Y-70131624D01*
X70716792Y-70143387D01*
X70720823Y-70155115D01*
X70817862Y-70411921D01*
X70823334Y-70425096D01*
X70829519Y-70437548D01*
X70836418Y-70449275D01*
X70844029Y-70460279D01*
X70852354Y-70470558D01*
X70861392Y-70480114D01*
X70871143Y-70488946D01*
X70881608Y-70497054D01*
X70892786Y-70504438D01*
X70904677Y-70511099D01*
X70913000Y-70515137D01*
X70925756Y-70520442D01*
X70938575Y-70524728D01*
X70951459Y-70527993D01*
X70964407Y-70530238D01*
X70977419Y-70531463D01*
X70990496Y-70531667D01*
X71003637Y-70530851D01*
X71016842Y-70529016D01*
X71030111Y-70526159D01*
X71043445Y-70522283D01*
X71052370Y-70519132D01*
X71264395Y-70439014D01*
X71274104Y-70434586D01*
X71283668Y-70427890D01*
X71290372Y-70419903D01*
X71294217Y-70410625D01*
X71295203Y-70400055D01*
X71293330Y-70388195D01*
X71290834Y-70380460D01*
X71065337Y-69783701D01*
X71258191Y-69783701D01*
X71260086Y-69795620D01*
X71262598Y-69803397D01*
X71456849Y-70317467D01*
X71461297Y-70327229D01*
X71468015Y-70336849D01*
X71476019Y-70343599D01*
X71485310Y-70347479D01*
X71495889Y-70348488D01*
X71507753Y-70346628D01*
X71515490Y-70344133D01*
X71727515Y-70264016D01*
X71740562Y-70258588D01*
X71752887Y-70252437D01*
X71764488Y-70245563D01*
X71775366Y-70237967D01*
X71785522Y-70229647D01*
X71794955Y-70220605D01*
X71803665Y-70210840D01*
X71811651Y-70200353D01*
X71818915Y-70189142D01*
X71825457Y-70177209D01*
X71829416Y-70168852D01*
X71834607Y-70156040D01*
X71838784Y-70143157D01*
X71841947Y-70130202D01*
X71844097Y-70117176D01*
X71845233Y-70104079D01*
X71845355Y-70090910D01*
X71844464Y-70077670D01*
X71842558Y-70064359D01*
X71839640Y-70050976D01*
X71835707Y-70037522D01*
X71832522Y-70028513D01*
X71687686Y-69645215D01*
X71888399Y-69645215D01*
X71889115Y-69658144D01*
X71890841Y-69671095D01*
X71893576Y-69684070D01*
X71897320Y-69697066D01*
X71900376Y-69705743D01*
X72047230Y-70094380D01*
X72051677Y-70104143D01*
X72058395Y-70113763D01*
X72066400Y-70120513D01*
X72075691Y-70124393D01*
X72086269Y-70125402D01*
X72098134Y-70123541D01*
X72105870Y-70121047D01*
X72115578Y-70116616D01*
X72125136Y-70109905D01*
X72131831Y-70101892D01*
X72135662Y-70092577D01*
X72136630Y-70081960D01*
X72134734Y-70070041D01*
X72132223Y-70062264D01*
X71987182Y-69678425D01*
X71983624Y-69667203D01*
X71981474Y-69656099D01*
X71980733Y-69645113D01*
X71981400Y-69634245D01*
X71983477Y-69623494D01*
X71986962Y-69612862D01*
X71988750Y-69608642D01*
X71993983Y-69598541D01*
X72000228Y-69589434D01*
X72007487Y-69581321D01*
X72015759Y-69574203D01*
X72025043Y-69568078D01*
X72035341Y-69562948D01*
X72039744Y-69561174D01*
X72209273Y-69497114D01*
X72386516Y-69966175D01*
X72390964Y-69975937D01*
X72397681Y-69985558D01*
X72405686Y-69992308D01*
X72414977Y-69996187D01*
X72425555Y-69997197D01*
X72437420Y-69995336D01*
X72445157Y-69992842D01*
X72454866Y-69988414D01*
X72464429Y-69981718D01*
X72471133Y-69973730D01*
X72474978Y-69964452D01*
X72475964Y-69953883D01*
X72474091Y-69942023D01*
X72471595Y-69934287D01*
X72246213Y-69337831D01*
X72440095Y-69337831D01*
X72442114Y-69350041D01*
X72444705Y-69358021D01*
X72449251Y-69368053D01*
X72456061Y-69377963D01*
X72464127Y-69384951D01*
X72473447Y-69389018D01*
X72484021Y-69390163D01*
X72495850Y-69388385D01*
X72503549Y-69385917D01*
X72630810Y-69337829D01*
X72808053Y-69806889D01*
X72812497Y-69816653D01*
X72819201Y-69826279D01*
X72827180Y-69833038D01*
X72836434Y-69836932D01*
X72846964Y-69837960D01*
X72858770Y-69836121D01*
X72866465Y-69833642D01*
X72876173Y-69829211D01*
X72885731Y-69822500D01*
X72892426Y-69814487D01*
X72896257Y-69805172D01*
X72897225Y-69794555D01*
X72895329Y-69782636D01*
X72892817Y-69774859D01*
X72715574Y-69305799D01*
X72758071Y-69289741D01*
X72767772Y-69285292D01*
X72777302Y-69278508D01*
X72783948Y-69270367D01*
X72787710Y-69260868D01*
X72788587Y-69250011D01*
X72786580Y-69237796D01*
X72783991Y-69229816D01*
X72779442Y-69219785D01*
X72772617Y-69209880D01*
X72764526Y-69202902D01*
X72755169Y-69198849D01*
X72744547Y-69197723D01*
X72732659Y-69199522D01*
X72724919Y-69202006D01*
X72682422Y-69218064D01*
X72657088Y-69151019D01*
X72949420Y-69151019D01*
X72951293Y-69162879D01*
X72953790Y-69170615D01*
X73146055Y-69679430D01*
X73150482Y-69689139D01*
X73157179Y-69698702D01*
X73165166Y-69705407D01*
X73174444Y-69709252D01*
X73185013Y-69710238D01*
X73196873Y-69708365D01*
X73204609Y-69705868D01*
X73214318Y-69701441D01*
X73223882Y-69694744D01*
X73230586Y-69686757D01*
X73234431Y-69677479D01*
X73235417Y-69666910D01*
X73233544Y-69655050D01*
X73231048Y-69647314D01*
X73038782Y-69138499D01*
X73034355Y-69128790D01*
X73027658Y-69119226D01*
X73019671Y-69112522D01*
X73010393Y-69108677D01*
X72999824Y-69107691D01*
X72987964Y-69109564D01*
X72980228Y-69112060D01*
X72970519Y-69116488D01*
X72960955Y-69123184D01*
X72954251Y-69131172D01*
X72950406Y-69140450D01*
X72949420Y-69151019D01*
X72657088Y-69151019D01*
X72619223Y-69050812D01*
X73198502Y-69050812D01*
X73200442Y-69062850D01*
X73202985Y-69070708D01*
X73207684Y-69083144D01*
X73447482Y-69717750D01*
X73452971Y-69730971D01*
X73459174Y-69743471D01*
X73466093Y-69755251D01*
X73473726Y-69766312D01*
X73482074Y-69776652D01*
X73491136Y-69786273D01*
X73500914Y-69795174D01*
X73511406Y-69803355D01*
X73522612Y-69810816D01*
X73534534Y-69817557D01*
X73542879Y-69821652D01*
X73555663Y-69827040D01*
X73568504Y-69831401D01*
X73581403Y-69834736D01*
X73594359Y-69837043D01*
X73607372Y-69838324D01*
X73620442Y-69838579D01*
X73633569Y-69837806D01*
X73646754Y-69836007D01*
X73659996Y-69833181D01*
X73673295Y-69829329D01*
X73682193Y-69826190D01*
X73851950Y-69762044D01*
X73861651Y-69757595D01*
X73871181Y-69750811D01*
X73877827Y-69742670D01*
X73881589Y-69733171D01*
X73882466Y-69722314D01*
X73880459Y-69710099D01*
X73877870Y-69702119D01*
X73873321Y-69692088D01*
X73866496Y-69682183D01*
X73858405Y-69675205D01*
X73849048Y-69671152D01*
X73838426Y-69670026D01*
X73826538Y-69671825D01*
X73818798Y-69674309D01*
X73649269Y-69738369D01*
X73638228Y-69741827D01*
X73627240Y-69743837D01*
X73616303Y-69744400D01*
X73605419Y-69743515D01*
X73594587Y-69741183D01*
X73583808Y-69737403D01*
X73579511Y-69735485D01*
X73569279Y-69729907D01*
X73560050Y-69723338D01*
X73551824Y-69715778D01*
X73544600Y-69707228D01*
X73538378Y-69697686D01*
X73533159Y-69687154D01*
X73531352Y-69682664D01*
X73498200Y-69594930D01*
X73667729Y-69530870D01*
X73679799Y-69525930D01*
X73691221Y-69520476D01*
X73701993Y-69514508D01*
X73712117Y-69508027D01*
X73721591Y-69501032D01*
X73730417Y-69493524D01*
X73738593Y-69485502D01*
X73746121Y-69476966D01*
X73753000Y-69467917D01*
X73759229Y-69458354D01*
X73764810Y-69448278D01*
X73769742Y-69437688D01*
X73774025Y-69426584D01*
X73777659Y-69414967D01*
X73780644Y-69402836D01*
X73782980Y-69390192D01*
X73784450Y-69378213D01*
X73785135Y-69366270D01*
X73785034Y-69354363D01*
X73784146Y-69342492D01*
X73782473Y-69330657D01*
X73780013Y-69318858D01*
X73776768Y-69307095D01*
X73772736Y-69295367D01*
X73675697Y-69038561D01*
X73670225Y-69025386D01*
X73664040Y-69012934D01*
X73657142Y-69001207D01*
X73649530Y-68990203D01*
X73641205Y-68979923D01*
X73632167Y-68970368D01*
X73622416Y-68961536D01*
X73611951Y-68953428D01*
X73600774Y-68946043D01*
X73588883Y-68939383D01*
X73580559Y-68935345D01*
X73567804Y-68930039D01*
X73554984Y-68925754D01*
X73542100Y-68922489D01*
X73529152Y-68920244D01*
X73516140Y-68919019D01*
X73503063Y-68918815D01*
X73489922Y-68919630D01*
X73476717Y-68921466D01*
X73463448Y-68924323D01*
X73450114Y-68928199D01*
X73441189Y-68931350D01*
X73229164Y-69011468D01*
X73219459Y-69015906D01*
X73209912Y-69022646D01*
X73203237Y-69030710D01*
X73199434Y-69040099D01*
X73198502Y-69050812D01*
X72619223Y-69050812D01*
X72604118Y-69010837D01*
X72599791Y-69001396D01*
X72593202Y-68992117D01*
X72585301Y-68985641D01*
X72576089Y-68981969D01*
X72565564Y-68981100D01*
X72553727Y-68983035D01*
X72545995Y-68985541D01*
X72536332Y-68989931D01*
X72526799Y-68996533D01*
X72520092Y-69004375D01*
X72516212Y-69013456D01*
X72515158Y-69023776D01*
X72516932Y-69035336D01*
X72519353Y-69042867D01*
X72597658Y-69250094D01*
X72470397Y-69298182D01*
X72460749Y-69302611D01*
X72451276Y-69309373D01*
X72444676Y-69317497D01*
X72440949Y-69326983D01*
X72440095Y-69337831D01*
X72246213Y-69337831D01*
X72183240Y-69171179D01*
X72178813Y-69161470D01*
X72172116Y-69151906D01*
X72164129Y-69145202D01*
X72154851Y-69141357D01*
X72144282Y-69140371D01*
X72132422Y-69142244D01*
X72124686Y-69144740D01*
X72114970Y-69149150D01*
X72105379Y-69155774D01*
X72098627Y-69163633D01*
X72094712Y-69172727D01*
X72093635Y-69183057D01*
X72095397Y-69194621D01*
X72097816Y-69202153D01*
X72176121Y-69409380D01*
X72006363Y-69473526D01*
X71993595Y-69478846D01*
X71981508Y-69484900D01*
X71970102Y-69491689D01*
X71959378Y-69499211D01*
X71949335Y-69507467D01*
X71939973Y-69516457D01*
X71931292Y-69526181D01*
X71923292Y-69536639D01*
X71915974Y-69547831D01*
X71909336Y-69559757D01*
X71905290Y-69568115D01*
X71899952Y-69580909D01*
X71895623Y-69593725D01*
X71892304Y-69606563D01*
X71889993Y-69619425D01*
X71888691Y-69632308D01*
X71888399Y-69645215D01*
X71687686Y-69645215D01*
X71686877Y-69643075D01*
X71682429Y-69633312D01*
X71675711Y-69623692D01*
X71667707Y-69616942D01*
X71658415Y-69613062D01*
X71647837Y-69612053D01*
X71635973Y-69613914D01*
X71628236Y-69616408D01*
X71618528Y-69620839D01*
X71608971Y-69627550D01*
X71602276Y-69635563D01*
X71598445Y-69644878D01*
X71597477Y-69655495D01*
X71599373Y-69667415D01*
X71601884Y-69675191D01*
X71746925Y-70059030D01*
X71750331Y-70069884D01*
X71752349Y-70080739D01*
X71752978Y-70091597D01*
X71752217Y-70102457D01*
X71750069Y-70113319D01*
X71746531Y-70124183D01*
X71744727Y-70128529D01*
X71739374Y-70138826D01*
X71733090Y-70148072D01*
X71725873Y-70156269D01*
X71717724Y-70163415D01*
X71708643Y-70169511D01*
X71698629Y-70174557D01*
X71694363Y-70176281D01*
X71524834Y-70240341D01*
X71347591Y-69771280D01*
X71343143Y-69761518D01*
X71336425Y-69751898D01*
X71328421Y-69745148D01*
X71319129Y-69741268D01*
X71308551Y-69740259D01*
X71296687Y-69742119D01*
X71288950Y-69744614D01*
X71279242Y-69749045D01*
X71269684Y-69755756D01*
X71262990Y-69763769D01*
X71259159Y-69773084D01*
X71258191Y-69783701D01*
X71065337Y-69783701D01*
X71002479Y-69617351D01*
X70998051Y-69607642D01*
X70991355Y-69598079D01*
X70983368Y-69591375D01*
X70974089Y-69587530D01*
X70963520Y-69586544D01*
X70951660Y-69588417D01*
X70943924Y-69590913D01*
X70934209Y-69595323D01*
X70924618Y-69601947D01*
X70917865Y-69609806D01*
X70913950Y-69618900D01*
X70912874Y-69629229D01*
X70914635Y-69640794D01*
X70917054Y-69648325D01*
X70995359Y-69855552D01*
X70825602Y-69919698D01*
X70813559Y-69924628D01*
X70802164Y-69930073D01*
X70791415Y-69936031D01*
X70781314Y-69942504D01*
X70771860Y-69949491D01*
X70763053Y-69956992D01*
X70754894Y-69965008D01*
X70747381Y-69973538D01*
X70740516Y-69982582D01*
X70734298Y-69992140D01*
X70728727Y-70002213D01*
X70723803Y-70012800D01*
X70719527Y-70023901D01*
X70715897Y-70035516D01*
X70712915Y-70047646D01*
X70710580Y-70060290D01*
X70709109Y-70072269D01*
X70708424Y-70084212D01*
X69234295Y-70084212D01*
X72376885Y-68896726D01*
X72853331Y-68896726D01*
X72855204Y-68908586D01*
X72857700Y-68916322D01*
X72873758Y-68958818D01*
X72878166Y-68968474D01*
X72884840Y-68977980D01*
X72892810Y-68984639D01*
X72902076Y-68988449D01*
X72912636Y-68989412D01*
X72924491Y-68987526D01*
X72932226Y-68985028D01*
X72941937Y-68980604D01*
X72951506Y-68973922D01*
X72958220Y-68965961D01*
X72962079Y-68956719D01*
X72963083Y-68946198D01*
X72961232Y-68934397D01*
X72958751Y-68926702D01*
X72942693Y-68884206D01*
X72938265Y-68874496D01*
X72931569Y-68864933D01*
X72923582Y-68858229D01*
X72914304Y-68854384D01*
X72903734Y-68853398D01*
X72891874Y-68855271D01*
X72884139Y-68857767D01*
X72874429Y-68862195D01*
X72864866Y-68868891D01*
X72858162Y-68876878D01*
X72854317Y-68886157D01*
X72853331Y-68896726D01*
X72376885Y-68896726D01*
X73205507Y-68583616D01*
X73696062Y-68583616D01*
X73697511Y-68593333D01*
X73698916Y-68597669D01*
X73703614Y-68606787D01*
X73709621Y-68614251D01*
X74337262Y-69249154D01*
X74345164Y-69255928D01*
X74354960Y-69261062D01*
X74365379Y-69263211D01*
X74376419Y-69262377D01*
X74384685Y-69259955D01*
X74393734Y-69255400D01*
X74401344Y-69249116D01*
X74407516Y-69241104D01*
X74410324Y-69235906D01*
X74413695Y-69226121D01*
X74414754Y-69216342D01*
X74413503Y-69206568D01*
X74411809Y-69201141D01*
X74407184Y-69192217D01*
X74401364Y-69185245D01*
X73773723Y-68550342D01*
X73765821Y-68543568D01*
X73756024Y-68538434D01*
X73745606Y-68536285D01*
X73734566Y-68537119D01*
X73726299Y-68539541D01*
X73717262Y-68544071D01*
X73709686Y-68550280D01*
X73703569Y-68558168D01*
X73700803Y-68563275D01*
X73697238Y-68572881D01*
X73696062Y-68583616D01*
X73205507Y-68583616D01*
X73795887Y-68360530D01*
X74286443Y-68360530D01*
X74287891Y-68370247D01*
X74289297Y-68374583D01*
X74293995Y-68383701D01*
X74300002Y-68391165D01*
X74927642Y-69026068D01*
X74935545Y-69032842D01*
X74945341Y-69037975D01*
X74955759Y-69040125D01*
X74966800Y-69039291D01*
X74975066Y-69036868D01*
X74984114Y-69032313D01*
X74991725Y-69026030D01*
X74997897Y-69018018D01*
X75000705Y-69012820D01*
X75004075Y-69003035D01*
X75005135Y-68993256D01*
X75003884Y-68983482D01*
X75002190Y-68978055D01*
X74997565Y-68969131D01*
X74991744Y-68962158D01*
X74840122Y-68808782D01*
X75133431Y-68808782D01*
X75135304Y-68820642D01*
X75137800Y-68828378D01*
X75153858Y-68870875D01*
X75158265Y-68880530D01*
X75164940Y-68890037D01*
X75172910Y-68896695D01*
X75182175Y-68900506D01*
X75192736Y-68901468D01*
X75204591Y-68899583D01*
X75212326Y-68897084D01*
X75222037Y-68892660D01*
X75231606Y-68885979D01*
X75238319Y-68878017D01*
X75242178Y-68868775D01*
X75243183Y-68858254D01*
X75241332Y-68846453D01*
X75238851Y-68838758D01*
X75222793Y-68796262D01*
X75218365Y-68786553D01*
X75211669Y-68776989D01*
X75203682Y-68770285D01*
X75194403Y-68766440D01*
X75183834Y-68765454D01*
X75171974Y-68767327D01*
X75164238Y-68769824D01*
X75154529Y-68774251D01*
X75144966Y-68780948D01*
X75138262Y-68788935D01*
X75134417Y-68798213D01*
X75133431Y-68808782D01*
X74840122Y-68808782D01*
X74503362Y-68468125D01*
X75004707Y-68468125D01*
X75006580Y-68479985D01*
X75009076Y-68487721D01*
X75025134Y-68530218D01*
X75029542Y-68539873D01*
X75036217Y-68549380D01*
X75044187Y-68556038D01*
X75053452Y-68559849D01*
X75064012Y-68560811D01*
X75075868Y-68558926D01*
X75083603Y-68556427D01*
X75093313Y-68552003D01*
X75102882Y-68545322D01*
X75109596Y-68537360D01*
X75113455Y-68528118D01*
X75114459Y-68517597D01*
X75112608Y-68505796D01*
X75110127Y-68498101D01*
X75094069Y-68455605D01*
X75089642Y-68445896D01*
X75082945Y-68436332D01*
X75074958Y-68429628D01*
X75065680Y-68425783D01*
X75055111Y-68424797D01*
X75043250Y-68426670D01*
X75035515Y-68429167D01*
X75025806Y-68433594D01*
X75016242Y-68440291D01*
X75009538Y-68448278D01*
X75005693Y-68457556D01*
X75004707Y-68468125D01*
X74503362Y-68468125D01*
X74364104Y-68327256D01*
X74356201Y-68320481D01*
X74347121Y-68315723D01*
X75283230Y-68315723D01*
X75284156Y-68326124D01*
X75286350Y-68333600D01*
X75290892Y-68342613D01*
X75297933Y-68350855D01*
X75306066Y-68356679D01*
X75310226Y-68358782D01*
X75319970Y-68362042D01*
X75329721Y-68363028D01*
X75339480Y-68361738D01*
X75344905Y-68360039D01*
X75353969Y-68355514D01*
X75361611Y-68349008D01*
X75362883Y-68347501D01*
X75371899Y-68336582D01*
X75381284Y-68326262D01*
X75391038Y-68316542D01*
X75401161Y-68307421D01*
X75411653Y-68298900D01*
X75422513Y-68290978D01*
X75433742Y-68283656D01*
X75445340Y-68276934D01*
X75457307Y-68270811D01*
X75469643Y-68265287D01*
X75478072Y-68261938D01*
X75490920Y-68257367D01*
X75503133Y-68253603D01*
X75514710Y-68250645D01*
X75525653Y-68248496D01*
X75535959Y-68247153D01*
X75550228Y-68246652D01*
X75563067Y-68247967D01*
X75574477Y-68251099D01*
X75584457Y-68256046D01*
X75593008Y-68262810D01*
X75600129Y-68271390D01*
X75605820Y-68281786D01*
X75607400Y-68285655D01*
X75610502Y-68295493D01*
X75612480Y-68307351D01*
X75612347Y-68318718D01*
X75610104Y-68329595D01*
X75605751Y-68339982D01*
X75599288Y-68349879D01*
X75594397Y-68355581D01*
X75414922Y-68545332D01*
X75406660Y-68554596D01*
X75399218Y-68564019D01*
X75392595Y-68573602D01*
X75386791Y-68583345D01*
X75381807Y-68593247D01*
X75377641Y-68603308D01*
X75374295Y-68613530D01*
X75371767Y-68623911D01*
X75370059Y-68634452D01*
X75369170Y-68645152D01*
X75369100Y-68656012D01*
X75369850Y-68667031D01*
X75371418Y-68678211D01*
X75373806Y-68689549D01*
X75377012Y-68701048D01*
X75381038Y-68712706D01*
X75384889Y-68722174D01*
X75389104Y-68731158D01*
X75396108Y-68743726D01*
X75403930Y-68755205D01*
X75412571Y-68765594D01*
X75422030Y-68774893D01*
X75432308Y-68783103D01*
X75443404Y-68790224D01*
X75455318Y-68796255D01*
X75468050Y-68801197D01*
X75481601Y-68805049D01*
X75486300Y-68806091D01*
X75498513Y-68808195D01*
X75511042Y-68809519D01*
X75523887Y-68810063D01*
X75537047Y-68809827D01*
X75550523Y-68808810D01*
X75564314Y-68807014D01*
X75578421Y-68804437D01*
X75588001Y-68802286D01*
X75597721Y-68799787D01*
X75607582Y-68796943D01*
X75617583Y-68793751D01*
X75627724Y-68790213D01*
X75632847Y-68788314D01*
X75647901Y-68782409D01*
X75662506Y-68776242D01*
X75676660Y-68769812D01*
X75690364Y-68763120D01*
X75703618Y-68756166D01*
X75716423Y-68748949D01*
X75728777Y-68741470D01*
X75740681Y-68733728D01*
X75752135Y-68725724D01*
X75763140Y-68717458D01*
X75773694Y-68708929D01*
X75783798Y-68700138D01*
X75793453Y-68691084D01*
X75802657Y-68681768D01*
X75811411Y-68672190D01*
X75819715Y-68662349D01*
X75825664Y-68653670D01*
X75830109Y-68643327D01*
X75831866Y-68632750D01*
X75830936Y-68621938D01*
X75828627Y-68614073D01*
X75824086Y-68605061D01*
X75817045Y-68596818D01*
X75808912Y-68590994D01*
X75804751Y-68588891D01*
X75795008Y-68585631D01*
X75785257Y-68584645D01*
X75775498Y-68585935D01*
X75770073Y-68587634D01*
X75761347Y-68592088D01*
X75755288Y-68596876D01*
X75748262Y-68603668D01*
X75740016Y-68611361D01*
X75732213Y-68618461D01*
X75723563Y-68626187D01*
X75716033Y-68632818D01*
X75707960Y-68639850D01*
X75703721Y-68643516D01*
X75693960Y-68650378D01*
X75684152Y-68656945D01*
X75674297Y-68663217D01*
X75664395Y-68669196D01*
X75654446Y-68674880D01*
X75644450Y-68680269D01*
X75634407Y-68685364D01*
X75624317Y-68690165D01*
X75614181Y-68694672D01*
X75603997Y-68698884D01*
X75597182Y-68701529D01*
X75584028Y-68706213D01*
X75571529Y-68710080D01*
X75559683Y-68713128D01*
X75548491Y-68715358D01*
X75537952Y-68716770D01*
X75528067Y-68717364D01*
X75514465Y-68716721D01*
X75502334Y-68714237D01*
X75491673Y-68709912D01*
X75482484Y-68703747D01*
X75474765Y-68695740D01*
X75468516Y-68685893D01*
X75465168Y-68678305D01*
X75462004Y-68668237D01*
X75460239Y-68658480D01*
X75459999Y-68646723D01*
X75461946Y-68635453D01*
X75466078Y-68624671D01*
X75472395Y-68614375D01*
X75479023Y-68606490D01*
X75657103Y-68418571D01*
X75665419Y-68409287D01*
X75672913Y-68399844D01*
X75679584Y-68390243D01*
X75685433Y-68380484D01*
X75690459Y-68370566D01*
X75694662Y-68360490D01*
X75698042Y-68350256D01*
X75700600Y-68339863D01*
X75702334Y-68329313D01*
X75703247Y-68318604D01*
X75703336Y-68307736D01*
X75702603Y-68296711D01*
X75701047Y-68285527D01*
X75698668Y-68274184D01*
X75695467Y-68262684D01*
X75691443Y-68251025D01*
X75685795Y-68237686D01*
X75679307Y-68225344D01*
X75671979Y-68213999D01*
X75663811Y-68203649D01*
X75654804Y-68194297D01*
X75644957Y-68185941D01*
X75634271Y-68178581D01*
X75622745Y-68172218D01*
X75610379Y-68166852D01*
X75597173Y-68162482D01*
X75587903Y-68160123D01*
X75575589Y-68157637D01*
X75563049Y-68155938D01*
X75550284Y-68155027D01*
X75537293Y-68154903D01*
X75524076Y-68155567D01*
X75510634Y-68157019D01*
X75496966Y-68159257D01*
X75483072Y-68162284D01*
X75468953Y-68166097D01*
X75459415Y-68169077D01*
X75449777Y-68172407D01*
X75444920Y-68174204D01*
X75433274Y-68178820D01*
X75421926Y-68183757D01*
X75410877Y-68189013D01*
X75400126Y-68194589D01*
X75389673Y-68200485D01*
X75379518Y-68206701D01*
X75369662Y-68213236D01*
X75360104Y-68220091D01*
X75350845Y-68227266D01*
X75341883Y-68234760D01*
X75333220Y-68242574D01*
X75324855Y-68250708D01*
X75316789Y-68259162D01*
X75309021Y-68267935D01*
X75301551Y-68277028D01*
X75294379Y-68286441D01*
X75288889Y-68295158D01*
X75284808Y-68305402D01*
X75283230Y-68315723D01*
X74347121Y-68315723D01*
X74346405Y-68315348D01*
X74335986Y-68313198D01*
X74324946Y-68314032D01*
X74316680Y-68316455D01*
X74307643Y-68320985D01*
X74300066Y-68327194D01*
X74293950Y-68335081D01*
X74291183Y-68340189D01*
X74287619Y-68349795D01*
X74286443Y-68360530D01*
X73795887Y-68360530D01*
X74357053Y-68148483D01*
X75853259Y-68148483D01*
X75854150Y-68161723D01*
X75856055Y-68175034D01*
X75858974Y-68188417D01*
X75862907Y-68201871D01*
X75866092Y-68210880D01*
X75963131Y-68467686D01*
X75968558Y-68480743D01*
X75974706Y-68493096D01*
X75981575Y-68504745D01*
X75989164Y-68515690D01*
X75997475Y-68525932D01*
X76006506Y-68535470D01*
X76016258Y-68544304D01*
X76026731Y-68552434D01*
X76037925Y-68559860D01*
X76049839Y-68566583D01*
X76058183Y-68570673D01*
X76070951Y-68576021D01*
X76083779Y-68580345D01*
X76096665Y-68583647D01*
X76109610Y-68585926D01*
X76122613Y-68587182D01*
X76135676Y-68587416D01*
X76148797Y-68586627D01*
X76161977Y-68584815D01*
X76175215Y-68581980D01*
X76188512Y-68578123D01*
X76197410Y-68574983D01*
X76367167Y-68510837D01*
X76445472Y-68718065D01*
X76449798Y-68727506D01*
X76456387Y-68736785D01*
X76464288Y-68743260D01*
X76473501Y-68746932D01*
X76484026Y-68747801D01*
X76495863Y-68745867D01*
X76503595Y-68743361D01*
X76513304Y-68738933D01*
X76522867Y-68732237D01*
X76529571Y-68724249D01*
X76533417Y-68714971D01*
X76534403Y-68704402D01*
X76532529Y-68692542D01*
X76530033Y-68684806D01*
X76241679Y-67921698D01*
X76237251Y-67911989D01*
X76230555Y-67902425D01*
X76222567Y-67895721D01*
X76213289Y-67891876D01*
X76202720Y-67890890D01*
X76190860Y-67892763D01*
X76183124Y-67895259D01*
X75971099Y-67975377D01*
X75958052Y-67980805D01*
X75945727Y-67986956D01*
X75934126Y-67993830D01*
X75923247Y-68001426D01*
X75913092Y-68009745D01*
X75903659Y-68018787D01*
X75894949Y-68028552D01*
X75886962Y-68039040D01*
X75879698Y-68050250D01*
X75873157Y-68062183D01*
X75869198Y-68070540D01*
X75864007Y-68083353D01*
X75859830Y-68096236D01*
X75856667Y-68109191D01*
X75854517Y-68122217D01*
X75853381Y-68135314D01*
X75853275Y-68146757D01*
X75853259Y-68148483D01*
X74357053Y-68148483D01*
X75174041Y-67839769D01*
X76404602Y-67839769D01*
X76406621Y-67851979D01*
X76409212Y-67859959D01*
X76413758Y-67869991D01*
X76420569Y-67879901D01*
X76428634Y-67886889D01*
X76437954Y-67890956D01*
X76448528Y-67892100D01*
X76460357Y-67890323D01*
X76468056Y-67887854D01*
X76595317Y-67839766D01*
X76772560Y-68308827D01*
X76777004Y-68318591D01*
X76783708Y-68328216D01*
X76791687Y-68334976D01*
X76800941Y-68338870D01*
X76811471Y-68339897D01*
X76823277Y-68338059D01*
X76830973Y-68335580D01*
X76840680Y-68331149D01*
X76850238Y-68324438D01*
X76856933Y-68316425D01*
X76860764Y-68307110D01*
X76861732Y-68296493D01*
X76859836Y-68284573D01*
X76857325Y-68276797D01*
X76680082Y-67807737D01*
X76722578Y-67791679D01*
X76732279Y-67787229D01*
X76741809Y-67780446D01*
X76748455Y-67772305D01*
X76752217Y-67762806D01*
X76753094Y-67751949D01*
X76751087Y-67739734D01*
X76748498Y-67731753D01*
X76743949Y-67721723D01*
X76737124Y-67711818D01*
X76729033Y-67704839D01*
X76719676Y-67700787D01*
X76709054Y-67699660D01*
X76697166Y-67701460D01*
X76689426Y-67703944D01*
X76646929Y-67720002D01*
X76619893Y-67648453D01*
X76910904Y-67648453D01*
X76912923Y-67660663D01*
X76915514Y-67668643D01*
X76920059Y-67678675D01*
X76926870Y-67688585D01*
X76934936Y-67695574D01*
X76944255Y-67699640D01*
X76954830Y-67700785D01*
X76966659Y-67699008D01*
X76974358Y-67696539D01*
X77101619Y-67648451D01*
X77278862Y-68117511D01*
X77283306Y-68127275D01*
X77290010Y-68136901D01*
X77297988Y-68143661D01*
X77307243Y-68147554D01*
X77317773Y-68148582D01*
X77329579Y-68146743D01*
X77337274Y-68144264D01*
X77346982Y-68139833D01*
X77356540Y-68133122D01*
X77363234Y-68125109D01*
X77367066Y-68115794D01*
X77368033Y-68105177D01*
X77366138Y-68093258D01*
X77363626Y-68085481D01*
X77186383Y-67616421D01*
X77228880Y-67600363D01*
X77238581Y-67595914D01*
X77248111Y-67589131D01*
X77254757Y-67580989D01*
X77258519Y-67571490D01*
X77259396Y-67560633D01*
X77257389Y-67548418D01*
X77255123Y-67541435D01*
X77455890Y-67541435D01*
X77456607Y-67554364D01*
X77458332Y-67567316D01*
X77461067Y-67580290D01*
X77464811Y-67593287D01*
X77467867Y-67601964D01*
X77614721Y-67990601D01*
X77619169Y-68000363D01*
X77625887Y-68009984D01*
X77633891Y-68016733D01*
X77643183Y-68020613D01*
X77653761Y-68021623D01*
X77665625Y-68019762D01*
X77673362Y-68017267D01*
X77683070Y-68012836D01*
X77692627Y-68006125D01*
X77699322Y-67998112D01*
X77703153Y-67988797D01*
X77704121Y-67978180D01*
X77702225Y-67966261D01*
X77699714Y-67958484D01*
X77554673Y-67574646D01*
X77551115Y-67563424D01*
X77548965Y-67552319D01*
X77548224Y-67541333D01*
X77548892Y-67530465D01*
X77550968Y-67519714D01*
X77554453Y-67509082D01*
X77556242Y-67504862D01*
X77561474Y-67494761D01*
X77567720Y-67485654D01*
X77574978Y-67477542D01*
X77583250Y-67470423D01*
X77592535Y-67464299D01*
X77602832Y-67459168D01*
X77607235Y-67457394D01*
X77776764Y-67393335D01*
X77954007Y-67862395D01*
X77958455Y-67872158D01*
X77965173Y-67881778D01*
X77973177Y-67888528D01*
X77982469Y-67892408D01*
X77993047Y-67893417D01*
X78004911Y-67891556D01*
X78012648Y-67889062D01*
X78022357Y-67884634D01*
X78031920Y-67877938D01*
X78038625Y-67869951D01*
X78042470Y-67860672D01*
X78043456Y-67850103D01*
X78041583Y-67838243D01*
X78039086Y-67830507D01*
X77750732Y-67067399D01*
X77746304Y-67057690D01*
X77739608Y-67048127D01*
X77731620Y-67041422D01*
X77722342Y-67037577D01*
X77711773Y-67036591D01*
X77699913Y-67038465D01*
X77692177Y-67040961D01*
X77682461Y-67045371D01*
X77672871Y-67051994D01*
X77666118Y-67059853D01*
X77662203Y-67068948D01*
X77661127Y-67079277D01*
X77662888Y-67090841D01*
X77665307Y-67098373D01*
X77743612Y-67305600D01*
X77573855Y-67369746D01*
X77561086Y-67375067D01*
X77548999Y-67381121D01*
X77537594Y-67387909D01*
X77526869Y-67395431D01*
X77516826Y-67403687D01*
X77507464Y-67412678D01*
X77498783Y-67422402D01*
X77490783Y-67432860D01*
X77483465Y-67444052D01*
X77476828Y-67455977D01*
X77472781Y-67464336D01*
X77467444Y-67477129D01*
X77463115Y-67489945D01*
X77459795Y-67502784D01*
X77457484Y-67515645D01*
X77456183Y-67528529D01*
X77455890Y-67541435D01*
X77255123Y-67541435D01*
X77254800Y-67540438D01*
X77250251Y-67530407D01*
X77243426Y-67520502D01*
X77235335Y-67513524D01*
X77225978Y-67509471D01*
X77215356Y-67508345D01*
X77203468Y-67510144D01*
X77195728Y-67512628D01*
X77153231Y-67528686D01*
X77074926Y-67321459D01*
X77070600Y-67312018D01*
X77064011Y-67302739D01*
X77056110Y-67296263D01*
X77046897Y-67292591D01*
X77036372Y-67291722D01*
X77024536Y-67293657D01*
X77016804Y-67296163D01*
X77007141Y-67300553D01*
X76997607Y-67307155D01*
X76990900Y-67314997D01*
X76987020Y-67324078D01*
X76985967Y-67334398D01*
X76987741Y-67345958D01*
X76990162Y-67353489D01*
X77068467Y-67560716D01*
X76941206Y-67608804D01*
X76931558Y-67613233D01*
X76922085Y-67619995D01*
X76915484Y-67628119D01*
X76911757Y-67637605D01*
X76910904Y-67648453D01*
X76619893Y-67648453D01*
X76568625Y-67512775D01*
X76564298Y-67503333D01*
X76557709Y-67494054D01*
X76549809Y-67487579D01*
X76540596Y-67483907D01*
X76530071Y-67483038D01*
X76518234Y-67484972D01*
X76510502Y-67487479D01*
X76500839Y-67491868D01*
X76491306Y-67498471D01*
X76484599Y-67506312D01*
X76480719Y-67515393D01*
X76479665Y-67525714D01*
X76481439Y-67537274D01*
X76483860Y-67544804D01*
X76562165Y-67752032D01*
X76434904Y-67800120D01*
X76425257Y-67804548D01*
X76415783Y-67811310D01*
X76409183Y-67819434D01*
X76405456Y-67828920D01*
X76404602Y-67839769D01*
X75174041Y-67839769D01*
X77817812Y-66840771D01*
X78338732Y-68219346D01*
G37*
D11*
X106991318Y-45276667D02*
X107898461Y-45276667D01*
X107898461Y-45276667D02*
X108079889Y-45216190D01*
X108079889Y-45216190D02*
X108200842Y-45095238D01*
X108200842Y-45095238D02*
X108261318Y-44913809D01*
X108261318Y-44913809D02*
X108261318Y-44792857D01*
X107535603Y-46062857D02*
X107475127Y-45941905D01*
X107475127Y-45941905D02*
X107414651Y-45881428D01*
X107414651Y-45881428D02*
X107293699Y-45820952D01*
X107293699Y-45820952D02*
X107233222Y-45820952D01*
X107233222Y-45820952D02*
X107112270Y-45881428D01*
X107112270Y-45881428D02*
X107051794Y-45941905D01*
X107051794Y-45941905D02*
X106991318Y-46062857D01*
X106991318Y-46062857D02*
X106991318Y-46304762D01*
X106991318Y-46304762D02*
X107051794Y-46425714D01*
X107051794Y-46425714D02*
X107112270Y-46486190D01*
X107112270Y-46486190D02*
X107233222Y-46546667D01*
X107233222Y-46546667D02*
X107293699Y-46546667D01*
X107293699Y-46546667D02*
X107414651Y-46486190D01*
X107414651Y-46486190D02*
X107475127Y-46425714D01*
X107475127Y-46425714D02*
X107535603Y-46304762D01*
X107535603Y-46304762D02*
X107535603Y-46062857D01*
X107535603Y-46062857D02*
X107596080Y-45941905D01*
X107596080Y-45941905D02*
X107656556Y-45881428D01*
X107656556Y-45881428D02*
X107777508Y-45820952D01*
X107777508Y-45820952D02*
X108019413Y-45820952D01*
X108019413Y-45820952D02*
X108140365Y-45881428D01*
X108140365Y-45881428D02*
X108200842Y-45941905D01*
X108200842Y-45941905D02*
X108261318Y-46062857D01*
X108261318Y-46062857D02*
X108261318Y-46304762D01*
X108261318Y-46304762D02*
X108200842Y-46425714D01*
X108200842Y-46425714D02*
X108140365Y-46486190D01*
X108140365Y-46486190D02*
X108019413Y-46546667D01*
X108019413Y-46546667D02*
X107777508Y-46546667D01*
X107777508Y-46546667D02*
X107656556Y-46486190D01*
X107656556Y-46486190D02*
X107596080Y-46425714D01*
X107596080Y-46425714D02*
X107535603Y-46304762D01*
X84323332Y-21404318D02*
X84323332Y-22311461D01*
X84323332Y-22311461D02*
X84383809Y-22492889D01*
X84383809Y-22492889D02*
X84504761Y-22613842D01*
X84504761Y-22613842D02*
X84686190Y-22674318D01*
X84686190Y-22674318D02*
X84807142Y-22674318D01*
X83839523Y-21404318D02*
X83053332Y-21404318D01*
X83053332Y-21404318D02*
X83476666Y-21888127D01*
X83476666Y-21888127D02*
X83295237Y-21888127D01*
X83295237Y-21888127D02*
X83174285Y-21948603D01*
X83174285Y-21948603D02*
X83113809Y-22009080D01*
X83113809Y-22009080D02*
X83053332Y-22130032D01*
X83053332Y-22130032D02*
X83053332Y-22432413D01*
X83053332Y-22432413D02*
X83113809Y-22553365D01*
X83113809Y-22553365D02*
X83174285Y-22613842D01*
X83174285Y-22613842D02*
X83295237Y-22674318D01*
X83295237Y-22674318D02*
X83658094Y-22674318D01*
X83658094Y-22674318D02*
X83779047Y-22613842D01*
X83779047Y-22613842D02*
X83839523Y-22553365D01*
D12*
%TO.C,J8*%
X108975000Y-43000000D02*
X108975000Y-48700000D01*
D13*
X104500000Y-43450000D02*
X104500000Y-43450000D01*
X104400000Y-43450000D02*
X104400000Y-43450000D01*
D12*
X110475000Y-44400000D02*
X110475000Y-45700000D01*
X108975000Y-44400000D02*
X110475000Y-44400000D01*
X110475000Y-45700000D02*
X108975000Y-45700000D01*
D13*
X104400000Y-43450000D02*
G75*
G03*
X104500000Y-43450000I50000J0D01*
G01*
X104500000Y-43450000D02*
G75*
G03*
X104400000Y-43450000I-50000J0D01*
G01*
D12*
%TO.C,J3*%
X81400000Y-21125000D02*
X87100000Y-21125000D01*
D13*
X81850000Y-25600000D02*
X81850000Y-25600000D01*
X81850000Y-25700000D02*
X81850000Y-25700000D01*
D12*
X82800000Y-19625000D02*
X84100000Y-19625000D01*
X82800000Y-21125000D02*
X82800000Y-19625000D01*
X84100000Y-19625000D02*
X84100000Y-21125000D01*
D13*
X81850000Y-25700000D02*
G75*
G03*
X81850000Y-25600000I0J50000D01*
G01*
X81850000Y-25600000D02*
G75*
G03*
X81850000Y-25700000I0J-50000D01*
G01*
%TO.C,G\u002A\u002A\u002A*%
G36*
X59489754Y-66128020D02*
G01*
X59512550Y-66156039D01*
X59537921Y-66192558D01*
X59586175Y-66263249D01*
X59651495Y-66359581D01*
X59728694Y-66473911D01*
X59812593Y-66598593D01*
X59859593Y-66668470D01*
X59973867Y-66837852D01*
X60096961Y-67019741D01*
X60216885Y-67196434D01*
X60321648Y-67350228D01*
X60394969Y-67457691D01*
X60473426Y-67572925D01*
X60540518Y-67671728D01*
X60590842Y-67746139D01*
X60618991Y-67788197D01*
X60623721Y-67795580D01*
X60646848Y-67841234D01*
X60647309Y-67863498D01*
X60644567Y-67864611D01*
X60607570Y-67879752D01*
X60540196Y-67907392D01*
X60454700Y-67942504D01*
X60363599Y-67976096D01*
X60289700Y-67993597D01*
X60252138Y-67988200D01*
X60242456Y-67976121D01*
X60207152Y-67927551D01*
X60150571Y-67847505D01*
X60076218Y-67741098D01*
X59987602Y-67613447D01*
X59888230Y-67469667D01*
X59781609Y-67314874D01*
X59671245Y-67154186D01*
X59560647Y-66992716D01*
X59453321Y-66835583D01*
X59352775Y-66687900D01*
X59262515Y-66554787D01*
X59186049Y-66441356D01*
X59126884Y-66352725D01*
X59088527Y-66294009D01*
X59074486Y-66270326D01*
X59078331Y-66266309D01*
X59115163Y-66246289D01*
X59182763Y-66215069D01*
X59270982Y-66177449D01*
X59365932Y-66139113D01*
X59427187Y-66118605D01*
X59464881Y-66115226D01*
X59489754Y-66128020D01*
G37*
G36*
X73921006Y-60603403D02*
G01*
X73938726Y-60630846D01*
X73981108Y-60693779D01*
X74044877Y-60787409D01*
X74126791Y-60907001D01*
X74223606Y-61047822D01*
X74332080Y-61205138D01*
X74448971Y-61374214D01*
X74558571Y-61532639D01*
X74672748Y-61697899D01*
X74777507Y-61849746D01*
X74869167Y-61982836D01*
X74944044Y-62091820D01*
X74998459Y-62171354D01*
X75028727Y-62216090D01*
X75099841Y-62323187D01*
X74630898Y-62500058D01*
X74620938Y-62503815D01*
X74467188Y-62561981D01*
X74318836Y-62618388D01*
X74185964Y-62669183D01*
X74078654Y-62710511D01*
X74006989Y-62738519D01*
X73852023Y-62800109D01*
X73742292Y-62668065D01*
X73740981Y-62666485D01*
X73685043Y-62596399D01*
X73642883Y-62538596D01*
X73623537Y-62505451D01*
X73623925Y-62501151D01*
X73653101Y-62476307D01*
X73726656Y-62437651D01*
X73845306Y-62384834D01*
X74009770Y-62317507D01*
X74117213Y-62274327D01*
X74234808Y-62226043D01*
X74330208Y-62185713D01*
X74395654Y-62156631D01*
X74423383Y-62142087D01*
X74423347Y-62134093D01*
X74404312Y-62091832D01*
X74363539Y-62020803D01*
X74305398Y-61928412D01*
X74234267Y-61822060D01*
X74152756Y-61703265D01*
X73978787Y-61448422D01*
X73832998Y-61232816D01*
X73715181Y-61056126D01*
X73625128Y-60918035D01*
X73562629Y-60818226D01*
X73527476Y-60756380D01*
X73519461Y-60732179D01*
X73523207Y-60729465D01*
X73561763Y-60709929D01*
X73630583Y-60679159D01*
X73717844Y-60642502D01*
X73772925Y-60620715D01*
X73851815Y-60594673D01*
X73898713Y-60589376D01*
X73921006Y-60603403D01*
G37*
G36*
X69870735Y-62169526D02*
G01*
X70118703Y-62201987D01*
X70352283Y-62281078D01*
X70571157Y-62406664D01*
X70775005Y-62578609D01*
X70906246Y-62729866D01*
X71019129Y-62915199D01*
X71089974Y-63107638D01*
X71117551Y-63302048D01*
X71100629Y-63493290D01*
X71037979Y-63676228D01*
X71024087Y-63702641D01*
X70951082Y-63804777D01*
X70839603Y-63919121D01*
X70773714Y-63975300D01*
X70607471Y-64078599D01*
X70418781Y-64144415D01*
X70200204Y-64175732D01*
X70193424Y-64176096D01*
X70105434Y-64173083D01*
X69998677Y-64159473D01*
X69886642Y-64138185D01*
X69782820Y-64112139D01*
X69700700Y-64084257D01*
X69653772Y-64057456D01*
X69653290Y-64056820D01*
X69655912Y-64026062D01*
X69674376Y-63964153D01*
X69704958Y-63883736D01*
X69770755Y-63724892D01*
X69895238Y-63765644D01*
X69914618Y-63771672D01*
X70076637Y-63798933D01*
X70234114Y-63787162D01*
X70376626Y-63738295D01*
X70493746Y-63654276D01*
X70555619Y-63579948D01*
X70618818Y-63447448D01*
X70638305Y-63302710D01*
X70614432Y-63150877D01*
X70547556Y-62997094D01*
X70438031Y-62846505D01*
X70360839Y-62765367D01*
X70253061Y-62677575D01*
X70135211Y-62616305D01*
X69989706Y-62570741D01*
X69836808Y-62551592D01*
X69676831Y-62573184D01*
X69532036Y-62636059D01*
X69409878Y-62736872D01*
X69317810Y-62872277D01*
X69266049Y-62977542D01*
X69063929Y-62914412D01*
X69025845Y-62902377D01*
X68939675Y-62873981D01*
X68877309Y-62851750D01*
X68850218Y-62839694D01*
X68849762Y-62828658D01*
X68864721Y-62784276D01*
X68894896Y-62720309D01*
X68909466Y-62693193D01*
X69037778Y-62506736D01*
X69193772Y-62360380D01*
X69376324Y-62254798D01*
X69584308Y-62190663D01*
X69816602Y-62168648D01*
X69870735Y-62169526D01*
G37*
G36*
X74054532Y-54736661D02*
G01*
X74380865Y-54801795D01*
X74701898Y-54910679D01*
X75012724Y-55062060D01*
X75308445Y-55254684D01*
X75447194Y-55364249D01*
X75685808Y-55592798D01*
X75884511Y-55844893D01*
X76047385Y-56126105D01*
X76178513Y-56442003D01*
X76187829Y-56468995D01*
X76233347Y-56612487D01*
X76262330Y-56733910D01*
X76278507Y-56852240D01*
X76285614Y-56986447D01*
X76286906Y-57064927D01*
X76281955Y-57237187D01*
X76262885Y-57386819D01*
X76226745Y-57531862D01*
X76170592Y-57690352D01*
X76160359Y-57716264D01*
X76116907Y-57819973D01*
X76084539Y-57883186D01*
X76060243Y-57910977D01*
X76040999Y-57908420D01*
X76034212Y-57902717D01*
X75995049Y-57870550D01*
X75926346Y-57814429D01*
X75833670Y-57738890D01*
X75722585Y-57648474D01*
X75598660Y-57547719D01*
X75533789Y-57494852D01*
X75417026Y-57398862D01*
X75316787Y-57315370D01*
X75238452Y-57248914D01*
X75187396Y-57204029D01*
X75169000Y-57185253D01*
X75176729Y-57171802D01*
X75208661Y-57126253D01*
X75259467Y-57056877D01*
X75322770Y-56972091D01*
X75392194Y-56880312D01*
X75461362Y-56789958D01*
X75523899Y-56709444D01*
X75573427Y-56647188D01*
X75603570Y-56611608D01*
X75608376Y-56590837D01*
X75583873Y-56558893D01*
X75523651Y-56508830D01*
X75463981Y-56463221D01*
X75371968Y-56393387D01*
X75253695Y-56303929D01*
X75113512Y-56198116D01*
X74955770Y-56079216D01*
X74784821Y-55950497D01*
X74605014Y-55815229D01*
X74420703Y-55676677D01*
X74236237Y-55538114D01*
X74055968Y-55402804D01*
X73884247Y-55274019D01*
X73725426Y-55155025D01*
X73583855Y-55049090D01*
X73463885Y-54959485D01*
X73369869Y-54889477D01*
X73306155Y-54842333D01*
X73277097Y-54821323D01*
X73211603Y-54777660D01*
X73346755Y-54752681D01*
X73405559Y-54742663D01*
X73727796Y-54716532D01*
X74054532Y-54736661D01*
G37*
G36*
X50312888Y-63596456D02*
G01*
X50333258Y-63616477D01*
X50375268Y-63669457D01*
X50439409Y-63756103D01*
X50526167Y-63877116D01*
X50636029Y-64033201D01*
X50769484Y-64225062D01*
X50927017Y-64453402D01*
X51109119Y-64718926D01*
X51316276Y-65022335D01*
X51548975Y-65364336D01*
X51807705Y-65745631D01*
X52092952Y-66166925D01*
X52178104Y-66292783D01*
X52302156Y-66476048D01*
X52417343Y-66646115D01*
X52520585Y-66798439D01*
X52608799Y-66928477D01*
X52678903Y-67031682D01*
X52727814Y-67103509D01*
X52752450Y-67139415D01*
X52762301Y-67153821D01*
X52790775Y-67200387D01*
X52798747Y-67222641D01*
X52784988Y-67228917D01*
X52732118Y-67250191D01*
X52646860Y-67283440D01*
X52536887Y-67325678D01*
X52409875Y-67373921D01*
X52331088Y-67403754D01*
X52193831Y-67455996D01*
X52068470Y-67504028D01*
X51966281Y-67543521D01*
X51898537Y-67570150D01*
X51842185Y-67590450D01*
X51781988Y-67605731D01*
X51751696Y-67604642D01*
X51734678Y-67581505D01*
X51692412Y-67521114D01*
X51627239Y-67426862D01*
X51541420Y-67302067D01*
X51437221Y-67150052D01*
X51316905Y-66974134D01*
X51182736Y-66777636D01*
X51036978Y-66563875D01*
X50881895Y-66336175D01*
X50719751Y-66097853D01*
X50552809Y-65852231D01*
X50383334Y-65602628D01*
X50213590Y-65352365D01*
X50045841Y-65104762D01*
X49882349Y-64863139D01*
X49804939Y-64748296D01*
X49686925Y-64571742D01*
X49580168Y-64410234D01*
X49487386Y-64267984D01*
X49411296Y-64149207D01*
X49354613Y-64058117D01*
X49320056Y-63998929D01*
X49310341Y-63975856D01*
X49336263Y-63962765D01*
X49400246Y-63935796D01*
X49493815Y-63898290D01*
X49608673Y-63853390D01*
X49736524Y-63804241D01*
X49869071Y-63753989D01*
X49998016Y-63705777D01*
X50115065Y-63662751D01*
X50211920Y-63628055D01*
X50280283Y-63604835D01*
X50311859Y-63596236D01*
X50312888Y-63596456D01*
G37*
G36*
X64079279Y-64500780D02*
G01*
X64284423Y-64560080D01*
X64474627Y-64650428D01*
X64620557Y-64749881D01*
X64646216Y-64767369D01*
X64795515Y-64906450D01*
X64918853Y-65063218D01*
X65012556Y-65233221D01*
X65072948Y-65412005D01*
X65096357Y-65595118D01*
X65079110Y-65778105D01*
X65017531Y-65956515D01*
X65011351Y-65968919D01*
X64905596Y-66124717D01*
X64764484Y-66253883D01*
X64594700Y-66353975D01*
X64402934Y-66422550D01*
X64195874Y-66457167D01*
X63980208Y-66455382D01*
X63762625Y-66414754D01*
X63636868Y-66372721D01*
X63432180Y-66272552D01*
X63252852Y-66143735D01*
X63102160Y-65991393D01*
X62983385Y-65820651D01*
X62899805Y-65636629D01*
X62854699Y-65444452D01*
X62851614Y-65264862D01*
X63325043Y-65264862D01*
X63326773Y-65390303D01*
X63354021Y-65525280D01*
X63402746Y-65647188D01*
X63404300Y-65650042D01*
X63473871Y-65748861D01*
X63571304Y-65852341D01*
X63680586Y-65945213D01*
X63785700Y-66012215D01*
X63789266Y-66013980D01*
X63909598Y-66054956D01*
X64049097Y-66075398D01*
X64187358Y-66073860D01*
X64303982Y-66048899D01*
X64386854Y-66008620D01*
X64498743Y-65915337D01*
X64577309Y-65795633D01*
X64617378Y-65658461D01*
X64613776Y-65512777D01*
X64606398Y-65477392D01*
X64546016Y-65307984D01*
X64452514Y-65160302D01*
X64332465Y-65037973D01*
X64192442Y-64944624D01*
X64039017Y-64883883D01*
X63878764Y-64859375D01*
X63718256Y-64874728D01*
X63564065Y-64933568D01*
X63459736Y-65005389D01*
X63375028Y-65108694D01*
X63329306Y-65236423D01*
X63325043Y-65264862D01*
X62851614Y-65264862D01*
X62851346Y-65249241D01*
X62893024Y-65056121D01*
X62916343Y-64992282D01*
X62943338Y-64936538D01*
X62979939Y-64885750D01*
X63035221Y-64827571D01*
X63118257Y-64749653D01*
X63201684Y-64677107D01*
X63332009Y-64585920D01*
X63464859Y-64526192D01*
X63615022Y-64491993D01*
X63797291Y-64477392D01*
X63862866Y-64476978D01*
X64079279Y-64500780D01*
G37*
G36*
X72020935Y-55997545D02*
G01*
X72097735Y-56050334D01*
X72222422Y-56137829D01*
X72329043Y-56214914D01*
X72411963Y-56277403D01*
X72465552Y-56321110D01*
X72484171Y-56341847D01*
X72482675Y-56354550D01*
X72475155Y-56408481D01*
X72464166Y-56481735D01*
X72460882Y-56510250D01*
X72460020Y-56614361D01*
X72472010Y-56713762D01*
X72479997Y-56754010D01*
X72490562Y-56822299D01*
X72492614Y-56862531D01*
X72487444Y-56873427D01*
X72454738Y-56916323D01*
X72399018Y-56979196D01*
X72328390Y-57052659D01*
X72322659Y-57058416D01*
X72248233Y-57135502D01*
X72205077Y-57186734D01*
X72188484Y-57218580D01*
X72193742Y-57237501D01*
X72209761Y-57251239D01*
X72262598Y-57288396D01*
X72348298Y-57342854D01*
X72468870Y-57415816D01*
X72626324Y-57508492D01*
X72822671Y-57622089D01*
X73059919Y-57757814D01*
X73151530Y-57810113D01*
X73326243Y-57910367D01*
X73500638Y-58011026D01*
X73664168Y-58105975D01*
X73806282Y-58189101D01*
X73916431Y-58254287D01*
X73954645Y-58276951D01*
X74099972Y-58361067D01*
X74265691Y-58454557D01*
X74434194Y-58547563D01*
X74587877Y-58630227D01*
X74683197Y-58680702D01*
X74792270Y-58738730D01*
X74879651Y-58785529D01*
X74938165Y-58817253D01*
X74960637Y-58830055D01*
X74962095Y-58838380D01*
X74943809Y-58851348D01*
X74896479Y-58872432D01*
X74811675Y-58905925D01*
X74632235Y-58963152D01*
X74383158Y-59013905D01*
X74114767Y-59042627D01*
X73840803Y-59048546D01*
X73575011Y-59030894D01*
X73331129Y-58988898D01*
X73318448Y-58985845D01*
X72976841Y-58879836D01*
X72656769Y-58734810D01*
X72361434Y-58554037D01*
X72094028Y-58340781D01*
X71857754Y-58098309D01*
X71655805Y-57829888D01*
X71491380Y-57538784D01*
X71367676Y-57228263D01*
X71287893Y-56901593D01*
X71280326Y-56851687D01*
X71266583Y-56617938D01*
X71284514Y-56379019D01*
X71331822Y-56147064D01*
X71406210Y-55934205D01*
X71505382Y-55752576D01*
X71555197Y-55679754D01*
X72020935Y-55997545D01*
G37*
G36*
X58188738Y-66744236D02*
G01*
X58399375Y-66802409D01*
X58593494Y-66891600D01*
X58768060Y-67007327D01*
X58920041Y-67145105D01*
X59046406Y-67300450D01*
X59144119Y-67468877D01*
X59210148Y-67645904D01*
X59241459Y-67827044D01*
X59235020Y-68007814D01*
X59187797Y-68183730D01*
X59096759Y-68350308D01*
X59076823Y-68378414D01*
X59041114Y-68429003D01*
X59023474Y-68454373D01*
X59013270Y-68466181D01*
X58961975Y-68506432D01*
X58883963Y-68556250D01*
X58791996Y-68608255D01*
X58698837Y-68655064D01*
X58617247Y-68689298D01*
X58576450Y-68702123D01*
X58421419Y-68730108D01*
X58245569Y-68737230D01*
X58066747Y-68723496D01*
X57902798Y-68688917D01*
X57764706Y-68647647D01*
X57823638Y-68475879D01*
X57841255Y-68425024D01*
X57866741Y-68358080D01*
X57886599Y-68323839D01*
X57907146Y-68313289D01*
X57934696Y-68317418D01*
X58060202Y-68342119D01*
X58218864Y-68354697D01*
X58357112Y-68345188D01*
X58442657Y-68323500D01*
X58517015Y-68285100D01*
X58600189Y-68219195D01*
X58640354Y-68182831D01*
X58693984Y-68125099D01*
X58726522Y-68068299D01*
X58750127Y-67994183D01*
X58765423Y-67871861D01*
X58745707Y-67716135D01*
X58688155Y-67560855D01*
X58596804Y-67416339D01*
X58475692Y-67292905D01*
X58370012Y-67220437D01*
X58215832Y-67152962D01*
X58056516Y-67120390D01*
X57899544Y-67121631D01*
X57752402Y-67155596D01*
X57622573Y-67221195D01*
X57517541Y-67317340D01*
X57444792Y-67442941D01*
X57426213Y-67489301D01*
X57402858Y-67541863D01*
X57390462Y-67561851D01*
X57383877Y-67560059D01*
X57340767Y-67546948D01*
X57267128Y-67523994D01*
X57173902Y-67494594D01*
X57111750Y-67474826D01*
X57030592Y-67445355D01*
X56988231Y-67416557D01*
X56979824Y-67378726D01*
X57000531Y-67322158D01*
X57045511Y-67237143D01*
X57066959Y-67200325D01*
X57147158Y-67094196D01*
X57261641Y-66980482D01*
X57366634Y-66897127D01*
X57557181Y-66793945D01*
X57766868Y-66735696D01*
X57995656Y-66722397D01*
X58188738Y-66744236D01*
G37*
G36*
X68354631Y-62718257D02*
G01*
X68394775Y-62764535D01*
X68447001Y-62843610D01*
X68454390Y-62855025D01*
X68500642Y-62927289D01*
X68533623Y-62980189D01*
X68546607Y-63002964D01*
X68546583Y-63003137D01*
X68523812Y-63015156D01*
X68464518Y-63040718D01*
X68377421Y-63076184D01*
X68271239Y-63117916D01*
X68260364Y-63122128D01*
X68146333Y-63167366D01*
X68071294Y-63200264D01*
X68028712Y-63224477D01*
X68012045Y-63243670D01*
X68014756Y-63261501D01*
X68022975Y-63274605D01*
X68056989Y-63324967D01*
X68111030Y-63402987D01*
X68179689Y-63500880D01*
X68257556Y-63610862D01*
X68347307Y-63737456D01*
X68453836Y-63888586D01*
X68559727Y-64039626D01*
X68661039Y-64184895D01*
X68753834Y-64318711D01*
X68834172Y-64435386D01*
X68898113Y-64529240D01*
X68941717Y-64594588D01*
X68961045Y-64625747D01*
X68963030Y-64633255D01*
X68954562Y-64649447D01*
X68924245Y-64669317D01*
X68865962Y-64695824D01*
X68773595Y-64731926D01*
X68641028Y-64780585D01*
X68631418Y-64784025D01*
X68594650Y-64793933D01*
X68564910Y-64788926D01*
X68533826Y-64762469D01*
X68493024Y-64708026D01*
X68434135Y-64619061D01*
X68409895Y-64582210D01*
X68340520Y-64478849D01*
X68257502Y-64357341D01*
X68164975Y-64223525D01*
X68067072Y-64083239D01*
X67967925Y-63942323D01*
X67871671Y-63806612D01*
X67782441Y-63681948D01*
X67704370Y-63574166D01*
X67641591Y-63489107D01*
X67598239Y-63432608D01*
X67578447Y-63410508D01*
X67554761Y-63412356D01*
X67493257Y-63429248D01*
X67405680Y-63459102D01*
X67302428Y-63498602D01*
X67216075Y-63532767D01*
X67130306Y-63565470D01*
X67070940Y-63586630D01*
X67047380Y-63592775D01*
X67046903Y-63592233D01*
X67029027Y-63567035D01*
X66993329Y-63514704D01*
X66948152Y-63447625D01*
X66901841Y-63378177D01*
X66862736Y-63318743D01*
X66848779Y-63284113D01*
X66860729Y-63257885D01*
X66876124Y-63251849D01*
X66932923Y-63229691D01*
X67024153Y-63194151D01*
X67143141Y-63147828D01*
X67283207Y-63093324D01*
X67437677Y-63033236D01*
X67523192Y-62999935D01*
X67684033Y-62937080D01*
X67833924Y-62878236D01*
X67964214Y-62826811D01*
X68066254Y-62786213D01*
X68131396Y-62759852D01*
X68175811Y-62741481D01*
X68258238Y-62710205D01*
X68313481Y-62701305D01*
X68354631Y-62718257D01*
G37*
G36*
X56174870Y-67465264D02*
G01*
X56346396Y-67526462D01*
X56503243Y-67632087D01*
X56617359Y-67749321D01*
X56692955Y-67875518D01*
X56731513Y-68016810D01*
X56736311Y-68074196D01*
X56728464Y-68147478D01*
X56700450Y-68222862D01*
X56648223Y-68307978D01*
X56567734Y-68410454D01*
X56454933Y-68537917D01*
X56430922Y-68564187D01*
X56349249Y-68654406D01*
X56294374Y-68718486D01*
X56261239Y-68764347D01*
X56244783Y-68799912D01*
X56239948Y-68833105D01*
X56241674Y-68871844D01*
X56260488Y-68948272D01*
X56310430Y-69009941D01*
X56383809Y-69041911D01*
X56473707Y-69045867D01*
X56573213Y-69023492D01*
X56675409Y-68976471D01*
X56773381Y-68906491D01*
X56860214Y-68815235D01*
X56928992Y-68704387D01*
X56944324Y-68674790D01*
X56978007Y-68624066D01*
X57003282Y-68604192D01*
X57008076Y-68604880D01*
X57050892Y-68618555D01*
X57122493Y-68646131D01*
X57210275Y-68682820D01*
X57241695Y-68696427D01*
X57325496Y-68735715D01*
X57369558Y-68769982D01*
X57377709Y-68810760D01*
X57353773Y-68869583D01*
X57301579Y-68957981D01*
X57211703Y-69081788D01*
X57058696Y-69225202D01*
X56878978Y-69332847D01*
X56680057Y-69400517D01*
X56469443Y-69424008D01*
X56369761Y-69416733D01*
X56208404Y-69374426D01*
X56060553Y-69299679D01*
X55933266Y-69198595D01*
X55833605Y-69077274D01*
X55768630Y-68941817D01*
X55745403Y-68798327D01*
X55749913Y-68732235D01*
X55774726Y-68640093D01*
X55825410Y-68544870D01*
X55906699Y-68438283D01*
X56023327Y-68312050D01*
X56046224Y-68288555D01*
X56133047Y-68195862D01*
X56189832Y-68125604D01*
X56221667Y-68069251D01*
X56233640Y-68018274D01*
X56230837Y-67964143D01*
X56220038Y-67915243D01*
X56193088Y-67877356D01*
X56135951Y-67843181D01*
X56116672Y-67834788D01*
X56019225Y-67822375D01*
X55911654Y-67848386D01*
X55802915Y-67908201D01*
X55701967Y-67997192D01*
X55617761Y-68110737D01*
X55551123Y-68224423D01*
X55434369Y-68165165D01*
X55392796Y-68144748D01*
X55310748Y-68107644D01*
X55247119Y-68082745D01*
X55208498Y-68068214D01*
X55186516Y-68046302D01*
X55192090Y-68008497D01*
X55214084Y-67959334D01*
X55269999Y-67874030D01*
X55345619Y-67780738D01*
X55430148Y-67692462D01*
X55512792Y-67622204D01*
X55629679Y-67548804D01*
X55810764Y-67476378D01*
X55994410Y-67448550D01*
X56174870Y-67465264D01*
G37*
G36*
X72141447Y-61247988D02*
G01*
X72168077Y-61275308D01*
X72215898Y-61336168D01*
X72280424Y-61424464D01*
X72357166Y-61534090D01*
X72441639Y-61658938D01*
X72528625Y-61788529D01*
X72650235Y-61967417D01*
X72780513Y-62157090D01*
X72908638Y-62341802D01*
X73023788Y-62505812D01*
X73060309Y-62557451D01*
X73148113Y-62681984D01*
X73224890Y-62791414D01*
X73286327Y-62879561D01*
X73328109Y-62940246D01*
X73345923Y-62967287D01*
X73346349Y-62969412D01*
X73335033Y-62981956D01*
X73300758Y-63001884D01*
X73240661Y-63030374D01*
X73151879Y-63068600D01*
X73031545Y-63117739D01*
X72876797Y-63178965D01*
X72684772Y-63253454D01*
X72452604Y-63342382D01*
X72177430Y-63446925D01*
X72086719Y-63476737D01*
X72017999Y-63490318D01*
X71982680Y-63485316D01*
X71960858Y-63458972D01*
X71918776Y-63402398D01*
X71868435Y-63331052D01*
X71779849Y-63202447D01*
X71891346Y-63155362D01*
X71913229Y-63146183D01*
X71991501Y-63113713D01*
X72098950Y-63069438D01*
X72224340Y-63017982D01*
X72356436Y-62963969D01*
X72428836Y-62933994D01*
X72540303Y-62885972D01*
X72629468Y-62845161D01*
X72688625Y-62815144D01*
X72710066Y-62799507D01*
X72707243Y-62791235D01*
X72683237Y-62748885D01*
X72640018Y-62681699D01*
X72584015Y-62599863D01*
X72457925Y-62420372D01*
X72154709Y-62533220D01*
X72149859Y-62535025D01*
X72023939Y-62582186D01*
X71903514Y-62627775D01*
X71802027Y-62666675D01*
X71732919Y-62693770D01*
X71686415Y-62710469D01*
X71632236Y-62723033D01*
X71608864Y-62718245D01*
X71595504Y-62692411D01*
X71560342Y-62637758D01*
X71511969Y-62568512D01*
X71468408Y-62506403D01*
X71433814Y-62453106D01*
X71420555Y-62426996D01*
X71426906Y-62421604D01*
X71469569Y-62399769D01*
X71545757Y-62365512D01*
X71647667Y-62322283D01*
X71767496Y-62273535D01*
X71839022Y-62245120D01*
X71977339Y-62190195D01*
X72076898Y-62148201D01*
X72141870Y-62114392D01*
X72176423Y-62084019D01*
X72184728Y-62052335D01*
X72170955Y-62014592D01*
X72139273Y-61966042D01*
X72093852Y-61901939D01*
X71973643Y-61728444D01*
X71497613Y-61903134D01*
X71335592Y-61961449D01*
X71193640Y-62009429D01*
X71092913Y-62039146D01*
X71031484Y-62051163D01*
X71007426Y-62046040D01*
X70990143Y-62016011D01*
X70951770Y-61956973D01*
X70902235Y-61884827D01*
X70811200Y-61755401D01*
X71176627Y-61614272D01*
X71210238Y-61601280D01*
X71369587Y-61539420D01*
X71537400Y-61473924D01*
X71695654Y-61411842D01*
X71826330Y-61360216D01*
X71834648Y-61356917D01*
X71944586Y-61314204D01*
X72038426Y-61279316D01*
X72106452Y-61255769D01*
X72138941Y-61247083D01*
X72141447Y-61247988D01*
G37*
G36*
X61821325Y-65217214D02*
G01*
X61856454Y-65265685D01*
X61912915Y-65345216D01*
X61987225Y-65450789D01*
X62075901Y-65577383D01*
X62175459Y-65719981D01*
X62282416Y-65873564D01*
X62393288Y-66033112D01*
X62504593Y-66193610D01*
X62612845Y-66350035D01*
X62714564Y-66497371D01*
X62806264Y-66630596D01*
X62884462Y-66744695D01*
X62945675Y-66834648D01*
X62986420Y-66895436D01*
X63003213Y-66922040D01*
X63004331Y-66927530D01*
X62985048Y-66951029D01*
X62926345Y-66982195D01*
X62824276Y-67023263D01*
X62790584Y-67035888D01*
X62708855Y-67066772D01*
X62651358Y-67088887D01*
X62628869Y-67098104D01*
X62616260Y-67081576D01*
X62579439Y-67029842D01*
X62522061Y-66948032D01*
X62447781Y-66841377D01*
X62360252Y-66715108D01*
X62263126Y-66574456D01*
X62173881Y-66445342D01*
X62081932Y-66313116D01*
X62001512Y-66198310D01*
X61936645Y-66106641D01*
X61891356Y-66043825D01*
X61869667Y-66015576D01*
X61869289Y-66015171D01*
X61860556Y-66004612D01*
X61853466Y-65996989D01*
X61847415Y-65996873D01*
X61841795Y-66008835D01*
X61835999Y-66037446D01*
X61829419Y-66087278D01*
X61821448Y-66162901D01*
X61811480Y-66268884D01*
X61798907Y-66409800D01*
X61783122Y-66590221D01*
X61763517Y-66814714D01*
X61706379Y-67467353D01*
X61539333Y-67527897D01*
X61456217Y-67556264D01*
X61398847Y-67569199D01*
X61365085Y-67564278D01*
X61343886Y-67542317D01*
X61339869Y-67536144D01*
X61310769Y-67493439D01*
X61257872Y-67416891D01*
X61184329Y-67311025D01*
X61093292Y-67180364D01*
X60987912Y-67029434D01*
X60871339Y-66862759D01*
X60746725Y-66684865D01*
X60697668Y-66614829D01*
X60577542Y-66442841D01*
X60467779Y-66284995D01*
X60371337Y-66145594D01*
X60291175Y-66028936D01*
X60230254Y-65939320D01*
X60191530Y-65881047D01*
X60177965Y-65858417D01*
X60196441Y-65845257D01*
X60248479Y-65819969D01*
X60321147Y-65788252D01*
X60401420Y-65755421D01*
X60476280Y-65726792D01*
X60532708Y-65707679D01*
X60557682Y-65703399D01*
X60565988Y-65714716D01*
X60598129Y-65760369D01*
X60649886Y-65834618D01*
X60716518Y-65930655D01*
X60793283Y-66041669D01*
X60942564Y-66256644D01*
X61072429Y-66440803D01*
X61175964Y-66584128D01*
X61253129Y-66686568D01*
X61303887Y-66748070D01*
X61328197Y-66768582D01*
X61333960Y-66763908D01*
X61345002Y-66725215D01*
X61350889Y-66660151D01*
X61352627Y-66626510D01*
X61358450Y-66542825D01*
X61367619Y-66424354D01*
X61379480Y-66279229D01*
X61393380Y-66115584D01*
X61408663Y-65941551D01*
X61463134Y-65331385D01*
X61633599Y-65268462D01*
X61647384Y-65263377D01*
X61727942Y-65233824D01*
X61786384Y-65212655D01*
X61810869Y-65204166D01*
X61821325Y-65217214D01*
G37*
G36*
X61162785Y-59480787D02*
G01*
X61195430Y-59525783D01*
X61248929Y-59601714D01*
X61319467Y-59703117D01*
X61403229Y-59824530D01*
X61496400Y-59960491D01*
X61588819Y-60095488D01*
X61713622Y-60277200D01*
X61851443Y-60477379D01*
X61994344Y-60684509D01*
X62134387Y-60887071D01*
X62263629Y-61073546D01*
X62279714Y-61096726D01*
X62382840Y-61245698D01*
X62497937Y-61412476D01*
X62621698Y-61592224D01*
X62750817Y-61780108D01*
X62881983Y-61971291D01*
X63011892Y-62160938D01*
X63137234Y-62344214D01*
X63254704Y-62516283D01*
X63360992Y-62672309D01*
X63452793Y-62807458D01*
X63526797Y-62916892D01*
X63579698Y-62995778D01*
X63608188Y-63039280D01*
X63621540Y-63074564D01*
X63609981Y-63101310D01*
X63575415Y-63114966D01*
X63500229Y-63144025D01*
X63390025Y-63186349D01*
X63250175Y-63239889D01*
X63086056Y-63302601D01*
X62903040Y-63372439D01*
X62706499Y-63447357D01*
X62501808Y-63525312D01*
X62294340Y-63604254D01*
X62089469Y-63682143D01*
X61892570Y-63756928D01*
X61709013Y-63826567D01*
X61544176Y-63889013D01*
X61403429Y-63942220D01*
X61292147Y-63984144D01*
X61215704Y-64012739D01*
X61158003Y-64034162D01*
X61045739Y-64075853D01*
X60954848Y-64109619D01*
X60893470Y-64132437D01*
X60869746Y-64141282D01*
X60855333Y-64124762D01*
X60818128Y-64074969D01*
X60763288Y-63999089D01*
X60695890Y-63904386D01*
X60621009Y-63798123D01*
X60543723Y-63687561D01*
X60469105Y-63579964D01*
X60402233Y-63482593D01*
X60348184Y-63402712D01*
X60312032Y-63347582D01*
X60298853Y-63324467D01*
X60311988Y-63310619D01*
X60355224Y-63291973D01*
X60381284Y-63282983D01*
X60449871Y-63257527D01*
X60548564Y-63219914D01*
X60668541Y-63173511D01*
X60800976Y-63121692D01*
X60857119Y-63099604D01*
X61035284Y-63029548D01*
X61231477Y-62952445D01*
X61425550Y-62876209D01*
X61597354Y-62808762D01*
X61638221Y-62792635D01*
X61797736Y-62727299D01*
X61910738Y-62676405D01*
X61977182Y-62639974D01*
X61997027Y-62618025D01*
X61991867Y-62606828D01*
X61963078Y-62559129D01*
X61913700Y-62483366D01*
X61848803Y-62387244D01*
X61773461Y-62278464D01*
X61673841Y-62136239D01*
X61413738Y-61764004D01*
X61176018Y-61422432D01*
X60961290Y-61112426D01*
X60770166Y-60834886D01*
X60603257Y-60590713D01*
X60461173Y-60380809D01*
X60344526Y-60206074D01*
X60253929Y-60067409D01*
X60189992Y-59965716D01*
X60153324Y-59901896D01*
X60144539Y-59876850D01*
X60163012Y-59866342D01*
X60221749Y-59840051D01*
X60312205Y-59802649D01*
X60426355Y-59757437D01*
X60556173Y-59707709D01*
X60646051Y-59673665D01*
X60779020Y-59622719D01*
X60896924Y-59576879D01*
X60989530Y-59540136D01*
X61046605Y-59516479D01*
X61076613Y-59503352D01*
X61130157Y-59480343D01*
X61154310Y-59470616D01*
X61162785Y-59480787D01*
G37*
G36*
X66437963Y-63686836D02*
G01*
X66530963Y-63823248D01*
X66603637Y-63929399D01*
X66714710Y-64090557D01*
X66835697Y-64265148D01*
X66956272Y-64438282D01*
X67066111Y-64595070D01*
X67079647Y-64614323D01*
X67172580Y-64746811D01*
X67259933Y-64871843D01*
X67336062Y-64981305D01*
X67395321Y-65067082D01*
X67432064Y-65121060D01*
X67456708Y-65160501D01*
X67482512Y-65217297D01*
X67477683Y-65243573D01*
X67474402Y-65244965D01*
X67432570Y-65261615D01*
X67360859Y-65289426D01*
X67272687Y-65323186D01*
X67095665Y-65390578D01*
X66924647Y-65140431D01*
X66855755Y-65039685D01*
X66792835Y-64947711D01*
X66743605Y-64875789D01*
X66715003Y-64834056D01*
X66698368Y-64812601D01*
X66668839Y-64794877D01*
X66623597Y-64797734D01*
X66547810Y-64819918D01*
X66495388Y-64837950D01*
X66433949Y-64861876D01*
X66403631Y-64877617D01*
X66401322Y-64886321D01*
X66399843Y-64935821D01*
X66402307Y-65020706D01*
X66408388Y-65132123D01*
X66417760Y-65261222D01*
X66428320Y-65407097D01*
X66432805Y-65515654D01*
X66430607Y-65588271D01*
X66421526Y-65631289D01*
X66405361Y-65651051D01*
X66398403Y-65654422D01*
X66346902Y-65676181D01*
X66267174Y-65707486D01*
X66173323Y-65742760D01*
X65983420Y-65812637D01*
X65971940Y-65406526D01*
X65960458Y-65000416D01*
X65823650Y-64982052D01*
X65809521Y-64980088D01*
X65654560Y-64945978D01*
X65523121Y-64887466D01*
X65393756Y-64795227D01*
X65336550Y-64742440D01*
X65235993Y-64613140D01*
X65168770Y-64470291D01*
X65141793Y-64343824D01*
X65599794Y-64343824D01*
X65608904Y-64394887D01*
X65638105Y-64442038D01*
X65695664Y-64503393D01*
X65700709Y-64508403D01*
X65780768Y-64575730D01*
X65860461Y-64613321D01*
X65950359Y-64622337D01*
X66061032Y-64603946D01*
X66203052Y-64559312D01*
X66254770Y-64540633D01*
X66342128Y-64507670D01*
X66405444Y-64481881D01*
X66433656Y-64467658D01*
X66432210Y-64455321D01*
X66409697Y-64409556D01*
X66367301Y-64339448D01*
X66310346Y-64254209D01*
X66274728Y-64202470D01*
X66217072Y-64116166D01*
X66172770Y-64046594D01*
X66149292Y-64005296D01*
X66137961Y-63986839D01*
X66115558Y-63975730D01*
X66075444Y-63979120D01*
X66008350Y-63998087D01*
X65905011Y-64033707D01*
X65851611Y-64053402D01*
X65757279Y-64091777D01*
X65684332Y-64126116D01*
X65645267Y-64150784D01*
X65636401Y-64162295D01*
X65613166Y-64220683D01*
X65600953Y-64295883D01*
X65599794Y-64343824D01*
X65141793Y-64343824D01*
X65137346Y-64322978D01*
X65144190Y-64180288D01*
X65191768Y-64051306D01*
X65237722Y-63982953D01*
X65298060Y-63919448D01*
X65377486Y-63860315D01*
X65482976Y-63801127D01*
X65621502Y-63737451D01*
X65800042Y-63664856D01*
X65878415Y-63634139D01*
X66001881Y-63585433D01*
X66107627Y-63543334D01*
X66186383Y-63511541D01*
X66228882Y-63493751D01*
X66288175Y-63467124D01*
X66437963Y-63686836D01*
G37*
G36*
X75835260Y-59857839D02*
G01*
X75847618Y-59871146D01*
X75860380Y-59891411D01*
X75898878Y-59949263D01*
X75958086Y-60036693D01*
X76033885Y-60147660D01*
X76122167Y-60276125D01*
X76218814Y-60416049D01*
X76245367Y-60454400D01*
X76415334Y-60699946D01*
X76559430Y-60908257D01*
X76679395Y-61081860D01*
X76776967Y-61223282D01*
X76853884Y-61335049D01*
X76911888Y-61419688D01*
X76952715Y-61479725D01*
X76978107Y-61517684D01*
X76989801Y-61536096D01*
X76994584Y-61547047D01*
X76991862Y-61577210D01*
X76987759Y-61579673D01*
X76947770Y-61597516D01*
X76871391Y-61629085D01*
X76765492Y-61671613D01*
X76636942Y-61722331D01*
X76492612Y-61778468D01*
X76467344Y-61788232D01*
X76311162Y-61848667D01*
X76161087Y-61906870D01*
X76026986Y-61959006D01*
X75918727Y-62001241D01*
X75846175Y-62029736D01*
X75839379Y-62032408D01*
X75759531Y-62061019D01*
X75699620Y-62077600D01*
X75672163Y-62078632D01*
X75672086Y-62078546D01*
X75651072Y-62052750D01*
X75609094Y-61999910D01*
X75555161Y-61931361D01*
X75544396Y-61917586D01*
X75495529Y-61852198D01*
X75473685Y-61812601D01*
X75475181Y-61788729D01*
X75496338Y-61770517D01*
X75501782Y-61767502D01*
X75546868Y-61746403D01*
X75626335Y-61711413D01*
X75731778Y-61666078D01*
X75854795Y-61613948D01*
X75986981Y-61558563D01*
X76119935Y-61503473D01*
X76245250Y-61452226D01*
X76354524Y-61408365D01*
X76361500Y-61404978D01*
X76369150Y-61393063D01*
X76362612Y-61369571D01*
X76338151Y-61327595D01*
X76292030Y-61260227D01*
X76220515Y-61160558D01*
X76218405Y-61157651D01*
X76165052Y-61089410D01*
X76120035Y-61040925D01*
X76092903Y-61022523D01*
X76083469Y-61024225D01*
X76034031Y-61039159D01*
X75953467Y-61066551D01*
X75851428Y-61102818D01*
X75737566Y-61144377D01*
X75621530Y-61187648D01*
X75512972Y-61229046D01*
X75421542Y-61264990D01*
X75356892Y-61291899D01*
X75328673Y-61306190D01*
X75322445Y-61310428D01*
X75292403Y-61303267D01*
X75290248Y-61300913D01*
X75265349Y-61268807D01*
X75224727Y-61213284D01*
X75177297Y-61146913D01*
X75131971Y-61082260D01*
X75097661Y-61031895D01*
X75083280Y-61008383D01*
X75093207Y-61002830D01*
X75141005Y-60981773D01*
X75221612Y-60948132D01*
X75327522Y-60905023D01*
X75451224Y-60855566D01*
X75534895Y-60822103D01*
X75651135Y-60774584D01*
X75746168Y-60734480D01*
X75811895Y-60705233D01*
X75840213Y-60690286D01*
X75834894Y-60665983D01*
X75809358Y-60612870D01*
X75770639Y-60542964D01*
X75725882Y-60468191D01*
X75682226Y-60400475D01*
X75646813Y-60351739D01*
X75626784Y-60333909D01*
X75625377Y-60334335D01*
X75592900Y-60346020D01*
X75523073Y-60371741D01*
X75422865Y-60408914D01*
X75299248Y-60454956D01*
X75159192Y-60507279D01*
X75032095Y-60554522D01*
X74905566Y-60600214D01*
X74813700Y-60630908D01*
X74750432Y-60648200D01*
X74709698Y-60653687D01*
X74685435Y-60648966D01*
X74671580Y-60635631D01*
X74654397Y-60608732D01*
X74613978Y-60546814D01*
X74565762Y-60473917D01*
X74487298Y-60356048D01*
X74668480Y-60284851D01*
X74677877Y-60281155D01*
X74762908Y-60247583D01*
X74881498Y-60200612D01*
X75023399Y-60144306D01*
X75178365Y-60082730D01*
X75336148Y-60019952D01*
X75353330Y-60013113D01*
X75511235Y-59950796D01*
X75630363Y-59905307D01*
X75716523Y-59874957D01*
X75775520Y-59858055D01*
X75813164Y-59852913D01*
X75835260Y-59857839D01*
G37*
G36*
X65503898Y-57795722D02*
G01*
X65523378Y-57815449D01*
X65566530Y-57870212D01*
X65629540Y-57954810D01*
X65708596Y-58064042D01*
X65799884Y-58192708D01*
X65899593Y-58335607D01*
X65956583Y-58417881D01*
X66083144Y-58600285D01*
X66215806Y-58791138D01*
X66346107Y-58978281D01*
X66465582Y-59149552D01*
X66565766Y-59292789D01*
X66586087Y-59321821D01*
X66734652Y-59537070D01*
X66856983Y-59720905D01*
X66956669Y-59879490D01*
X67037294Y-60018995D01*
X67102443Y-60145584D01*
X67155704Y-60265426D01*
X67200661Y-60384688D01*
X67258513Y-60595664D01*
X67285981Y-60848758D01*
X67265736Y-61094223D01*
X67197943Y-61330441D01*
X67082763Y-61555790D01*
X67008185Y-61658849D01*
X66848058Y-61822498D01*
X66651522Y-61969511D01*
X66425521Y-62096697D01*
X66177005Y-62200872D01*
X65912919Y-62278847D01*
X65640211Y-62327436D01*
X65365828Y-62343452D01*
X65054283Y-62321991D01*
X64747958Y-62256410D01*
X64457937Y-62145725D01*
X64180822Y-61988917D01*
X64175400Y-61985308D01*
X64098995Y-61931009D01*
X64022631Y-61868915D01*
X63938312Y-61791734D01*
X63838046Y-61692173D01*
X63713839Y-61562943D01*
X63670405Y-61517262D01*
X63626030Y-61470604D01*
X63585660Y-61427556D01*
X63547307Y-61385385D01*
X63508979Y-61341356D01*
X63468688Y-61292736D01*
X63424442Y-61236789D01*
X63374253Y-61170781D01*
X63316129Y-61091978D01*
X63248082Y-60997643D01*
X63168122Y-60885044D01*
X63074258Y-60751446D01*
X62964502Y-60594114D01*
X62836862Y-60410313D01*
X62689349Y-60197310D01*
X62519972Y-59952369D01*
X62326743Y-59672757D01*
X62107672Y-59355738D01*
X62081890Y-59317383D01*
X62035612Y-59241631D01*
X62007538Y-59185225D01*
X62002987Y-59158202D01*
X62005702Y-59155966D01*
X62044622Y-59135465D01*
X62118364Y-59103211D01*
X62218910Y-59062193D01*
X62338242Y-59015397D01*
X62468341Y-58965812D01*
X62601189Y-58916425D01*
X62728768Y-58870224D01*
X62843061Y-58830195D01*
X62936047Y-58799326D01*
X62999711Y-58780606D01*
X63026033Y-58777020D01*
X63038116Y-58792288D01*
X63075095Y-58842957D01*
X63131096Y-58921566D01*
X63201077Y-59021025D01*
X63279997Y-59134243D01*
X63377620Y-59274176D01*
X63495604Y-59441878D01*
X63622926Y-59621659D01*
X63755839Y-59808321D01*
X63890596Y-59996663D01*
X64023447Y-60181482D01*
X64150647Y-60357579D01*
X64268446Y-60519755D01*
X64373096Y-60662805D01*
X64460850Y-60781533D01*
X64527960Y-60870736D01*
X64570677Y-60925214D01*
X64701023Y-61062216D01*
X64875778Y-61194875D01*
X65062269Y-61287201D01*
X65255157Y-61337306D01*
X65449104Y-61343300D01*
X65638772Y-61303293D01*
X65701191Y-61279779D01*
X65854358Y-61196424D01*
X65964910Y-61090250D01*
X66033893Y-60960020D01*
X66062356Y-60804501D01*
X66063476Y-60732460D01*
X66057344Y-60658991D01*
X66041332Y-60583719D01*
X66013038Y-60501966D01*
X65970060Y-60409052D01*
X65909996Y-60300299D01*
X65830443Y-60171027D01*
X65729001Y-60016557D01*
X65603266Y-59832212D01*
X65450837Y-59613311D01*
X65380716Y-59513176D01*
X65172186Y-59214560D01*
X64992011Y-58955169D01*
X64839998Y-58734717D01*
X64715955Y-58552922D01*
X64619691Y-58409502D01*
X64551012Y-58304171D01*
X64509728Y-58236650D01*
X64495644Y-58206654D01*
X64495992Y-58205654D01*
X64522571Y-58188941D01*
X64585854Y-58158457D01*
X64677943Y-58117424D01*
X64790940Y-58069060D01*
X64916943Y-58016586D01*
X65048055Y-57963220D01*
X65176377Y-57912183D01*
X65294010Y-57866695D01*
X65393055Y-57829975D01*
X65465612Y-57805243D01*
X65503784Y-57795719D01*
X65503898Y-57795722D01*
G37*
G36*
X78146162Y-53118172D02*
G01*
X78468795Y-53158181D01*
X78771569Y-53232916D01*
X79045675Y-53340681D01*
X79307943Y-53483271D01*
X79578801Y-53670043D01*
X79819127Y-53879529D01*
X80027531Y-54108125D01*
X80202624Y-54352230D01*
X80343017Y-54608239D01*
X80447318Y-54872547D01*
X80514139Y-55141552D01*
X80542088Y-55411648D01*
X80529779Y-55679233D01*
X80475819Y-55940702D01*
X80378820Y-56192452D01*
X80237390Y-56430878D01*
X80195553Y-56486629D01*
X80030294Y-56668149D01*
X79832647Y-56838624D01*
X79615206Y-56988008D01*
X79390564Y-57106258D01*
X79192295Y-57182972D01*
X78957300Y-57254123D01*
X78711004Y-57311795D01*
X78472444Y-57350912D01*
X78429924Y-57355636D01*
X78287790Y-57366322D01*
X78127546Y-57372575D01*
X77962540Y-57374367D01*
X77806123Y-57371672D01*
X77671641Y-57364464D01*
X77572444Y-57352715D01*
X77484776Y-57336765D01*
X76911473Y-56502586D01*
X76851968Y-56415810D01*
X76733604Y-56241997D01*
X76626241Y-56082733D01*
X76532686Y-55942282D01*
X76455746Y-55824907D01*
X76398229Y-55734874D01*
X76362942Y-55676444D01*
X76352691Y-55653884D01*
X76370783Y-55643326D01*
X76426929Y-55617712D01*
X76521750Y-55577665D01*
X76656647Y-55522612D01*
X76833022Y-55451984D01*
X77052277Y-55365210D01*
X77315815Y-55261718D01*
X77412253Y-55223937D01*
X77591998Y-55153496D01*
X77733228Y-55098439D01*
X77840787Y-55057261D01*
X77919517Y-55028456D01*
X77974261Y-55010518D01*
X78009861Y-55001945D01*
X78031160Y-55001231D01*
X78043002Y-55006872D01*
X78050230Y-55017361D01*
X78057684Y-55031195D01*
X78063830Y-55040865D01*
X78096577Y-55090257D01*
X78149033Y-55168023D01*
X78215419Y-55265622D01*
X78289957Y-55374513D01*
X78321451Y-55420591D01*
X78390512Y-55523191D01*
X78447191Y-55609564D01*
X78486315Y-55671756D01*
X78502715Y-55701808D01*
X78491756Y-55718728D01*
X78436510Y-55751454D01*
X78334831Y-55797170D01*
X78186431Y-55856019D01*
X78145172Y-55871854D01*
X78030418Y-55917208D01*
X77934243Y-55957115D01*
X77865722Y-55987735D01*
X77833930Y-56005226D01*
X77832908Y-56006242D01*
X77828249Y-56028902D01*
X77844918Y-56070595D01*
X77886179Y-56137525D01*
X77955298Y-56235898D01*
X78104008Y-56441217D01*
X78255275Y-56436706D01*
X78343280Y-56428462D01*
X78503289Y-56393985D01*
X78671020Y-56338922D01*
X78828028Y-56269699D01*
X78955861Y-56192740D01*
X79070990Y-56095638D01*
X79202161Y-55936845D01*
X79288945Y-55759939D01*
X79330957Y-55567085D01*
X79327808Y-55360441D01*
X79279114Y-55142170D01*
X79184487Y-54914434D01*
X79115718Y-54797517D01*
X78998746Y-54641622D01*
X78862220Y-54494141D01*
X78718045Y-54367637D01*
X78578125Y-54274668D01*
X78508816Y-54239816D01*
X78282929Y-54156898D01*
X78051882Y-54114806D01*
X77822127Y-54112650D01*
X77600116Y-54149544D01*
X77392304Y-54224598D01*
X77205140Y-54336926D01*
X77045078Y-54485639D01*
X76958398Y-54602661D01*
X76898127Y-54737773D01*
X76875697Y-54884411D01*
X76871590Y-54938485D01*
X76858809Y-54967031D01*
X76831843Y-54967497D01*
X76827488Y-54966411D01*
X76777321Y-54956757D01*
X76690487Y-54942100D01*
X76576914Y-54923939D01*
X76446532Y-54903771D01*
X76309267Y-54883098D01*
X76175050Y-54863416D01*
X76053808Y-54846225D01*
X75955470Y-54833024D01*
X75889964Y-54825311D01*
X75767672Y-54813372D01*
X75776249Y-54703794D01*
X75792888Y-54564957D01*
X75842540Y-54345565D01*
X75915784Y-54151354D01*
X75972482Y-54054551D01*
X76071047Y-53925763D01*
X76193964Y-53791648D01*
X76331260Y-53662192D01*
X76472961Y-53547380D01*
X76609092Y-53457200D01*
X76624867Y-53448247D01*
X76908116Y-53313512D01*
X77217750Y-53210287D01*
X77540706Y-53142157D01*
X77863923Y-53112710D01*
X78146162Y-53118172D01*
G37*
G36*
X57577309Y-60914401D02*
G01*
X57843575Y-60958862D01*
X58093029Y-61046904D01*
X58323110Y-61178088D01*
X58531256Y-61351974D01*
X58583348Y-61405678D01*
X58745604Y-61606551D01*
X58862802Y-61812054D01*
X58934530Y-62019537D01*
X58960377Y-62226347D01*
X58939931Y-62429834D01*
X58872780Y-62627349D01*
X58758515Y-62816239D01*
X58715222Y-62868601D01*
X58634384Y-62956721D01*
X58528112Y-63066076D01*
X58402437Y-63190484D01*
X58263392Y-63323761D01*
X58221748Y-63363099D01*
X58102009Y-63476900D01*
X58011887Y-63564356D01*
X57946570Y-63630740D01*
X57901243Y-63681330D01*
X57871097Y-63721402D01*
X57851315Y-63756231D01*
X57837086Y-63791095D01*
X57831586Y-63808034D01*
X57822031Y-63913319D01*
X57853355Y-64006884D01*
X57919075Y-64084540D01*
X58012707Y-64142100D01*
X58127769Y-64175373D01*
X58257777Y-64180175D01*
X58396250Y-64152314D01*
X58436750Y-64138098D01*
X58625292Y-64044807D01*
X58806479Y-63913564D01*
X58970970Y-63753203D01*
X59109421Y-63572558D01*
X59212490Y-63380463D01*
X59244171Y-63308684D01*
X59270814Y-63254691D01*
X59284982Y-63234045D01*
X59289502Y-63235192D01*
X59329681Y-63248894D01*
X59403971Y-63275651D01*
X59503908Y-63312387D01*
X59621027Y-63356032D01*
X59639047Y-63362777D01*
X59774206Y-63412761D01*
X59906991Y-63460938D01*
X60022977Y-63502119D01*
X60107736Y-63531114D01*
X60109942Y-63531841D01*
X60192372Y-63560428D01*
X60255024Y-63584752D01*
X60284489Y-63599615D01*
X60287578Y-63604582D01*
X60285284Y-63648174D01*
X60261399Y-63722058D01*
X60220124Y-63817706D01*
X60165663Y-63926592D01*
X60102217Y-64040190D01*
X60033990Y-64149973D01*
X59965184Y-64247415D01*
X59921989Y-64298354D01*
X59830031Y-64391454D01*
X59717575Y-64493682D01*
X59596968Y-64594444D01*
X59480552Y-64683142D01*
X59380673Y-64749180D01*
X59340322Y-64772087D01*
X59165010Y-64859877D01*
X58972810Y-64941028D01*
X58782468Y-65008105D01*
X58612731Y-65053678D01*
X58528267Y-65066879D01*
X58404776Y-65078779D01*
X58265055Y-65086847D01*
X58126103Y-65089821D01*
X58038233Y-65089174D01*
X57908179Y-65083756D01*
X57801817Y-65070895D01*
X57703044Y-65048277D01*
X57595756Y-65013588D01*
X57562788Y-65001702D01*
X57390838Y-64930983D01*
X57248917Y-64853104D01*
X57121091Y-64758111D01*
X56991425Y-64636048D01*
X56946867Y-64589197D01*
X56784210Y-64387004D01*
X56668811Y-64182901D01*
X56599396Y-63974206D01*
X56574693Y-63758238D01*
X56577422Y-63665919D01*
X56596044Y-63543135D01*
X56634889Y-63423298D01*
X56697222Y-63301199D01*
X56786307Y-63171632D01*
X56905409Y-63029384D01*
X57057793Y-62869252D01*
X57246722Y-62686024D01*
X57341660Y-62595587D01*
X57463737Y-62476093D01*
X57560212Y-62377420D01*
X57627394Y-62303377D01*
X57661588Y-62257778D01*
X57667704Y-62246250D01*
X57704119Y-62136427D01*
X57693582Y-62039035D01*
X57635982Y-61952751D01*
X57556506Y-61894472D01*
X57440271Y-61858449D01*
X57309217Y-61859646D01*
X57168855Y-61895369D01*
X57024692Y-61962929D01*
X56882240Y-62059635D01*
X56747008Y-62182794D01*
X56624505Y-62329717D01*
X56520241Y-62497714D01*
X56481330Y-62567743D01*
X56446960Y-62621833D01*
X56426774Y-62644182D01*
X56412668Y-62642347D01*
X56363021Y-62625542D01*
X56294864Y-62596485D01*
X56273299Y-62586776D01*
X56194655Y-62552833D01*
X56086759Y-62507487D01*
X55960951Y-62455481D01*
X55828575Y-62401557D01*
X55750532Y-62370113D01*
X55630659Y-62320542D01*
X55549164Y-62280639D01*
X55501868Y-62243804D01*
X55484587Y-62203441D01*
X55493140Y-62152948D01*
X55523345Y-62085731D01*
X55571020Y-61995189D01*
X55720632Y-61756977D01*
X55917600Y-61530952D01*
X56151426Y-61335041D01*
X56420071Y-61170938D01*
X56721494Y-61040338D01*
X57004588Y-60957995D01*
X57296793Y-60913966D01*
X57577309Y-60914401D01*
G37*
G36*
X69383825Y-56649950D02*
G01*
X69730904Y-56731739D01*
X70064179Y-56857622D01*
X70378996Y-57026299D01*
X70670705Y-57236467D01*
X70899795Y-57448961D01*
X71107222Y-57691793D01*
X71279622Y-57950814D01*
X71414973Y-58221207D01*
X71511252Y-58498153D01*
X71566437Y-58776836D01*
X71578505Y-59052436D01*
X71545434Y-59320137D01*
X71529561Y-59381732D01*
X71477438Y-59528557D01*
X71405799Y-59687970D01*
X71322560Y-59843171D01*
X71235642Y-59977361D01*
X71190891Y-60034568D01*
X71042553Y-60188529D01*
X70860369Y-60338721D01*
X70654939Y-60477704D01*
X70436860Y-60598044D01*
X70216731Y-60692304D01*
X70194689Y-60700134D01*
X69973871Y-60766314D01*
X69727080Y-60821901D01*
X69474556Y-60862910D01*
X69236536Y-60885353D01*
X69138846Y-60888472D01*
X68996490Y-60887166D01*
X68854317Y-60880188D01*
X68722058Y-60868458D01*
X68609444Y-60852897D01*
X68526204Y-60834427D01*
X68482068Y-60813966D01*
X68481477Y-60813364D01*
X68455865Y-60781177D01*
X68407928Y-60715871D01*
X68342602Y-60624359D01*
X68264825Y-60513554D01*
X68179533Y-60390369D01*
X68114308Y-60295765D01*
X67995036Y-60123552D01*
X67866540Y-59938779D01*
X67740477Y-59758195D01*
X67628498Y-59598546D01*
X67610298Y-59572649D01*
X67526024Y-59451850D01*
X67453121Y-59345919D01*
X67395816Y-59261094D01*
X67358333Y-59203620D01*
X67344900Y-59179735D01*
X67355094Y-59173548D01*
X67404381Y-59151409D01*
X67489021Y-59115891D01*
X67602885Y-59069396D01*
X67739846Y-59014322D01*
X67893776Y-58953067D01*
X68058547Y-58888032D01*
X68228030Y-58821613D01*
X68396099Y-58756210D01*
X68556624Y-58694222D01*
X68703478Y-58638048D01*
X68830533Y-58590087D01*
X68931660Y-58552737D01*
X69000731Y-58528397D01*
X69031619Y-58519466D01*
X69048451Y-58532840D01*
X69089122Y-58580958D01*
X69147534Y-58657888D01*
X69218753Y-58757093D01*
X69297843Y-58872038D01*
X69313086Y-58894553D01*
X69400079Y-59021328D01*
X69460668Y-59114283D01*
X69492419Y-59181191D01*
X69492894Y-59229824D01*
X69459660Y-59267958D01*
X69390282Y-59303366D01*
X69282322Y-59343822D01*
X69133346Y-59397098D01*
X69107419Y-59406622D01*
X68998922Y-59447459D01*
X68911127Y-59482071D01*
X68852464Y-59507057D01*
X68831368Y-59519012D01*
X68839934Y-59533920D01*
X68871946Y-59581711D01*
X68922047Y-59653650D01*
X68984265Y-59741063D01*
X69135892Y-59952101D01*
X69276021Y-59943257D01*
X69374056Y-59930084D01*
X69524690Y-59892871D01*
X69683540Y-59838878D01*
X69832528Y-59774438D01*
X69953573Y-59705888D01*
X70037939Y-59640939D01*
X70173654Y-59492945D01*
X70272489Y-59320273D01*
X70330460Y-59130828D01*
X70343580Y-58932512D01*
X70314850Y-58725713D01*
X70241797Y-58502105D01*
X70130761Y-58296247D01*
X69986823Y-58111521D01*
X69815066Y-57951313D01*
X69620568Y-57819009D01*
X69408414Y-57717990D01*
X69183682Y-57651641D01*
X68951454Y-57623349D01*
X68716813Y-57636497D01*
X68484837Y-57694467D01*
X68450050Y-57707035D01*
X68355380Y-57745272D01*
X68280416Y-57786032D01*
X68207319Y-57840229D01*
X68118257Y-57918775D01*
X68048462Y-57984887D01*
X67969348Y-58071884D01*
X67917870Y-58152373D01*
X67886440Y-58239268D01*
X67867467Y-58345481D01*
X67860649Y-58385426D01*
X67843155Y-58440722D01*
X67823668Y-58461976D01*
X67820021Y-58461684D01*
X67777031Y-58455661D01*
X67697960Y-58443119D01*
X67592657Y-58425650D01*
X67470973Y-58404852D01*
X67332876Y-58381649D01*
X67187795Y-58358549D01*
X67056321Y-58338802D01*
X66955684Y-58325076D01*
X66933435Y-58322224D01*
X66844408Y-58308660D01*
X66777940Y-58295140D01*
X66747037Y-58284212D01*
X66741020Y-58255926D01*
X66745396Y-58189950D01*
X66759331Y-58098973D01*
X66780462Y-57994549D01*
X66806423Y-57888227D01*
X66834848Y-57791561D01*
X66863372Y-57716101D01*
X66917728Y-57611441D01*
X67054046Y-57416819D01*
X67228030Y-57232703D01*
X67432369Y-57066354D01*
X67659753Y-56925033D01*
X67807624Y-56855523D01*
X67988663Y-56785564D01*
X68182482Y-56722288D01*
X68371013Y-56671584D01*
X68536190Y-56639342D01*
X68666857Y-56623865D01*
X69027592Y-56613559D01*
X69383825Y-56649950D01*
G37*
G36*
X54399743Y-62021530D02*
G01*
X54438606Y-62070237D01*
X54498675Y-62151129D01*
X54576645Y-62259595D01*
X54669207Y-62391025D01*
X54773055Y-62540806D01*
X54884881Y-62704328D01*
X54923360Y-62760945D01*
X55056563Y-62956599D01*
X55195532Y-63160281D01*
X55333635Y-63362297D01*
X55464241Y-63552950D01*
X55580719Y-63722549D01*
X55676437Y-63861399D01*
X55720974Y-63925890D01*
X55838749Y-64096894D01*
X55971030Y-64289466D01*
X56108818Y-64490483D01*
X56243113Y-64686821D01*
X56364913Y-64865355D01*
X56456564Y-64999846D01*
X56555723Y-65145182D01*
X56646028Y-65277364D01*
X56722822Y-65389583D01*
X56781452Y-65475033D01*
X56817261Y-65526904D01*
X56851881Y-65579581D01*
X56880554Y-65631228D01*
X56886939Y-65655829D01*
X56880748Y-65659075D01*
X56837707Y-65677359D01*
X56760625Y-65708523D01*
X56657438Y-65749486D01*
X56536080Y-65797169D01*
X56404488Y-65848493D01*
X56270597Y-65900379D01*
X56142342Y-65949744D01*
X56027659Y-65993512D01*
X55934484Y-66028600D01*
X55870751Y-66051932D01*
X55844396Y-66060425D01*
X55835722Y-66050360D01*
X55803310Y-66005068D01*
X55750668Y-65928413D01*
X55681570Y-65825961D01*
X55599791Y-65703278D01*
X55509105Y-65565932D01*
X55183998Y-65071340D01*
X55032682Y-65018783D01*
X54957514Y-64992102D01*
X54899362Y-64970316D01*
X54874616Y-64959474D01*
X54873820Y-64958898D01*
X54844511Y-64945765D01*
X54782910Y-64920922D01*
X54700967Y-64889206D01*
X54534066Y-64825687D01*
X54523750Y-64910592D01*
X54523274Y-64914807D01*
X54518793Y-64970996D01*
X54512858Y-65065755D01*
X54505971Y-65190088D01*
X54498633Y-65335002D01*
X54491346Y-65491500D01*
X54484518Y-65642553D01*
X54475878Y-65828721D01*
X54467216Y-66010784D01*
X54459242Y-66173845D01*
X54452665Y-66303005D01*
X54436072Y-66618504D01*
X54062221Y-66758777D01*
X54007322Y-66779392D01*
X53856062Y-66836345D01*
X53706149Y-66892978D01*
X53572387Y-66943694D01*
X53469573Y-66982896D01*
X53411509Y-67004474D01*
X53327233Y-67032998D01*
X53267894Y-67049388D01*
X53243682Y-67050590D01*
X53242528Y-67032853D01*
X53244366Y-66974355D01*
X53249612Y-66886175D01*
X53257700Y-66779232D01*
X53261149Y-66736151D01*
X53270946Y-66603678D01*
X53281832Y-66445330D01*
X53292710Y-66277344D01*
X53302485Y-66115959D01*
X53304694Y-66078609D01*
X53314816Y-65918077D01*
X53327606Y-65727134D01*
X53342069Y-65520075D01*
X53357213Y-65311197D01*
X53372046Y-65114797D01*
X53381037Y-64998127D01*
X53393050Y-64840746D01*
X53403410Y-64703230D01*
X53411579Y-64592788D01*
X53417022Y-64516626D01*
X53419200Y-64481954D01*
X53417474Y-64470549D01*
X53395081Y-64444075D01*
X53340903Y-64413308D01*
X53247402Y-64373495D01*
X53228362Y-64365905D01*
X53131655Y-64326860D01*
X53007495Y-64276201D01*
X52869847Y-64219641D01*
X52732674Y-64162894D01*
X52716037Y-64155989D01*
X52556843Y-64090195D01*
X52360377Y-64009401D01*
X52133784Y-63916528D01*
X51884210Y-63814497D01*
X51618799Y-63706231D01*
X51344699Y-63594651D01*
X51069055Y-63482679D01*
X51066057Y-63481461D01*
X50966074Y-63438861D01*
X50888960Y-63402235D01*
X50842283Y-63375450D01*
X50833612Y-63362375D01*
X50858858Y-63352488D01*
X50924494Y-63326641D01*
X51023459Y-63287614D01*
X51149363Y-63237925D01*
X51295819Y-63180095D01*
X51456440Y-63116643D01*
X52047889Y-62882949D01*
X53064900Y-63321654D01*
X53220031Y-63388627D01*
X53427341Y-63478296D01*
X53620864Y-63562195D01*
X53795421Y-63638066D01*
X53945831Y-63703655D01*
X54066913Y-63756703D01*
X54153488Y-63794957D01*
X54200375Y-63816159D01*
X54247863Y-63837124D01*
X54303935Y-63857234D01*
X54330638Y-63860158D01*
X54329146Y-63853440D01*
X54312571Y-63822606D01*
X54277592Y-63765461D01*
X54223054Y-63680258D01*
X54147803Y-63565251D01*
X54050689Y-63418693D01*
X53930556Y-63238839D01*
X53786252Y-63023943D01*
X53616624Y-62772258D01*
X53420519Y-62482041D01*
X53399479Y-62437843D01*
X53401413Y-62406162D01*
X53424393Y-62393989D01*
X53485746Y-62366641D01*
X53576865Y-62327922D01*
X53689490Y-62281166D01*
X53815357Y-62229705D01*
X53946207Y-62176874D01*
X54073778Y-62126006D01*
X54189808Y-62080435D01*
X54286036Y-62043495D01*
X54354201Y-62018519D01*
X54386042Y-62008840D01*
X54399743Y-62021530D01*
G37*
G36*
X64594165Y-46779955D02*
G01*
X64662669Y-46814662D01*
X64761193Y-46867161D01*
X64886723Y-46935792D01*
X65036246Y-47018894D01*
X65206748Y-47114804D01*
X65395218Y-47221861D01*
X65598640Y-47338403D01*
X65814002Y-47462770D01*
X66038292Y-47593299D01*
X66175488Y-47673246D01*
X66322389Y-47758446D01*
X66459761Y-47837737D01*
X66576738Y-47904850D01*
X66662453Y-47953511D01*
X66686690Y-47967208D01*
X66784796Y-48023434D01*
X66919045Y-48101180D01*
X67085071Y-48197873D01*
X67278508Y-48310946D01*
X67494989Y-48437825D01*
X67730147Y-48575940D01*
X67979614Y-48722721D01*
X68239027Y-48875598D01*
X68504016Y-49031998D01*
X68770215Y-49189354D01*
X69033258Y-49345092D01*
X69288777Y-49496643D01*
X69532408Y-49641435D01*
X69759781Y-49776899D01*
X69898947Y-49860750D01*
X70032435Y-49942902D01*
X70145833Y-50014505D01*
X70233632Y-50072021D01*
X70290319Y-50111906D01*
X70310383Y-50130622D01*
X70308321Y-50134807D01*
X70276788Y-50162541D01*
X70213122Y-50208103D01*
X70124930Y-50266234D01*
X70019816Y-50331671D01*
X69938731Y-50380926D01*
X69762171Y-50488946D01*
X69623908Y-50574778D01*
X69524912Y-50637810D01*
X69466154Y-50677429D01*
X69448600Y-50693020D01*
X69452322Y-50696089D01*
X69488465Y-50722817D01*
X69558534Y-50773325D01*
X69657986Y-50844401D01*
X69782279Y-50932832D01*
X69926869Y-51035409D01*
X70087213Y-51148919D01*
X70258767Y-51270152D01*
X70436990Y-51395896D01*
X70617338Y-51522939D01*
X70795266Y-51648071D01*
X70966234Y-51768079D01*
X71125697Y-51879753D01*
X71269113Y-51979881D01*
X71551537Y-52176702D01*
X71878928Y-52404964D01*
X72169299Y-52607549D01*
X72424392Y-52785682D01*
X72645951Y-52940585D01*
X72835719Y-53073484D01*
X72995440Y-53185601D01*
X73126856Y-53278163D01*
X73231712Y-53352392D01*
X73311748Y-53409511D01*
X73368710Y-53450747D01*
X73404340Y-53477321D01*
X73420381Y-53490459D01*
X73422599Y-53492721D01*
X73431510Y-53504855D01*
X73431869Y-53517998D01*
X73419743Y-53534411D01*
X73391202Y-53556354D01*
X73342319Y-53586091D01*
X73269161Y-53625882D01*
X73167798Y-53677993D01*
X73034300Y-53744681D01*
X72864737Y-53828210D01*
X72655178Y-53930843D01*
X72574273Y-53970523D01*
X72412619Y-54050455D01*
X72268511Y-54122574D01*
X72147230Y-54184184D01*
X72054061Y-54232587D01*
X71994285Y-54265086D01*
X71973186Y-54278987D01*
X71990539Y-54297413D01*
X72044336Y-54343863D01*
X72132168Y-54416202D01*
X72251588Y-54512509D01*
X72400148Y-54630862D01*
X72575402Y-54769339D01*
X72774902Y-54926019D01*
X72996198Y-55098980D01*
X73236847Y-55286298D01*
X73494399Y-55486053D01*
X73766407Y-55696323D01*
X74050425Y-55915187D01*
X74344004Y-56140721D01*
X74407683Y-56189723D01*
X74550365Y-56300734D01*
X74677684Y-56401459D01*
X74784922Y-56488060D01*
X74867361Y-56556701D01*
X74920284Y-56603542D01*
X74938973Y-56624745D01*
X74933626Y-56634391D01*
X74897794Y-56672564D01*
X74833828Y-56731987D01*
X74748277Y-56806683D01*
X74647690Y-56890676D01*
X74591595Y-56936940D01*
X74498481Y-57015586D01*
X74423899Y-57081006D01*
X74374367Y-57127415D01*
X74356408Y-57149031D01*
X74358221Y-57151751D01*
X74388361Y-57178440D01*
X74452362Y-57229900D01*
X74546039Y-57302914D01*
X74665204Y-57394267D01*
X74805670Y-57500741D01*
X74963250Y-57619120D01*
X75133757Y-57746188D01*
X75293113Y-57864712D01*
X75522682Y-58036022D01*
X75771761Y-58222410D01*
X76029505Y-58415741D01*
X76285069Y-58607875D01*
X76527609Y-58790680D01*
X76746281Y-58956016D01*
X76948431Y-59108662D01*
X77240386Y-59327709D01*
X77551648Y-59559865D01*
X77872547Y-59797978D01*
X78193419Y-60034896D01*
X78504593Y-60263468D01*
X78796403Y-60476541D01*
X79059179Y-60666963D01*
X79075280Y-60678773D01*
X79104922Y-60703979D01*
X79092925Y-60704011D01*
X79039416Y-60678934D01*
X78944526Y-60628818D01*
X78808384Y-60553730D01*
X78631120Y-60453737D01*
X78412860Y-60328908D01*
X78274323Y-60249434D01*
X78067985Y-60131543D01*
X77853784Y-60009625D01*
X77644252Y-59890797D01*
X77451932Y-59782181D01*
X77289359Y-59690897D01*
X77185364Y-59632646D01*
X76935666Y-59492041D01*
X76670632Y-59341876D01*
X76393471Y-59184028D01*
X76107393Y-59020371D01*
X75815606Y-58852779D01*
X75521321Y-58683129D01*
X75227747Y-58513295D01*
X74938093Y-58345151D01*
X74655571Y-58180574D01*
X74383388Y-58021438D01*
X74124754Y-57869618D01*
X73882879Y-57726987D01*
X73660973Y-57595424D01*
X73462244Y-57476800D01*
X73289904Y-57372993D01*
X73147159Y-57285876D01*
X73037223Y-57217325D01*
X72963302Y-57169214D01*
X72928607Y-57143420D01*
X72925991Y-57140681D01*
X72915721Y-57121924D01*
X72919605Y-57098079D01*
X72941604Y-57064858D01*
X72985677Y-57017979D01*
X73055786Y-56953159D01*
X73155891Y-56866114D01*
X73289952Y-56752557D01*
X73311789Y-56734117D01*
X73400796Y-56657603D01*
X73472946Y-56593432D01*
X73521313Y-56547874D01*
X73538974Y-56527192D01*
X73520700Y-56510573D01*
X73467457Y-56471884D01*
X73385678Y-56415719D01*
X73281822Y-56346512D01*
X73162346Y-56268693D01*
X73156949Y-56265214D01*
X73033463Y-56185647D01*
X72879045Y-56086174D01*
X72703334Y-55973004D01*
X72515970Y-55852342D01*
X72326592Y-55730401D01*
X72144839Y-55613386D01*
X72114204Y-55593663D01*
X71889797Y-55449104D01*
X71658603Y-55300039D01*
X71425411Y-55149565D01*
X71195002Y-55000777D01*
X70972165Y-54856768D01*
X70761684Y-54720635D01*
X70568345Y-54595471D01*
X70396933Y-54484372D01*
X70252232Y-54390433D01*
X70139030Y-54316748D01*
X70062112Y-54266413D01*
X70046450Y-54256040D01*
X69961526Y-54195757D01*
X69914288Y-54152560D01*
X69899668Y-54121940D01*
X69905079Y-54112097D01*
X69937982Y-54085802D01*
X70002873Y-54045569D01*
X70102202Y-53990040D01*
X70238420Y-53917867D01*
X70413979Y-53827696D01*
X70631329Y-53718175D01*
X70758284Y-53654537D01*
X70921944Y-53572190D01*
X71067151Y-53498771D01*
X71188853Y-53436850D01*
X71281998Y-53389004D01*
X71341532Y-53357805D01*
X71362403Y-53345825D01*
X71344409Y-53331628D01*
X71292275Y-53294017D01*
X71212304Y-53237508D01*
X71110813Y-53166567D01*
X70994118Y-53085655D01*
X70896814Y-53018413D01*
X70731531Y-52904124D01*
X70552802Y-52780471D01*
X70376465Y-52658414D01*
X70218362Y-52548912D01*
X70167812Y-52513911D01*
X70041237Y-52426390D01*
X69884440Y-52318088D01*
X69704064Y-52193589D01*
X69506753Y-52057475D01*
X69299151Y-51914333D01*
X69087901Y-51768744D01*
X68879649Y-51625292D01*
X68715641Y-51512308D01*
X68481493Y-51350780D01*
X68283087Y-51213531D01*
X68117590Y-51098531D01*
X67982170Y-51003752D01*
X67873995Y-50927163D01*
X67790233Y-50866736D01*
X67728051Y-50820441D01*
X67684618Y-50786248D01*
X67657100Y-50762130D01*
X67642667Y-50746056D01*
X67638486Y-50735998D01*
X67641486Y-50728557D01*
X67663187Y-50707059D01*
X67708519Y-50673399D01*
X67780623Y-50625584D01*
X67882640Y-50561620D01*
X68017708Y-50479513D01*
X68188971Y-50377271D01*
X68399567Y-50252901D01*
X68853396Y-49985873D01*
X68771830Y-49924536D01*
X68766755Y-49920724D01*
X68711565Y-49879496D01*
X68628910Y-49817977D01*
X68529099Y-49743834D01*
X68422445Y-49664734D01*
X68368619Y-49624719D01*
X68252986Y-49538290D01*
X68113359Y-49433506D01*
X67959060Y-49317380D01*
X67799411Y-49196920D01*
X67643734Y-49079138D01*
X67227021Y-48763575D01*
X66835748Y-48467696D01*
X66471467Y-48192669D01*
X66135360Y-47939376D01*
X65828606Y-47708702D01*
X65552384Y-47501528D01*
X65307874Y-47318740D01*
X65096257Y-47161221D01*
X64918712Y-47029852D01*
X64776417Y-46925520D01*
X64670553Y-46849107D01*
X64602301Y-46801495D01*
X64598903Y-46799208D01*
X64559269Y-46770567D01*
X64558694Y-46764703D01*
X64594165Y-46779955D01*
G37*
G36*
X80294887Y-50200226D02*
G01*
X80745218Y-50206268D01*
X81161661Y-50218442D01*
X81552718Y-50237271D01*
X81926888Y-50263279D01*
X82292674Y-50296986D01*
X82658576Y-50338919D01*
X83033095Y-50389598D01*
X83289866Y-50428341D01*
X83645752Y-50488703D01*
X83973076Y-50553530D01*
X84284049Y-50625507D01*
X84590884Y-50707325D01*
X84905794Y-50801669D01*
X85252946Y-50918368D01*
X85718428Y-51102916D01*
X86140463Y-51306456D01*
X86520311Y-51529835D01*
X86859238Y-51773902D01*
X87158501Y-52039500D01*
X87419367Y-52327480D01*
X87643094Y-52638686D01*
X87729794Y-52785125D01*
X87878585Y-53105993D01*
X87982624Y-53444413D01*
X88042028Y-53799285D01*
X88056912Y-54169506D01*
X88027396Y-54553977D01*
X87953595Y-54951597D01*
X87835624Y-55361265D01*
X87673602Y-55781879D01*
X87467644Y-56212338D01*
X87217868Y-56651544D01*
X87209226Y-56665609D01*
X87000773Y-56987087D01*
X86761926Y-57325830D01*
X86501186Y-57670581D01*
X86227055Y-58010084D01*
X85948031Y-58333083D01*
X85927325Y-58355856D01*
X85839351Y-58448674D01*
X85722676Y-58567629D01*
X85582805Y-58707416D01*
X85425247Y-58862732D01*
X85255507Y-59028271D01*
X85079092Y-59198730D01*
X84901506Y-59368804D01*
X84728259Y-59533190D01*
X84564855Y-59686583D01*
X84416800Y-59823679D01*
X84289602Y-59939174D01*
X84188767Y-60027763D01*
X83786360Y-60365847D01*
X83043039Y-60961158D01*
X82264795Y-61548139D01*
X81450238Y-62127642D01*
X80597972Y-62700519D01*
X79706609Y-63267623D01*
X78774753Y-63829806D01*
X77801015Y-64387921D01*
X76784000Y-64942821D01*
X75722316Y-65495357D01*
X74614571Y-66046382D01*
X73459373Y-66596749D01*
X73164049Y-66733451D01*
X72212726Y-67159945D01*
X71222668Y-67583922D01*
X70201517Y-68002543D01*
X69156920Y-68412970D01*
X68096522Y-68812365D01*
X67027967Y-69197890D01*
X65958900Y-69566706D01*
X64896966Y-69915977D01*
X63849811Y-70242863D01*
X62825079Y-70544526D01*
X62487779Y-70639647D01*
X61919354Y-70795678D01*
X61344247Y-70948488D01*
X60768333Y-71096673D01*
X60197489Y-71238828D01*
X59637589Y-71373551D01*
X59094512Y-71499438D01*
X58574132Y-71615083D01*
X58082325Y-71719085D01*
X57624967Y-71810037D01*
X57207934Y-71886538D01*
X57170309Y-71893090D01*
X56738353Y-71967544D01*
X56345747Y-72033582D01*
X55984608Y-72092339D01*
X55647051Y-72144953D01*
X55325193Y-72192557D01*
X55011150Y-72236287D01*
X54697037Y-72277276D01*
X54374971Y-72316663D01*
X54037068Y-72355580D01*
X53675443Y-72395162D01*
X53191554Y-72444358D01*
X52595472Y-72496563D01*
X52022062Y-72536424D01*
X51457664Y-72564730D01*
X50888615Y-72582270D01*
X50301253Y-72589830D01*
X49534360Y-72584052D01*
X48796112Y-72558794D01*
X48099406Y-72514067D01*
X47444678Y-72449938D01*
X46832364Y-72366477D01*
X46262902Y-72263752D01*
X45736726Y-72141833D01*
X45254277Y-72000789D01*
X44815986Y-71840688D01*
X44422293Y-71661599D01*
X44266384Y-71579791D01*
X44088767Y-71481802D01*
X43907990Y-71377960D01*
X43735789Y-71275145D01*
X43583899Y-71180232D01*
X43464056Y-71100099D01*
X43454721Y-71093428D01*
X43353809Y-71013455D01*
X43234872Y-70908279D01*
X43107232Y-70787234D01*
X42980210Y-70659656D01*
X42863131Y-70534880D01*
X42765312Y-70422239D01*
X42696081Y-70331069D01*
X42636452Y-70237159D01*
X42534756Y-70057111D01*
X42437732Y-69863054D01*
X42353901Y-69672444D01*
X42291785Y-69502739D01*
X42228917Y-69266451D01*
X42173767Y-68904542D01*
X42162831Y-68528547D01*
X42195938Y-68142070D01*
X42272919Y-67748715D01*
X42393602Y-67352086D01*
X42506206Y-67061770D01*
X42677764Y-66686097D01*
X42879463Y-66310271D01*
X43113340Y-65931406D01*
X43381431Y-65546615D01*
X43685776Y-65153011D01*
X44028409Y-64747707D01*
X44411369Y-64327818D01*
X44836693Y-63890457D01*
X44982723Y-63745246D01*
X45219439Y-63513835D01*
X45446887Y-63297297D01*
X45672053Y-63089433D01*
X45901926Y-62884040D01*
X46143492Y-62674916D01*
X46403738Y-62455860D01*
X46689654Y-62220671D01*
X47008225Y-61963145D01*
X47172659Y-61833640D01*
X47384960Y-61671314D01*
X47625164Y-61491651D01*
X47886485Y-61299530D01*
X48162143Y-61099829D01*
X48445351Y-60897423D01*
X48729326Y-60697195D01*
X49007286Y-60504020D01*
X49272446Y-60322776D01*
X49518024Y-60158342D01*
X50008371Y-59838925D01*
X50942912Y-59254580D01*
X51925051Y-58670761D01*
X52953981Y-58087934D01*
X54028893Y-57506561D01*
X55148983Y-56927104D01*
X55357428Y-56821779D01*
X55622842Y-56688438D01*
X55870601Y-56565086D01*
X56106944Y-56448765D01*
X56338110Y-56336515D01*
X56570340Y-56225377D01*
X56809874Y-56112394D01*
X57062951Y-55994608D01*
X57335813Y-55869058D01*
X57634696Y-55732788D01*
X57965843Y-55582838D01*
X58335492Y-55416249D01*
X58335599Y-55416200D01*
X58500911Y-55342939D01*
X58704534Y-55254501D01*
X58939419Y-55153826D01*
X59198521Y-55043849D01*
X59474791Y-54927508D01*
X59761184Y-54807740D01*
X60050650Y-54687483D01*
X60336144Y-54569675D01*
X60610619Y-54457252D01*
X60867027Y-54353152D01*
X61098322Y-54260311D01*
X61297455Y-54181668D01*
X61380752Y-54149151D01*
X61587086Y-54068746D01*
X61774205Y-53996130D01*
X61947543Y-53929286D01*
X62112537Y-53866197D01*
X62274620Y-53804845D01*
X62439228Y-53743213D01*
X62611796Y-53679285D01*
X62797759Y-53611042D01*
X63002550Y-53536468D01*
X63231607Y-53453545D01*
X63490363Y-53360255D01*
X63784253Y-53254582D01*
X64118713Y-53134508D01*
X64128772Y-53130906D01*
X64287769Y-53075030D01*
X64480881Y-53008773D01*
X64696459Y-52936038D01*
X64922856Y-52860727D01*
X65148423Y-52786746D01*
X65361513Y-52717996D01*
X65568667Y-52651825D01*
X65813167Y-52573720D01*
X66066774Y-52492701D01*
X66315578Y-52413213D01*
X66545671Y-52339698D01*
X66743142Y-52276602D01*
X66758766Y-52271614D01*
X66962693Y-52207509D01*
X67124394Y-52158907D01*
X67247384Y-52124899D01*
X67335181Y-52104570D01*
X67391300Y-52097011D01*
X67419257Y-52101309D01*
X67420246Y-52101970D01*
X67453066Y-52125349D01*
X67519229Y-52173434D01*
X67613234Y-52242194D01*
X67729577Y-52327597D01*
X67862759Y-52425611D01*
X68007275Y-52532205D01*
X68007559Y-52532414D01*
X68155935Y-52641888D01*
X68296463Y-52745411D01*
X68422857Y-52838366D01*
X68528829Y-52916134D01*
X68608097Y-52974097D01*
X68654375Y-53007638D01*
X68690644Y-53034389D01*
X68737003Y-53071962D01*
X68755173Y-53091939D01*
X68754687Y-53093378D01*
X68727965Y-53105931D01*
X68672942Y-53118907D01*
X68651723Y-53123520D01*
X68577797Y-53142849D01*
X68465007Y-53174562D01*
X68318443Y-53217115D01*
X68143197Y-53268963D01*
X67944360Y-53328560D01*
X67727024Y-53394363D01*
X67496279Y-53464826D01*
X67257219Y-53538405D01*
X67014934Y-53613554D01*
X66774515Y-53688728D01*
X66541055Y-53762383D01*
X66319644Y-53832973D01*
X65891086Y-53971737D01*
X64410316Y-54472079D01*
X62958028Y-54996262D01*
X61521459Y-55549155D01*
X60087845Y-56135627D01*
X58644419Y-56760547D01*
X58496240Y-56826642D01*
X57552040Y-57258150D01*
X56619502Y-57702076D01*
X55701940Y-58156543D01*
X54802673Y-58619672D01*
X53925015Y-59089586D01*
X53072286Y-59564406D01*
X52247802Y-60042254D01*
X51454879Y-60521253D01*
X50696835Y-60999523D01*
X49976986Y-61475186D01*
X49298650Y-61946365D01*
X48665143Y-62411181D01*
X48394575Y-62616550D01*
X48101784Y-62841561D01*
X47838328Y-63047888D01*
X47598347Y-63240569D01*
X47375980Y-63424643D01*
X47165368Y-63605148D01*
X46960646Y-63787124D01*
X46755956Y-63975606D01*
X46545436Y-64175635D01*
X46323226Y-64392248D01*
X46083462Y-64630484D01*
X46024990Y-64689065D01*
X45807548Y-64908194D01*
X45619952Y-65099961D01*
X45457766Y-65269443D01*
X45316554Y-65421717D01*
X45191881Y-65561861D01*
X45079309Y-65694954D01*
X44974404Y-65826071D01*
X44872730Y-65960292D01*
X44769850Y-66102693D01*
X44661329Y-66258353D01*
X44590639Y-66362232D01*
X44405865Y-66647792D01*
X44251253Y-66911387D01*
X44122450Y-67161260D01*
X44015104Y-67405651D01*
X43924861Y-67652801D01*
X43874343Y-67817693D01*
X43796268Y-68166412D01*
X43763377Y-68497384D01*
X43775723Y-68811302D01*
X43833364Y-69108857D01*
X43936353Y-69390738D01*
X44084747Y-69657641D01*
X44165776Y-69767993D01*
X44293068Y-69915128D01*
X44439824Y-70064132D01*
X44593567Y-70202474D01*
X44741819Y-70317618D01*
X44827956Y-70375902D01*
X45135945Y-70554304D01*
X45487764Y-70717238D01*
X45881333Y-70864185D01*
X46314571Y-70994625D01*
X46785398Y-71108040D01*
X47291733Y-71203909D01*
X47831499Y-71281714D01*
X48402613Y-71340937D01*
X49002996Y-71381057D01*
X49424312Y-71396671D01*
X50085629Y-71402524D01*
X50783784Y-71387976D01*
X51514479Y-71353484D01*
X52273419Y-71299512D01*
X53056305Y-71226518D01*
X53858842Y-71134964D01*
X54676733Y-71025310D01*
X55505682Y-70898018D01*
X56341391Y-70753546D01*
X57179566Y-70592357D01*
X58015909Y-70414909D01*
X58039214Y-70409728D01*
X58213162Y-70371065D01*
X58387560Y-70332318D01*
X58550376Y-70296160D01*
X58689576Y-70265261D01*
X58793129Y-70242296D01*
X58803920Y-70239901D01*
X59110972Y-70169223D01*
X59457639Y-70085109D01*
X59837401Y-69989356D01*
X60243732Y-69883760D01*
X60670110Y-69770116D01*
X61110011Y-69650221D01*
X61556911Y-69525871D01*
X62004288Y-69398860D01*
X62445616Y-69270987D01*
X62874374Y-69144046D01*
X63284037Y-69019834D01*
X63668081Y-68900147D01*
X64781981Y-68539228D01*
X66266764Y-68031637D01*
X67724192Y-67502654D01*
X69152278Y-66953169D01*
X70549037Y-66384068D01*
X71912481Y-65796238D01*
X73240626Y-65190566D01*
X74531485Y-64567939D01*
X75783075Y-63929244D01*
X76993405Y-63275368D01*
X78160494Y-62607199D01*
X79282354Y-61925622D01*
X79644425Y-61696023D01*
X80328669Y-61245775D01*
X80984924Y-60792032D01*
X81611609Y-60336211D01*
X82207147Y-59879727D01*
X82769958Y-59424003D01*
X83298463Y-58970456D01*
X83791085Y-58520505D01*
X84246243Y-58075567D01*
X84662359Y-57637062D01*
X85037854Y-57206407D01*
X85371150Y-56785022D01*
X85660667Y-56374325D01*
X85904826Y-55975735D01*
X85973258Y-55850570D01*
X86152043Y-55475863D01*
X86285442Y-55112891D01*
X86373444Y-54762417D01*
X86416039Y-54425202D01*
X86413216Y-54102011D01*
X86364963Y-53793607D01*
X86271270Y-53500751D01*
X86132127Y-53224209D01*
X85947522Y-52964741D01*
X85914771Y-52925809D01*
X85719825Y-52719812D01*
X85505081Y-52536404D01*
X85264772Y-52371986D01*
X84993132Y-52222959D01*
X84684396Y-52085720D01*
X84332795Y-51956673D01*
X84182027Y-51907581D01*
X83794124Y-51795877D01*
X83387926Y-51699800D01*
X82957546Y-51618314D01*
X82497102Y-51550380D01*
X82000711Y-51494965D01*
X81462486Y-51451031D01*
X81418636Y-51448249D01*
X81241007Y-51440085D01*
X81024977Y-51433873D01*
X80778585Y-51429583D01*
X80509864Y-51427186D01*
X80226855Y-51426654D01*
X79937591Y-51427960D01*
X79650111Y-51431072D01*
X79372451Y-51435962D01*
X79112648Y-51442603D01*
X78878739Y-51450963D01*
X78678760Y-51461015D01*
X78346185Y-51482597D01*
X77110139Y-51588380D01*
X75863464Y-51734544D01*
X74617168Y-51919674D01*
X73382260Y-52142352D01*
X72932771Y-52230735D01*
X72237107Y-51731350D01*
X72095332Y-51629246D01*
X71944847Y-51520080D01*
X71811626Y-51422599D01*
X71700174Y-51340134D01*
X71614991Y-51276020D01*
X71560581Y-51233590D01*
X71541443Y-51216179D01*
X71544198Y-51214020D01*
X71582604Y-51202129D01*
X71662323Y-51182734D01*
X71778343Y-51156841D01*
X71925649Y-51125457D01*
X72099226Y-51089589D01*
X72294060Y-51050240D01*
X72505137Y-51008419D01*
X72727442Y-50965131D01*
X72955961Y-50921381D01*
X73185680Y-50878176D01*
X73411585Y-50836522D01*
X73628660Y-50797426D01*
X74538191Y-50646008D01*
X75661291Y-50487509D01*
X76767214Y-50363215D01*
X77851930Y-50273509D01*
X78911406Y-50218771D01*
X79941610Y-50199384D01*
X80294887Y-50200226D01*
G37*
%TD*%
M02*
