M48
; DRILL file {KiCad 7.0.10} date Tue Jun 24 15:40:30 2025
; FORMAT={-:-/ absolute / metric / decimal}
; #@! TF.CreationDate,2025-06-24T15:40:30+02:00
; #@! TF.GenerationSoftware,Kicad,Pcbnew,7.0.10
; #@! TF.FileFunction,Plated,1,2,PTH
FMAT,2
METRIC
; #@! TA.AperFunction,Plated,PTH,ComponentDrill
T1C1.000
; #@! TA.AperFunction,Plated,PTH,ComponentDrill
T2C1.340
; #@! TA.AperFunction,Plated,PTH,ComponentDrill
T3C1.400
; #@! TA.AperFunction,Plated,PTH,ComponentDrill
T4C1.830
%
G90
G05
T1
X22.1Y-58.6
X22.1Y-61.14
X22.1Y-63.68
X22.1Y-66.22
X22.1Y-68.76
X22.1Y-71.3
X37.34Y-58.6
X37.34Y-61.14
X37.34Y-63.68
X37.34Y-66.22
X37.34Y-68.76
X37.34Y-71.3
X58.6Y-92.46
X58.6Y-107.7
X61.14Y-92.46
X61.14Y-107.7
X63.68Y-92.46
X63.68Y-107.7
X66.22Y-92.46
X66.22Y-107.7
X68.76Y-92.46
X68.76Y-107.7
X71.3Y-92.46
X71.3Y-107.7
X88.849Y-48.913
X90.645Y-50.709
X92.441Y-52.506
X94.237Y-54.302
X96.033Y-56.098
T2
X21.616Y-27.675
X24.303Y-30.362
X27.725Y-21.566
X30.412Y-24.253
X99.338Y-105.547
X102.025Y-108.234
X105.447Y-99.438
X108.134Y-102.125
T3
X44.61Y-37.348
X49.91Y-36.362
X50.896Y-31.062
T4
X87.528Y-77.572
X91.12Y-73.98
X94.712Y-81.164
M30
